G04 EAGLE Gerber RS-274X export*
G75*
%MOMM*%
%FSLAX34Y34*%
%LPD*%
%INBottom Copper*%
%IPPOS*%
%AMOC8*
5,1,8,0,0,1.08239X$1,22.5*%
G01*
%ADD10C,0.177800*%
%ADD11C,0.800000*%
%ADD12C,0.800000*%

G36*
X113454Y3814D02*
X113454Y3814D01*
X113480Y3812D01*
X113627Y3834D01*
X113774Y3851D01*
X113799Y3859D01*
X113825Y3863D01*
X113963Y3918D01*
X114102Y3968D01*
X114124Y3982D01*
X114149Y3992D01*
X114270Y4077D01*
X114395Y4157D01*
X114413Y4176D01*
X114435Y4191D01*
X114534Y4301D01*
X114637Y4408D01*
X114651Y4430D01*
X114668Y4450D01*
X114740Y4580D01*
X114816Y4707D01*
X114824Y4732D01*
X114837Y4755D01*
X114877Y4898D01*
X114922Y5039D01*
X114924Y5065D01*
X114932Y5090D01*
X114951Y5334D01*
X114951Y7520D01*
X116833Y9402D01*
X116912Y9501D01*
X116997Y9595D01*
X117020Y9637D01*
X117050Y9675D01*
X117104Y9789D01*
X117165Y9900D01*
X117178Y9947D01*
X117199Y9990D01*
X117225Y10114D01*
X117260Y10236D01*
X117265Y10296D01*
X117272Y10331D01*
X117271Y10379D01*
X117280Y10479D01*
X117280Y13969D01*
X117274Y14018D01*
X117270Y14137D01*
X117118Y15509D01*
X117131Y15530D01*
X117145Y15570D01*
X117165Y15607D01*
X117201Y15735D01*
X117244Y15860D01*
X117245Y15867D01*
X118219Y16842D01*
X118250Y16881D01*
X118331Y16967D01*
X119194Y18045D01*
X119218Y18051D01*
X119256Y18070D01*
X119297Y18081D01*
X119412Y18146D01*
X119531Y18204D01*
X119537Y18209D01*
X120915Y18209D01*
X120964Y18214D01*
X121083Y18218D01*
X122456Y18371D01*
X122476Y18357D01*
X122516Y18344D01*
X122554Y18323D01*
X122681Y18287D01*
X122806Y18244D01*
X122814Y18243D01*
X123788Y17269D01*
X123827Y17238D01*
X123913Y17157D01*
X127433Y14341D01*
X127518Y14288D01*
X127597Y14227D01*
X127665Y14196D01*
X127728Y14156D01*
X127823Y14124D01*
X127914Y14082D01*
X127987Y14067D01*
X128058Y14043D01*
X128157Y14033D01*
X128256Y14013D01*
X128330Y14015D01*
X128404Y14008D01*
X128504Y14020D01*
X128604Y14024D01*
X128676Y14043D01*
X128750Y14052D01*
X128844Y14087D01*
X128941Y14113D01*
X129007Y14148D01*
X129076Y14174D01*
X129160Y14229D01*
X129249Y14277D01*
X129305Y14326D01*
X129367Y14367D01*
X129436Y14440D01*
X129511Y14506D01*
X129555Y14566D01*
X129606Y14621D01*
X129656Y14707D01*
X129715Y14789D01*
X129743Y14858D01*
X129781Y14922D01*
X129810Y15018D01*
X129848Y15111D01*
X129861Y15184D01*
X129882Y15255D01*
X129889Y15355D01*
X129906Y15455D01*
X129905Y15486D01*
X129932Y15530D01*
X129946Y15570D01*
X129967Y15607D01*
X130003Y15735D01*
X130046Y15860D01*
X130046Y15867D01*
X131021Y16841D01*
X131052Y16881D01*
X131133Y16967D01*
X131996Y18045D01*
X132020Y18051D01*
X132058Y18070D01*
X132099Y18081D01*
X132214Y18146D01*
X132333Y18204D01*
X132339Y18209D01*
X133716Y18209D01*
X133766Y18214D01*
X133885Y18218D01*
X135257Y18371D01*
X135278Y18357D01*
X135318Y18344D01*
X135355Y18323D01*
X135483Y18287D01*
X135608Y18244D01*
X135615Y18243D01*
X136589Y17269D01*
X136629Y17238D01*
X136715Y17157D01*
X138497Y15731D01*
X138592Y15672D01*
X138682Y15604D01*
X138739Y15579D01*
X138792Y15546D01*
X138898Y15510D01*
X139002Y15465D01*
X139063Y15453D01*
X139122Y15433D01*
X139234Y15422D01*
X139344Y15401D01*
X139406Y15404D01*
X139468Y15398D01*
X139580Y15412D01*
X139692Y15417D01*
X139771Y15437D01*
X139814Y15442D01*
X139854Y15457D01*
X139930Y15476D01*
X140688Y15728D01*
X141567Y15289D01*
X141624Y15268D01*
X141676Y15239D01*
X141787Y15209D01*
X141895Y15170D01*
X141954Y15162D01*
X142012Y15146D01*
X142127Y15142D01*
X142241Y15128D01*
X142300Y15135D01*
X142360Y15132D01*
X142473Y15154D01*
X142587Y15166D01*
X142644Y15186D01*
X142703Y15197D01*
X142891Y15273D01*
X142916Y15282D01*
X142921Y15285D01*
X142930Y15289D01*
X143809Y15728D01*
X144184Y15603D01*
X144279Y15583D01*
X144371Y15554D01*
X144449Y15548D01*
X144525Y15532D01*
X144622Y15534D01*
X144718Y15526D01*
X144796Y15538D01*
X144874Y15539D01*
X144967Y15563D01*
X145063Y15578D01*
X145136Y15607D01*
X145211Y15626D01*
X145297Y15671D01*
X145387Y15706D01*
X145451Y15751D01*
X145520Y15787D01*
X145594Y15850D01*
X145673Y15905D01*
X145725Y15963D01*
X145785Y16014D01*
X145842Y16092D01*
X145906Y16164D01*
X145944Y16233D01*
X145990Y16296D01*
X146028Y16385D01*
X146075Y16469D01*
X146096Y16544D01*
X146127Y16616D01*
X146143Y16712D01*
X146170Y16805D01*
X146178Y16911D01*
X146187Y16960D01*
X146185Y16993D01*
X146189Y17048D01*
X146189Y25817D01*
X146178Y25916D01*
X146176Y26017D01*
X146158Y26089D01*
X146149Y26163D01*
X146116Y26257D01*
X146091Y26355D01*
X146057Y26421D01*
X146032Y26491D01*
X145977Y26575D01*
X145931Y26665D01*
X145883Y26721D01*
X145843Y26784D01*
X145771Y26853D01*
X145705Y26930D01*
X145646Y26974D01*
X145592Y27026D01*
X145506Y27077D01*
X145425Y27137D01*
X145357Y27167D01*
X145293Y27205D01*
X145198Y27235D01*
X145105Y27275D01*
X145032Y27288D01*
X144961Y27311D01*
X144861Y27319D01*
X144762Y27337D01*
X144688Y27333D01*
X144614Y27339D01*
X144515Y27324D01*
X144414Y27319D01*
X144343Y27298D01*
X144269Y27287D01*
X144176Y27250D01*
X144079Y27222D01*
X144014Y27186D01*
X144010Y27184D01*
X140578Y27184D01*
X140496Y27249D01*
X140469Y27262D01*
X140445Y27279D01*
X140312Y27336D01*
X140181Y27398D01*
X140152Y27404D01*
X140125Y27416D01*
X139982Y27441D01*
X139840Y27471D01*
X139811Y27471D01*
X139782Y27476D01*
X139637Y27468D01*
X139492Y27466D01*
X139463Y27458D01*
X139434Y27457D01*
X139295Y27416D01*
X139154Y27381D01*
X139127Y27367D01*
X139099Y27359D01*
X138973Y27287D01*
X138844Y27221D01*
X138821Y27202D01*
X138796Y27187D01*
X138610Y27028D01*
X138541Y26958D01*
X135279Y26944D01*
X134121Y28093D01*
X133954Y28258D01*
X133936Y28272D01*
X133921Y28290D01*
X133799Y28380D01*
X133680Y28473D01*
X133659Y28483D01*
X133641Y28497D01*
X133502Y28557D01*
X133364Y28621D01*
X133342Y28626D01*
X133321Y28635D01*
X133172Y28662D01*
X133023Y28693D01*
X133000Y28693D01*
X132978Y28697D01*
X132826Y28689D01*
X132675Y28686D01*
X132653Y28680D01*
X132630Y28679D01*
X132484Y28637D01*
X132337Y28599D01*
X132317Y28589D01*
X132295Y28582D01*
X132162Y28508D01*
X132028Y28438D01*
X132011Y28423D01*
X131991Y28412D01*
X131804Y28254D01*
X130502Y26951D01*
X127240Y26951D01*
X125358Y28833D01*
X125259Y28912D01*
X125165Y28997D01*
X125123Y29020D01*
X125085Y29050D01*
X124971Y29104D01*
X124860Y29165D01*
X124813Y29178D01*
X124770Y29199D01*
X124646Y29226D01*
X124524Y29260D01*
X124464Y29265D01*
X124429Y29272D01*
X124381Y29272D01*
X124281Y29280D01*
X118858Y29280D01*
X116551Y31586D01*
X116551Y34848D01*
X117145Y35443D01*
X117162Y35463D01*
X117182Y35480D01*
X117270Y35599D01*
X117362Y35716D01*
X117373Y35739D01*
X117389Y35760D01*
X117448Y35896D01*
X117511Y36031D01*
X117517Y36056D01*
X117527Y36080D01*
X117553Y36226D01*
X117584Y36371D01*
X117584Y36398D01*
X117589Y36423D01*
X117581Y36572D01*
X117578Y36720D01*
X117572Y36745D01*
X117571Y36771D01*
X117530Y36914D01*
X117493Y37058D01*
X117481Y37081D01*
X117474Y37106D01*
X117402Y37236D01*
X117334Y37368D01*
X117317Y37388D01*
X117304Y37411D01*
X117145Y37597D01*
X116551Y38191D01*
X116551Y41467D01*
X116604Y41537D01*
X116699Y41657D01*
X116708Y41677D01*
X116722Y41695D01*
X116783Y41835D01*
X116848Y41972D01*
X116852Y41994D01*
X116861Y42015D01*
X116889Y42164D01*
X116921Y42313D01*
X116921Y42335D01*
X116925Y42357D01*
X116918Y42509D01*
X116915Y42661D01*
X116910Y42683D01*
X116909Y42705D01*
X116850Y42943D01*
X116238Y44781D01*
X116527Y45360D01*
X116572Y45483D01*
X116623Y45602D01*
X116631Y45646D01*
X116646Y45688D01*
X116662Y45817D01*
X116685Y45945D01*
X116683Y45990D01*
X116688Y46034D01*
X116674Y46163D01*
X116667Y46293D01*
X116655Y46336D01*
X116650Y46380D01*
X116607Y46503D01*
X116571Y46628D01*
X116551Y46663D01*
X116551Y56438D01*
X116637Y56524D01*
X116653Y56545D01*
X116673Y56562D01*
X116762Y56681D01*
X116854Y56797D01*
X116865Y56821D01*
X116881Y56842D01*
X116939Y56978D01*
X117003Y57112D01*
X117008Y57138D01*
X117019Y57162D01*
X117045Y57309D01*
X117076Y57453D01*
X117076Y57479D01*
X117080Y57505D01*
X117073Y57654D01*
X117070Y57801D01*
X117064Y57827D01*
X117062Y57853D01*
X117021Y57995D01*
X116985Y58139D01*
X116973Y58163D01*
X116966Y58188D01*
X116893Y58317D01*
X116825Y58449D01*
X116808Y58469D01*
X116796Y58492D01*
X116637Y58678D01*
X116551Y58764D01*
X116551Y62041D01*
X116602Y62110D01*
X116695Y62226D01*
X116706Y62250D01*
X116721Y62271D01*
X116780Y62407D01*
X116843Y62541D01*
X116849Y62567D01*
X116859Y62591D01*
X116886Y62737D01*
X116917Y62882D01*
X116916Y62908D01*
X116921Y62934D01*
X116913Y63082D01*
X116911Y63230D01*
X116904Y63256D01*
X116903Y63282D01*
X116862Y63424D01*
X116826Y63568D01*
X116814Y63591D01*
X116807Y63617D01*
X116734Y63746D01*
X116666Y63878D01*
X116649Y63898D01*
X116636Y63921D01*
X116551Y64021D01*
X116551Y71021D01*
X116756Y71226D01*
X116805Y71287D01*
X116861Y71342D01*
X116913Y71423D01*
X116973Y71499D01*
X117006Y71570D01*
X117048Y71635D01*
X117080Y71727D01*
X117122Y71814D01*
X117138Y71890D01*
X117164Y71964D01*
X117175Y72060D01*
X117195Y72155D01*
X117194Y72233D01*
X117202Y72310D01*
X117191Y72407D01*
X117189Y72503D01*
X117170Y72579D01*
X117161Y72656D01*
X117116Y72795D01*
X117104Y72841D01*
X117095Y72859D01*
X117085Y72889D01*
X116708Y73796D01*
X116707Y73796D01*
X116707Y73797D01*
X116609Y73972D01*
X116551Y74075D01*
X116551Y75745D01*
X116551Y77386D01*
X116562Y77400D01*
X116618Y77454D01*
X116702Y77575D01*
X116731Y77612D01*
X116739Y77630D01*
X116757Y77655D01*
X117125Y78293D01*
X117126Y78295D01*
X117127Y78296D01*
X117191Y78445D01*
X117264Y78613D01*
X117264Y78615D01*
X117265Y78616D01*
X117295Y78785D01*
X117326Y78956D01*
X117326Y78957D01*
X117326Y78959D01*
X117317Y79132D01*
X117309Y79304D01*
X117308Y79306D01*
X117308Y79307D01*
X117262Y79466D01*
X117213Y79639D01*
X117212Y79641D01*
X117212Y79642D01*
X117131Y79786D01*
X117043Y79944D01*
X117042Y79945D01*
X117042Y79946D01*
X116883Y80132D01*
X116551Y80464D01*
X116551Y83980D01*
X116553Y83985D01*
X116579Y84131D01*
X116610Y84275D01*
X116610Y84301D01*
X116615Y84328D01*
X116607Y84475D01*
X116604Y84623D01*
X116598Y84649D01*
X116597Y84676D01*
X116556Y84818D01*
X116551Y84835D01*
X116551Y88383D01*
X118858Y90690D01*
X130268Y90690D01*
X130294Y90693D01*
X130320Y90690D01*
X130467Y90712D01*
X130614Y90729D01*
X130639Y90738D01*
X130665Y90742D01*
X130803Y90797D01*
X130942Y90847D01*
X130964Y90861D01*
X130989Y90871D01*
X131110Y90955D01*
X131235Y91036D01*
X131253Y91055D01*
X131275Y91070D01*
X131374Y91180D01*
X131477Y91287D01*
X131491Y91309D01*
X131508Y91329D01*
X131580Y91458D01*
X131656Y91586D01*
X131664Y91611D01*
X131677Y91634D01*
X131717Y91777D01*
X131762Y91918D01*
X131764Y91944D01*
X131772Y91969D01*
X131791Y92213D01*
X131791Y96130D01*
X131950Y96288D01*
X131950Y96289D01*
X131952Y96290D01*
X132059Y96426D01*
X132166Y96561D01*
X132167Y96563D01*
X132168Y96564D01*
X132236Y96708D01*
X132315Y96876D01*
X132315Y96878D01*
X132316Y96879D01*
X132349Y97035D01*
X132389Y97217D01*
X132388Y97218D01*
X132389Y97220D01*
X132385Y97395D01*
X132383Y97565D01*
X132382Y97567D01*
X132382Y97568D01*
X132340Y97735D01*
X132298Y97903D01*
X132297Y97905D01*
X132297Y97906D01*
X132192Y98127D01*
X131996Y98465D01*
X131951Y98527D01*
X131913Y98594D01*
X131817Y98707D01*
X131791Y98741D01*
X131791Y103868D01*
X133750Y105827D01*
X133767Y105848D01*
X133787Y105865D01*
X133875Y105984D01*
X133967Y106100D01*
X133978Y106124D01*
X133994Y106145D01*
X134053Y106281D01*
X134116Y106415D01*
X134121Y106441D01*
X134132Y106465D01*
X134158Y106611D01*
X134189Y106756D01*
X134189Y106782D01*
X134193Y106808D01*
X134186Y106957D01*
X134183Y107105D01*
X134177Y107130D01*
X134176Y107156D01*
X134134Y107299D01*
X134098Y107443D01*
X134086Y107466D01*
X134079Y107491D01*
X134006Y107621D01*
X133939Y107752D01*
X133922Y107772D01*
X133909Y107795D01*
X133750Y107982D01*
X131791Y109941D01*
X131791Y111638D01*
X131791Y115936D01*
X133112Y117754D01*
X133152Y117825D01*
X133200Y117890D01*
X133237Y117976D01*
X133283Y118058D01*
X133306Y118136D01*
X133338Y118210D01*
X133355Y118302D01*
X133381Y118392D01*
X133386Y118473D01*
X133400Y118553D01*
X133395Y118647D01*
X133400Y118740D01*
X133386Y118820D01*
X133382Y118901D01*
X133356Y118991D01*
X133340Y119083D01*
X133308Y119158D01*
X133286Y119236D01*
X133240Y119318D01*
X133203Y119404D01*
X133155Y119469D01*
X133115Y119540D01*
X133026Y119645D01*
X132997Y119685D01*
X132980Y119700D01*
X132957Y119727D01*
X131791Y120892D01*
X131791Y124154D01*
X134098Y126461D01*
X138420Y126461D01*
X138592Y126481D01*
X138759Y126499D01*
X138762Y126500D01*
X138766Y126501D01*
X138928Y126559D01*
X139088Y126615D01*
X139091Y126617D01*
X139094Y126618D01*
X139106Y126626D01*
X139298Y126740D01*
X143173Y129475D01*
X144407Y129262D01*
X144563Y129253D01*
X144718Y129241D01*
X144737Y129243D01*
X144755Y129242D01*
X144908Y129269D01*
X145063Y129292D01*
X145080Y129299D01*
X145098Y129303D01*
X145242Y129363D01*
X145387Y129421D01*
X145402Y129432D01*
X145419Y129439D01*
X145545Y129531D01*
X145673Y129620D01*
X145685Y129634D01*
X145700Y129645D01*
X145802Y129763D01*
X145906Y129879D01*
X145915Y129895D01*
X145927Y129909D01*
X146000Y130048D01*
X146075Y130184D01*
X146080Y130202D01*
X146089Y130218D01*
X146127Y130369D01*
X146170Y130519D01*
X146171Y130542D01*
X146175Y130556D01*
X146176Y130599D01*
X146189Y130763D01*
X146189Y175000D01*
X146184Y175048D01*
X146182Y175149D01*
X145996Y177035D01*
X145975Y177135D01*
X145963Y177236D01*
X145933Y177329D01*
X145923Y177376D01*
X145907Y177409D01*
X145888Y177469D01*
X144444Y180953D01*
X144443Y180955D01*
X144443Y180957D01*
X144360Y181105D01*
X144275Y181258D01*
X144274Y181259D01*
X144273Y181261D01*
X144114Y181447D01*
X141447Y184114D01*
X141446Y184115D01*
X141444Y184117D01*
X141306Y184226D01*
X141174Y184331D01*
X141172Y184332D01*
X141171Y184333D01*
X140953Y184444D01*
X137469Y185888D01*
X137371Y185916D01*
X137276Y185953D01*
X137180Y185970D01*
X137134Y185983D01*
X137097Y185985D01*
X137035Y185996D01*
X135149Y186182D01*
X135101Y186181D01*
X135000Y186189D01*
X15000Y186189D01*
X14952Y186184D01*
X14851Y186182D01*
X12965Y185996D01*
X12865Y185975D01*
X12764Y185963D01*
X12671Y185933D01*
X12624Y185923D01*
X12591Y185907D01*
X12531Y185888D01*
X9047Y184444D01*
X9045Y184443D01*
X9043Y184443D01*
X8891Y184357D01*
X8742Y184275D01*
X8741Y184274D01*
X8739Y184273D01*
X8553Y184114D01*
X5886Y181447D01*
X5885Y181446D01*
X5883Y181444D01*
X5776Y181309D01*
X5669Y181174D01*
X5668Y181172D01*
X5667Y181171D01*
X5556Y180953D01*
X4112Y177469D01*
X4084Y177371D01*
X4047Y177276D01*
X4030Y177180D01*
X4017Y177134D01*
X4015Y177097D01*
X4004Y177035D01*
X3818Y175149D01*
X3819Y175101D01*
X3811Y175000D01*
X3811Y142970D01*
X3814Y142944D01*
X3812Y142918D01*
X3834Y142771D01*
X3851Y142624D01*
X3859Y142599D01*
X3863Y142573D01*
X3918Y142436D01*
X3968Y142296D01*
X3982Y142274D01*
X3992Y142250D01*
X4077Y142128D01*
X4157Y142003D01*
X4176Y141985D01*
X4191Y141963D01*
X4301Y141864D01*
X4408Y141761D01*
X4430Y141748D01*
X4450Y141730D01*
X4580Y141658D01*
X4707Y141582D01*
X4732Y141574D01*
X4755Y141561D01*
X4898Y141521D01*
X5039Y141476D01*
X5065Y141474D01*
X5090Y141467D01*
X5334Y141447D01*
X12758Y141447D01*
X12872Y141460D01*
X12987Y141464D01*
X13045Y141480D01*
X13105Y141487D01*
X13213Y141526D01*
X13323Y141556D01*
X13393Y141590D01*
X13433Y141604D01*
X13469Y141628D01*
X13542Y141664D01*
X13644Y141725D01*
X14574Y141493D01*
X14638Y141484D01*
X14699Y141467D01*
X14885Y141452D01*
X14919Y141447D01*
X14929Y141448D01*
X14943Y141447D01*
X15902Y141447D01*
X15986Y141363D01*
X16075Y141292D01*
X16159Y141214D01*
X16212Y141184D01*
X16259Y141147D01*
X16362Y141098D01*
X16462Y141041D01*
X16535Y141016D01*
X16574Y140998D01*
X16617Y140989D01*
X16694Y140963D01*
X16808Y140934D01*
X17302Y140112D01*
X17341Y140061D01*
X17372Y140005D01*
X17442Y139923D01*
X17460Y139896D01*
X17478Y139880D01*
X17493Y139863D01*
X17514Y139835D01*
X17522Y139829D01*
X17531Y139818D01*
X18209Y139140D01*
X18209Y139022D01*
X18222Y138908D01*
X18226Y138794D01*
X18242Y138735D01*
X18249Y138676D01*
X18287Y138568D01*
X18317Y138457D01*
X18352Y138388D01*
X18366Y138348D01*
X18390Y138311D01*
X18426Y138238D01*
X18487Y138137D01*
X18254Y137206D01*
X18246Y137143D01*
X18228Y137081D01*
X18213Y136895D01*
X18209Y136861D01*
X18210Y136851D01*
X18209Y136837D01*
X18209Y135878D01*
X18125Y135795D01*
X18099Y135761D01*
X18089Y135753D01*
X18047Y135697D01*
X17966Y135608D01*
X17959Y135595D01*
X17954Y135589D01*
X17936Y135557D01*
X17908Y135522D01*
X17892Y135486D01*
X17882Y135472D01*
X17851Y135402D01*
X17796Y135304D01*
X17791Y135289D01*
X17788Y135282D01*
X17780Y135255D01*
X17776Y135241D01*
X17759Y135206D01*
X17752Y135172D01*
X17743Y135152D01*
X17739Y135129D01*
X17720Y135071D01*
X17720Y135069D01*
X17712Y135007D01*
X17696Y134946D01*
X17694Y134904D01*
X17686Y134866D01*
X17687Y134836D01*
X17682Y134809D01*
X17684Y134769D01*
X17678Y134723D01*
X17685Y134661D01*
X17683Y134598D01*
X17692Y134543D01*
X17692Y134517D01*
X17698Y134493D01*
X17700Y134461D01*
X17710Y134425D01*
X17713Y134408D01*
X17716Y134377D01*
X17719Y134369D01*
X17721Y134356D01*
X17722Y134354D01*
X17757Y134257D01*
X17777Y134179D01*
X17786Y134161D01*
X17796Y134127D01*
X17819Y134087D01*
X17832Y134048D01*
X17837Y134040D01*
X17842Y134027D01*
X17904Y133934D01*
X17937Y133869D01*
X17947Y133857D01*
X17966Y133822D01*
X18006Y133776D01*
X18020Y133754D01*
X18025Y133749D01*
X18034Y133736D01*
X18067Y133705D01*
X18125Y133636D01*
X18209Y133552D01*
X18209Y132594D01*
X18216Y132530D01*
X18214Y132465D01*
X18245Y132282D01*
X18249Y132247D01*
X18252Y132238D01*
X18254Y132224D01*
X18487Y131294D01*
X18426Y131192D01*
X18379Y131088D01*
X18323Y130988D01*
X18307Y130930D01*
X18282Y130875D01*
X18260Y130763D01*
X18228Y130653D01*
X18222Y130575D01*
X18214Y130533D01*
X18215Y130490D01*
X18209Y130409D01*
X18209Y130290D01*
X17731Y129812D01*
X17720Y129799D01*
X17708Y129789D01*
X17612Y129663D01*
X17514Y129539D01*
X17507Y129524D01*
X17497Y129511D01*
X17433Y129367D01*
X17365Y129224D01*
X17362Y129208D01*
X17355Y129193D01*
X17325Y129037D01*
X17320Y129016D01*
X17319Y129012D01*
X17319Y129010D01*
X17292Y128883D01*
X17292Y128867D01*
X17289Y128851D01*
X17294Y128706D01*
X17291Y128665D01*
X17296Y128633D01*
X17298Y128535D01*
X17302Y128519D01*
X17302Y128502D01*
X17338Y128352D01*
X17343Y128320D01*
X17350Y128303D01*
X17359Y128264D01*
X18531Y124657D01*
X17604Y121804D01*
X17601Y121787D01*
X17594Y121772D01*
X17566Y121616D01*
X17535Y121462D01*
X17535Y121445D01*
X17533Y121429D01*
X17541Y121271D01*
X17545Y121114D01*
X17550Y121098D01*
X17550Y121081D01*
X17594Y120929D01*
X17635Y120777D01*
X17642Y120762D01*
X17647Y120746D01*
X17724Y120609D01*
X17798Y120469D01*
X17809Y120457D01*
X17817Y120442D01*
X17976Y120256D01*
X18209Y120023D01*
X18209Y118791D01*
X18209Y116586D01*
X18209Y114888D01*
X18198Y114874D01*
X18142Y114821D01*
X18059Y114699D01*
X18029Y114662D01*
X18021Y114644D01*
X18004Y114619D01*
X16655Y112283D01*
X15616Y111683D01*
X15556Y111638D01*
X15489Y111601D01*
X15416Y111535D01*
X15336Y111476D01*
X15287Y111418D01*
X15231Y111367D01*
X15175Y111286D01*
X15111Y111210D01*
X15076Y111143D01*
X15033Y111080D01*
X14997Y110988D01*
X14952Y110900D01*
X14934Y110826D01*
X14906Y110756D01*
X14892Y110658D01*
X14868Y110562D01*
X14866Y110486D01*
X14855Y110411D01*
X14864Y110312D01*
X14862Y110213D01*
X14878Y110139D01*
X14885Y110064D01*
X14915Y109970D01*
X14936Y109873D01*
X14969Y109804D01*
X14992Y109732D01*
X15043Y109647D01*
X15086Y109558D01*
X15133Y109499D01*
X15172Y109434D01*
X15241Y109363D01*
X15303Y109285D01*
X15362Y109238D01*
X15415Y109184D01*
X15539Y109098D01*
X15576Y109069D01*
X15593Y109061D01*
X15616Y109045D01*
X16530Y108518D01*
X18174Y105670D01*
X18209Y105623D01*
X18209Y100040D01*
X18217Y99965D01*
X18216Y99889D01*
X18237Y99793D01*
X18249Y99694D01*
X18274Y99623D01*
X18290Y99549D01*
X18333Y99460D01*
X18366Y99366D01*
X18407Y99302D01*
X18440Y99234D01*
X18501Y99157D01*
X18555Y99073D01*
X18610Y99021D01*
X18657Y98961D01*
X18735Y98900D01*
X18806Y98831D01*
X18871Y98792D01*
X18930Y98745D01*
X19020Y98703D01*
X19105Y98652D01*
X19177Y98629D01*
X19246Y98597D01*
X19342Y98576D01*
X19437Y98546D01*
X19512Y98540D01*
X19586Y98524D01*
X19686Y98526D01*
X19784Y98518D01*
X19859Y98529D01*
X19935Y98531D01*
X20031Y98555D01*
X20129Y98570D01*
X20199Y98598D01*
X20273Y98616D01*
X20409Y98681D01*
X20453Y98699D01*
X20468Y98709D01*
X20494Y98721D01*
X21082Y99061D01*
X21144Y99107D01*
X21211Y99145D01*
X21324Y99240D01*
X21359Y99266D01*
X24631Y99266D01*
X24652Y99250D01*
X24709Y99192D01*
X24824Y99114D01*
X24862Y99083D01*
X24882Y99074D01*
X24910Y99054D01*
X25703Y98601D01*
X25763Y98576D01*
X25818Y98542D01*
X25922Y98508D01*
X26024Y98464D01*
X26087Y98453D01*
X26149Y98433D01*
X26258Y98423D01*
X26367Y98403D01*
X26431Y98407D01*
X26496Y98401D01*
X26605Y98416D01*
X26715Y98422D01*
X26777Y98440D01*
X26841Y98449D01*
X26944Y98489D01*
X27049Y98520D01*
X27106Y98551D01*
X27166Y98575D01*
X27322Y98673D01*
X27353Y98691D01*
X27360Y98697D01*
X27373Y98705D01*
X27755Y98992D01*
X30984Y98530D01*
X31963Y97225D01*
X32686Y96261D01*
X33122Y94952D01*
X33146Y94901D01*
X33162Y94847D01*
X33220Y94744D01*
X33270Y94636D01*
X33304Y94592D01*
X33332Y94543D01*
X33449Y94406D01*
X33449Y91127D01*
X33438Y91113D01*
X33382Y91059D01*
X33299Y90938D01*
X33269Y90900D01*
X33261Y90882D01*
X33243Y90858D01*
X33129Y90659D01*
X33128Y90657D01*
X33127Y90656D01*
X33056Y90492D01*
X32990Y90339D01*
X32990Y90338D01*
X32989Y90336D01*
X32957Y90155D01*
X32928Y89996D01*
X32928Y89995D01*
X32928Y89993D01*
X32937Y89818D01*
X32945Y89648D01*
X32945Y89646D01*
X32945Y89645D01*
X32991Y89487D01*
X33041Y89313D01*
X33042Y89312D01*
X33042Y89310D01*
X33126Y89160D01*
X33211Y89008D01*
X33212Y89007D01*
X33212Y89006D01*
X33371Y88820D01*
X33449Y88742D01*
X33449Y81754D01*
X32195Y80500D01*
X32178Y80480D01*
X32158Y80463D01*
X32070Y80343D01*
X31978Y80227D01*
X31967Y80204D01*
X31951Y80182D01*
X31892Y80046D01*
X31829Y79912D01*
X31823Y79886D01*
X31813Y79862D01*
X31787Y79716D01*
X31756Y79571D01*
X31756Y79545D01*
X31751Y79519D01*
X31759Y79371D01*
X31762Y79223D01*
X31768Y79198D01*
X31769Y79171D01*
X31810Y79029D01*
X31847Y78885D01*
X31859Y78862D01*
X31866Y78836D01*
X31938Y78707D01*
X32006Y78575D01*
X32023Y78555D01*
X32036Y78532D01*
X32195Y78346D01*
X33531Y77009D01*
X33631Y76930D01*
X33724Y76846D01*
X33767Y76823D01*
X33804Y76792D01*
X33919Y76738D01*
X34029Y76677D01*
X34076Y76664D01*
X34120Y76644D01*
X34243Y76617D01*
X34365Y76583D01*
X34425Y76578D01*
X34460Y76570D01*
X34509Y76571D01*
X34609Y76563D01*
X39060Y76563D01*
X39232Y76583D01*
X39399Y76601D01*
X39402Y76602D01*
X39406Y76603D01*
X39568Y76661D01*
X39728Y76717D01*
X39731Y76719D01*
X39734Y76720D01*
X39746Y76728D01*
X39938Y76842D01*
X43813Y79577D01*
X47027Y79023D01*
X48909Y76358D01*
X48310Y72884D01*
X48302Y72747D01*
X48288Y72610D01*
X48292Y72564D01*
X48290Y72536D01*
X48299Y72487D01*
X48310Y72366D01*
X48909Y68893D01*
X48353Y68106D01*
X48293Y67996D01*
X48226Y67889D01*
X48209Y67843D01*
X48186Y67800D01*
X48152Y67679D01*
X48111Y67560D01*
X48106Y67511D01*
X48093Y67464D01*
X48088Y67339D01*
X48074Y67214D01*
X48080Y67165D01*
X48078Y67116D01*
X48102Y66993D01*
X48117Y66868D01*
X48134Y66822D01*
X48143Y66774D01*
X48194Y66659D01*
X48238Y66541D01*
X48270Y66488D01*
X48285Y66455D01*
X48314Y66417D01*
X48365Y66332D01*
X48689Y65887D01*
X48689Y60043D01*
X46033Y57387D01*
X46011Y57359D01*
X45984Y57335D01*
X45903Y57223D01*
X45817Y57114D01*
X45801Y57082D01*
X45780Y57052D01*
X45727Y56924D01*
X45668Y56799D01*
X45660Y56764D01*
X45646Y56731D01*
X45623Y56593D01*
X45594Y56458D01*
X45595Y56422D01*
X45589Y56387D01*
X45598Y56248D01*
X45600Y56110D01*
X45609Y56075D01*
X45611Y56039D01*
X45651Y55906D01*
X45685Y55772D01*
X45702Y55740D01*
X45712Y55706D01*
X45781Y55585D01*
X45845Y55462D01*
X45868Y55435D01*
X45886Y55404D01*
X45981Y55302D01*
X46071Y55197D01*
X46100Y55175D01*
X46124Y55149D01*
X46239Y55072D01*
X46351Y54989D01*
X46384Y54975D01*
X46414Y54955D01*
X46457Y54937D01*
X48689Y51866D01*
X48689Y43595D01*
X48689Y43594D01*
X48689Y41480D01*
X48689Y39692D01*
X48678Y39678D01*
X48622Y39624D01*
X48538Y39503D01*
X48509Y39465D01*
X48501Y39448D01*
X48484Y39423D01*
X47728Y38114D01*
X47705Y38062D01*
X47675Y38014D01*
X47636Y37902D01*
X47589Y37794D01*
X47579Y37738D01*
X47560Y37685D01*
X47548Y37567D01*
X47527Y37451D01*
X47530Y37395D01*
X47524Y37338D01*
X47538Y37221D01*
X47544Y37103D01*
X47560Y37049D01*
X47567Y36992D01*
X47607Y36881D01*
X47640Y36768D01*
X47667Y36719D01*
X47687Y36665D01*
X47802Y36478D01*
X47810Y36463D01*
X47812Y36461D01*
X47814Y36457D01*
X48689Y35253D01*
X48689Y29258D01*
X46382Y26951D01*
X34738Y26951D01*
X33538Y28151D01*
X33537Y28152D01*
X33536Y28153D01*
X33403Y28258D01*
X33265Y28367D01*
X33264Y28368D01*
X33263Y28369D01*
X33107Y28442D01*
X32950Y28516D01*
X32949Y28517D01*
X32948Y28517D01*
X32768Y28556D01*
X32610Y28590D01*
X32608Y28590D01*
X32607Y28590D01*
X32425Y28587D01*
X32261Y28584D01*
X32260Y28583D01*
X32258Y28583D01*
X32094Y28542D01*
X31923Y28499D01*
X31922Y28498D01*
X31921Y28498D01*
X31700Y28393D01*
X29558Y27157D01*
X29496Y27111D01*
X29429Y27073D01*
X29316Y26977D01*
X29281Y26951D01*
X21351Y26951D01*
X21337Y26962D01*
X21283Y27018D01*
X21162Y27101D01*
X21124Y27131D01*
X21107Y27139D01*
X21082Y27157D01*
X18940Y28393D01*
X18939Y28393D01*
X18938Y28394D01*
X18774Y28465D01*
X18621Y28532D01*
X18619Y28532D01*
X18618Y28532D01*
X18445Y28563D01*
X18278Y28594D01*
X18276Y28594D01*
X18275Y28594D01*
X18104Y28585D01*
X17930Y28577D01*
X17928Y28576D01*
X17927Y28576D01*
X17761Y28528D01*
X17595Y28481D01*
X17593Y28480D01*
X17592Y28480D01*
X17436Y28392D01*
X17290Y28311D01*
X17289Y28310D01*
X17288Y28309D01*
X17102Y28151D01*
X15902Y26951D01*
X6168Y26951D01*
X6094Y26993D01*
X5961Y27072D01*
X5943Y27078D01*
X5926Y27088D01*
X5777Y27131D01*
X5629Y27178D01*
X5610Y27180D01*
X5591Y27185D01*
X5436Y27194D01*
X5282Y27206D01*
X5263Y27204D01*
X5243Y27205D01*
X5090Y27178D01*
X4937Y27155D01*
X4919Y27148D01*
X4900Y27144D01*
X4758Y27083D01*
X4613Y27026D01*
X4597Y27015D01*
X4580Y27007D01*
X4455Y26916D01*
X4327Y26827D01*
X4314Y26813D01*
X4299Y26801D01*
X4198Y26684D01*
X4094Y26568D01*
X4084Y26551D01*
X4072Y26537D01*
X4000Y26399D01*
X3925Y26263D01*
X3920Y26245D01*
X3911Y26228D01*
X3873Y26077D01*
X3830Y25928D01*
X3828Y25905D01*
X3825Y25890D01*
X3824Y25846D01*
X3811Y25684D01*
X3811Y19732D01*
X3814Y19706D01*
X3812Y19680D01*
X3834Y19533D01*
X3851Y19386D01*
X3859Y19361D01*
X3863Y19335D01*
X3918Y19197D01*
X3968Y19058D01*
X3982Y19036D01*
X3992Y19011D01*
X4077Y18890D01*
X4157Y18765D01*
X4176Y18747D01*
X4191Y18725D01*
X4301Y18626D01*
X4408Y18523D01*
X4430Y18509D01*
X4450Y18492D01*
X4580Y18420D01*
X4707Y18344D01*
X4732Y18336D01*
X4755Y18323D01*
X4898Y18283D01*
X5039Y18238D01*
X5065Y18236D01*
X5090Y18228D01*
X5334Y18209D01*
X12177Y18209D01*
X12571Y17814D01*
X12572Y17814D01*
X12573Y17813D01*
X12700Y17712D01*
X12844Y17598D01*
X12845Y17597D01*
X12846Y17596D01*
X12999Y17524D01*
X13159Y17449D01*
X13160Y17449D01*
X13162Y17448D01*
X13335Y17411D01*
X13500Y17376D01*
X13501Y17376D01*
X13502Y17375D01*
X13685Y17379D01*
X13848Y17382D01*
X13849Y17382D01*
X13851Y17382D01*
X14024Y17426D01*
X14186Y17467D01*
X14187Y17467D01*
X14189Y17467D01*
X14410Y17572D01*
X15304Y18089D01*
X15366Y18135D01*
X15433Y18172D01*
X15476Y18209D01*
X18765Y18209D01*
X18860Y18134D01*
X18980Y18034D01*
X18999Y18023D01*
X19010Y18014D01*
X19049Y17996D01*
X19195Y17916D01*
X21184Y17030D01*
X21192Y17025D01*
X21236Y16986D01*
X21337Y16931D01*
X21435Y16869D01*
X21490Y16849D01*
X21543Y16821D01*
X21654Y16790D01*
X21763Y16751D01*
X21822Y16745D01*
X21879Y16729D01*
X21994Y16725D01*
X22109Y16712D01*
X22168Y16719D01*
X22227Y16717D01*
X22340Y16739D01*
X22455Y16752D01*
X22511Y16772D01*
X22569Y16784D01*
X22674Y16831D01*
X22783Y16870D01*
X22849Y16909D01*
X22887Y16926D01*
X22922Y16953D01*
X22993Y16996D01*
X24691Y18209D01*
X28319Y18209D01*
X29971Y17029D01*
X30015Y17004D01*
X30055Y16973D01*
X30167Y16920D01*
X30276Y16860D01*
X30325Y16846D01*
X30370Y16825D01*
X30492Y16799D01*
X30611Y16765D01*
X30662Y16763D01*
X30711Y16752D01*
X30835Y16754D01*
X30960Y16749D01*
X31009Y16758D01*
X31059Y16759D01*
X31180Y16789D01*
X31302Y16812D01*
X31348Y16832D01*
X31397Y16844D01*
X31618Y16949D01*
X31622Y16951D01*
X33592Y18089D01*
X33654Y18135D01*
X33721Y18172D01*
X33764Y18209D01*
X37076Y18209D01*
X37119Y18184D01*
X37164Y18148D01*
X37270Y18098D01*
X37372Y18040D01*
X37427Y18024D01*
X37479Y17999D01*
X37594Y17975D01*
X37706Y17942D01*
X37764Y17938D01*
X37820Y17926D01*
X37937Y17928D01*
X38054Y17921D01*
X38111Y17931D01*
X38168Y17932D01*
X38282Y17961D01*
X38398Y17981D01*
X38451Y18003D01*
X38506Y18017D01*
X38611Y18071D01*
X38719Y18116D01*
X38765Y18150D01*
X38816Y18177D01*
X38906Y18253D01*
X38929Y18270D01*
X42203Y19460D01*
X45159Y18081D01*
X45393Y17439D01*
X45421Y17382D01*
X45442Y17320D01*
X45499Y17226D01*
X45548Y17128D01*
X45589Y17078D01*
X45623Y17023D01*
X45701Y16944D01*
X45771Y16860D01*
X45822Y16821D01*
X45868Y16775D01*
X45961Y16715D01*
X46049Y16649D01*
X46107Y16623D01*
X46162Y16588D01*
X46266Y16552D01*
X46367Y16507D01*
X46430Y16495D01*
X46491Y16474D01*
X46601Y16462D01*
X46709Y16441D01*
X46774Y16444D01*
X46838Y16437D01*
X46947Y16450D01*
X47057Y16455D01*
X47120Y16472D01*
X47184Y16480D01*
X47287Y16518D01*
X47393Y16547D01*
X47450Y16578D01*
X47511Y16600D01*
X47669Y16697D01*
X47700Y16714D01*
X47707Y16720D01*
X47719Y16728D01*
X49758Y18209D01*
X56068Y18209D01*
X56560Y17717D01*
X56619Y17670D01*
X56671Y17616D01*
X56755Y17562D01*
X56833Y17500D01*
X56901Y17468D01*
X56964Y17427D01*
X57058Y17394D01*
X57148Y17351D01*
X57221Y17335D01*
X57292Y17310D01*
X57391Y17299D01*
X57488Y17278D01*
X57563Y17279D01*
X57638Y17271D01*
X57737Y17282D01*
X57837Y17284D01*
X57910Y17302D01*
X57984Y17311D01*
X58078Y17345D01*
X58175Y17369D01*
X58242Y17403D01*
X58312Y17429D01*
X58443Y17507D01*
X58485Y17528D01*
X58499Y17540D01*
X58522Y17554D01*
X59438Y18209D01*
X63129Y18209D01*
X63157Y18193D01*
X63245Y18168D01*
X63330Y18134D01*
X63412Y18121D01*
X63492Y18098D01*
X63584Y18094D01*
X63674Y18080D01*
X63757Y18086D01*
X63840Y18082D01*
X63930Y18098D01*
X64022Y18105D01*
X64134Y18136D01*
X64183Y18145D01*
X64210Y18157D01*
X64258Y18170D01*
X67806Y19460D01*
X70762Y18081D01*
X71099Y17155D01*
X71125Y17103D01*
X71143Y17047D01*
X71203Y16948D01*
X71255Y16844D01*
X71292Y16799D01*
X71322Y16748D01*
X71403Y16665D01*
X71477Y16575D01*
X71524Y16540D01*
X71565Y16498D01*
X71662Y16435D01*
X71755Y16365D01*
X71808Y16341D01*
X71857Y16309D01*
X71967Y16270D01*
X72073Y16223D01*
X72131Y16212D01*
X72186Y16192D01*
X72301Y16179D01*
X72416Y16157D01*
X72474Y16159D01*
X72532Y16153D01*
X72648Y16166D01*
X72764Y16171D01*
X72820Y16186D01*
X72878Y16193D01*
X72988Y16232D01*
X73100Y16263D01*
X73151Y16291D01*
X73206Y16311D01*
X73387Y16419D01*
X73406Y16429D01*
X73410Y16433D01*
X73416Y16436D01*
X75897Y18209D01*
X79525Y18209D01*
X81143Y17053D01*
X81257Y16990D01*
X81367Y16921D01*
X81409Y16906D01*
X81448Y16884D01*
X81573Y16849D01*
X81696Y16806D01*
X81741Y16801D01*
X81784Y16789D01*
X81913Y16783D01*
X82043Y16769D01*
X82087Y16775D01*
X82132Y16773D01*
X82259Y16796D01*
X82388Y16812D01*
X82430Y16828D01*
X82474Y16836D01*
X82593Y16888D01*
X82715Y16933D01*
X82763Y16962D01*
X82794Y16975D01*
X82833Y17005D01*
X82924Y17060D01*
X84505Y18209D01*
X90815Y18209D01*
X93121Y15902D01*
X93121Y12640D01*
X92636Y12155D01*
X92558Y12056D01*
X92473Y11962D01*
X92450Y11920D01*
X92420Y11882D01*
X92366Y11768D01*
X92305Y11657D01*
X92291Y11610D01*
X92271Y11567D01*
X92244Y11443D01*
X92210Y11321D01*
X92205Y11261D01*
X92197Y11226D01*
X92198Y11178D01*
X92190Y11078D01*
X92190Y9082D01*
X92205Y8957D01*
X92211Y8830D01*
X92224Y8784D01*
X92230Y8736D01*
X92273Y8617D01*
X92308Y8496D01*
X92331Y8454D01*
X92347Y8408D01*
X92416Y8302D01*
X92478Y8191D01*
X92517Y8145D01*
X92537Y8115D01*
X92571Y8082D01*
X92636Y8005D01*
X93121Y7520D01*
X93121Y5334D01*
X93124Y5308D01*
X93122Y5282D01*
X93144Y5135D01*
X93161Y4988D01*
X93170Y4963D01*
X93174Y4937D01*
X93229Y4799D01*
X93279Y4660D01*
X93293Y4638D01*
X93303Y4613D01*
X93387Y4492D01*
X93468Y4367D01*
X93487Y4349D01*
X93502Y4327D01*
X93612Y4228D01*
X93718Y4125D01*
X93741Y4111D01*
X93760Y4094D01*
X93890Y4022D01*
X94018Y3946D01*
X94042Y3938D01*
X94065Y3925D01*
X94208Y3885D01*
X94349Y3840D01*
X94376Y3838D01*
X94401Y3830D01*
X94645Y3811D01*
X113428Y3811D01*
X113454Y3814D01*
G37*
%LPC*%
G36*
X73598Y113351D02*
X73598Y113351D01*
X71007Y114424D01*
X69024Y116407D01*
X67951Y118998D01*
X67951Y123698D01*
X67948Y123727D01*
X67949Y123773D01*
X67641Y130044D01*
X67636Y130075D01*
X67614Y130266D01*
X65167Y142568D01*
X65159Y142593D01*
X65156Y142621D01*
X65080Y142853D01*
X60281Y154441D01*
X60267Y154465D01*
X60259Y154491D01*
X60140Y154704D01*
X53172Y165133D01*
X53151Y165157D01*
X53067Y165266D01*
X53048Y165293D01*
X53042Y165299D01*
X53034Y165309D01*
X48817Y169962D01*
X48796Y169981D01*
X48766Y170016D01*
X48105Y170677D01*
X47774Y171007D01*
X46701Y173598D01*
X46701Y176402D01*
X47774Y178993D01*
X49757Y180976D01*
X52348Y182049D01*
X55152Y182049D01*
X57743Y180976D01*
X58073Y180645D01*
X58734Y179984D01*
X64278Y174441D01*
X72989Y161403D01*
X78990Y146917D01*
X82049Y131538D01*
X82049Y118998D01*
X80976Y116407D01*
X78993Y114424D01*
X76402Y113351D01*
X73598Y113351D01*
G37*
%LPD*%
D10*
X89184Y5889D02*
X86855Y5889D01*
X86760Y5891D01*
X86665Y5897D01*
X86571Y5906D01*
X86477Y5920D01*
X86383Y5937D01*
X86291Y5958D01*
X86199Y5983D01*
X86109Y6012D01*
X86019Y6044D01*
X85931Y6080D01*
X85845Y6120D01*
X85760Y6162D01*
X85677Y6209D01*
X85596Y6259D01*
X85518Y6312D01*
X85441Y6368D01*
X85367Y6427D01*
X85295Y6489D01*
X85226Y6554D01*
X85159Y6622D01*
X85096Y6692D01*
X85035Y6766D01*
X84977Y6841D01*
X84923Y6919D01*
X84871Y6999D01*
X84823Y7081D01*
X84779Y7164D01*
X84737Y7250D01*
X84700Y7337D01*
X84666Y7426D01*
X84635Y7516D01*
X84608Y7607D01*
X84585Y7699D01*
X84566Y7792D01*
X84551Y7886D01*
X84539Y7980D01*
X84531Y8075D01*
X84527Y8170D01*
X84527Y8264D01*
X84531Y8359D01*
X84539Y8454D01*
X84551Y8548D01*
X84566Y8642D01*
X84585Y8735D01*
X84608Y8827D01*
X84635Y8918D01*
X84666Y9008D01*
X84700Y9097D01*
X84737Y9184D01*
X84779Y9270D01*
X84823Y9353D01*
X84871Y9435D01*
X84923Y9515D01*
X84977Y9593D01*
X85035Y9668D01*
X85096Y9742D01*
X85159Y9812D01*
X85226Y9880D01*
X85295Y9945D01*
X85367Y10007D01*
X85441Y10066D01*
X85518Y10122D01*
X85596Y10175D01*
X85677Y10225D01*
X85760Y10272D01*
X85845Y10314D01*
X85931Y10354D01*
X86019Y10390D01*
X86109Y10422D01*
X86199Y10451D01*
X86291Y10476D01*
X86383Y10497D01*
X86477Y10514D01*
X86571Y10528D01*
X86665Y10537D01*
X86760Y10543D01*
X86855Y10545D01*
X86390Y14271D02*
X89184Y14271D01*
X86390Y14271D02*
X86305Y14269D01*
X86221Y14263D01*
X86136Y14254D01*
X86053Y14240D01*
X85970Y14223D01*
X85887Y14202D01*
X85806Y14177D01*
X85726Y14149D01*
X85648Y14117D01*
X85571Y14081D01*
X85495Y14042D01*
X85422Y14000D01*
X85351Y13954D01*
X85281Y13905D01*
X85214Y13853D01*
X85150Y13798D01*
X85088Y13740D01*
X85028Y13680D01*
X84972Y13616D01*
X84918Y13551D01*
X84868Y13482D01*
X84821Y13412D01*
X84777Y13340D01*
X84736Y13265D01*
X84699Y13189D01*
X84665Y13111D01*
X84635Y13032D01*
X84608Y12951D01*
X84585Y12870D01*
X84566Y12787D01*
X84551Y12704D01*
X84539Y12620D01*
X84531Y12535D01*
X84527Y12450D01*
X84527Y12366D01*
X84531Y12281D01*
X84539Y12196D01*
X84551Y12112D01*
X84566Y12029D01*
X84585Y11946D01*
X84608Y11865D01*
X84635Y11784D01*
X84665Y11705D01*
X84699Y11627D01*
X84736Y11551D01*
X84777Y11477D01*
X84821Y11404D01*
X84868Y11334D01*
X84918Y11265D01*
X84972Y11200D01*
X85028Y11136D01*
X85088Y11076D01*
X85150Y11018D01*
X85214Y10963D01*
X85281Y10911D01*
X85351Y10862D01*
X85422Y10816D01*
X85495Y10774D01*
X85571Y10735D01*
X85648Y10699D01*
X85726Y10667D01*
X85806Y10639D01*
X85887Y10614D01*
X85970Y10593D01*
X86053Y10576D01*
X86136Y10562D01*
X86221Y10553D01*
X86305Y10547D01*
X86390Y10545D01*
X86390Y10546D02*
X88252Y10546D01*
X80039Y10080D02*
X80037Y10245D01*
X80031Y10410D01*
X80021Y10574D01*
X80008Y10739D01*
X79990Y10903D01*
X79968Y11066D01*
X79943Y11229D01*
X79913Y11391D01*
X79880Y11553D01*
X79843Y11713D01*
X79802Y11873D01*
X79757Y12032D01*
X79709Y12189D01*
X79657Y12346D01*
X79601Y12501D01*
X79541Y12655D01*
X79478Y12807D01*
X79411Y12958D01*
X79341Y13107D01*
X79312Y13184D01*
X79280Y13260D01*
X79245Y13334D01*
X79205Y13406D01*
X79163Y13476D01*
X79117Y13544D01*
X79068Y13610D01*
X79015Y13674D01*
X78960Y13735D01*
X78902Y13793D01*
X78842Y13848D01*
X78778Y13901D01*
X78712Y13950D01*
X78644Y13996D01*
X78574Y14039D01*
X78502Y14079D01*
X78428Y14115D01*
X78353Y14147D01*
X78276Y14176D01*
X78198Y14201D01*
X78118Y14222D01*
X78038Y14240D01*
X77957Y14253D01*
X77875Y14263D01*
X77793Y14269D01*
X77711Y14271D01*
X77629Y14269D01*
X77547Y14263D01*
X77465Y14253D01*
X77384Y14240D01*
X77304Y14222D01*
X77224Y14201D01*
X77146Y14176D01*
X77069Y14147D01*
X76994Y14115D01*
X76920Y14079D01*
X76848Y14039D01*
X76778Y13996D01*
X76710Y13950D01*
X76644Y13901D01*
X76581Y13848D01*
X76520Y13793D01*
X76462Y13735D01*
X76407Y13674D01*
X76354Y13610D01*
X76305Y13544D01*
X76259Y13476D01*
X76217Y13406D01*
X76178Y13334D01*
X76142Y13260D01*
X76110Y13184D01*
X76081Y13107D01*
X76011Y12958D01*
X75944Y12807D01*
X75881Y12655D01*
X75821Y12501D01*
X75765Y12346D01*
X75713Y12189D01*
X75665Y12032D01*
X75620Y11873D01*
X75579Y11713D01*
X75542Y11553D01*
X75509Y11391D01*
X75479Y11229D01*
X75454Y11066D01*
X75432Y10903D01*
X75414Y10739D01*
X75401Y10574D01*
X75391Y10410D01*
X75385Y10245D01*
X75383Y10080D01*
X80040Y10080D02*
X80038Y9915D01*
X80032Y9750D01*
X80022Y9586D01*
X80009Y9421D01*
X79991Y9257D01*
X79969Y9094D01*
X79944Y8931D01*
X79914Y8769D01*
X79881Y8607D01*
X79844Y8446D01*
X79803Y8287D01*
X79758Y8128D01*
X79710Y7970D01*
X79658Y7814D01*
X79602Y7659D01*
X79542Y7505D01*
X79479Y7353D01*
X79412Y7202D01*
X79341Y7053D01*
X79312Y6976D01*
X79280Y6900D01*
X79244Y6826D01*
X79205Y6754D01*
X79163Y6684D01*
X79117Y6616D01*
X79068Y6550D01*
X79015Y6486D01*
X78960Y6425D01*
X78902Y6367D01*
X78842Y6312D01*
X78778Y6259D01*
X78712Y6210D01*
X78644Y6164D01*
X78574Y6121D01*
X78502Y6081D01*
X78428Y6045D01*
X78353Y6013D01*
X78276Y5984D01*
X78198Y5959D01*
X78118Y5938D01*
X78038Y5920D01*
X77957Y5907D01*
X77875Y5897D01*
X77793Y5891D01*
X77711Y5889D01*
X76082Y7053D02*
X76011Y7202D01*
X75944Y7353D01*
X75881Y7505D01*
X75821Y7659D01*
X75765Y7814D01*
X75713Y7970D01*
X75665Y8128D01*
X75620Y8287D01*
X75579Y8446D01*
X75542Y8607D01*
X75509Y8769D01*
X75479Y8931D01*
X75454Y9094D01*
X75432Y9257D01*
X75414Y9421D01*
X75401Y9586D01*
X75391Y9750D01*
X75385Y9915D01*
X75383Y10080D01*
X76081Y7053D02*
X76110Y6976D01*
X76142Y6900D01*
X76178Y6826D01*
X76217Y6754D01*
X76259Y6684D01*
X76305Y6616D01*
X76354Y6550D01*
X76407Y6486D01*
X76462Y6425D01*
X76520Y6367D01*
X76581Y6312D01*
X76644Y6259D01*
X76710Y6210D01*
X76778Y6164D01*
X76848Y6121D01*
X76920Y6081D01*
X76994Y6045D01*
X77069Y6013D01*
X77146Y5984D01*
X77224Y5959D01*
X77304Y5938D01*
X77384Y5920D01*
X77465Y5907D01*
X77547Y5897D01*
X77629Y5891D01*
X77711Y5889D01*
X79574Y7752D02*
X75849Y12408D01*
X67619Y15202D02*
X71345Y4958D01*
X63580Y10080D02*
X63578Y10245D01*
X63572Y10410D01*
X63562Y10574D01*
X63549Y10739D01*
X63531Y10903D01*
X63509Y11066D01*
X63484Y11229D01*
X63454Y11391D01*
X63421Y11553D01*
X63384Y11713D01*
X63343Y11873D01*
X63298Y12032D01*
X63250Y12189D01*
X63198Y12346D01*
X63142Y12501D01*
X63082Y12655D01*
X63019Y12807D01*
X62952Y12958D01*
X62882Y13107D01*
X62853Y13184D01*
X62821Y13260D01*
X62786Y13334D01*
X62746Y13406D01*
X62704Y13476D01*
X62658Y13544D01*
X62609Y13610D01*
X62556Y13674D01*
X62501Y13735D01*
X62443Y13793D01*
X62383Y13848D01*
X62319Y13901D01*
X62253Y13950D01*
X62185Y13996D01*
X62115Y14039D01*
X62043Y14079D01*
X61969Y14115D01*
X61894Y14147D01*
X61817Y14176D01*
X61739Y14201D01*
X61659Y14222D01*
X61579Y14240D01*
X61498Y14253D01*
X61416Y14263D01*
X61334Y14269D01*
X61252Y14271D01*
X61170Y14269D01*
X61088Y14263D01*
X61006Y14253D01*
X60925Y14240D01*
X60845Y14222D01*
X60765Y14201D01*
X60687Y14176D01*
X60610Y14147D01*
X60535Y14115D01*
X60461Y14079D01*
X60389Y14039D01*
X60319Y13996D01*
X60251Y13950D01*
X60185Y13901D01*
X60122Y13848D01*
X60061Y13793D01*
X60003Y13735D01*
X59948Y13674D01*
X59895Y13610D01*
X59846Y13544D01*
X59800Y13476D01*
X59758Y13406D01*
X59719Y13334D01*
X59683Y13260D01*
X59651Y13184D01*
X59622Y13107D01*
X59552Y12958D01*
X59485Y12807D01*
X59422Y12655D01*
X59362Y12501D01*
X59306Y12346D01*
X59254Y12189D01*
X59206Y12032D01*
X59161Y11873D01*
X59120Y11713D01*
X59083Y11553D01*
X59050Y11391D01*
X59020Y11229D01*
X58995Y11066D01*
X58973Y10903D01*
X58955Y10739D01*
X58942Y10574D01*
X58932Y10410D01*
X58926Y10245D01*
X58924Y10080D01*
X63581Y10080D02*
X63579Y9915D01*
X63573Y9750D01*
X63563Y9586D01*
X63550Y9421D01*
X63532Y9257D01*
X63510Y9094D01*
X63485Y8931D01*
X63455Y8769D01*
X63422Y8607D01*
X63385Y8446D01*
X63344Y8287D01*
X63299Y8128D01*
X63251Y7970D01*
X63199Y7814D01*
X63143Y7659D01*
X63083Y7505D01*
X63020Y7353D01*
X62953Y7202D01*
X62882Y7053D01*
X62853Y6976D01*
X62821Y6900D01*
X62785Y6826D01*
X62746Y6754D01*
X62704Y6684D01*
X62658Y6616D01*
X62609Y6550D01*
X62556Y6486D01*
X62501Y6425D01*
X62443Y6367D01*
X62383Y6312D01*
X62319Y6259D01*
X62253Y6210D01*
X62185Y6164D01*
X62115Y6121D01*
X62043Y6081D01*
X61969Y6045D01*
X61894Y6013D01*
X61817Y5984D01*
X61739Y5959D01*
X61659Y5938D01*
X61579Y5920D01*
X61498Y5907D01*
X61416Y5897D01*
X61334Y5891D01*
X61252Y5889D01*
X59622Y7053D02*
X59551Y7202D01*
X59484Y7353D01*
X59421Y7505D01*
X59361Y7659D01*
X59305Y7814D01*
X59253Y7970D01*
X59205Y8128D01*
X59160Y8287D01*
X59119Y8446D01*
X59082Y8607D01*
X59049Y8769D01*
X59019Y8931D01*
X58994Y9094D01*
X58972Y9257D01*
X58954Y9421D01*
X58941Y9586D01*
X58931Y9750D01*
X58925Y9915D01*
X58923Y10080D01*
X59622Y7053D02*
X59651Y6976D01*
X59683Y6900D01*
X59719Y6826D01*
X59758Y6754D01*
X59800Y6684D01*
X59846Y6616D01*
X59895Y6550D01*
X59948Y6486D01*
X60003Y6425D01*
X60061Y6367D01*
X60122Y6312D01*
X60185Y6259D01*
X60251Y6210D01*
X60319Y6164D01*
X60389Y6121D01*
X60461Y6081D01*
X60535Y6045D01*
X60610Y6013D01*
X60687Y5984D01*
X60765Y5959D01*
X60845Y5938D01*
X60925Y5920D01*
X61006Y5907D01*
X61088Y5897D01*
X61170Y5891D01*
X61252Y5889D01*
X63115Y7752D02*
X59390Y12408D01*
X54437Y5889D02*
X52108Y5889D01*
X52013Y5891D01*
X51918Y5897D01*
X51824Y5906D01*
X51730Y5920D01*
X51636Y5937D01*
X51544Y5958D01*
X51452Y5983D01*
X51362Y6012D01*
X51272Y6044D01*
X51184Y6080D01*
X51098Y6120D01*
X51013Y6162D01*
X50930Y6209D01*
X50849Y6259D01*
X50771Y6312D01*
X50694Y6368D01*
X50620Y6427D01*
X50548Y6489D01*
X50479Y6554D01*
X50412Y6622D01*
X50349Y6692D01*
X50288Y6766D01*
X50230Y6841D01*
X50176Y6919D01*
X50124Y6999D01*
X50076Y7081D01*
X50032Y7164D01*
X49990Y7250D01*
X49953Y7337D01*
X49919Y7426D01*
X49888Y7516D01*
X49861Y7607D01*
X49838Y7699D01*
X49819Y7792D01*
X49804Y7886D01*
X49792Y7980D01*
X49784Y8075D01*
X49780Y8170D01*
X49780Y8264D01*
X49784Y8359D01*
X49792Y8454D01*
X49804Y8548D01*
X49819Y8642D01*
X49838Y8735D01*
X49861Y8827D01*
X49888Y8918D01*
X49919Y9008D01*
X49953Y9097D01*
X49990Y9184D01*
X50032Y9270D01*
X50076Y9353D01*
X50124Y9435D01*
X50176Y9515D01*
X50230Y9593D01*
X50288Y9668D01*
X50349Y9742D01*
X50412Y9812D01*
X50479Y9880D01*
X50548Y9945D01*
X50620Y10007D01*
X50694Y10066D01*
X50771Y10122D01*
X50849Y10175D01*
X50930Y10225D01*
X51013Y10272D01*
X51098Y10314D01*
X51184Y10354D01*
X51272Y10390D01*
X51362Y10422D01*
X51452Y10451D01*
X51544Y10476D01*
X51636Y10497D01*
X51730Y10514D01*
X51824Y10528D01*
X51918Y10537D01*
X52013Y10543D01*
X52108Y10545D01*
X51643Y14271D02*
X54437Y14271D01*
X51643Y14271D02*
X51558Y14269D01*
X51474Y14263D01*
X51389Y14254D01*
X51306Y14240D01*
X51223Y14223D01*
X51140Y14202D01*
X51059Y14177D01*
X50979Y14149D01*
X50901Y14117D01*
X50824Y14081D01*
X50748Y14042D01*
X50675Y14000D01*
X50604Y13954D01*
X50534Y13905D01*
X50467Y13853D01*
X50403Y13798D01*
X50341Y13740D01*
X50281Y13680D01*
X50225Y13616D01*
X50171Y13551D01*
X50121Y13482D01*
X50074Y13412D01*
X50030Y13340D01*
X49989Y13265D01*
X49952Y13189D01*
X49918Y13111D01*
X49888Y13032D01*
X49861Y12951D01*
X49838Y12870D01*
X49819Y12787D01*
X49804Y12704D01*
X49792Y12620D01*
X49784Y12535D01*
X49780Y12450D01*
X49780Y12366D01*
X49784Y12281D01*
X49792Y12196D01*
X49804Y12112D01*
X49819Y12029D01*
X49838Y11946D01*
X49861Y11865D01*
X49888Y11784D01*
X49918Y11705D01*
X49952Y11627D01*
X49989Y11551D01*
X50030Y11477D01*
X50074Y11404D01*
X50121Y11334D01*
X50171Y11265D01*
X50225Y11200D01*
X50281Y11136D01*
X50341Y11076D01*
X50403Y11018D01*
X50467Y10963D01*
X50534Y10911D01*
X50604Y10862D01*
X50675Y10816D01*
X50748Y10774D01*
X50824Y10735D01*
X50901Y10699D01*
X50979Y10667D01*
X51059Y10639D01*
X51140Y10614D01*
X51223Y10593D01*
X51306Y10576D01*
X51389Y10562D01*
X51474Y10553D01*
X51558Y10547D01*
X51643Y10545D01*
X51643Y10546D02*
X53505Y10546D01*
X45741Y4958D02*
X42016Y15202D01*
X35416Y14272D02*
X35327Y14270D01*
X35238Y14264D01*
X35150Y14255D01*
X35062Y14242D01*
X34974Y14225D01*
X34888Y14204D01*
X34802Y14180D01*
X34718Y14152D01*
X34634Y14121D01*
X34553Y14086D01*
X34472Y14048D01*
X34394Y14006D01*
X34317Y13961D01*
X34242Y13913D01*
X34170Y13861D01*
X34099Y13807D01*
X34031Y13749D01*
X33966Y13689D01*
X33903Y13626D01*
X33843Y13561D01*
X33785Y13493D01*
X33731Y13422D01*
X33679Y13350D01*
X33631Y13275D01*
X33586Y13198D01*
X33544Y13120D01*
X33506Y13039D01*
X33471Y12958D01*
X33440Y12874D01*
X33412Y12790D01*
X33388Y12704D01*
X33367Y12618D01*
X33350Y12530D01*
X33337Y12442D01*
X33328Y12354D01*
X33322Y12265D01*
X33320Y12176D01*
X35416Y14271D02*
X35519Y14269D01*
X35621Y14263D01*
X35723Y14253D01*
X35825Y14240D01*
X35926Y14222D01*
X36026Y14201D01*
X36126Y14176D01*
X36224Y14147D01*
X36321Y14114D01*
X36417Y14078D01*
X36512Y14038D01*
X36605Y13994D01*
X36696Y13947D01*
X36785Y13897D01*
X36872Y13843D01*
X36958Y13786D01*
X37041Y13726D01*
X37121Y13662D01*
X37199Y13596D01*
X37275Y13526D01*
X37348Y13454D01*
X37418Y13379D01*
X37485Y13301D01*
X37549Y13221D01*
X37610Y13139D01*
X37668Y13054D01*
X37722Y12967D01*
X37774Y12878D01*
X37821Y12788D01*
X37866Y12695D01*
X37906Y12601D01*
X37944Y12505D01*
X37977Y12408D01*
X34020Y10546D02*
X33955Y10610D01*
X33893Y10677D01*
X33833Y10746D01*
X33777Y10818D01*
X33724Y10891D01*
X33673Y10967D01*
X33626Y11045D01*
X33582Y11125D01*
X33541Y11206D01*
X33503Y11289D01*
X33469Y11374D01*
X33438Y11460D01*
X33411Y11547D01*
X33387Y11635D01*
X33367Y11723D01*
X33350Y11813D01*
X33338Y11903D01*
X33328Y11994D01*
X33323Y12085D01*
X33321Y12176D01*
X34019Y10546D02*
X37978Y5889D01*
X33321Y5889D01*
X28833Y10080D02*
X28831Y10245D01*
X28825Y10410D01*
X28815Y10574D01*
X28802Y10739D01*
X28784Y10903D01*
X28762Y11066D01*
X28737Y11229D01*
X28707Y11391D01*
X28674Y11553D01*
X28637Y11713D01*
X28596Y11873D01*
X28551Y12032D01*
X28503Y12189D01*
X28451Y12346D01*
X28395Y12501D01*
X28335Y12655D01*
X28272Y12807D01*
X28205Y12958D01*
X28135Y13107D01*
X28106Y13184D01*
X28074Y13260D01*
X28039Y13334D01*
X27999Y13406D01*
X27957Y13476D01*
X27911Y13544D01*
X27862Y13610D01*
X27809Y13674D01*
X27754Y13735D01*
X27696Y13793D01*
X27636Y13848D01*
X27572Y13901D01*
X27506Y13950D01*
X27438Y13996D01*
X27368Y14039D01*
X27296Y14079D01*
X27222Y14115D01*
X27147Y14147D01*
X27070Y14176D01*
X26992Y14201D01*
X26912Y14222D01*
X26832Y14240D01*
X26751Y14253D01*
X26669Y14263D01*
X26587Y14269D01*
X26505Y14271D01*
X26423Y14269D01*
X26341Y14263D01*
X26259Y14253D01*
X26178Y14240D01*
X26098Y14222D01*
X26018Y14201D01*
X25940Y14176D01*
X25863Y14147D01*
X25788Y14115D01*
X25714Y14079D01*
X25642Y14039D01*
X25572Y13996D01*
X25504Y13950D01*
X25438Y13901D01*
X25375Y13848D01*
X25314Y13793D01*
X25256Y13735D01*
X25201Y13674D01*
X25148Y13610D01*
X25099Y13544D01*
X25053Y13476D01*
X25011Y13406D01*
X24972Y13334D01*
X24936Y13260D01*
X24904Y13184D01*
X24875Y13107D01*
X24805Y12958D01*
X24738Y12807D01*
X24675Y12655D01*
X24615Y12501D01*
X24559Y12346D01*
X24507Y12189D01*
X24459Y12032D01*
X24414Y11873D01*
X24373Y11713D01*
X24336Y11553D01*
X24303Y11391D01*
X24273Y11229D01*
X24248Y11066D01*
X24226Y10903D01*
X24208Y10739D01*
X24195Y10574D01*
X24185Y10410D01*
X24179Y10245D01*
X24177Y10080D01*
X28834Y10080D02*
X28832Y9915D01*
X28826Y9750D01*
X28816Y9586D01*
X28803Y9421D01*
X28785Y9257D01*
X28763Y9094D01*
X28738Y8931D01*
X28708Y8769D01*
X28675Y8607D01*
X28638Y8446D01*
X28597Y8287D01*
X28552Y8128D01*
X28504Y7970D01*
X28452Y7814D01*
X28396Y7659D01*
X28336Y7505D01*
X28273Y7353D01*
X28206Y7202D01*
X28135Y7053D01*
X28106Y6976D01*
X28074Y6900D01*
X28038Y6826D01*
X27999Y6754D01*
X27957Y6684D01*
X27911Y6616D01*
X27862Y6550D01*
X27809Y6486D01*
X27754Y6425D01*
X27696Y6367D01*
X27636Y6312D01*
X27572Y6259D01*
X27506Y6210D01*
X27438Y6164D01*
X27368Y6121D01*
X27296Y6081D01*
X27222Y6045D01*
X27147Y6013D01*
X27070Y5984D01*
X26992Y5959D01*
X26912Y5938D01*
X26832Y5920D01*
X26751Y5907D01*
X26669Y5897D01*
X26587Y5891D01*
X26505Y5889D01*
X24875Y7053D02*
X24804Y7202D01*
X24737Y7353D01*
X24674Y7505D01*
X24614Y7659D01*
X24558Y7814D01*
X24506Y7970D01*
X24458Y8128D01*
X24413Y8287D01*
X24372Y8446D01*
X24335Y8607D01*
X24302Y8769D01*
X24272Y8931D01*
X24247Y9094D01*
X24225Y9257D01*
X24207Y9421D01*
X24194Y9586D01*
X24184Y9750D01*
X24178Y9915D01*
X24176Y10080D01*
X24875Y7053D02*
X24904Y6976D01*
X24936Y6900D01*
X24972Y6826D01*
X25011Y6754D01*
X25053Y6684D01*
X25099Y6616D01*
X25148Y6550D01*
X25201Y6486D01*
X25256Y6425D01*
X25314Y6367D01*
X25375Y6312D01*
X25438Y6259D01*
X25504Y6210D01*
X25572Y6164D01*
X25642Y6121D01*
X25714Y6081D01*
X25788Y6045D01*
X25863Y6013D01*
X25940Y5984D01*
X26018Y5959D01*
X26098Y5938D01*
X26178Y5920D01*
X26259Y5907D01*
X26341Y5897D01*
X26423Y5891D01*
X26505Y5889D01*
X28368Y7752D02*
X24643Y12408D01*
X17128Y14272D02*
X17039Y14270D01*
X16950Y14264D01*
X16862Y14255D01*
X16774Y14242D01*
X16686Y14225D01*
X16600Y14204D01*
X16514Y14180D01*
X16430Y14152D01*
X16346Y14121D01*
X16265Y14086D01*
X16184Y14048D01*
X16106Y14006D01*
X16029Y13961D01*
X15954Y13913D01*
X15882Y13861D01*
X15811Y13807D01*
X15743Y13749D01*
X15678Y13689D01*
X15615Y13626D01*
X15555Y13561D01*
X15497Y13493D01*
X15443Y13422D01*
X15391Y13350D01*
X15343Y13275D01*
X15298Y13198D01*
X15256Y13120D01*
X15218Y13039D01*
X15183Y12958D01*
X15152Y12874D01*
X15124Y12790D01*
X15100Y12704D01*
X15079Y12618D01*
X15062Y12530D01*
X15049Y12442D01*
X15040Y12354D01*
X15034Y12265D01*
X15032Y12176D01*
X17128Y14271D02*
X17231Y14269D01*
X17333Y14263D01*
X17435Y14253D01*
X17537Y14240D01*
X17638Y14222D01*
X17738Y14201D01*
X17838Y14176D01*
X17936Y14147D01*
X18033Y14114D01*
X18129Y14078D01*
X18224Y14038D01*
X18317Y13994D01*
X18408Y13947D01*
X18497Y13897D01*
X18584Y13843D01*
X18670Y13786D01*
X18753Y13726D01*
X18833Y13662D01*
X18911Y13596D01*
X18987Y13526D01*
X19060Y13454D01*
X19130Y13379D01*
X19197Y13301D01*
X19261Y13221D01*
X19322Y13139D01*
X19380Y13054D01*
X19434Y12967D01*
X19486Y12878D01*
X19533Y12788D01*
X19578Y12695D01*
X19618Y12601D01*
X19656Y12505D01*
X19689Y12408D01*
X15732Y10546D02*
X15667Y10610D01*
X15605Y10677D01*
X15545Y10746D01*
X15489Y10818D01*
X15436Y10891D01*
X15385Y10967D01*
X15338Y11045D01*
X15294Y11125D01*
X15253Y11206D01*
X15215Y11289D01*
X15181Y11374D01*
X15150Y11460D01*
X15123Y11547D01*
X15099Y11635D01*
X15079Y11723D01*
X15062Y11813D01*
X15050Y11903D01*
X15040Y11994D01*
X15035Y12085D01*
X15033Y12176D01*
X15731Y10546D02*
X19690Y5889D01*
X15033Y5889D01*
X10546Y5889D02*
X7752Y5889D01*
X7668Y5891D01*
X7585Y5896D01*
X7502Y5906D01*
X7419Y5919D01*
X7337Y5936D01*
X7256Y5956D01*
X7176Y5980D01*
X7097Y6008D01*
X7020Y6039D01*
X6944Y6073D01*
X6869Y6111D01*
X6796Y6153D01*
X6726Y6197D01*
X6657Y6245D01*
X6590Y6295D01*
X6526Y6349D01*
X6465Y6405D01*
X6405Y6465D01*
X6349Y6526D01*
X6295Y6590D01*
X6245Y6657D01*
X6197Y6726D01*
X6153Y6796D01*
X6111Y6869D01*
X6073Y6944D01*
X6039Y7020D01*
X6008Y7097D01*
X5980Y7176D01*
X5956Y7256D01*
X5936Y7337D01*
X5919Y7419D01*
X5906Y7502D01*
X5896Y7585D01*
X5891Y7668D01*
X5889Y7752D01*
X5889Y8683D01*
X5891Y8767D01*
X5897Y8850D01*
X5906Y8933D01*
X5919Y9016D01*
X5936Y9098D01*
X5956Y9179D01*
X5980Y9259D01*
X6008Y9338D01*
X6039Y9415D01*
X6073Y9491D01*
X6111Y9566D01*
X6153Y9639D01*
X6197Y9709D01*
X6245Y9778D01*
X6295Y9845D01*
X6349Y9909D01*
X6405Y9970D01*
X6465Y10030D01*
X6526Y10086D01*
X6590Y10140D01*
X6657Y10190D01*
X6726Y10238D01*
X6796Y10282D01*
X6869Y10324D01*
X6944Y10362D01*
X7020Y10396D01*
X7097Y10427D01*
X7176Y10455D01*
X7256Y10479D01*
X7337Y10499D01*
X7419Y10516D01*
X7502Y10529D01*
X7585Y10539D01*
X7668Y10544D01*
X7752Y10546D01*
X10546Y10546D01*
X10546Y14271D01*
X5889Y14271D01*
X142248Y5889D02*
X144111Y11477D01*
X140386Y11477D02*
X142248Y5889D01*
X136347Y12408D02*
X134019Y14271D01*
X134019Y5889D01*
X136347Y5889D02*
X131690Y5889D01*
X127851Y5889D02*
X127851Y6355D01*
X127385Y6355D01*
X127385Y5889D01*
X127851Y5889D01*
X123546Y12408D02*
X121217Y14271D01*
X121217Y5889D01*
X118889Y5889D02*
X123546Y5889D01*
X135729Y33683D02*
X135731Y33769D01*
X135737Y33855D01*
X135747Y33940D01*
X135761Y34025D01*
X135778Y34110D01*
X135800Y34193D01*
X135826Y34275D01*
X135855Y34356D01*
X135888Y34436D01*
X135924Y34513D01*
X135964Y34590D01*
X136008Y34664D01*
X136055Y34736D01*
X136105Y34806D01*
X136159Y34873D01*
X136215Y34938D01*
X136275Y35000D01*
X136337Y35060D01*
X136402Y35116D01*
X136469Y35170D01*
X136539Y35220D01*
X136611Y35267D01*
X136685Y35311D01*
X136762Y35351D01*
X136840Y35387D01*
X136919Y35420D01*
X137000Y35449D01*
X137082Y35475D01*
X137165Y35497D01*
X137250Y35514D01*
X137335Y35528D01*
X137420Y35538D01*
X137506Y35544D01*
X137592Y35546D01*
X135729Y33683D02*
X135731Y33559D01*
X135737Y33435D01*
X135747Y33311D01*
X135760Y33187D01*
X135778Y33064D01*
X135799Y32942D01*
X135825Y32820D01*
X135854Y32699D01*
X135887Y32579D01*
X135924Y32461D01*
X135964Y32343D01*
X136008Y32227D01*
X136056Y32112D01*
X136107Y31999D01*
X136162Y31888D01*
X136221Y31778D01*
X136283Y31670D01*
X136348Y31564D01*
X136417Y31461D01*
X136488Y31359D01*
X136563Y31260D01*
X136641Y31164D01*
X136722Y31069D01*
X136806Y30978D01*
X136893Y30889D01*
X142248Y31122D02*
X142332Y31124D01*
X142415Y31129D01*
X142498Y31139D01*
X142581Y31152D01*
X142663Y31169D01*
X142744Y31189D01*
X142824Y31213D01*
X142903Y31241D01*
X142980Y31272D01*
X143056Y31306D01*
X143131Y31344D01*
X143204Y31386D01*
X143274Y31430D01*
X143343Y31478D01*
X143410Y31528D01*
X143474Y31582D01*
X143535Y31638D01*
X143595Y31698D01*
X143651Y31759D01*
X143705Y31823D01*
X143755Y31890D01*
X143803Y31959D01*
X143847Y32029D01*
X143889Y32102D01*
X143927Y32177D01*
X143961Y32253D01*
X143992Y32330D01*
X144020Y32409D01*
X144044Y32489D01*
X144064Y32570D01*
X144081Y32652D01*
X144094Y32735D01*
X144104Y32818D01*
X144109Y32901D01*
X144111Y32985D01*
X144112Y32985D02*
X144110Y33097D01*
X144105Y33210D01*
X144096Y33322D01*
X144083Y33433D01*
X144067Y33545D01*
X144047Y33655D01*
X144024Y33765D01*
X143997Y33874D01*
X143967Y33982D01*
X143933Y34090D01*
X143896Y34196D01*
X143855Y34300D01*
X143811Y34404D01*
X143764Y34506D01*
X143713Y34606D01*
X143659Y34705D01*
X143602Y34802D01*
X143542Y34897D01*
X143479Y34990D01*
X143413Y35081D01*
X140618Y32053D02*
X140663Y31981D01*
X140711Y31910D01*
X140763Y31842D01*
X140817Y31776D01*
X140874Y31713D01*
X140934Y31652D01*
X140997Y31594D01*
X141063Y31539D01*
X141130Y31487D01*
X141200Y31439D01*
X141272Y31393D01*
X141347Y31351D01*
X141423Y31312D01*
X141500Y31276D01*
X141579Y31244D01*
X141660Y31216D01*
X141742Y31191D01*
X141825Y31170D01*
X141908Y31153D01*
X141993Y31139D01*
X142077Y31130D01*
X142163Y31124D01*
X142248Y31122D01*
X139222Y34615D02*
X139177Y34687D01*
X139129Y34758D01*
X139077Y34826D01*
X139023Y34892D01*
X138966Y34955D01*
X138906Y35016D01*
X138843Y35074D01*
X138777Y35129D01*
X138710Y35181D01*
X138640Y35229D01*
X138568Y35275D01*
X138493Y35317D01*
X138417Y35356D01*
X138340Y35392D01*
X138261Y35424D01*
X138180Y35452D01*
X138098Y35477D01*
X138015Y35498D01*
X137932Y35515D01*
X137847Y35529D01*
X137763Y35538D01*
X137677Y35544D01*
X137592Y35546D01*
X139222Y34614D02*
X140619Y32053D01*
X135729Y41548D02*
X135729Y43411D01*
X135729Y41548D02*
X135731Y41464D01*
X135736Y41381D01*
X135746Y41298D01*
X135759Y41215D01*
X135776Y41133D01*
X135796Y41052D01*
X135820Y40972D01*
X135848Y40893D01*
X135879Y40816D01*
X135913Y40740D01*
X135951Y40665D01*
X135993Y40592D01*
X136037Y40522D01*
X136085Y40453D01*
X136135Y40386D01*
X136189Y40322D01*
X136245Y40261D01*
X136305Y40201D01*
X136366Y40145D01*
X136430Y40091D01*
X136497Y40041D01*
X136566Y39993D01*
X136636Y39949D01*
X136709Y39907D01*
X136784Y39869D01*
X136860Y39835D01*
X136937Y39804D01*
X137016Y39776D01*
X137096Y39752D01*
X137177Y39732D01*
X137259Y39715D01*
X137342Y39702D01*
X137425Y39692D01*
X137508Y39687D01*
X137592Y39685D01*
X137592Y39686D02*
X142248Y39686D01*
X142334Y39688D01*
X142420Y39694D01*
X142505Y39704D01*
X142590Y39718D01*
X142675Y39735D01*
X142758Y39757D01*
X142840Y39783D01*
X142921Y39812D01*
X143000Y39845D01*
X143078Y39881D01*
X143155Y39921D01*
X143229Y39965D01*
X143301Y40012D01*
X143371Y40062D01*
X143438Y40116D01*
X143503Y40172D01*
X143565Y40232D01*
X143625Y40294D01*
X143681Y40359D01*
X143735Y40426D01*
X143785Y40496D01*
X143832Y40568D01*
X143876Y40642D01*
X143916Y40719D01*
X143952Y40796D01*
X143985Y40876D01*
X144014Y40957D01*
X144040Y41039D01*
X144062Y41122D01*
X144079Y41207D01*
X144093Y41292D01*
X144103Y41377D01*
X144109Y41463D01*
X144111Y41549D01*
X144111Y41548D02*
X144111Y43411D01*
X144111Y47653D02*
X135729Y47653D01*
X140386Y47653D02*
X140386Y52310D01*
X144111Y52310D02*
X135729Y52310D01*
X135729Y57435D02*
X135729Y61161D01*
X135729Y57435D02*
X144111Y57435D01*
X144111Y61161D01*
X140386Y60229D02*
X140386Y57435D01*
X144111Y65475D02*
X135729Y65475D01*
X139454Y68269D02*
X144111Y65475D01*
X139454Y68269D02*
X144111Y71063D01*
X135729Y71063D01*
X135729Y75534D02*
X144111Y78328D01*
X135729Y81122D01*
X137825Y80423D02*
X137825Y76232D01*
X135729Y86862D02*
X144111Y86862D01*
X144111Y84534D02*
X144111Y89190D01*
X144111Y93567D02*
X135729Y93567D01*
X135729Y92636D02*
X135729Y94499D01*
X144111Y94499D02*
X144111Y92636D01*
X135729Y100375D02*
X135729Y102237D01*
X135729Y100375D02*
X135731Y100291D01*
X135736Y100208D01*
X135746Y100125D01*
X135759Y100042D01*
X135776Y99960D01*
X135796Y99879D01*
X135820Y99799D01*
X135848Y99720D01*
X135879Y99643D01*
X135913Y99567D01*
X135951Y99492D01*
X135993Y99419D01*
X136037Y99349D01*
X136085Y99280D01*
X136135Y99213D01*
X136189Y99149D01*
X136245Y99088D01*
X136305Y99028D01*
X136366Y98972D01*
X136430Y98918D01*
X136497Y98868D01*
X136566Y98820D01*
X136636Y98776D01*
X136709Y98734D01*
X136784Y98696D01*
X136860Y98662D01*
X136937Y98631D01*
X137016Y98603D01*
X137096Y98579D01*
X137177Y98559D01*
X137259Y98542D01*
X137342Y98529D01*
X137425Y98519D01*
X137508Y98514D01*
X137592Y98512D01*
X142248Y98512D01*
X142334Y98514D01*
X142420Y98520D01*
X142505Y98530D01*
X142590Y98544D01*
X142675Y98561D01*
X142758Y98583D01*
X142840Y98609D01*
X142921Y98638D01*
X143000Y98671D01*
X143078Y98707D01*
X143155Y98747D01*
X143229Y98791D01*
X143301Y98838D01*
X143371Y98888D01*
X143438Y98942D01*
X143503Y98998D01*
X143565Y99058D01*
X143625Y99120D01*
X143681Y99185D01*
X143735Y99252D01*
X143785Y99322D01*
X143832Y99394D01*
X143876Y99468D01*
X143916Y99545D01*
X143952Y99622D01*
X143985Y99702D01*
X144014Y99783D01*
X144040Y99865D01*
X144062Y99948D01*
X144079Y100033D01*
X144093Y100118D01*
X144103Y100203D01*
X144109Y100289D01*
X144111Y100375D01*
X144111Y102237D01*
X140386Y111572D02*
X140386Y113900D01*
X140385Y113900D02*
X140383Y113995D01*
X140377Y114090D01*
X140368Y114184D01*
X140354Y114278D01*
X140337Y114372D01*
X140316Y114464D01*
X140291Y114556D01*
X140262Y114646D01*
X140230Y114736D01*
X140194Y114824D01*
X140154Y114910D01*
X140112Y114995D01*
X140065Y115078D01*
X140015Y115159D01*
X139962Y115237D01*
X139906Y115314D01*
X139847Y115388D01*
X139785Y115460D01*
X139720Y115529D01*
X139652Y115596D01*
X139582Y115659D01*
X139508Y115720D01*
X139433Y115778D01*
X139355Y115832D01*
X139275Y115884D01*
X139193Y115932D01*
X139110Y115976D01*
X139024Y116018D01*
X138937Y116055D01*
X138848Y116089D01*
X138758Y116120D01*
X138667Y116147D01*
X138575Y116170D01*
X138482Y116189D01*
X138388Y116204D01*
X138294Y116216D01*
X138199Y116224D01*
X138104Y116228D01*
X138010Y116228D01*
X137915Y116224D01*
X137820Y116216D01*
X137726Y116204D01*
X137632Y116189D01*
X137539Y116170D01*
X137447Y116147D01*
X137356Y116120D01*
X137266Y116089D01*
X137177Y116055D01*
X137090Y116018D01*
X137004Y115976D01*
X136921Y115932D01*
X136839Y115884D01*
X136759Y115832D01*
X136681Y115778D01*
X136606Y115720D01*
X136532Y115659D01*
X136462Y115596D01*
X136394Y115529D01*
X136329Y115460D01*
X136267Y115388D01*
X136208Y115314D01*
X136152Y115237D01*
X136099Y115159D01*
X136049Y115078D01*
X136002Y114995D01*
X135960Y114910D01*
X135920Y114824D01*
X135884Y114736D01*
X135852Y114646D01*
X135823Y114556D01*
X135798Y114464D01*
X135777Y114372D01*
X135760Y114278D01*
X135746Y114184D01*
X135737Y114090D01*
X135731Y113995D01*
X135729Y113900D01*
X135729Y111572D01*
X144111Y111572D01*
X144111Y113900D01*
X144109Y113985D01*
X144103Y114069D01*
X144094Y114154D01*
X144080Y114237D01*
X144063Y114320D01*
X144042Y114403D01*
X144017Y114484D01*
X143989Y114564D01*
X143957Y114642D01*
X143921Y114719D01*
X143882Y114795D01*
X143840Y114868D01*
X143794Y114939D01*
X143745Y115009D01*
X143693Y115076D01*
X143638Y115140D01*
X143580Y115202D01*
X143520Y115262D01*
X143456Y115318D01*
X143391Y115372D01*
X143322Y115422D01*
X143252Y115469D01*
X143180Y115513D01*
X143105Y115554D01*
X143029Y115591D01*
X142951Y115625D01*
X142872Y115655D01*
X142791Y115682D01*
X142710Y115705D01*
X142627Y115724D01*
X142544Y115739D01*
X142460Y115751D01*
X142375Y115759D01*
X142290Y115763D01*
X142206Y115763D01*
X142121Y115759D01*
X142036Y115751D01*
X141952Y115739D01*
X141869Y115724D01*
X141786Y115705D01*
X141705Y115682D01*
X141624Y115655D01*
X141545Y115625D01*
X141467Y115591D01*
X141391Y115554D01*
X141317Y115513D01*
X141244Y115469D01*
X141174Y115422D01*
X141105Y115372D01*
X141040Y115318D01*
X140976Y115262D01*
X140916Y115202D01*
X140858Y115140D01*
X140803Y115076D01*
X140751Y115009D01*
X140702Y114939D01*
X140656Y114868D01*
X140614Y114795D01*
X140575Y114719D01*
X140539Y114642D01*
X140507Y114564D01*
X140479Y114484D01*
X140454Y114403D01*
X140433Y114320D01*
X140416Y114237D01*
X140402Y114154D01*
X140393Y114069D01*
X140387Y113985D01*
X140385Y113900D01*
X144111Y119729D02*
X140153Y122523D01*
X144111Y125317D01*
X140153Y122523D02*
X135729Y122523D01*
X128871Y33217D02*
X120489Y33217D01*
X128871Y30889D02*
X128871Y35546D01*
X128871Y39822D02*
X120489Y39822D01*
X128871Y39822D02*
X128871Y42150D01*
X128869Y42245D01*
X128863Y42340D01*
X128854Y42434D01*
X128840Y42528D01*
X128823Y42622D01*
X128802Y42714D01*
X128777Y42806D01*
X128748Y42896D01*
X128716Y42986D01*
X128680Y43074D01*
X128640Y43160D01*
X128598Y43245D01*
X128551Y43328D01*
X128501Y43409D01*
X128448Y43487D01*
X128392Y43564D01*
X128333Y43638D01*
X128271Y43710D01*
X128206Y43779D01*
X128138Y43846D01*
X128068Y43909D01*
X127994Y43970D01*
X127919Y44028D01*
X127841Y44082D01*
X127761Y44134D01*
X127679Y44182D01*
X127596Y44226D01*
X127510Y44268D01*
X127423Y44305D01*
X127334Y44339D01*
X127244Y44370D01*
X127153Y44397D01*
X127061Y44420D01*
X126968Y44439D01*
X126874Y44454D01*
X126780Y44466D01*
X126685Y44474D01*
X126590Y44478D01*
X126496Y44478D01*
X126401Y44474D01*
X126306Y44466D01*
X126212Y44454D01*
X126118Y44439D01*
X126025Y44420D01*
X125933Y44397D01*
X125842Y44370D01*
X125752Y44339D01*
X125663Y44305D01*
X125576Y44268D01*
X125490Y44226D01*
X125407Y44182D01*
X125325Y44134D01*
X125245Y44082D01*
X125167Y44028D01*
X125092Y43970D01*
X125018Y43909D01*
X124948Y43846D01*
X124880Y43779D01*
X124815Y43710D01*
X124753Y43638D01*
X124694Y43564D01*
X124638Y43487D01*
X124585Y43409D01*
X124535Y43328D01*
X124488Y43245D01*
X124446Y43160D01*
X124406Y43074D01*
X124370Y42986D01*
X124338Y42896D01*
X124309Y42806D01*
X124284Y42714D01*
X124263Y42622D01*
X124246Y42528D01*
X124232Y42434D01*
X124223Y42340D01*
X124217Y42245D01*
X124215Y42150D01*
X124214Y42150D02*
X124214Y39822D01*
X124214Y42616D02*
X120489Y44479D01*
X120489Y49372D02*
X128871Y49372D01*
X120489Y48440D02*
X120489Y50303D01*
X128871Y50303D02*
X128871Y48440D01*
X128871Y54807D02*
X120489Y54807D01*
X124214Y57601D02*
X128871Y54807D01*
X124214Y57601D02*
X128871Y60395D01*
X120489Y60395D01*
X120489Y65665D02*
X120489Y69390D01*
X120489Y65665D02*
X128871Y65665D01*
X128871Y69390D01*
X125146Y68459D02*
X125146Y65665D01*
X120489Y75745D02*
X120491Y75831D01*
X120497Y75917D01*
X120507Y76002D01*
X120521Y76087D01*
X120538Y76172D01*
X120560Y76255D01*
X120586Y76337D01*
X120615Y76418D01*
X120648Y76498D01*
X120684Y76575D01*
X120724Y76652D01*
X120768Y76726D01*
X120815Y76798D01*
X120865Y76868D01*
X120919Y76935D01*
X120975Y77000D01*
X121035Y77062D01*
X121097Y77122D01*
X121162Y77178D01*
X121229Y77232D01*
X121299Y77282D01*
X121371Y77329D01*
X121445Y77373D01*
X121522Y77413D01*
X121600Y77449D01*
X121679Y77482D01*
X121760Y77511D01*
X121842Y77537D01*
X121925Y77559D01*
X122010Y77576D01*
X122095Y77590D01*
X122180Y77600D01*
X122266Y77606D01*
X122352Y77608D01*
X120489Y75745D02*
X120491Y75621D01*
X120497Y75497D01*
X120507Y75373D01*
X120520Y75249D01*
X120538Y75126D01*
X120559Y75004D01*
X120585Y74882D01*
X120614Y74761D01*
X120647Y74641D01*
X120684Y74523D01*
X120724Y74405D01*
X120768Y74289D01*
X120816Y74174D01*
X120867Y74061D01*
X120922Y73950D01*
X120981Y73840D01*
X121043Y73732D01*
X121108Y73626D01*
X121177Y73523D01*
X121248Y73421D01*
X121323Y73322D01*
X121401Y73226D01*
X121482Y73131D01*
X121566Y73040D01*
X121653Y72951D01*
X127008Y73184D02*
X127092Y73186D01*
X127175Y73191D01*
X127258Y73201D01*
X127341Y73214D01*
X127423Y73231D01*
X127504Y73251D01*
X127584Y73275D01*
X127663Y73303D01*
X127740Y73334D01*
X127816Y73368D01*
X127891Y73406D01*
X127964Y73448D01*
X128034Y73492D01*
X128103Y73540D01*
X128170Y73590D01*
X128234Y73644D01*
X128295Y73700D01*
X128355Y73760D01*
X128411Y73821D01*
X128465Y73885D01*
X128515Y73952D01*
X128563Y74021D01*
X128607Y74091D01*
X128649Y74164D01*
X128687Y74239D01*
X128721Y74315D01*
X128752Y74392D01*
X128780Y74471D01*
X128804Y74551D01*
X128824Y74632D01*
X128841Y74714D01*
X128854Y74797D01*
X128864Y74880D01*
X128869Y74963D01*
X128871Y75047D01*
X128872Y75047D02*
X128870Y75159D01*
X128865Y75272D01*
X128856Y75384D01*
X128843Y75495D01*
X128827Y75607D01*
X128807Y75717D01*
X128784Y75827D01*
X128757Y75936D01*
X128727Y76044D01*
X128693Y76152D01*
X128656Y76258D01*
X128615Y76362D01*
X128571Y76466D01*
X128524Y76568D01*
X128473Y76668D01*
X128419Y76767D01*
X128362Y76864D01*
X128302Y76959D01*
X128239Y77052D01*
X128173Y77143D01*
X125378Y74115D02*
X125423Y74043D01*
X125471Y73972D01*
X125523Y73904D01*
X125577Y73838D01*
X125634Y73775D01*
X125694Y73714D01*
X125757Y73656D01*
X125823Y73601D01*
X125890Y73549D01*
X125960Y73501D01*
X126032Y73455D01*
X126107Y73413D01*
X126183Y73374D01*
X126260Y73338D01*
X126339Y73306D01*
X126420Y73278D01*
X126502Y73253D01*
X126585Y73232D01*
X126668Y73215D01*
X126753Y73201D01*
X126837Y73192D01*
X126923Y73186D01*
X127008Y73184D01*
X123982Y76677D02*
X123937Y76749D01*
X123889Y76820D01*
X123837Y76888D01*
X123783Y76954D01*
X123726Y77017D01*
X123666Y77078D01*
X123603Y77136D01*
X123537Y77191D01*
X123470Y77243D01*
X123400Y77291D01*
X123328Y77337D01*
X123253Y77379D01*
X123177Y77418D01*
X123100Y77454D01*
X123021Y77486D01*
X122940Y77514D01*
X122858Y77539D01*
X122775Y77560D01*
X122692Y77577D01*
X122607Y77591D01*
X122523Y77600D01*
X122437Y77606D01*
X122352Y77608D01*
X123982Y76676D02*
X125379Y74115D01*
X128871Y82095D02*
X120489Y82095D01*
X125146Y82095D02*
X125146Y86752D01*
X128871Y86752D02*
X120489Y86752D01*
X44751Y30889D02*
X36369Y30889D01*
X44751Y30889D02*
X44751Y33217D01*
X44749Y33312D01*
X44743Y33407D01*
X44734Y33501D01*
X44720Y33595D01*
X44703Y33689D01*
X44682Y33781D01*
X44657Y33873D01*
X44628Y33963D01*
X44596Y34053D01*
X44560Y34141D01*
X44520Y34227D01*
X44478Y34312D01*
X44431Y34395D01*
X44381Y34476D01*
X44328Y34554D01*
X44272Y34631D01*
X44213Y34705D01*
X44151Y34777D01*
X44086Y34846D01*
X44018Y34913D01*
X43948Y34976D01*
X43874Y35037D01*
X43799Y35095D01*
X43721Y35149D01*
X43641Y35201D01*
X43559Y35249D01*
X43476Y35293D01*
X43390Y35335D01*
X43303Y35372D01*
X43214Y35406D01*
X43124Y35437D01*
X43033Y35464D01*
X42941Y35487D01*
X42848Y35506D01*
X42754Y35521D01*
X42660Y35533D01*
X42565Y35541D01*
X42470Y35545D01*
X42376Y35545D01*
X42281Y35541D01*
X42186Y35533D01*
X42092Y35521D01*
X41998Y35506D01*
X41905Y35487D01*
X41813Y35464D01*
X41722Y35437D01*
X41632Y35406D01*
X41543Y35372D01*
X41456Y35335D01*
X41370Y35293D01*
X41287Y35249D01*
X41205Y35201D01*
X41125Y35149D01*
X41047Y35095D01*
X40972Y35037D01*
X40898Y34976D01*
X40828Y34913D01*
X40760Y34846D01*
X40695Y34777D01*
X40633Y34705D01*
X40574Y34631D01*
X40518Y34554D01*
X40465Y34476D01*
X40415Y34395D01*
X40368Y34312D01*
X40326Y34227D01*
X40286Y34141D01*
X40250Y34053D01*
X40218Y33963D01*
X40189Y33873D01*
X40164Y33781D01*
X40143Y33689D01*
X40126Y33595D01*
X40112Y33501D01*
X40103Y33407D01*
X40097Y33312D01*
X40095Y33217D01*
X40094Y33217D02*
X40094Y30889D01*
X36369Y41333D02*
X36369Y43195D01*
X36369Y41333D02*
X36371Y41249D01*
X36376Y41166D01*
X36386Y41083D01*
X36399Y41000D01*
X36416Y40918D01*
X36436Y40837D01*
X36460Y40757D01*
X36488Y40678D01*
X36519Y40601D01*
X36553Y40525D01*
X36591Y40450D01*
X36633Y40377D01*
X36677Y40307D01*
X36725Y40238D01*
X36775Y40171D01*
X36829Y40107D01*
X36885Y40046D01*
X36945Y39986D01*
X37006Y39930D01*
X37070Y39876D01*
X37137Y39826D01*
X37206Y39778D01*
X37276Y39734D01*
X37349Y39692D01*
X37424Y39654D01*
X37500Y39620D01*
X37577Y39589D01*
X37656Y39561D01*
X37736Y39537D01*
X37817Y39517D01*
X37899Y39500D01*
X37982Y39487D01*
X38065Y39477D01*
X38148Y39472D01*
X38232Y39470D01*
X42888Y39470D01*
X42974Y39472D01*
X43060Y39478D01*
X43145Y39488D01*
X43230Y39502D01*
X43315Y39519D01*
X43398Y39541D01*
X43480Y39567D01*
X43561Y39596D01*
X43640Y39629D01*
X43718Y39665D01*
X43795Y39705D01*
X43869Y39749D01*
X43941Y39796D01*
X44011Y39846D01*
X44078Y39900D01*
X44143Y39956D01*
X44205Y40016D01*
X44265Y40078D01*
X44321Y40143D01*
X44375Y40210D01*
X44425Y40280D01*
X44472Y40352D01*
X44516Y40426D01*
X44556Y40503D01*
X44592Y40580D01*
X44625Y40660D01*
X44654Y40741D01*
X44680Y40823D01*
X44702Y40906D01*
X44719Y40991D01*
X44733Y41076D01*
X44743Y41161D01*
X44749Y41247D01*
X44751Y41333D01*
X44751Y43195D01*
X41026Y47653D02*
X41026Y49981D01*
X41025Y49981D02*
X41023Y50076D01*
X41017Y50171D01*
X41008Y50265D01*
X40994Y50359D01*
X40977Y50453D01*
X40956Y50545D01*
X40931Y50637D01*
X40902Y50727D01*
X40870Y50817D01*
X40834Y50905D01*
X40794Y50991D01*
X40752Y51076D01*
X40705Y51159D01*
X40655Y51240D01*
X40602Y51318D01*
X40546Y51395D01*
X40487Y51469D01*
X40425Y51541D01*
X40360Y51610D01*
X40292Y51677D01*
X40222Y51740D01*
X40148Y51801D01*
X40073Y51859D01*
X39995Y51913D01*
X39915Y51965D01*
X39833Y52013D01*
X39750Y52057D01*
X39664Y52099D01*
X39577Y52136D01*
X39488Y52170D01*
X39398Y52201D01*
X39307Y52228D01*
X39215Y52251D01*
X39122Y52270D01*
X39028Y52285D01*
X38934Y52297D01*
X38839Y52305D01*
X38744Y52309D01*
X38650Y52309D01*
X38555Y52305D01*
X38460Y52297D01*
X38366Y52285D01*
X38272Y52270D01*
X38179Y52251D01*
X38087Y52228D01*
X37996Y52201D01*
X37906Y52170D01*
X37817Y52136D01*
X37730Y52099D01*
X37644Y52057D01*
X37561Y52013D01*
X37479Y51965D01*
X37399Y51913D01*
X37321Y51859D01*
X37246Y51801D01*
X37172Y51740D01*
X37102Y51677D01*
X37034Y51610D01*
X36969Y51541D01*
X36907Y51469D01*
X36848Y51395D01*
X36792Y51318D01*
X36739Y51240D01*
X36689Y51159D01*
X36642Y51076D01*
X36600Y50991D01*
X36560Y50905D01*
X36524Y50817D01*
X36492Y50727D01*
X36463Y50637D01*
X36438Y50545D01*
X36417Y50453D01*
X36400Y50359D01*
X36386Y50265D01*
X36377Y50171D01*
X36371Y50076D01*
X36369Y49981D01*
X36369Y47653D01*
X44751Y47653D01*
X44751Y49981D01*
X44749Y50066D01*
X44743Y50150D01*
X44734Y50235D01*
X44720Y50318D01*
X44703Y50401D01*
X44682Y50484D01*
X44657Y50565D01*
X44629Y50645D01*
X44597Y50723D01*
X44561Y50800D01*
X44522Y50876D01*
X44480Y50949D01*
X44434Y51020D01*
X44385Y51090D01*
X44333Y51157D01*
X44278Y51221D01*
X44220Y51283D01*
X44160Y51343D01*
X44096Y51399D01*
X44031Y51453D01*
X43962Y51503D01*
X43892Y51550D01*
X43820Y51594D01*
X43745Y51635D01*
X43669Y51672D01*
X43591Y51706D01*
X43512Y51736D01*
X43431Y51763D01*
X43350Y51786D01*
X43267Y51805D01*
X43184Y51820D01*
X43100Y51832D01*
X43015Y51840D01*
X42930Y51844D01*
X42846Y51844D01*
X42761Y51840D01*
X42676Y51832D01*
X42592Y51820D01*
X42509Y51805D01*
X42426Y51786D01*
X42345Y51763D01*
X42264Y51736D01*
X42185Y51706D01*
X42107Y51672D01*
X42031Y51635D01*
X41957Y51594D01*
X41884Y51550D01*
X41814Y51503D01*
X41745Y51453D01*
X41680Y51399D01*
X41616Y51343D01*
X41556Y51283D01*
X41498Y51221D01*
X41443Y51157D01*
X41391Y51090D01*
X41342Y51020D01*
X41296Y50949D01*
X41254Y50876D01*
X41215Y50800D01*
X41179Y50723D01*
X41147Y50645D01*
X41119Y50565D01*
X41094Y50484D01*
X41073Y50401D01*
X41056Y50318D01*
X41042Y50235D01*
X41033Y50150D01*
X41027Y50066D01*
X41025Y49981D01*
X41026Y61674D02*
X41026Y64002D01*
X41025Y64002D02*
X41023Y64097D01*
X41017Y64192D01*
X41008Y64286D01*
X40994Y64380D01*
X40977Y64474D01*
X40956Y64566D01*
X40931Y64658D01*
X40902Y64748D01*
X40870Y64838D01*
X40834Y64926D01*
X40794Y65012D01*
X40752Y65097D01*
X40705Y65180D01*
X40655Y65261D01*
X40602Y65339D01*
X40546Y65416D01*
X40487Y65490D01*
X40425Y65562D01*
X40360Y65631D01*
X40292Y65698D01*
X40222Y65761D01*
X40148Y65822D01*
X40073Y65880D01*
X39995Y65934D01*
X39915Y65986D01*
X39833Y66034D01*
X39750Y66078D01*
X39664Y66120D01*
X39577Y66157D01*
X39488Y66191D01*
X39398Y66222D01*
X39307Y66249D01*
X39215Y66272D01*
X39122Y66291D01*
X39028Y66306D01*
X38934Y66318D01*
X38839Y66326D01*
X38744Y66330D01*
X38650Y66330D01*
X38555Y66326D01*
X38460Y66318D01*
X38366Y66306D01*
X38272Y66291D01*
X38179Y66272D01*
X38087Y66249D01*
X37996Y66222D01*
X37906Y66191D01*
X37817Y66157D01*
X37730Y66120D01*
X37644Y66078D01*
X37561Y66034D01*
X37479Y65986D01*
X37399Y65934D01*
X37321Y65880D01*
X37246Y65822D01*
X37172Y65761D01*
X37102Y65698D01*
X37034Y65631D01*
X36969Y65562D01*
X36907Y65490D01*
X36848Y65416D01*
X36792Y65339D01*
X36739Y65261D01*
X36689Y65180D01*
X36642Y65097D01*
X36600Y65012D01*
X36560Y64926D01*
X36524Y64838D01*
X36492Y64748D01*
X36463Y64658D01*
X36438Y64566D01*
X36417Y64474D01*
X36400Y64380D01*
X36386Y64286D01*
X36377Y64192D01*
X36371Y64097D01*
X36369Y64002D01*
X36369Y61674D01*
X44751Y61674D01*
X44751Y64002D01*
X44749Y64087D01*
X44743Y64171D01*
X44734Y64256D01*
X44720Y64339D01*
X44703Y64422D01*
X44682Y64505D01*
X44657Y64586D01*
X44629Y64666D01*
X44597Y64744D01*
X44561Y64821D01*
X44522Y64897D01*
X44480Y64970D01*
X44434Y65041D01*
X44385Y65111D01*
X44333Y65178D01*
X44278Y65242D01*
X44220Y65304D01*
X44160Y65364D01*
X44096Y65420D01*
X44031Y65474D01*
X43962Y65524D01*
X43892Y65571D01*
X43820Y65615D01*
X43745Y65656D01*
X43669Y65693D01*
X43591Y65727D01*
X43512Y65757D01*
X43431Y65784D01*
X43350Y65807D01*
X43267Y65826D01*
X43184Y65841D01*
X43100Y65853D01*
X43015Y65861D01*
X42930Y65865D01*
X42846Y65865D01*
X42761Y65861D01*
X42676Y65853D01*
X42592Y65841D01*
X42509Y65826D01*
X42426Y65807D01*
X42345Y65784D01*
X42264Y65757D01*
X42185Y65727D01*
X42107Y65693D01*
X42031Y65656D01*
X41957Y65615D01*
X41884Y65571D01*
X41814Y65524D01*
X41745Y65474D01*
X41680Y65420D01*
X41616Y65364D01*
X41556Y65304D01*
X41498Y65242D01*
X41443Y65178D01*
X41391Y65111D01*
X41342Y65041D01*
X41296Y64970D01*
X41254Y64897D01*
X41215Y64821D01*
X41179Y64744D01*
X41147Y64666D01*
X41119Y64586D01*
X41094Y64505D01*
X41073Y64422D01*
X41056Y64339D01*
X41042Y64256D01*
X41033Y64171D01*
X41027Y64087D01*
X41025Y64002D01*
X44751Y69831D02*
X40793Y72625D01*
X44751Y75419D01*
X40793Y72625D02*
X36369Y72625D01*
X21129Y34614D02*
X21129Y32752D01*
X21131Y32668D01*
X21136Y32585D01*
X21146Y32502D01*
X21159Y32419D01*
X21176Y32337D01*
X21196Y32256D01*
X21220Y32176D01*
X21248Y32097D01*
X21279Y32020D01*
X21313Y31944D01*
X21351Y31869D01*
X21393Y31796D01*
X21437Y31726D01*
X21485Y31657D01*
X21535Y31590D01*
X21589Y31526D01*
X21645Y31465D01*
X21705Y31405D01*
X21766Y31349D01*
X21830Y31295D01*
X21897Y31245D01*
X21966Y31197D01*
X22036Y31153D01*
X22109Y31111D01*
X22184Y31073D01*
X22260Y31039D01*
X22337Y31008D01*
X22416Y30980D01*
X22496Y30956D01*
X22577Y30936D01*
X22659Y30919D01*
X22742Y30906D01*
X22825Y30896D01*
X22908Y30891D01*
X22992Y30889D01*
X27648Y30889D01*
X27734Y30891D01*
X27820Y30897D01*
X27905Y30907D01*
X27990Y30921D01*
X28075Y30938D01*
X28158Y30960D01*
X28240Y30986D01*
X28321Y31015D01*
X28400Y31048D01*
X28478Y31084D01*
X28555Y31124D01*
X28629Y31168D01*
X28701Y31215D01*
X28771Y31265D01*
X28838Y31319D01*
X28903Y31375D01*
X28965Y31435D01*
X29025Y31497D01*
X29081Y31562D01*
X29135Y31629D01*
X29185Y31699D01*
X29232Y31771D01*
X29276Y31845D01*
X29316Y31922D01*
X29352Y31999D01*
X29385Y32079D01*
X29414Y32160D01*
X29440Y32242D01*
X29462Y32325D01*
X29479Y32410D01*
X29493Y32495D01*
X29503Y32580D01*
X29509Y32666D01*
X29511Y32752D01*
X29511Y34614D01*
X27183Y38551D02*
X23457Y38551D01*
X27183Y38552D02*
X27278Y38554D01*
X27373Y38560D01*
X27467Y38569D01*
X27561Y38583D01*
X27655Y38600D01*
X27747Y38621D01*
X27839Y38646D01*
X27929Y38675D01*
X28019Y38707D01*
X28107Y38743D01*
X28193Y38783D01*
X28278Y38825D01*
X28361Y38872D01*
X28442Y38922D01*
X28520Y38975D01*
X28597Y39031D01*
X28671Y39090D01*
X28743Y39152D01*
X28812Y39217D01*
X28879Y39285D01*
X28942Y39355D01*
X29003Y39429D01*
X29061Y39504D01*
X29115Y39582D01*
X29167Y39662D01*
X29215Y39744D01*
X29259Y39827D01*
X29301Y39913D01*
X29338Y40000D01*
X29372Y40089D01*
X29403Y40179D01*
X29430Y40270D01*
X29453Y40362D01*
X29472Y40455D01*
X29487Y40549D01*
X29499Y40643D01*
X29507Y40738D01*
X29511Y40833D01*
X29511Y40927D01*
X29507Y41022D01*
X29499Y41117D01*
X29487Y41211D01*
X29472Y41305D01*
X29453Y41398D01*
X29430Y41490D01*
X29403Y41581D01*
X29372Y41671D01*
X29338Y41760D01*
X29301Y41847D01*
X29259Y41933D01*
X29215Y42016D01*
X29167Y42098D01*
X29115Y42178D01*
X29061Y42256D01*
X29003Y42331D01*
X28942Y42405D01*
X28879Y42475D01*
X28812Y42543D01*
X28743Y42608D01*
X28671Y42670D01*
X28597Y42729D01*
X28520Y42785D01*
X28442Y42838D01*
X28361Y42888D01*
X28278Y42935D01*
X28193Y42977D01*
X28107Y43017D01*
X28019Y43053D01*
X27929Y43085D01*
X27839Y43114D01*
X27747Y43139D01*
X27655Y43160D01*
X27561Y43177D01*
X27467Y43191D01*
X27373Y43200D01*
X27278Y43206D01*
X27183Y43208D01*
X23457Y43208D01*
X23362Y43206D01*
X23267Y43200D01*
X23173Y43191D01*
X23079Y43177D01*
X22985Y43160D01*
X22893Y43139D01*
X22801Y43114D01*
X22711Y43085D01*
X22621Y43053D01*
X22533Y43017D01*
X22447Y42977D01*
X22362Y42935D01*
X22279Y42888D01*
X22198Y42838D01*
X22120Y42785D01*
X22043Y42729D01*
X21969Y42670D01*
X21897Y42608D01*
X21828Y42543D01*
X21761Y42475D01*
X21698Y42405D01*
X21637Y42331D01*
X21579Y42256D01*
X21525Y42178D01*
X21473Y42098D01*
X21425Y42016D01*
X21381Y41933D01*
X21339Y41847D01*
X21302Y41760D01*
X21268Y41671D01*
X21237Y41581D01*
X21210Y41490D01*
X21187Y41398D01*
X21168Y41305D01*
X21153Y41211D01*
X21141Y41117D01*
X21133Y41022D01*
X21129Y40927D01*
X21129Y40833D01*
X21133Y40738D01*
X21141Y40643D01*
X21153Y40549D01*
X21168Y40455D01*
X21187Y40362D01*
X21210Y40270D01*
X21237Y40179D01*
X21268Y40089D01*
X21302Y40000D01*
X21339Y39913D01*
X21381Y39827D01*
X21425Y39744D01*
X21473Y39662D01*
X21525Y39582D01*
X21579Y39504D01*
X21637Y39429D01*
X21698Y39355D01*
X21761Y39285D01*
X21828Y39217D01*
X21897Y39152D01*
X21969Y39090D01*
X22043Y39031D01*
X22120Y38975D01*
X22198Y38922D01*
X22279Y38872D01*
X22362Y38825D01*
X22447Y38783D01*
X22533Y38743D01*
X22621Y38707D01*
X22711Y38675D01*
X22801Y38646D01*
X22893Y38621D01*
X22985Y38600D01*
X23079Y38583D01*
X23173Y38569D01*
X23267Y38560D01*
X23362Y38554D01*
X23457Y38552D01*
X21129Y48000D02*
X29511Y48000D01*
X21129Y52657D01*
X29511Y52657D01*
X21129Y59938D02*
X21131Y60024D01*
X21137Y60110D01*
X21147Y60195D01*
X21161Y60280D01*
X21178Y60365D01*
X21200Y60448D01*
X21226Y60530D01*
X21255Y60611D01*
X21288Y60691D01*
X21324Y60768D01*
X21364Y60845D01*
X21408Y60919D01*
X21455Y60991D01*
X21505Y61061D01*
X21559Y61128D01*
X21615Y61193D01*
X21675Y61255D01*
X21737Y61315D01*
X21802Y61371D01*
X21869Y61425D01*
X21939Y61475D01*
X22011Y61522D01*
X22085Y61566D01*
X22162Y61606D01*
X22240Y61642D01*
X22319Y61675D01*
X22400Y61704D01*
X22482Y61730D01*
X22565Y61752D01*
X22650Y61769D01*
X22735Y61783D01*
X22820Y61793D01*
X22906Y61799D01*
X22992Y61801D01*
X21129Y59938D02*
X21131Y59814D01*
X21137Y59690D01*
X21147Y59566D01*
X21160Y59442D01*
X21178Y59319D01*
X21199Y59197D01*
X21225Y59075D01*
X21254Y58954D01*
X21287Y58834D01*
X21324Y58716D01*
X21364Y58598D01*
X21408Y58482D01*
X21456Y58367D01*
X21507Y58254D01*
X21562Y58143D01*
X21621Y58033D01*
X21683Y57925D01*
X21748Y57819D01*
X21817Y57716D01*
X21888Y57614D01*
X21963Y57515D01*
X22041Y57419D01*
X22122Y57324D01*
X22206Y57233D01*
X22293Y57144D01*
X27648Y57377D02*
X27732Y57379D01*
X27815Y57384D01*
X27898Y57394D01*
X27981Y57407D01*
X28063Y57424D01*
X28144Y57444D01*
X28224Y57468D01*
X28303Y57496D01*
X28380Y57527D01*
X28456Y57561D01*
X28531Y57599D01*
X28604Y57641D01*
X28674Y57685D01*
X28743Y57733D01*
X28810Y57783D01*
X28874Y57837D01*
X28935Y57893D01*
X28995Y57953D01*
X29051Y58014D01*
X29105Y58078D01*
X29155Y58145D01*
X29203Y58214D01*
X29247Y58284D01*
X29289Y58357D01*
X29327Y58432D01*
X29361Y58508D01*
X29392Y58585D01*
X29420Y58664D01*
X29444Y58744D01*
X29464Y58825D01*
X29481Y58907D01*
X29494Y58990D01*
X29504Y59073D01*
X29509Y59156D01*
X29511Y59240D01*
X29512Y59240D02*
X29510Y59352D01*
X29505Y59465D01*
X29496Y59577D01*
X29483Y59688D01*
X29467Y59800D01*
X29447Y59910D01*
X29424Y60020D01*
X29397Y60129D01*
X29367Y60237D01*
X29333Y60345D01*
X29296Y60451D01*
X29255Y60555D01*
X29211Y60659D01*
X29164Y60761D01*
X29113Y60861D01*
X29059Y60960D01*
X29002Y61057D01*
X28942Y61152D01*
X28879Y61245D01*
X28813Y61336D01*
X26018Y58308D02*
X26063Y58236D01*
X26111Y58165D01*
X26163Y58097D01*
X26217Y58031D01*
X26274Y57968D01*
X26334Y57907D01*
X26397Y57849D01*
X26463Y57794D01*
X26530Y57742D01*
X26600Y57694D01*
X26672Y57648D01*
X26747Y57606D01*
X26823Y57567D01*
X26900Y57531D01*
X26979Y57499D01*
X27060Y57471D01*
X27142Y57446D01*
X27225Y57425D01*
X27308Y57408D01*
X27393Y57394D01*
X27477Y57385D01*
X27563Y57379D01*
X27648Y57377D01*
X24622Y60870D02*
X24577Y60942D01*
X24529Y61013D01*
X24477Y61081D01*
X24423Y61147D01*
X24366Y61210D01*
X24306Y61271D01*
X24243Y61329D01*
X24177Y61384D01*
X24110Y61436D01*
X24040Y61484D01*
X23968Y61530D01*
X23893Y61572D01*
X23817Y61611D01*
X23740Y61647D01*
X23661Y61679D01*
X23580Y61707D01*
X23498Y61732D01*
X23415Y61753D01*
X23332Y61770D01*
X23247Y61784D01*
X23163Y61793D01*
X23077Y61799D01*
X22992Y61801D01*
X24622Y60869D02*
X26019Y58308D01*
X27183Y65983D02*
X23457Y65983D01*
X27183Y65984D02*
X27278Y65986D01*
X27373Y65992D01*
X27467Y66001D01*
X27561Y66015D01*
X27655Y66032D01*
X27747Y66053D01*
X27839Y66078D01*
X27929Y66107D01*
X28019Y66139D01*
X28107Y66175D01*
X28193Y66215D01*
X28278Y66257D01*
X28361Y66304D01*
X28442Y66354D01*
X28520Y66407D01*
X28597Y66463D01*
X28671Y66522D01*
X28743Y66584D01*
X28812Y66649D01*
X28879Y66717D01*
X28942Y66787D01*
X29003Y66861D01*
X29061Y66936D01*
X29115Y67014D01*
X29167Y67094D01*
X29215Y67176D01*
X29259Y67259D01*
X29301Y67345D01*
X29338Y67432D01*
X29372Y67521D01*
X29403Y67611D01*
X29430Y67702D01*
X29453Y67794D01*
X29472Y67887D01*
X29487Y67981D01*
X29499Y68075D01*
X29507Y68170D01*
X29511Y68265D01*
X29511Y68359D01*
X29507Y68454D01*
X29499Y68549D01*
X29487Y68643D01*
X29472Y68737D01*
X29453Y68830D01*
X29430Y68922D01*
X29403Y69013D01*
X29372Y69103D01*
X29338Y69192D01*
X29301Y69279D01*
X29259Y69365D01*
X29215Y69448D01*
X29167Y69530D01*
X29115Y69610D01*
X29061Y69688D01*
X29003Y69763D01*
X28942Y69837D01*
X28879Y69907D01*
X28812Y69975D01*
X28743Y70040D01*
X28671Y70102D01*
X28597Y70161D01*
X28520Y70217D01*
X28442Y70270D01*
X28361Y70320D01*
X28278Y70367D01*
X28193Y70409D01*
X28107Y70449D01*
X28019Y70485D01*
X27929Y70517D01*
X27839Y70546D01*
X27747Y70571D01*
X27655Y70592D01*
X27561Y70609D01*
X27467Y70623D01*
X27373Y70632D01*
X27278Y70638D01*
X27183Y70640D01*
X23457Y70640D01*
X23362Y70638D01*
X23267Y70632D01*
X23173Y70623D01*
X23079Y70609D01*
X22985Y70592D01*
X22893Y70571D01*
X22801Y70546D01*
X22711Y70517D01*
X22621Y70485D01*
X22533Y70449D01*
X22447Y70409D01*
X22362Y70367D01*
X22279Y70320D01*
X22198Y70270D01*
X22120Y70217D01*
X22043Y70161D01*
X21969Y70102D01*
X21897Y70040D01*
X21828Y69975D01*
X21761Y69907D01*
X21698Y69837D01*
X21637Y69763D01*
X21579Y69688D01*
X21525Y69610D01*
X21473Y69530D01*
X21425Y69448D01*
X21381Y69365D01*
X21339Y69279D01*
X21302Y69192D01*
X21268Y69103D01*
X21237Y69013D01*
X21210Y68922D01*
X21187Y68830D01*
X21168Y68737D01*
X21153Y68643D01*
X21141Y68549D01*
X21133Y68454D01*
X21129Y68359D01*
X21129Y68265D01*
X21133Y68170D01*
X21141Y68075D01*
X21153Y67981D01*
X21168Y67887D01*
X21187Y67794D01*
X21210Y67702D01*
X21237Y67611D01*
X21268Y67521D01*
X21302Y67432D01*
X21339Y67345D01*
X21381Y67259D01*
X21425Y67176D01*
X21473Y67094D01*
X21525Y67014D01*
X21579Y66936D01*
X21637Y66861D01*
X21698Y66787D01*
X21761Y66717D01*
X21828Y66649D01*
X21897Y66584D01*
X21969Y66522D01*
X22043Y66463D01*
X22120Y66407D01*
X22198Y66354D01*
X22279Y66304D01*
X22362Y66257D01*
X22447Y66215D01*
X22533Y66175D01*
X22621Y66139D01*
X22711Y66107D01*
X22801Y66078D01*
X22893Y66053D01*
X22985Y66032D01*
X23079Y66015D01*
X23173Y66001D01*
X23267Y65992D01*
X23362Y65986D01*
X23457Y65984D01*
X21129Y75461D02*
X29511Y75461D01*
X21129Y75461D02*
X21129Y79186D01*
X21129Y83386D02*
X21129Y87111D01*
X21129Y83386D02*
X29511Y83386D01*
X29511Y87111D01*
X25786Y86180D02*
X25786Y83386D01*
X21129Y93466D02*
X21131Y93552D01*
X21137Y93638D01*
X21147Y93723D01*
X21161Y93808D01*
X21178Y93893D01*
X21200Y93976D01*
X21226Y94058D01*
X21255Y94139D01*
X21288Y94219D01*
X21324Y94296D01*
X21364Y94373D01*
X21408Y94447D01*
X21455Y94519D01*
X21505Y94589D01*
X21559Y94656D01*
X21615Y94721D01*
X21675Y94783D01*
X21737Y94843D01*
X21802Y94899D01*
X21869Y94953D01*
X21939Y95003D01*
X22011Y95050D01*
X22085Y95094D01*
X22162Y95134D01*
X22240Y95170D01*
X22319Y95203D01*
X22400Y95232D01*
X22482Y95258D01*
X22565Y95280D01*
X22650Y95297D01*
X22735Y95311D01*
X22820Y95321D01*
X22906Y95327D01*
X22992Y95329D01*
X21129Y93466D02*
X21131Y93342D01*
X21137Y93218D01*
X21147Y93094D01*
X21160Y92970D01*
X21178Y92847D01*
X21199Y92725D01*
X21225Y92603D01*
X21254Y92482D01*
X21287Y92362D01*
X21324Y92244D01*
X21364Y92126D01*
X21408Y92010D01*
X21456Y91895D01*
X21507Y91782D01*
X21562Y91671D01*
X21621Y91561D01*
X21683Y91453D01*
X21748Y91347D01*
X21817Y91244D01*
X21888Y91142D01*
X21963Y91043D01*
X22041Y90947D01*
X22122Y90852D01*
X22206Y90761D01*
X22293Y90672D01*
X27648Y90904D02*
X27732Y90906D01*
X27815Y90911D01*
X27898Y90921D01*
X27981Y90934D01*
X28063Y90951D01*
X28144Y90971D01*
X28224Y90995D01*
X28303Y91023D01*
X28380Y91054D01*
X28456Y91088D01*
X28531Y91126D01*
X28604Y91168D01*
X28674Y91212D01*
X28743Y91260D01*
X28810Y91310D01*
X28874Y91364D01*
X28935Y91420D01*
X28995Y91480D01*
X29051Y91541D01*
X29105Y91605D01*
X29155Y91672D01*
X29203Y91741D01*
X29247Y91811D01*
X29289Y91884D01*
X29327Y91959D01*
X29361Y92035D01*
X29392Y92112D01*
X29420Y92191D01*
X29444Y92271D01*
X29464Y92352D01*
X29481Y92434D01*
X29494Y92517D01*
X29504Y92600D01*
X29509Y92683D01*
X29511Y92767D01*
X29512Y92767D02*
X29510Y92879D01*
X29505Y92992D01*
X29496Y93104D01*
X29483Y93215D01*
X29467Y93327D01*
X29447Y93437D01*
X29424Y93547D01*
X29397Y93656D01*
X29367Y93764D01*
X29333Y93872D01*
X29296Y93978D01*
X29255Y94082D01*
X29211Y94186D01*
X29164Y94288D01*
X29113Y94388D01*
X29059Y94487D01*
X29002Y94584D01*
X28942Y94679D01*
X28879Y94772D01*
X28813Y94863D01*
X26018Y91835D02*
X26063Y91763D01*
X26111Y91692D01*
X26163Y91624D01*
X26217Y91558D01*
X26274Y91495D01*
X26334Y91434D01*
X26397Y91376D01*
X26463Y91321D01*
X26530Y91269D01*
X26600Y91221D01*
X26672Y91175D01*
X26747Y91133D01*
X26823Y91094D01*
X26900Y91058D01*
X26979Y91026D01*
X27060Y90998D01*
X27142Y90973D01*
X27225Y90952D01*
X27308Y90935D01*
X27393Y90921D01*
X27477Y90912D01*
X27563Y90906D01*
X27648Y90904D01*
X24622Y94398D02*
X24577Y94470D01*
X24529Y94541D01*
X24477Y94609D01*
X24423Y94675D01*
X24366Y94738D01*
X24306Y94799D01*
X24243Y94857D01*
X24177Y94912D01*
X24110Y94964D01*
X24040Y95012D01*
X23968Y95058D01*
X23893Y95100D01*
X23817Y95139D01*
X23740Y95175D01*
X23661Y95207D01*
X23580Y95235D01*
X23498Y95260D01*
X23415Y95281D01*
X23332Y95298D01*
X23247Y95312D01*
X23163Y95321D01*
X23077Y95327D01*
X22992Y95329D01*
X24622Y94397D02*
X26019Y91836D01*
X14271Y30889D02*
X8217Y30889D01*
X8122Y30891D01*
X8027Y30897D01*
X7933Y30906D01*
X7839Y30920D01*
X7745Y30937D01*
X7653Y30958D01*
X7561Y30983D01*
X7471Y31012D01*
X7381Y31044D01*
X7293Y31080D01*
X7207Y31120D01*
X7122Y31162D01*
X7039Y31209D01*
X6958Y31259D01*
X6880Y31312D01*
X6803Y31368D01*
X6729Y31427D01*
X6657Y31489D01*
X6588Y31554D01*
X6521Y31622D01*
X6458Y31692D01*
X6397Y31766D01*
X6339Y31841D01*
X6285Y31919D01*
X6233Y31999D01*
X6185Y32081D01*
X6141Y32164D01*
X6099Y32250D01*
X6062Y32337D01*
X6028Y32426D01*
X5997Y32516D01*
X5970Y32607D01*
X5947Y32699D01*
X5928Y32792D01*
X5913Y32886D01*
X5901Y32980D01*
X5893Y33075D01*
X5889Y33170D01*
X5889Y33264D01*
X5893Y33359D01*
X5901Y33454D01*
X5913Y33548D01*
X5928Y33642D01*
X5947Y33735D01*
X5970Y33827D01*
X5997Y33918D01*
X6028Y34008D01*
X6062Y34097D01*
X6099Y34184D01*
X6141Y34270D01*
X6185Y34353D01*
X6233Y34435D01*
X6285Y34515D01*
X6339Y34593D01*
X6397Y34668D01*
X6458Y34742D01*
X6521Y34812D01*
X6588Y34880D01*
X6657Y34945D01*
X6729Y35007D01*
X6803Y35066D01*
X6880Y35122D01*
X6958Y35175D01*
X7039Y35225D01*
X7122Y35272D01*
X7207Y35314D01*
X7293Y35354D01*
X7381Y35390D01*
X7471Y35422D01*
X7561Y35451D01*
X7653Y35476D01*
X7745Y35497D01*
X7839Y35514D01*
X7933Y35528D01*
X8027Y35537D01*
X8122Y35543D01*
X8217Y35545D01*
X8217Y35546D02*
X14271Y35546D01*
X14271Y40643D02*
X5889Y40643D01*
X5889Y45299D02*
X14271Y40643D01*
X14271Y45299D02*
X5889Y45299D01*
X5889Y50425D02*
X14271Y50425D01*
X5889Y50425D02*
X5889Y54150D01*
X5889Y58350D02*
X5889Y62075D01*
X5889Y58350D02*
X14271Y58350D01*
X14271Y62075D01*
X10546Y61144D02*
X10546Y58350D01*
X5889Y65475D02*
X14271Y68269D01*
X5889Y71063D01*
X7985Y70365D02*
X7985Y66174D01*
X5889Y77574D02*
X5891Y77660D01*
X5897Y77746D01*
X5907Y77831D01*
X5921Y77916D01*
X5938Y78001D01*
X5960Y78084D01*
X5986Y78166D01*
X6015Y78247D01*
X6048Y78327D01*
X6084Y78404D01*
X6124Y78481D01*
X6168Y78555D01*
X6215Y78627D01*
X6265Y78697D01*
X6319Y78764D01*
X6375Y78829D01*
X6435Y78891D01*
X6497Y78951D01*
X6562Y79007D01*
X6629Y79061D01*
X6699Y79111D01*
X6771Y79158D01*
X6845Y79202D01*
X6922Y79242D01*
X7000Y79278D01*
X7079Y79311D01*
X7160Y79340D01*
X7242Y79366D01*
X7325Y79388D01*
X7410Y79405D01*
X7495Y79419D01*
X7580Y79429D01*
X7666Y79435D01*
X7752Y79437D01*
X5889Y77574D02*
X5891Y77450D01*
X5897Y77326D01*
X5907Y77202D01*
X5920Y77078D01*
X5938Y76955D01*
X5959Y76833D01*
X5985Y76711D01*
X6014Y76590D01*
X6047Y76470D01*
X6084Y76352D01*
X6124Y76234D01*
X6168Y76118D01*
X6216Y76003D01*
X6267Y75890D01*
X6322Y75779D01*
X6381Y75669D01*
X6443Y75561D01*
X6508Y75455D01*
X6577Y75352D01*
X6648Y75250D01*
X6723Y75151D01*
X6801Y75055D01*
X6882Y74960D01*
X6966Y74869D01*
X7053Y74780D01*
X12408Y75013D02*
X12492Y75015D01*
X12575Y75020D01*
X12658Y75030D01*
X12741Y75043D01*
X12823Y75060D01*
X12904Y75080D01*
X12984Y75104D01*
X13063Y75132D01*
X13140Y75163D01*
X13216Y75197D01*
X13291Y75235D01*
X13364Y75277D01*
X13434Y75321D01*
X13503Y75369D01*
X13570Y75419D01*
X13634Y75473D01*
X13695Y75529D01*
X13755Y75589D01*
X13811Y75650D01*
X13865Y75714D01*
X13915Y75781D01*
X13963Y75850D01*
X14007Y75920D01*
X14049Y75993D01*
X14087Y76068D01*
X14121Y76144D01*
X14152Y76221D01*
X14180Y76300D01*
X14204Y76380D01*
X14224Y76461D01*
X14241Y76543D01*
X14254Y76626D01*
X14264Y76709D01*
X14269Y76792D01*
X14271Y76876D01*
X14272Y76876D02*
X14270Y76988D01*
X14265Y77101D01*
X14256Y77213D01*
X14243Y77324D01*
X14227Y77436D01*
X14207Y77546D01*
X14184Y77656D01*
X14157Y77765D01*
X14127Y77873D01*
X14093Y77981D01*
X14056Y78087D01*
X14015Y78191D01*
X13971Y78295D01*
X13924Y78397D01*
X13873Y78497D01*
X13819Y78596D01*
X13762Y78693D01*
X13702Y78788D01*
X13639Y78881D01*
X13573Y78972D01*
X10778Y75944D02*
X10823Y75872D01*
X10871Y75801D01*
X10923Y75733D01*
X10977Y75667D01*
X11034Y75604D01*
X11094Y75543D01*
X11157Y75485D01*
X11223Y75430D01*
X11290Y75378D01*
X11360Y75330D01*
X11432Y75284D01*
X11507Y75242D01*
X11583Y75203D01*
X11660Y75167D01*
X11739Y75135D01*
X11820Y75107D01*
X11902Y75082D01*
X11985Y75061D01*
X12068Y75044D01*
X12153Y75030D01*
X12237Y75021D01*
X12323Y75015D01*
X12408Y75013D01*
X9382Y78506D02*
X9337Y78578D01*
X9289Y78649D01*
X9237Y78717D01*
X9183Y78783D01*
X9126Y78846D01*
X9066Y78907D01*
X9003Y78965D01*
X8937Y79020D01*
X8870Y79072D01*
X8800Y79120D01*
X8728Y79166D01*
X8653Y79208D01*
X8577Y79247D01*
X8500Y79283D01*
X8421Y79315D01*
X8340Y79343D01*
X8258Y79368D01*
X8175Y79389D01*
X8092Y79406D01*
X8007Y79420D01*
X7923Y79429D01*
X7837Y79435D01*
X7752Y79437D01*
X9382Y78505D02*
X10779Y75944D01*
X14271Y83924D02*
X5889Y83924D01*
X10546Y83924D02*
X10546Y88581D01*
X14271Y88581D02*
X5889Y88581D01*
X5889Y93706D02*
X5889Y97432D01*
X5889Y93706D02*
X14271Y93706D01*
X14271Y97432D01*
X10546Y96500D02*
X10546Y93706D01*
X14271Y101602D02*
X5889Y101602D01*
X14271Y101602D02*
X14271Y103931D01*
X14269Y104025D01*
X14263Y104118D01*
X14254Y104212D01*
X14241Y104304D01*
X14224Y104397D01*
X14203Y104488D01*
X14179Y104579D01*
X14151Y104668D01*
X14120Y104757D01*
X14085Y104843D01*
X14046Y104929D01*
X14004Y105013D01*
X13959Y105095D01*
X13911Y105175D01*
X13859Y105253D01*
X13804Y105330D01*
X13746Y105403D01*
X13686Y105475D01*
X13622Y105544D01*
X13556Y105610D01*
X13487Y105674D01*
X13415Y105734D01*
X13342Y105792D01*
X13265Y105847D01*
X13187Y105899D01*
X13107Y105947D01*
X13025Y105992D01*
X12941Y106034D01*
X12855Y106073D01*
X12769Y106108D01*
X12680Y106139D01*
X12591Y106167D01*
X12500Y106191D01*
X12409Y106212D01*
X12316Y106229D01*
X12224Y106242D01*
X12130Y106251D01*
X12037Y106257D01*
X11943Y106259D01*
X8217Y106259D01*
X8123Y106257D01*
X8030Y106251D01*
X7936Y106242D01*
X7844Y106229D01*
X7751Y106212D01*
X7660Y106191D01*
X7569Y106167D01*
X7480Y106139D01*
X7391Y106108D01*
X7305Y106073D01*
X7219Y106034D01*
X7135Y105992D01*
X7053Y105947D01*
X6973Y105899D01*
X6895Y105847D01*
X6818Y105792D01*
X6745Y105734D01*
X6673Y105674D01*
X6604Y105610D01*
X6538Y105544D01*
X6474Y105475D01*
X6414Y105403D01*
X6356Y105330D01*
X6301Y105253D01*
X6249Y105175D01*
X6201Y105095D01*
X6156Y105013D01*
X6114Y104929D01*
X6075Y104843D01*
X6040Y104757D01*
X6009Y104668D01*
X5981Y104579D01*
X5957Y104488D01*
X5936Y104397D01*
X5919Y104304D01*
X5906Y104212D01*
X5897Y104118D01*
X5891Y104025D01*
X5889Y103931D01*
X5889Y101602D01*
X5889Y110403D02*
X6355Y110403D01*
X6355Y110869D01*
X5889Y110869D01*
X5889Y110403D01*
X5889Y116529D02*
X5889Y118392D01*
X5889Y116529D02*
X5891Y116445D01*
X5896Y116362D01*
X5906Y116279D01*
X5919Y116196D01*
X5936Y116114D01*
X5956Y116033D01*
X5980Y115953D01*
X6008Y115874D01*
X6039Y115797D01*
X6073Y115721D01*
X6111Y115646D01*
X6153Y115573D01*
X6197Y115503D01*
X6245Y115434D01*
X6295Y115367D01*
X6349Y115303D01*
X6405Y115242D01*
X6465Y115182D01*
X6526Y115126D01*
X6590Y115072D01*
X6657Y115022D01*
X6726Y114974D01*
X6796Y114930D01*
X6869Y114888D01*
X6944Y114850D01*
X7020Y114816D01*
X7097Y114785D01*
X7176Y114757D01*
X7256Y114733D01*
X7337Y114713D01*
X7419Y114696D01*
X7502Y114683D01*
X7585Y114673D01*
X7668Y114668D01*
X7752Y114666D01*
X12408Y114666D01*
X12494Y114668D01*
X12580Y114674D01*
X12665Y114684D01*
X12750Y114698D01*
X12835Y114715D01*
X12918Y114737D01*
X13000Y114763D01*
X13081Y114792D01*
X13160Y114825D01*
X13238Y114861D01*
X13315Y114901D01*
X13389Y114945D01*
X13461Y114992D01*
X13531Y115042D01*
X13598Y115096D01*
X13663Y115152D01*
X13725Y115212D01*
X13785Y115274D01*
X13841Y115339D01*
X13895Y115406D01*
X13945Y115476D01*
X13992Y115548D01*
X14036Y115622D01*
X14076Y115699D01*
X14112Y115776D01*
X14145Y115856D01*
X14174Y115937D01*
X14200Y116019D01*
X14222Y116102D01*
X14239Y116187D01*
X14253Y116272D01*
X14263Y116357D01*
X14269Y116443D01*
X14271Y116529D01*
X14271Y118392D01*
X11943Y122329D02*
X8217Y122329D01*
X11943Y122329D02*
X12038Y122331D01*
X12133Y122337D01*
X12227Y122346D01*
X12321Y122360D01*
X12415Y122377D01*
X12507Y122398D01*
X12599Y122423D01*
X12689Y122452D01*
X12779Y122484D01*
X12867Y122520D01*
X12953Y122560D01*
X13038Y122602D01*
X13121Y122649D01*
X13202Y122699D01*
X13280Y122752D01*
X13357Y122808D01*
X13431Y122867D01*
X13503Y122929D01*
X13572Y122994D01*
X13639Y123062D01*
X13702Y123132D01*
X13763Y123206D01*
X13821Y123281D01*
X13875Y123359D01*
X13927Y123439D01*
X13975Y123521D01*
X14019Y123604D01*
X14061Y123690D01*
X14098Y123777D01*
X14132Y123866D01*
X14163Y123956D01*
X14190Y124047D01*
X14213Y124139D01*
X14232Y124232D01*
X14247Y124326D01*
X14259Y124420D01*
X14267Y124515D01*
X14271Y124610D01*
X14271Y124704D01*
X14267Y124799D01*
X14259Y124894D01*
X14247Y124988D01*
X14232Y125082D01*
X14213Y125175D01*
X14190Y125267D01*
X14163Y125358D01*
X14132Y125448D01*
X14098Y125537D01*
X14061Y125624D01*
X14019Y125710D01*
X13975Y125793D01*
X13927Y125875D01*
X13875Y125955D01*
X13821Y126033D01*
X13763Y126108D01*
X13702Y126182D01*
X13639Y126252D01*
X13572Y126320D01*
X13503Y126385D01*
X13431Y126447D01*
X13357Y126506D01*
X13280Y126562D01*
X13202Y126615D01*
X13121Y126665D01*
X13038Y126712D01*
X12953Y126754D01*
X12867Y126794D01*
X12779Y126830D01*
X12689Y126862D01*
X12599Y126891D01*
X12507Y126916D01*
X12415Y126937D01*
X12321Y126954D01*
X12227Y126968D01*
X12133Y126977D01*
X12038Y126983D01*
X11943Y126985D01*
X8217Y126985D01*
X8122Y126983D01*
X8027Y126977D01*
X7933Y126968D01*
X7839Y126954D01*
X7745Y126937D01*
X7653Y126916D01*
X7561Y126891D01*
X7471Y126862D01*
X7381Y126830D01*
X7293Y126794D01*
X7207Y126754D01*
X7122Y126712D01*
X7039Y126665D01*
X6958Y126615D01*
X6880Y126562D01*
X6803Y126506D01*
X6729Y126447D01*
X6657Y126385D01*
X6588Y126320D01*
X6521Y126252D01*
X6458Y126182D01*
X6397Y126108D01*
X6339Y126033D01*
X6285Y125955D01*
X6233Y125875D01*
X6185Y125793D01*
X6141Y125710D01*
X6099Y125624D01*
X6062Y125537D01*
X6028Y125448D01*
X5997Y125358D01*
X5970Y125267D01*
X5947Y125175D01*
X5928Y125082D01*
X5913Y124988D01*
X5901Y124894D01*
X5893Y124799D01*
X5889Y124704D01*
X5889Y124610D01*
X5893Y124515D01*
X5901Y124420D01*
X5913Y124326D01*
X5928Y124232D01*
X5947Y124139D01*
X5970Y124047D01*
X5997Y123956D01*
X6028Y123866D01*
X6062Y123777D01*
X6099Y123690D01*
X6141Y123604D01*
X6185Y123521D01*
X6233Y123439D01*
X6285Y123359D01*
X6339Y123281D01*
X6397Y123206D01*
X6458Y123132D01*
X6521Y123062D01*
X6588Y122994D01*
X6657Y122929D01*
X6729Y122867D01*
X6803Y122808D01*
X6880Y122752D01*
X6958Y122699D01*
X7039Y122649D01*
X7122Y122602D01*
X7207Y122560D01*
X7293Y122520D01*
X7381Y122484D01*
X7471Y122452D01*
X7561Y122423D01*
X7653Y122398D01*
X7745Y122377D01*
X7839Y122360D01*
X7933Y122346D01*
X8027Y122337D01*
X8122Y122331D01*
X8217Y122329D01*
X5889Y131921D02*
X14271Y131921D01*
X9614Y134715D01*
X14271Y137509D01*
X5889Y137509D01*
D11*
X53750Y175000D03*
D12*
X54956Y173765D01*
X56133Y172501D01*
X57279Y171209D01*
X58394Y169891D01*
X59478Y168547D01*
X60529Y167177D01*
X61547Y165782D01*
X62532Y164364D01*
X63483Y162923D01*
X64399Y161459D01*
X65280Y159974D01*
X66125Y158468D01*
X66935Y156943D01*
X67708Y155399D01*
X68444Y153837D01*
X69142Y152258D01*
X69803Y150663D01*
X70426Y149052D01*
X71010Y147427D01*
X71555Y145789D01*
X72061Y144138D01*
X72528Y142476D01*
X72955Y140803D01*
X73342Y139120D01*
X73689Y137429D01*
X73995Y135729D01*
X74262Y134023D01*
X74487Y132311D01*
X74671Y130595D01*
X74815Y128874D01*
X74918Y127150D01*
X74979Y125425D01*
X75000Y123698D01*
X75000Y120400D01*
D11*
X75000Y120400D03*
X75000Y56900D03*
X75000Y95000D03*
X53750Y152500D03*
X26875Y163125D03*
X39375Y155300D03*
X75000Y82300D03*
X75000Y70000D03*
M02*
