G04 EAGLE Gerber RS-274X export*
G75*
%MOMM*%
%FSLAX34Y34*%
%LPD*%
%INBottom Copper*%
%IPPOS*%
%AMOC8*
5,1,8,0,0,1.08239X$1,22.5*%
G01*
%ADD10C,0.228600*%
%ADD11C,2.000000*%
%ADD12C,0.800000*%
%ADD13C,0.609600*%
%ADD14C,2.000000*%
%ADD15C,1.000000*%
%ADD16C,1.000000*%
%ADD17C,0.304800*%

G36*
X82576Y5465D02*
X82576Y5465D01*
X82602Y5463D01*
X82749Y5485D01*
X82896Y5502D01*
X82921Y5510D01*
X82947Y5514D01*
X83085Y5569D01*
X83224Y5619D01*
X83246Y5633D01*
X83271Y5643D01*
X83392Y5728D01*
X83517Y5808D01*
X83535Y5827D01*
X83557Y5842D01*
X83656Y5952D01*
X83759Y6059D01*
X83773Y6081D01*
X83790Y6101D01*
X83862Y6231D01*
X83938Y6358D01*
X83946Y6383D01*
X83959Y6406D01*
X83999Y6549D01*
X84044Y6690D01*
X84046Y6716D01*
X84054Y6741D01*
X84073Y6985D01*
X84073Y43815D01*
X84070Y43841D01*
X84072Y43867D01*
X84050Y44014D01*
X84033Y44161D01*
X84025Y44186D01*
X84021Y44212D01*
X83966Y44350D01*
X83916Y44489D01*
X83902Y44511D01*
X83892Y44536D01*
X83807Y44657D01*
X83727Y44782D01*
X83708Y44800D01*
X83693Y44822D01*
X83583Y44921D01*
X83476Y45024D01*
X83454Y45038D01*
X83434Y45055D01*
X83304Y45127D01*
X83177Y45203D01*
X83152Y45211D01*
X83129Y45224D01*
X82986Y45264D01*
X82845Y45309D01*
X82819Y45311D01*
X82794Y45319D01*
X82550Y45338D01*
X38100Y45338D01*
X38074Y45335D01*
X38048Y45337D01*
X37901Y45315D01*
X37754Y45298D01*
X37729Y45290D01*
X37703Y45286D01*
X37565Y45231D01*
X37426Y45181D01*
X37404Y45167D01*
X37379Y45157D01*
X37258Y45072D01*
X37133Y44992D01*
X37115Y44973D01*
X37093Y44958D01*
X36994Y44848D01*
X36891Y44741D01*
X36877Y44719D01*
X36860Y44699D01*
X36788Y44569D01*
X36712Y44442D01*
X36704Y44417D01*
X36691Y44394D01*
X36651Y44251D01*
X36606Y44110D01*
X36604Y44084D01*
X36596Y44059D01*
X36577Y43815D01*
X36577Y6985D01*
X36580Y6959D01*
X36578Y6933D01*
X36600Y6786D01*
X36617Y6639D01*
X36625Y6614D01*
X36629Y6588D01*
X36684Y6450D01*
X36734Y6311D01*
X36748Y6289D01*
X36758Y6264D01*
X36843Y6143D01*
X36923Y6018D01*
X36942Y6000D01*
X36957Y5978D01*
X37067Y5879D01*
X37174Y5776D01*
X37196Y5762D01*
X37216Y5745D01*
X37346Y5673D01*
X37473Y5597D01*
X37498Y5589D01*
X37521Y5576D01*
X37664Y5536D01*
X37805Y5491D01*
X37831Y5489D01*
X37856Y5481D01*
X38100Y5462D01*
X82550Y5462D01*
X82576Y5465D01*
G37*
D10*
X394144Y17908D02*
X394044Y17906D01*
X393945Y17900D01*
X393845Y17891D01*
X393747Y17877D01*
X393648Y17860D01*
X393551Y17840D01*
X393454Y17815D01*
X393358Y17787D01*
X393264Y17755D01*
X393171Y17719D01*
X393079Y17680D01*
X392989Y17638D01*
X392900Y17592D01*
X392813Y17542D01*
X392729Y17490D01*
X392646Y17434D01*
X392565Y17375D01*
X392487Y17313D01*
X392411Y17248D01*
X392338Y17180D01*
X392268Y17110D01*
X392200Y17037D01*
X392135Y16961D01*
X392073Y16883D01*
X392014Y16802D01*
X391958Y16719D01*
X391906Y16635D01*
X391856Y16548D01*
X391810Y16459D01*
X391768Y16369D01*
X391729Y16277D01*
X391693Y16184D01*
X391661Y16090D01*
X391633Y15994D01*
X391608Y15897D01*
X391588Y15800D01*
X391571Y15701D01*
X391557Y15603D01*
X391548Y15503D01*
X391542Y15404D01*
X391540Y15304D01*
X394144Y17907D02*
X394258Y17905D01*
X394371Y17899D01*
X394484Y17890D01*
X394597Y17876D01*
X394710Y17859D01*
X394821Y17838D01*
X394932Y17813D01*
X395042Y17784D01*
X395151Y17752D01*
X395259Y17716D01*
X395366Y17676D01*
X395471Y17633D01*
X395574Y17586D01*
X395676Y17535D01*
X395776Y17482D01*
X395875Y17424D01*
X395971Y17364D01*
X396065Y17300D01*
X396157Y17233D01*
X396247Y17163D01*
X396334Y17090D01*
X396419Y17015D01*
X396501Y16936D01*
X396580Y16854D01*
X396656Y16770D01*
X396730Y16684D01*
X396801Y16595D01*
X396868Y16503D01*
X396933Y16409D01*
X396994Y16314D01*
X397052Y16216D01*
X397106Y16116D01*
X397157Y16014D01*
X397205Y15911D01*
X397249Y15806D01*
X397289Y15700D01*
X397326Y15593D01*
X392408Y13279D02*
X392335Y13351D01*
X392264Y13426D01*
X392197Y13504D01*
X392132Y13584D01*
X392070Y13666D01*
X392011Y13750D01*
X391956Y13837D01*
X391903Y13926D01*
X391854Y14016D01*
X391808Y14108D01*
X391766Y14202D01*
X391727Y14298D01*
X391692Y14394D01*
X391660Y14492D01*
X391632Y14591D01*
X391608Y14691D01*
X391587Y14792D01*
X391570Y14894D01*
X391557Y14996D01*
X391548Y15098D01*
X391542Y15201D01*
X391540Y15304D01*
X392409Y13279D02*
X397326Y7493D01*
X391541Y7493D01*
X385896Y16750D02*
X385896Y17907D01*
X380111Y17907D01*
X383004Y7493D01*
X375031Y6336D02*
X370402Y19064D01*
X364454Y16461D02*
X364542Y16275D01*
X364625Y16088D01*
X364704Y15899D01*
X364778Y15708D01*
X364847Y15515D01*
X364912Y15321D01*
X364972Y15125D01*
X365028Y14928D01*
X365079Y14729D01*
X365125Y14530D01*
X365166Y14329D01*
X365202Y14128D01*
X365234Y13925D01*
X365261Y13722D01*
X365283Y13518D01*
X365300Y13314D01*
X365312Y13110D01*
X365320Y12905D01*
X365322Y12700D01*
X364455Y16460D02*
X364424Y16546D01*
X364389Y16631D01*
X364350Y16714D01*
X364307Y16795D01*
X364262Y16874D01*
X364213Y16952D01*
X364160Y17027D01*
X364105Y17100D01*
X364046Y17170D01*
X363985Y17238D01*
X363920Y17303D01*
X363853Y17365D01*
X363784Y17425D01*
X363711Y17481D01*
X363637Y17534D01*
X363560Y17584D01*
X363481Y17631D01*
X363401Y17674D01*
X363318Y17714D01*
X363234Y17750D01*
X363148Y17783D01*
X363062Y17812D01*
X362973Y17837D01*
X362884Y17858D01*
X362795Y17876D01*
X362704Y17889D01*
X362613Y17899D01*
X362522Y17905D01*
X362430Y17907D01*
X362338Y17905D01*
X362247Y17899D01*
X362156Y17889D01*
X362065Y17876D01*
X361976Y17858D01*
X361887Y17837D01*
X361798Y17812D01*
X361712Y17783D01*
X361626Y17750D01*
X361542Y17714D01*
X361459Y17674D01*
X361379Y17631D01*
X361300Y17584D01*
X361223Y17534D01*
X361149Y17481D01*
X361076Y17425D01*
X361007Y17365D01*
X360940Y17303D01*
X360875Y17238D01*
X360814Y17170D01*
X360755Y17100D01*
X360700Y17027D01*
X360647Y16952D01*
X360598Y16874D01*
X360553Y16795D01*
X360510Y16714D01*
X360471Y16631D01*
X360436Y16546D01*
X360405Y16460D01*
X360405Y16461D02*
X360317Y16275D01*
X360234Y16088D01*
X360155Y15899D01*
X360081Y15708D01*
X360012Y15515D01*
X359947Y15321D01*
X359887Y15125D01*
X359831Y14928D01*
X359780Y14729D01*
X359734Y14530D01*
X359693Y14329D01*
X359657Y14128D01*
X359625Y13925D01*
X359598Y13722D01*
X359576Y13518D01*
X359559Y13314D01*
X359547Y13110D01*
X359539Y12905D01*
X359537Y12700D01*
X365322Y12700D02*
X365320Y12495D01*
X365312Y12290D01*
X365300Y12086D01*
X365283Y11882D01*
X365261Y11678D01*
X365234Y11475D01*
X365202Y11273D01*
X365166Y11071D01*
X365125Y10870D01*
X365079Y10671D01*
X365028Y10472D01*
X364972Y10275D01*
X364912Y10079D01*
X364847Y9885D01*
X364778Y9692D01*
X364704Y9501D01*
X364625Y9312D01*
X364542Y9125D01*
X364454Y8939D01*
X364455Y8940D02*
X364424Y8854D01*
X364389Y8769D01*
X364350Y8686D01*
X364307Y8605D01*
X364262Y8526D01*
X364213Y8448D01*
X364160Y8373D01*
X364105Y8300D01*
X364046Y8230D01*
X363985Y8162D01*
X363920Y8097D01*
X363853Y8035D01*
X363784Y7975D01*
X363711Y7919D01*
X363637Y7866D01*
X363560Y7816D01*
X363481Y7769D01*
X363401Y7726D01*
X363318Y7686D01*
X363234Y7650D01*
X363148Y7617D01*
X363062Y7588D01*
X362973Y7563D01*
X362884Y7542D01*
X362795Y7524D01*
X362704Y7511D01*
X362613Y7501D01*
X362522Y7495D01*
X362430Y7493D01*
X360405Y8939D02*
X360317Y9125D01*
X360234Y9312D01*
X360155Y9501D01*
X360081Y9692D01*
X360012Y9885D01*
X359947Y10079D01*
X359887Y10275D01*
X359831Y10472D01*
X359780Y10671D01*
X359734Y10870D01*
X359693Y11071D01*
X359657Y11273D01*
X359625Y11475D01*
X359598Y11678D01*
X359576Y11882D01*
X359559Y12086D01*
X359547Y12290D01*
X359539Y12495D01*
X359537Y12700D01*
X360405Y8940D02*
X360436Y8854D01*
X360471Y8769D01*
X360510Y8686D01*
X360553Y8605D01*
X360598Y8526D01*
X360647Y8448D01*
X360700Y8373D01*
X360755Y8300D01*
X360814Y8230D01*
X360875Y8162D01*
X360940Y8097D01*
X361007Y8035D01*
X361076Y7975D01*
X361149Y7919D01*
X361223Y7866D01*
X361300Y7816D01*
X361379Y7769D01*
X361459Y7726D01*
X361542Y7686D01*
X361626Y7650D01*
X361712Y7617D01*
X361798Y7588D01*
X361887Y7563D01*
X361976Y7542D01*
X362065Y7524D01*
X362156Y7511D01*
X362247Y7501D01*
X362338Y7495D01*
X362430Y7493D01*
X364744Y9807D02*
X360115Y15593D01*
X353892Y7493D02*
X351000Y7493D01*
X350893Y7495D01*
X350786Y7501D01*
X350680Y7511D01*
X350574Y7525D01*
X350468Y7542D01*
X350364Y7564D01*
X350260Y7589D01*
X350157Y7619D01*
X350055Y7652D01*
X349955Y7688D01*
X349856Y7729D01*
X349759Y7773D01*
X349663Y7821D01*
X349569Y7872D01*
X349477Y7926D01*
X349387Y7984D01*
X349300Y8046D01*
X349214Y8110D01*
X349131Y8177D01*
X349051Y8248D01*
X348973Y8322D01*
X348898Y8398D01*
X348826Y8477D01*
X348757Y8558D01*
X348691Y8643D01*
X348628Y8729D01*
X348569Y8818D01*
X348513Y8909D01*
X348460Y9002D01*
X348410Y9096D01*
X348364Y9193D01*
X348322Y9291D01*
X348284Y9391D01*
X348249Y9492D01*
X348217Y9594D01*
X348190Y9698D01*
X348167Y9802D01*
X348147Y9907D01*
X348131Y10013D01*
X348119Y10119D01*
X348111Y10226D01*
X348107Y10333D01*
X348107Y10439D01*
X348111Y10546D01*
X348119Y10653D01*
X348131Y10759D01*
X348147Y10865D01*
X348167Y10970D01*
X348190Y11074D01*
X348217Y11178D01*
X348249Y11280D01*
X348284Y11381D01*
X348322Y11481D01*
X348364Y11579D01*
X348410Y11676D01*
X348460Y11770D01*
X348513Y11863D01*
X348569Y11954D01*
X348628Y12043D01*
X348691Y12129D01*
X348757Y12214D01*
X348826Y12295D01*
X348898Y12374D01*
X348973Y12450D01*
X349051Y12524D01*
X349131Y12595D01*
X349214Y12662D01*
X349300Y12726D01*
X349387Y12788D01*
X349477Y12846D01*
X349569Y12900D01*
X349663Y12951D01*
X349759Y12999D01*
X349856Y13043D01*
X349955Y13084D01*
X350055Y13120D01*
X350157Y13153D01*
X350260Y13183D01*
X350364Y13208D01*
X350468Y13230D01*
X350574Y13247D01*
X350680Y13261D01*
X350786Y13271D01*
X350893Y13277D01*
X351000Y13279D01*
X350421Y17907D02*
X353892Y17907D01*
X350421Y17907D02*
X350327Y17905D01*
X350232Y17899D01*
X350138Y17890D01*
X350045Y17876D01*
X349952Y17859D01*
X349860Y17838D01*
X349769Y17813D01*
X349679Y17785D01*
X349590Y17753D01*
X349503Y17717D01*
X349417Y17678D01*
X349333Y17635D01*
X349250Y17589D01*
X349170Y17540D01*
X349092Y17487D01*
X349015Y17431D01*
X348942Y17372D01*
X348870Y17311D01*
X348802Y17246D01*
X348735Y17178D01*
X348672Y17108D01*
X348612Y17036D01*
X348554Y16961D01*
X348500Y16883D01*
X348449Y16804D01*
X348401Y16723D01*
X348357Y16639D01*
X348316Y16554D01*
X348279Y16468D01*
X348245Y16380D01*
X348214Y16290D01*
X348188Y16200D01*
X348165Y16108D01*
X348146Y16015D01*
X348131Y15922D01*
X348119Y15829D01*
X348111Y15735D01*
X348107Y15640D01*
X348107Y15546D01*
X348111Y15451D01*
X348119Y15357D01*
X348131Y15264D01*
X348146Y15171D01*
X348165Y15078D01*
X348188Y14986D01*
X348214Y14896D01*
X348245Y14806D01*
X348279Y14718D01*
X348316Y14632D01*
X348357Y14547D01*
X348401Y14463D01*
X348449Y14382D01*
X348500Y14303D01*
X348554Y14225D01*
X348612Y14150D01*
X348672Y14078D01*
X348735Y14008D01*
X348802Y13940D01*
X348870Y13875D01*
X348942Y13814D01*
X349015Y13755D01*
X349092Y13699D01*
X349170Y13646D01*
X349250Y13597D01*
X349333Y13551D01*
X349417Y13508D01*
X349503Y13469D01*
X349590Y13433D01*
X349679Y13401D01*
X349769Y13373D01*
X349860Y13348D01*
X349952Y13327D01*
X350045Y13310D01*
X350138Y13296D01*
X350232Y13287D01*
X350327Y13281D01*
X350421Y13279D01*
X352735Y13279D01*
X343027Y6336D02*
X338398Y19064D01*
X330136Y17908D02*
X330036Y17906D01*
X329937Y17900D01*
X329837Y17891D01*
X329739Y17877D01*
X329640Y17860D01*
X329543Y17840D01*
X329446Y17815D01*
X329350Y17787D01*
X329256Y17755D01*
X329163Y17719D01*
X329071Y17680D01*
X328981Y17638D01*
X328892Y17592D01*
X328805Y17542D01*
X328721Y17490D01*
X328638Y17434D01*
X328557Y17375D01*
X328479Y17313D01*
X328403Y17248D01*
X328330Y17180D01*
X328260Y17110D01*
X328192Y17037D01*
X328127Y16961D01*
X328065Y16883D01*
X328006Y16802D01*
X327950Y16719D01*
X327898Y16635D01*
X327848Y16548D01*
X327802Y16459D01*
X327760Y16369D01*
X327721Y16277D01*
X327685Y16184D01*
X327653Y16090D01*
X327625Y15994D01*
X327600Y15897D01*
X327580Y15800D01*
X327563Y15701D01*
X327549Y15603D01*
X327540Y15503D01*
X327534Y15404D01*
X327532Y15304D01*
X330136Y17907D02*
X330250Y17905D01*
X330363Y17899D01*
X330476Y17890D01*
X330589Y17876D01*
X330702Y17859D01*
X330813Y17838D01*
X330924Y17813D01*
X331034Y17784D01*
X331143Y17752D01*
X331251Y17716D01*
X331358Y17676D01*
X331463Y17633D01*
X331566Y17586D01*
X331668Y17535D01*
X331768Y17482D01*
X331867Y17424D01*
X331963Y17364D01*
X332057Y17300D01*
X332149Y17233D01*
X332239Y17163D01*
X332326Y17090D01*
X332411Y17015D01*
X332493Y16936D01*
X332572Y16854D01*
X332648Y16770D01*
X332722Y16684D01*
X332793Y16595D01*
X332860Y16503D01*
X332925Y16409D01*
X332986Y16314D01*
X333044Y16216D01*
X333098Y16116D01*
X333149Y16014D01*
X333197Y15911D01*
X333241Y15806D01*
X333281Y15700D01*
X333318Y15593D01*
X328400Y13279D02*
X328327Y13351D01*
X328256Y13426D01*
X328189Y13504D01*
X328124Y13584D01*
X328062Y13666D01*
X328003Y13750D01*
X327948Y13837D01*
X327895Y13926D01*
X327846Y14016D01*
X327800Y14108D01*
X327758Y14202D01*
X327719Y14298D01*
X327684Y14394D01*
X327652Y14492D01*
X327624Y14591D01*
X327600Y14691D01*
X327579Y14792D01*
X327562Y14894D01*
X327549Y14996D01*
X327540Y15098D01*
X327534Y15201D01*
X327532Y15304D01*
X328401Y13279D02*
X333318Y7493D01*
X327533Y7493D01*
X321889Y12700D02*
X321887Y12905D01*
X321879Y13110D01*
X321867Y13314D01*
X321850Y13518D01*
X321828Y13722D01*
X321801Y13925D01*
X321769Y14128D01*
X321733Y14329D01*
X321692Y14530D01*
X321646Y14729D01*
X321595Y14928D01*
X321539Y15125D01*
X321479Y15321D01*
X321414Y15515D01*
X321345Y15708D01*
X321271Y15899D01*
X321192Y16088D01*
X321109Y16275D01*
X321021Y16461D01*
X321021Y16460D02*
X320990Y16546D01*
X320955Y16631D01*
X320916Y16714D01*
X320873Y16795D01*
X320828Y16874D01*
X320779Y16952D01*
X320726Y17027D01*
X320671Y17100D01*
X320612Y17170D01*
X320551Y17238D01*
X320486Y17303D01*
X320419Y17365D01*
X320350Y17425D01*
X320277Y17481D01*
X320203Y17534D01*
X320126Y17584D01*
X320047Y17631D01*
X319967Y17674D01*
X319884Y17714D01*
X319800Y17750D01*
X319714Y17783D01*
X319628Y17812D01*
X319539Y17837D01*
X319450Y17858D01*
X319361Y17876D01*
X319270Y17889D01*
X319179Y17899D01*
X319088Y17905D01*
X318996Y17907D01*
X318904Y17905D01*
X318813Y17899D01*
X318722Y17889D01*
X318631Y17876D01*
X318542Y17858D01*
X318453Y17837D01*
X318364Y17812D01*
X318278Y17783D01*
X318192Y17750D01*
X318108Y17714D01*
X318025Y17674D01*
X317945Y17631D01*
X317866Y17584D01*
X317789Y17534D01*
X317715Y17481D01*
X317642Y17425D01*
X317573Y17365D01*
X317506Y17303D01*
X317441Y17238D01*
X317380Y17170D01*
X317321Y17100D01*
X317266Y17027D01*
X317213Y16952D01*
X317164Y16874D01*
X317119Y16795D01*
X317076Y16714D01*
X317037Y16631D01*
X317002Y16546D01*
X316971Y16460D01*
X316971Y16461D02*
X316883Y16275D01*
X316800Y16088D01*
X316721Y15899D01*
X316647Y15708D01*
X316578Y15515D01*
X316513Y15321D01*
X316453Y15125D01*
X316397Y14928D01*
X316346Y14729D01*
X316300Y14530D01*
X316259Y14329D01*
X316223Y14128D01*
X316191Y13925D01*
X316164Y13722D01*
X316142Y13518D01*
X316125Y13314D01*
X316113Y13110D01*
X316105Y12905D01*
X316103Y12700D01*
X321888Y12700D02*
X321886Y12495D01*
X321878Y12290D01*
X321866Y12086D01*
X321849Y11882D01*
X321827Y11678D01*
X321800Y11475D01*
X321768Y11273D01*
X321732Y11071D01*
X321691Y10870D01*
X321645Y10671D01*
X321594Y10472D01*
X321538Y10275D01*
X321478Y10079D01*
X321413Y9885D01*
X321344Y9692D01*
X321270Y9501D01*
X321191Y9312D01*
X321108Y9125D01*
X321020Y8939D01*
X321021Y8940D02*
X320990Y8854D01*
X320955Y8769D01*
X320916Y8686D01*
X320873Y8605D01*
X320828Y8526D01*
X320779Y8448D01*
X320726Y8373D01*
X320671Y8300D01*
X320612Y8230D01*
X320551Y8162D01*
X320486Y8097D01*
X320419Y8035D01*
X320350Y7975D01*
X320277Y7919D01*
X320203Y7866D01*
X320126Y7816D01*
X320047Y7769D01*
X319967Y7726D01*
X319884Y7686D01*
X319800Y7650D01*
X319714Y7617D01*
X319628Y7588D01*
X319539Y7563D01*
X319450Y7542D01*
X319361Y7524D01*
X319270Y7511D01*
X319179Y7501D01*
X319088Y7495D01*
X318996Y7493D01*
X316971Y8939D02*
X316883Y9125D01*
X316800Y9312D01*
X316721Y9501D01*
X316647Y9692D01*
X316578Y9885D01*
X316513Y10079D01*
X316453Y10275D01*
X316397Y10472D01*
X316346Y10671D01*
X316300Y10870D01*
X316259Y11071D01*
X316223Y11273D01*
X316191Y11475D01*
X316164Y11678D01*
X316142Y11882D01*
X316125Y12086D01*
X316113Y12290D01*
X316105Y12495D01*
X316103Y12700D01*
X316971Y8940D02*
X317002Y8854D01*
X317037Y8769D01*
X317076Y8686D01*
X317119Y8605D01*
X317164Y8526D01*
X317213Y8448D01*
X317266Y8373D01*
X317321Y8300D01*
X317380Y8230D01*
X317441Y8162D01*
X317506Y8097D01*
X317573Y8035D01*
X317642Y7975D01*
X317715Y7919D01*
X317789Y7866D01*
X317866Y7816D01*
X317945Y7769D01*
X318025Y7726D01*
X318108Y7686D01*
X318192Y7650D01*
X318278Y7617D01*
X318364Y7588D01*
X318453Y7563D01*
X318542Y7542D01*
X318631Y7524D01*
X318722Y7511D01*
X318813Y7501D01*
X318904Y7495D01*
X318996Y7493D01*
X321310Y9807D02*
X316681Y15593D01*
X307276Y17908D02*
X307176Y17906D01*
X307077Y17900D01*
X306977Y17891D01*
X306879Y17877D01*
X306780Y17860D01*
X306683Y17840D01*
X306586Y17815D01*
X306490Y17787D01*
X306396Y17755D01*
X306303Y17719D01*
X306211Y17680D01*
X306121Y17638D01*
X306032Y17592D01*
X305945Y17542D01*
X305861Y17490D01*
X305778Y17434D01*
X305697Y17375D01*
X305619Y17313D01*
X305543Y17248D01*
X305470Y17180D01*
X305400Y17110D01*
X305332Y17037D01*
X305267Y16961D01*
X305205Y16883D01*
X305146Y16802D01*
X305090Y16719D01*
X305038Y16635D01*
X304988Y16548D01*
X304942Y16459D01*
X304900Y16369D01*
X304861Y16277D01*
X304825Y16184D01*
X304793Y16090D01*
X304765Y15994D01*
X304740Y15897D01*
X304720Y15800D01*
X304703Y15701D01*
X304689Y15603D01*
X304680Y15503D01*
X304674Y15404D01*
X304672Y15304D01*
X307276Y17907D02*
X307390Y17905D01*
X307503Y17899D01*
X307616Y17890D01*
X307729Y17876D01*
X307842Y17859D01*
X307953Y17838D01*
X308064Y17813D01*
X308174Y17784D01*
X308283Y17752D01*
X308391Y17716D01*
X308498Y17676D01*
X308603Y17633D01*
X308706Y17586D01*
X308808Y17535D01*
X308908Y17482D01*
X309007Y17424D01*
X309103Y17364D01*
X309197Y17300D01*
X309289Y17233D01*
X309379Y17163D01*
X309466Y17090D01*
X309551Y17015D01*
X309633Y16936D01*
X309712Y16854D01*
X309788Y16770D01*
X309862Y16684D01*
X309933Y16595D01*
X310000Y16503D01*
X310065Y16409D01*
X310126Y16314D01*
X310184Y16216D01*
X310238Y16116D01*
X310289Y16014D01*
X310337Y15911D01*
X310381Y15806D01*
X310421Y15700D01*
X310458Y15593D01*
X305540Y13279D02*
X305467Y13351D01*
X305396Y13426D01*
X305329Y13504D01*
X305264Y13584D01*
X305202Y13666D01*
X305143Y13750D01*
X305088Y13837D01*
X305035Y13926D01*
X304986Y14016D01*
X304940Y14108D01*
X304898Y14202D01*
X304859Y14298D01*
X304824Y14394D01*
X304792Y14492D01*
X304764Y14591D01*
X304740Y14691D01*
X304719Y14792D01*
X304702Y14894D01*
X304689Y14996D01*
X304680Y15098D01*
X304674Y15201D01*
X304672Y15304D01*
X305541Y13279D02*
X310459Y7493D01*
X304673Y7493D01*
X299029Y7493D02*
X295557Y7493D01*
X295464Y7495D01*
X295371Y7501D01*
X295278Y7510D01*
X295186Y7523D01*
X295094Y7540D01*
X295003Y7560D01*
X294913Y7584D01*
X294824Y7612D01*
X294736Y7643D01*
X294650Y7678D01*
X294565Y7716D01*
X294482Y7758D01*
X294400Y7803D01*
X294320Y7851D01*
X294242Y7903D01*
X294167Y7957D01*
X294094Y8015D01*
X294023Y8075D01*
X293954Y8138D01*
X293888Y8204D01*
X293825Y8273D01*
X293765Y8344D01*
X293707Y8417D01*
X293653Y8492D01*
X293601Y8570D01*
X293553Y8650D01*
X293508Y8732D01*
X293466Y8815D01*
X293428Y8900D01*
X293393Y8986D01*
X293362Y9074D01*
X293334Y9163D01*
X293310Y9253D01*
X293290Y9344D01*
X293273Y9436D01*
X293260Y9528D01*
X293251Y9621D01*
X293245Y9714D01*
X293243Y9807D01*
X293243Y10964D01*
X293245Y11057D01*
X293251Y11150D01*
X293260Y11243D01*
X293273Y11335D01*
X293290Y11427D01*
X293310Y11518D01*
X293334Y11608D01*
X293362Y11697D01*
X293393Y11785D01*
X293428Y11871D01*
X293466Y11956D01*
X293508Y12039D01*
X293553Y12121D01*
X293601Y12201D01*
X293653Y12279D01*
X293707Y12354D01*
X293765Y12427D01*
X293825Y12498D01*
X293888Y12567D01*
X293954Y12633D01*
X294023Y12696D01*
X294094Y12756D01*
X294167Y12814D01*
X294243Y12868D01*
X294320Y12920D01*
X294400Y12968D01*
X294482Y13013D01*
X294565Y13055D01*
X294650Y13093D01*
X294736Y13128D01*
X294824Y13159D01*
X294913Y13187D01*
X295003Y13211D01*
X295094Y13231D01*
X295186Y13248D01*
X295278Y13261D01*
X295371Y13270D01*
X295464Y13276D01*
X295557Y13278D01*
X295557Y13279D02*
X299029Y13279D01*
X299029Y17907D01*
X293243Y17907D01*
X453743Y7493D02*
X456057Y14436D01*
X451429Y14436D02*
X453743Y7493D01*
X446349Y15593D02*
X443456Y17907D01*
X443456Y7493D01*
X446349Y7493D02*
X440563Y7493D01*
X435744Y7493D02*
X435744Y8072D01*
X435166Y8072D01*
X435166Y7493D01*
X435744Y7493D01*
X430347Y15593D02*
X427454Y17907D01*
X427454Y7493D01*
X430347Y7493D02*
X424561Y7493D01*
D11*
X165100Y107950D03*
D12*
X165100Y12700D03*
D13*
X165100Y107950D01*
D14*
X165100Y99060D01*
D13*
X165100Y107950D02*
X171712Y105802D01*
X165100Y107950D02*
X158488Y105802D01*
X165100Y18700D02*
X164160Y12851D01*
X165100Y12700D01*
X166040Y12851D02*
X165100Y18700D01*
X166040Y12851D02*
X165100Y12700D01*
D11*
X546100Y107950D03*
D14*
X546100Y99060D01*
D11*
X190500Y158750D03*
D15*
X98425Y71755D03*
D16*
X85725Y71755D01*
X52070Y71755D01*
X21590Y102235D01*
X21590Y154940D01*
X57150Y190500D01*
X184150Y190500D01*
X190500Y184150D02*
X190500Y158750D01*
X190500Y184150D02*
X184150Y190500D01*
D14*
X190500Y167640D02*
X190500Y158750D01*
D15*
X85725Y71755D03*
D11*
X165100Y158750D03*
D14*
X165100Y167640D01*
D15*
X138430Y28575D03*
D16*
X49530Y28575D01*
D12*
X47625Y19050D03*
X60325Y31750D03*
X73025Y31750D03*
D15*
X151130Y28575D03*
D16*
X138430Y28575D01*
D17*
X91440Y27940D02*
X78740Y40640D01*
X91440Y29210D02*
X78740Y16510D01*
D12*
X47625Y31750D03*
X60325Y19050D03*
X73025Y19050D03*
D11*
X292100Y107950D03*
D13*
X292100Y82550D01*
X247650Y38100D01*
D15*
X204470Y38100D03*
D14*
X292100Y99060D02*
X292100Y107950D01*
D13*
X298712Y105802D01*
X247650Y38100D02*
X204470Y38100D01*
X292100Y107950D02*
X298712Y105802D01*
X292100Y107950D02*
X285488Y105802D01*
X210470Y38100D02*
X205105Y39946D01*
X204470Y38100D01*
X205105Y36254D02*
X210470Y38100D01*
X205105Y36254D02*
X204470Y38100D01*
D14*
X927100Y99060D02*
X927100Y107950D01*
D12*
X24075Y63500D03*
D13*
X30425Y57150D01*
X146050Y57150D02*
X152400Y63500D01*
D12*
X152400Y63500D03*
D13*
X146050Y57150D02*
X30425Y57150D01*
D11*
X927100Y107950D03*
D13*
X28318Y59257D02*
X24846Y64058D01*
X24075Y63500D01*
X23517Y62729D02*
X28318Y59257D01*
X23517Y62729D02*
X24075Y63500D01*
X148157Y59257D02*
X152958Y62729D01*
X152400Y63500D01*
X151629Y64058D02*
X148157Y59257D01*
X151629Y64058D02*
X152400Y63500D01*
M02*
