G04 EAGLE Gerber RS-274X export*
G75*
%MOMM*%
%FSLAX34Y34*%
%LPD*%
%INSilkscreen Top*%
%IPPOS*%
%AMOC8*
5,1,8,0,0,1.08239X$1,22.5*%
G01*
%ADD10C,0.127000*%
%ADD11C,0.076200*%


D10*
X177760Y53100D02*
X177760Y23100D01*
X87435Y57550D02*
X15325Y57550D01*
X33215Y5950D02*
X87435Y5950D01*
D11*
X498414Y46299D02*
X501688Y55301D01*
X504911Y54483D02*
X504911Y47117D01*
X507366Y50391D02*
X504911Y54483D01*
X507366Y50391D02*
X509822Y54483D01*
X509822Y47117D01*
X513662Y47117D02*
X513662Y54483D01*
X515708Y54483D01*
X515797Y54481D01*
X515886Y54475D01*
X515975Y54465D01*
X516063Y54452D01*
X516151Y54435D01*
X516238Y54413D01*
X516323Y54388D01*
X516408Y54360D01*
X516491Y54327D01*
X516573Y54291D01*
X516653Y54252D01*
X516731Y54209D01*
X516807Y54163D01*
X516882Y54113D01*
X516954Y54060D01*
X517023Y54004D01*
X517090Y53945D01*
X517155Y53884D01*
X517216Y53819D01*
X517275Y53752D01*
X517331Y53683D01*
X517384Y53611D01*
X517434Y53536D01*
X517480Y53460D01*
X517523Y53382D01*
X517562Y53302D01*
X517598Y53220D01*
X517631Y53137D01*
X517659Y53052D01*
X517684Y52967D01*
X517706Y52880D01*
X517723Y52792D01*
X517736Y52704D01*
X517746Y52615D01*
X517752Y52526D01*
X517754Y52437D01*
X517752Y52348D01*
X517746Y52259D01*
X517736Y52170D01*
X517723Y52082D01*
X517706Y51994D01*
X517684Y51907D01*
X517659Y51822D01*
X517631Y51737D01*
X517598Y51654D01*
X517562Y51572D01*
X517523Y51492D01*
X517480Y51414D01*
X517434Y51338D01*
X517384Y51263D01*
X517331Y51191D01*
X517275Y51122D01*
X517216Y51055D01*
X517155Y50990D01*
X517090Y50929D01*
X517023Y50870D01*
X516954Y50814D01*
X516882Y50761D01*
X516807Y50711D01*
X516731Y50665D01*
X516653Y50622D01*
X516573Y50583D01*
X516491Y50547D01*
X516408Y50514D01*
X516323Y50486D01*
X516238Y50461D01*
X516151Y50439D01*
X516063Y50422D01*
X515975Y50409D01*
X515886Y50399D01*
X515797Y50393D01*
X515708Y50391D01*
X513662Y50391D01*
X516117Y50391D02*
X517754Y47117D01*
X521185Y47117D02*
X524459Y47117D01*
X521185Y47117D02*
X521185Y54483D01*
X524459Y54483D01*
X523641Y51209D02*
X521185Y51209D01*
X529477Y47117D02*
X529555Y47119D01*
X529633Y47124D01*
X529710Y47134D01*
X529787Y47147D01*
X529863Y47163D01*
X529938Y47183D01*
X530012Y47207D01*
X530085Y47234D01*
X530157Y47265D01*
X530227Y47299D01*
X530296Y47336D01*
X530362Y47377D01*
X530427Y47421D01*
X530489Y47467D01*
X530549Y47517D01*
X530607Y47569D01*
X530662Y47624D01*
X530714Y47682D01*
X530764Y47742D01*
X530810Y47804D01*
X530854Y47869D01*
X530895Y47936D01*
X530932Y48004D01*
X530966Y48074D01*
X530997Y48146D01*
X531024Y48219D01*
X531048Y48293D01*
X531068Y48368D01*
X531084Y48444D01*
X531097Y48521D01*
X531107Y48598D01*
X531112Y48676D01*
X531114Y48754D01*
X529477Y47117D02*
X529363Y47119D01*
X529250Y47124D01*
X529136Y47134D01*
X529023Y47147D01*
X528911Y47164D01*
X528799Y47184D01*
X528688Y47208D01*
X528577Y47236D01*
X528468Y47267D01*
X528360Y47302D01*
X528253Y47341D01*
X528147Y47383D01*
X528043Y47428D01*
X527940Y47477D01*
X527839Y47530D01*
X527740Y47585D01*
X527642Y47644D01*
X527547Y47706D01*
X527454Y47771D01*
X527362Y47839D01*
X527274Y47910D01*
X527187Y47984D01*
X527103Y48061D01*
X527022Y48140D01*
X527226Y52846D02*
X527228Y52924D01*
X527233Y53002D01*
X527243Y53079D01*
X527256Y53156D01*
X527272Y53232D01*
X527292Y53307D01*
X527316Y53381D01*
X527343Y53454D01*
X527374Y53526D01*
X527408Y53596D01*
X527445Y53665D01*
X527486Y53731D01*
X527530Y53796D01*
X527576Y53858D01*
X527626Y53918D01*
X527678Y53976D01*
X527733Y54031D01*
X527791Y54083D01*
X527851Y54133D01*
X527913Y54179D01*
X527978Y54223D01*
X528045Y54264D01*
X528113Y54301D01*
X528183Y54335D01*
X528255Y54366D01*
X528328Y54393D01*
X528402Y54417D01*
X528477Y54437D01*
X528553Y54453D01*
X528630Y54466D01*
X528707Y54476D01*
X528785Y54481D01*
X528863Y54483D01*
X528973Y54481D01*
X529082Y54475D01*
X529192Y54465D01*
X529300Y54452D01*
X529409Y54434D01*
X529516Y54413D01*
X529623Y54387D01*
X529729Y54358D01*
X529834Y54326D01*
X529937Y54289D01*
X530039Y54249D01*
X530140Y54205D01*
X530239Y54157D01*
X530336Y54107D01*
X530431Y54052D01*
X530524Y53994D01*
X530615Y53933D01*
X530704Y53869D01*
X528045Y51413D02*
X527978Y51455D01*
X527913Y51499D01*
X527851Y51547D01*
X527791Y51597D01*
X527733Y51650D01*
X527678Y51706D01*
X527626Y51765D01*
X527576Y51825D01*
X527529Y51889D01*
X527486Y51954D01*
X527445Y52021D01*
X527408Y52090D01*
X527374Y52161D01*
X527343Y52233D01*
X527316Y52307D01*
X527292Y52381D01*
X527272Y52457D01*
X527256Y52534D01*
X527243Y52611D01*
X527233Y52689D01*
X527228Y52768D01*
X527226Y52846D01*
X530296Y50186D02*
X530362Y50144D01*
X530427Y50100D01*
X530489Y50053D01*
X530549Y50002D01*
X530607Y49949D01*
X530662Y49893D01*
X530715Y49835D01*
X530764Y49774D01*
X530811Y49711D01*
X530854Y49646D01*
X530895Y49579D01*
X530932Y49510D01*
X530966Y49439D01*
X530997Y49367D01*
X531024Y49293D01*
X531048Y49218D01*
X531068Y49143D01*
X531084Y49066D01*
X531097Y48989D01*
X531107Y48911D01*
X531112Y48832D01*
X531114Y48754D01*
X530296Y50186D02*
X528045Y51414D01*
M02*
