G04 EAGLE Gerber RS-274X export*
G75*
%MOMM*%
%FSLAX34Y34*%
%LPD*%
%INTop Copper*%
%IPPOS*%
%AMOC8*
5,1,8,0,0,1.08239X$1,22.5*%
G01*
%ADD10C,0.279400*%
%ADD11R,1.300000X1.500000*%
%ADD12R,1.500000X0.304800*%
%ADD13R,1.100000X1.000000*%
%ADD14C,1.500000*%
%ADD15C,2.000000*%
%ADD16C,1.000000*%
%ADD17C,1.000000*%
%ADD18C,2.000000*%
%ADD19C,0.304800*%
%ADD20C,1.270000*%
%ADD21C,0.609600*%
%ADD22C,0.800000*%
%ADD23C,0.406400*%
%ADD24C,0.800000*%
%ADD25C,0.150000*%

G36*
X70040Y8005D02*
X70040Y8005D01*
X70066Y8003D01*
X70213Y8025D01*
X70360Y8042D01*
X70385Y8050D01*
X70411Y8054D01*
X70549Y8109D01*
X70688Y8159D01*
X70710Y8173D01*
X70735Y8183D01*
X70856Y8268D01*
X70981Y8348D01*
X70999Y8367D01*
X71021Y8382D01*
X71120Y8492D01*
X71223Y8599D01*
X71237Y8621D01*
X71254Y8641D01*
X71326Y8771D01*
X71402Y8898D01*
X71410Y8923D01*
X71423Y8946D01*
X71463Y9089D01*
X71508Y9230D01*
X71510Y9256D01*
X71518Y9281D01*
X71537Y9525D01*
X71537Y14666D01*
X71561Y14696D01*
X71572Y14720D01*
X71588Y14741D01*
X71646Y14877D01*
X71710Y15011D01*
X71715Y15037D01*
X71726Y15061D01*
X71752Y15207D01*
X71783Y15352D01*
X71783Y15378D01*
X71787Y15404D01*
X71780Y15552D01*
X71777Y15700D01*
X71771Y15726D01*
X71769Y15752D01*
X71728Y15894D01*
X71692Y16038D01*
X71680Y16061D01*
X71673Y16087D01*
X71601Y16216D01*
X71537Y16339D01*
X71537Y21166D01*
X71561Y21196D01*
X71572Y21220D01*
X71587Y21240D01*
X71646Y21376D01*
X71710Y21511D01*
X71715Y21536D01*
X71725Y21560D01*
X71752Y21706D01*
X71783Y21852D01*
X71783Y21878D01*
X71787Y21903D01*
X71780Y22052D01*
X71777Y22200D01*
X71771Y22225D01*
X71769Y22251D01*
X71728Y22394D01*
X71692Y22538D01*
X71680Y22561D01*
X71673Y22586D01*
X71601Y22716D01*
X71533Y22848D01*
X71516Y22868D01*
X71503Y22890D01*
X71344Y23077D01*
X71286Y23135D01*
X71266Y23151D01*
X71249Y23172D01*
X71129Y23260D01*
X71013Y23352D01*
X70990Y23363D01*
X70968Y23379D01*
X70832Y23437D01*
X70698Y23501D01*
X70672Y23506D01*
X70648Y23517D01*
X70502Y23543D01*
X70358Y23574D01*
X70331Y23574D01*
X70305Y23578D01*
X70157Y23571D01*
X70009Y23568D01*
X69984Y23562D01*
X69957Y23560D01*
X69815Y23519D01*
X69671Y23483D01*
X69648Y23471D01*
X69622Y23464D01*
X69493Y23391D01*
X69361Y23324D01*
X69341Y23307D01*
X69318Y23294D01*
X69132Y23135D01*
X68187Y22191D01*
X65970Y21272D01*
X63570Y21272D01*
X61353Y22191D01*
X59656Y23888D01*
X58737Y26105D01*
X58737Y28505D01*
X59656Y30722D01*
X60634Y31700D01*
X60650Y31721D01*
X60670Y31738D01*
X60758Y31857D01*
X60850Y31973D01*
X60862Y31997D01*
X60877Y32018D01*
X60936Y32154D01*
X60999Y32288D01*
X61005Y32314D01*
X61015Y32338D01*
X61042Y32484D01*
X61073Y32629D01*
X61072Y32655D01*
X61077Y32681D01*
X61069Y32830D01*
X61067Y32978D01*
X61060Y33003D01*
X61059Y33029D01*
X61018Y33172D01*
X60982Y33316D01*
X60970Y33339D01*
X60962Y33364D01*
X60890Y33494D01*
X60822Y33625D01*
X60805Y33645D01*
X60792Y33668D01*
X60634Y33855D01*
X59656Y34833D01*
X58737Y37050D01*
X58737Y39450D01*
X59656Y41667D01*
X61353Y43364D01*
X63570Y44283D01*
X65453Y44283D01*
X65604Y44300D01*
X65755Y44313D01*
X65782Y44321D01*
X65800Y44323D01*
X65844Y44338D01*
X65909Y44357D01*
X67116Y43810D01*
X67147Y43796D01*
X67166Y43790D01*
X67193Y43776D01*
X68245Y43340D01*
X68268Y43319D01*
X68274Y43316D01*
X68298Y43296D01*
X68322Y43283D01*
X68337Y43271D01*
X68378Y43252D01*
X68512Y43178D01*
X69385Y42782D01*
X69386Y42782D01*
X69387Y42781D01*
X69551Y42729D01*
X69717Y42675D01*
X69718Y42675D01*
X69719Y42675D01*
X69883Y42662D01*
X70065Y42647D01*
X70066Y42647D01*
X70248Y42674D01*
X70409Y42698D01*
X70410Y42699D01*
X70411Y42699D01*
X70571Y42762D01*
X70733Y42827D01*
X70734Y42827D01*
X70735Y42828D01*
X70871Y42922D01*
X71020Y43025D01*
X71020Y43026D01*
X71021Y43026D01*
X71135Y43153D01*
X71253Y43284D01*
X71254Y43285D01*
X71329Y43421D01*
X71422Y43589D01*
X71422Y43590D01*
X71423Y43590D01*
X71464Y43737D01*
X71517Y43924D01*
X71517Y43925D01*
X71518Y43926D01*
X71537Y44169D01*
X71537Y46170D01*
X71534Y46196D01*
X71536Y46222D01*
X71514Y46369D01*
X71497Y46516D01*
X71489Y46541D01*
X71485Y46567D01*
X71430Y46705D01*
X71380Y46844D01*
X71366Y46866D01*
X71356Y46891D01*
X71271Y47012D01*
X71191Y47137D01*
X71172Y47155D01*
X71157Y47177D01*
X71047Y47276D01*
X70940Y47379D01*
X70918Y47393D01*
X70898Y47410D01*
X70768Y47482D01*
X70641Y47558D01*
X70616Y47566D01*
X70593Y47579D01*
X70450Y47619D01*
X70309Y47664D01*
X70283Y47666D01*
X70258Y47674D01*
X70014Y47693D01*
X62847Y47693D01*
X60317Y50223D01*
X55488Y55052D01*
X55389Y55131D01*
X55295Y55215D01*
X55253Y55239D01*
X55215Y55269D01*
X55101Y55323D01*
X54990Y55384D01*
X54943Y55397D01*
X54900Y55418D01*
X54776Y55444D01*
X54655Y55479D01*
X54594Y55484D01*
X54559Y55491D01*
X54511Y55490D01*
X54411Y55498D01*
X45276Y55498D01*
X45176Y55487D01*
X45076Y55485D01*
X45003Y55467D01*
X44930Y55458D01*
X44835Y55425D01*
X44738Y55400D01*
X44671Y55366D01*
X44601Y55341D01*
X44517Y55286D01*
X44428Y55240D01*
X44371Y55192D01*
X44309Y55152D01*
X44239Y55080D01*
X44162Y55015D01*
X44118Y54955D01*
X44066Y54901D01*
X44015Y54815D01*
X43955Y54734D01*
X43926Y54666D01*
X43888Y54602D01*
X43857Y54506D01*
X43817Y54414D01*
X43804Y54341D01*
X43781Y54270D01*
X43773Y54170D01*
X43756Y54071D01*
X43759Y53997D01*
X43753Y53923D01*
X43768Y53823D01*
X43774Y53723D01*
X43794Y53652D01*
X43805Y53578D01*
X43842Y53485D01*
X43870Y53388D01*
X43906Y53323D01*
X43934Y53254D01*
X43991Y53172D01*
X44040Y53084D01*
X44105Y53008D01*
X44133Y52968D01*
X44159Y52944D01*
X44199Y52898D01*
X44484Y52612D01*
X45403Y50395D01*
X45403Y47995D01*
X44484Y45778D01*
X43506Y44800D01*
X43490Y44779D01*
X43470Y44762D01*
X43382Y44643D01*
X43290Y44527D01*
X43278Y44503D01*
X43263Y44482D01*
X43204Y44346D01*
X43141Y44212D01*
X43135Y44186D01*
X43125Y44162D01*
X43098Y44016D01*
X43067Y43871D01*
X43068Y43845D01*
X43063Y43819D01*
X43071Y43670D01*
X43073Y43522D01*
X43080Y43497D01*
X43081Y43471D01*
X43122Y43328D01*
X43158Y43184D01*
X43170Y43161D01*
X43178Y43136D01*
X43250Y43006D01*
X43318Y42875D01*
X43335Y42855D01*
X43348Y42832D01*
X43506Y42645D01*
X44484Y41667D01*
X45403Y39450D01*
X45403Y37050D01*
X44484Y34833D01*
X42787Y33136D01*
X40570Y32217D01*
X38687Y32217D01*
X38536Y32200D01*
X38385Y32187D01*
X38358Y32179D01*
X38340Y32177D01*
X38297Y32162D01*
X38231Y32143D01*
X36991Y32705D01*
X36973Y32711D01*
X36946Y32724D01*
X35725Y33230D01*
X35580Y33271D01*
X35437Y33317D01*
X35413Y33319D01*
X35390Y33326D01*
X35239Y33333D01*
X35090Y33345D01*
X35066Y33342D01*
X35042Y33343D01*
X34894Y33316D01*
X34745Y33293D01*
X34723Y33284D01*
X34699Y33280D01*
X34683Y33273D01*
X30559Y33273D01*
X30533Y33270D01*
X30507Y33272D01*
X30360Y33250D01*
X30213Y33234D01*
X30189Y33225D01*
X30163Y33221D01*
X30025Y33166D01*
X29885Y33116D01*
X29863Y33102D01*
X29839Y33092D01*
X29717Y33008D01*
X29592Y32927D01*
X29574Y32908D01*
X29553Y32893D01*
X29453Y32783D01*
X29350Y32676D01*
X29337Y32654D01*
X29319Y32634D01*
X29247Y32504D01*
X29171Y32377D01*
X29163Y32352D01*
X29151Y32329D01*
X29110Y32186D01*
X29065Y32045D01*
X29063Y32019D01*
X29056Y31994D01*
X29036Y31750D01*
X29039Y31724D01*
X29037Y31698D01*
X29059Y31551D01*
X29076Y31404D01*
X29085Y31379D01*
X29089Y31353D01*
X29144Y31215D01*
X29194Y31076D01*
X29208Y31053D01*
X29217Y31029D01*
X29302Y30908D01*
X29383Y30783D01*
X29401Y30764D01*
X29416Y30743D01*
X29526Y30644D01*
X29633Y30541D01*
X29656Y30527D01*
X29675Y30509D01*
X29805Y30438D01*
X29932Y30362D01*
X29957Y30354D01*
X29980Y30341D01*
X30123Y30301D01*
X30264Y30255D01*
X30290Y30253D01*
X30316Y30246D01*
X30559Y30227D01*
X33619Y30227D01*
X33619Y29825D01*
X33411Y29049D01*
X32988Y28316D01*
X32970Y28294D01*
X32886Y28200D01*
X32862Y28158D01*
X32832Y28120D01*
X32778Y28006D01*
X32717Y27895D01*
X32704Y27849D01*
X32683Y27805D01*
X32657Y27682D01*
X32622Y27560D01*
X32617Y27499D01*
X32610Y27464D01*
X32611Y27416D01*
X32603Y27316D01*
X32603Y24669D01*
X32603Y24668D01*
X32623Y24495D01*
X32643Y24323D01*
X32643Y24322D01*
X32701Y24161D01*
X32760Y23995D01*
X32761Y23994D01*
X32854Y23850D01*
X32949Y23702D01*
X32950Y23702D01*
X32950Y23701D01*
X33075Y23581D01*
X33200Y23460D01*
X33201Y23460D01*
X33201Y23459D01*
X33347Y23372D01*
X33499Y23281D01*
X33500Y23281D01*
X33666Y23228D01*
X33831Y23175D01*
X33832Y23175D01*
X34016Y23160D01*
X34178Y23147D01*
X34179Y23147D01*
X34180Y23147D01*
X34358Y23174D01*
X34523Y23199D01*
X34524Y23199D01*
X34755Y23282D01*
X35628Y23678D01*
X35758Y23756D01*
X35890Y23830D01*
X35910Y23847D01*
X36947Y24276D01*
X36965Y24286D01*
X36993Y24296D01*
X38235Y24859D01*
X38297Y24844D01*
X38443Y24802D01*
X38470Y24800D01*
X38488Y24796D01*
X38534Y24795D01*
X38686Y24783D01*
X40570Y24783D01*
X42787Y23864D01*
X44484Y22167D01*
X45403Y19950D01*
X45403Y17550D01*
X44484Y15333D01*
X42787Y13636D01*
X40570Y12717D01*
X38687Y12717D01*
X38536Y12700D01*
X38385Y12687D01*
X38358Y12679D01*
X38340Y12677D01*
X38297Y12662D01*
X38231Y12643D01*
X37386Y13026D01*
X36992Y13205D01*
X36973Y13211D01*
X36946Y13224D01*
X35725Y13730D01*
X35580Y13771D01*
X35437Y13817D01*
X35413Y13819D01*
X35390Y13826D01*
X35239Y13833D01*
X35090Y13845D01*
X35066Y13842D01*
X35042Y13843D01*
X34894Y13816D01*
X34745Y13793D01*
X34723Y13784D01*
X34699Y13780D01*
X34683Y13773D01*
X30559Y13773D01*
X30533Y13770D01*
X30507Y13772D01*
X30360Y13750D01*
X30213Y13734D01*
X30189Y13725D01*
X30163Y13721D01*
X30025Y13666D01*
X29885Y13616D01*
X29863Y13602D01*
X29839Y13592D01*
X29717Y13508D01*
X29592Y13427D01*
X29574Y13408D01*
X29553Y13393D01*
X29453Y13283D01*
X29350Y13176D01*
X29337Y13154D01*
X29319Y13134D01*
X29247Y13004D01*
X29171Y12877D01*
X29163Y12852D01*
X29151Y12829D01*
X29110Y12686D01*
X29065Y12545D01*
X29063Y12519D01*
X29056Y12494D01*
X29036Y12250D01*
X29039Y12224D01*
X29037Y12198D01*
X29059Y12051D01*
X29076Y11904D01*
X29085Y11879D01*
X29089Y11853D01*
X29144Y11715D01*
X29194Y11576D01*
X29208Y11553D01*
X29217Y11529D01*
X29302Y11408D01*
X29383Y11283D01*
X29401Y11264D01*
X29416Y11243D01*
X29526Y11144D01*
X29633Y11041D01*
X29656Y11027D01*
X29675Y11009D01*
X29805Y10938D01*
X29932Y10862D01*
X29957Y10854D01*
X29980Y10841D01*
X30123Y10801D01*
X30264Y10755D01*
X30290Y10753D01*
X30316Y10746D01*
X30559Y10727D01*
X33619Y10727D01*
X33619Y10325D01*
X33510Y9919D01*
X33503Y9869D01*
X33487Y9820D01*
X33477Y9697D01*
X33459Y9575D01*
X33463Y9524D01*
X33459Y9473D01*
X33477Y9350D01*
X33488Y9227D01*
X33503Y9179D01*
X33511Y9128D01*
X33557Y9013D01*
X33594Y8895D01*
X33621Y8852D01*
X33640Y8804D01*
X33710Y8703D01*
X33774Y8597D01*
X33809Y8560D01*
X33838Y8518D01*
X33930Y8435D01*
X34016Y8346D01*
X34059Y8319D01*
X34097Y8285D01*
X34206Y8225D01*
X34310Y8158D01*
X34358Y8141D01*
X34402Y8116D01*
X34521Y8083D01*
X34638Y8041D01*
X34689Y8035D01*
X34738Y8021D01*
X34981Y8002D01*
X70014Y8002D01*
X70040Y8005D01*
G37*
G36*
X255553Y10953D02*
X255553Y10953D01*
X255573Y10951D01*
X255674Y10973D01*
X255776Y10989D01*
X255794Y10999D01*
X255813Y11003D01*
X255902Y11056D01*
X255993Y11105D01*
X256007Y11119D01*
X256024Y11129D01*
X256092Y11208D01*
X256163Y11283D01*
X256171Y11301D01*
X256184Y11316D01*
X256223Y11412D01*
X256266Y11506D01*
X256269Y11526D01*
X256276Y11544D01*
X256295Y11711D01*
X256295Y31711D01*
X256288Y31752D01*
X256290Y31794D01*
X256268Y31873D01*
X256255Y31954D01*
X256235Y31990D01*
X256224Y32031D01*
X256178Y32099D01*
X256140Y32171D01*
X256110Y32200D01*
X256086Y32234D01*
X256021Y32284D01*
X255961Y32340D01*
X255924Y32358D01*
X255891Y32383D01*
X255813Y32409D01*
X255738Y32444D01*
X255697Y32449D01*
X255658Y32462D01*
X255575Y32462D01*
X255494Y32471D01*
X255453Y32462D01*
X255412Y32462D01*
X255334Y32436D01*
X255253Y32419D01*
X255218Y32398D01*
X255178Y32384D01*
X255113Y32335D01*
X255042Y32293D01*
X255015Y32261D01*
X254982Y32236D01*
X254887Y32111D01*
X254882Y32106D01*
X254882Y32104D01*
X254881Y32103D01*
X245045Y15709D01*
X245045Y31711D01*
X245038Y31752D01*
X245040Y31794D01*
X245018Y31873D01*
X245005Y31954D01*
X244985Y31990D01*
X244974Y32031D01*
X244928Y32099D01*
X244890Y32171D01*
X244860Y32200D01*
X244836Y32234D01*
X244771Y32284D01*
X244711Y32340D01*
X244674Y32358D01*
X244641Y32383D01*
X244563Y32409D01*
X244488Y32444D01*
X244447Y32449D01*
X244408Y32462D01*
X244325Y32462D01*
X244244Y32471D01*
X244203Y32462D01*
X244162Y32462D01*
X244084Y32436D01*
X244003Y32419D01*
X243968Y32398D01*
X243928Y32384D01*
X243863Y32335D01*
X243792Y32293D01*
X243765Y32261D01*
X243732Y32236D01*
X243637Y32111D01*
X243632Y32106D01*
X243632Y32104D01*
X243631Y32103D01*
X231631Y12103D01*
X231593Y12008D01*
X231550Y11916D01*
X231548Y11894D01*
X231540Y11874D01*
X231534Y11772D01*
X231523Y11672D01*
X231528Y11650D01*
X231527Y11628D01*
X231554Y11531D01*
X231575Y11431D01*
X231587Y11412D01*
X231592Y11391D01*
X231649Y11307D01*
X231702Y11220D01*
X231718Y11206D01*
X231730Y11188D01*
X231811Y11126D01*
X231888Y11060D01*
X231909Y11052D01*
X231926Y11039D01*
X232022Y11006D01*
X232117Y10968D01*
X232143Y10965D01*
X232159Y10960D01*
X232192Y10960D01*
X232283Y10950D01*
X255533Y10950D01*
X255553Y10953D01*
G37*
G36*
X264303Y10953D02*
X264303Y10953D01*
X264323Y10951D01*
X264424Y10973D01*
X264526Y10989D01*
X264544Y10999D01*
X264563Y11003D01*
X264652Y11056D01*
X264743Y11105D01*
X264757Y11119D01*
X264774Y11129D01*
X264842Y11208D01*
X264913Y11283D01*
X264921Y11301D01*
X264934Y11316D01*
X264973Y11412D01*
X265016Y11506D01*
X265019Y11526D01*
X265026Y11544D01*
X265045Y11711D01*
X265045Y31711D01*
X265041Y31731D01*
X265044Y31750D01*
X265022Y31852D01*
X265005Y31954D01*
X264996Y31971D01*
X264991Y31991D01*
X264938Y32080D01*
X264890Y32171D01*
X264875Y32185D01*
X264865Y32202D01*
X264786Y32269D01*
X264711Y32340D01*
X264693Y32349D01*
X264678Y32362D01*
X264582Y32401D01*
X264488Y32444D01*
X264469Y32446D01*
X264450Y32454D01*
X264283Y32472D01*
X259283Y32472D01*
X259264Y32469D01*
X259244Y32471D01*
X259143Y32449D01*
X259041Y32432D01*
X259023Y32423D01*
X259003Y32419D01*
X258914Y32366D01*
X258823Y32317D01*
X258809Y32303D01*
X258792Y32293D01*
X258725Y32214D01*
X258654Y32139D01*
X258645Y32121D01*
X258632Y32106D01*
X258594Y32010D01*
X258550Y31916D01*
X258548Y31896D01*
X258541Y31878D01*
X258522Y31711D01*
X258522Y11711D01*
X258525Y11691D01*
X258523Y11672D01*
X258545Y11570D01*
X258562Y11468D01*
X258571Y11451D01*
X258575Y11431D01*
X258629Y11342D01*
X258677Y11251D01*
X258691Y11237D01*
X258702Y11220D01*
X258780Y11153D01*
X258855Y11081D01*
X258873Y11073D01*
X258888Y11060D01*
X258985Y11021D01*
X259078Y10978D01*
X259098Y10976D01*
X259117Y10968D01*
X259283Y10950D01*
X264283Y10950D01*
X264303Y10953D01*
G37*
G36*
X268086Y10954D02*
X268086Y10954D01*
X268108Y10953D01*
X269815Y11122D01*
X269838Y11128D01*
X269961Y11151D01*
X271603Y11649D01*
X271624Y11659D01*
X271741Y11706D01*
X273253Y12514D01*
X273272Y12529D01*
X273377Y12597D01*
X274703Y13685D01*
X274719Y13703D01*
X274809Y13791D01*
X275897Y15117D01*
X275909Y15138D01*
X275980Y15241D01*
X276789Y16754D01*
X276796Y16777D01*
X276846Y16892D01*
X277344Y18533D01*
X277347Y18557D01*
X277373Y18679D01*
X277541Y20386D01*
X277537Y20444D01*
X277544Y20500D01*
X277529Y20565D01*
X277525Y20632D01*
X277503Y20685D01*
X277491Y20741D01*
X277457Y20798D01*
X277432Y20859D01*
X277394Y20903D01*
X277365Y20952D01*
X277315Y20995D01*
X277271Y21045D01*
X277222Y21075D01*
X277178Y21112D01*
X277116Y21137D01*
X277059Y21170D01*
X277003Y21182D01*
X276950Y21204D01*
X276849Y21215D01*
X276819Y21221D01*
X276805Y21220D01*
X276783Y21222D01*
X271783Y21222D01*
X271684Y21206D01*
X271585Y21196D01*
X271563Y21186D01*
X271541Y21182D01*
X271452Y21136D01*
X271361Y21094D01*
X271344Y21078D01*
X271323Y21067D01*
X271254Y20995D01*
X271181Y20926D01*
X271170Y20906D01*
X271154Y20889D01*
X271112Y20798D01*
X271064Y20710D01*
X271058Y20682D01*
X271050Y20666D01*
X271047Y20633D01*
X271027Y20546D01*
X270942Y19797D01*
X270722Y19166D01*
X270366Y18601D01*
X269894Y18128D01*
X269328Y17773D01*
X268697Y17552D01*
X267948Y17467D01*
X267852Y17440D01*
X267753Y17419D01*
X267734Y17407D01*
X267711Y17401D01*
X267628Y17344D01*
X267542Y17293D01*
X267527Y17275D01*
X267508Y17262D01*
X267448Y17182D01*
X267382Y17106D01*
X267374Y17084D01*
X267360Y17066D01*
X267328Y16971D01*
X267291Y16878D01*
X267287Y16849D01*
X267282Y16833D01*
X267282Y16800D01*
X267272Y16711D01*
X267272Y11711D01*
X267281Y11654D01*
X267281Y11597D01*
X267301Y11534D01*
X267312Y11468D01*
X267339Y11418D01*
X267356Y11363D01*
X267396Y11310D01*
X267427Y11251D01*
X267468Y11211D01*
X267502Y11165D01*
X267557Y11127D01*
X267605Y11081D01*
X267657Y11057D01*
X267704Y11025D01*
X267768Y11006D01*
X267828Y10978D01*
X267885Y10972D01*
X267940Y10955D01*
X268042Y10954D01*
X268073Y10951D01*
X268086Y10954D01*
G37*
G36*
X268149Y25980D02*
X268149Y25980D01*
X268226Y25987D01*
X268268Y26005D01*
X268313Y26015D01*
X268380Y26055D01*
X268451Y26087D01*
X268498Y26126D01*
X268524Y26141D01*
X268542Y26162D01*
X268580Y26194D01*
X272333Y30072D01*
X272340Y30083D01*
X272350Y30091D01*
X272410Y30184D01*
X272473Y30274D01*
X272477Y30286D01*
X272484Y30298D01*
X272511Y30405D01*
X272541Y30510D01*
X272541Y30523D01*
X272544Y30536D01*
X272536Y30646D01*
X272531Y30756D01*
X272526Y30768D01*
X272525Y30781D01*
X272482Y30883D01*
X272443Y30985D01*
X272434Y30996D01*
X272429Y31008D01*
X272356Y31090D01*
X272286Y31175D01*
X272275Y31182D01*
X272266Y31192D01*
X272125Y31283D01*
X270946Y31870D01*
X270916Y31879D01*
X270822Y31919D01*
X269559Y32292D01*
X269527Y32296D01*
X269428Y32319D01*
X268119Y32467D01*
X268056Y32464D01*
X267994Y32471D01*
X267934Y32458D01*
X267873Y32455D01*
X267815Y32432D01*
X267753Y32419D01*
X267701Y32388D01*
X267645Y32365D01*
X267596Y32325D01*
X267542Y32293D01*
X267503Y32246D01*
X267456Y32207D01*
X267423Y32154D01*
X267382Y32106D01*
X267360Y32049D01*
X267328Y31997D01*
X267314Y31936D01*
X267291Y31878D01*
X267281Y31789D01*
X267273Y31758D01*
X267275Y31740D01*
X267272Y31711D01*
X267272Y26723D01*
X267285Y26646D01*
X267288Y26568D01*
X267304Y26526D01*
X267312Y26480D01*
X267348Y26412D01*
X267376Y26339D01*
X267405Y26304D01*
X267427Y26263D01*
X267483Y26210D01*
X267533Y26149D01*
X267572Y26125D01*
X267605Y26094D01*
X267676Y26061D01*
X267742Y26020D01*
X267787Y26009D01*
X267828Y25990D01*
X267906Y25982D01*
X267982Y25964D01*
X268027Y25968D01*
X268073Y25963D01*
X268149Y25980D01*
G37*
G36*
X276768Y23680D02*
X276768Y23680D01*
X276871Y23692D01*
X276889Y23700D01*
X276908Y23703D01*
X277000Y23752D01*
X277094Y23795D01*
X277108Y23809D01*
X277126Y23818D01*
X277197Y23893D01*
X277272Y23965D01*
X277281Y23982D01*
X277295Y23997D01*
X277339Y24091D01*
X277387Y24182D01*
X277390Y24202D01*
X277399Y24220D01*
X277410Y24323D01*
X277427Y24425D01*
X277424Y24449D01*
X277426Y24464D01*
X277419Y24496D01*
X277408Y24591D01*
X277147Y25757D01*
X277135Y25787D01*
X277106Y25884D01*
X276646Y26986D01*
X276630Y27013D01*
X276585Y27104D01*
X275940Y28110D01*
X275883Y28174D01*
X275832Y28243D01*
X275801Y28265D01*
X275776Y28293D01*
X275701Y28335D01*
X275631Y28385D01*
X275594Y28395D01*
X275562Y28414D01*
X275477Y28430D01*
X275395Y28455D01*
X275357Y28453D01*
X275320Y28460D01*
X275235Y28449D01*
X275149Y28446D01*
X275114Y28432D01*
X275076Y28427D01*
X274999Y28389D01*
X274919Y28359D01*
X274880Y28330D01*
X274856Y28318D01*
X274834Y28297D01*
X274784Y28260D01*
X271225Y24985D01*
X271171Y24916D01*
X271111Y24853D01*
X271095Y24820D01*
X271073Y24791D01*
X271044Y24709D01*
X271007Y24630D01*
X271003Y24594D01*
X270991Y24559D01*
X270990Y24472D01*
X270980Y24385D01*
X270988Y24350D01*
X270987Y24313D01*
X271014Y24230D01*
X271032Y24145D01*
X271051Y24114D01*
X271062Y24079D01*
X271114Y24009D01*
X271158Y23934D01*
X271186Y23910D01*
X271208Y23881D01*
X271279Y23831D01*
X271345Y23774D01*
X271379Y23760D01*
X271409Y23739D01*
X271492Y23715D01*
X271574Y23682D01*
X271620Y23677D01*
X271645Y23669D01*
X271676Y23671D01*
X271740Y23663D01*
X276666Y23663D01*
X276768Y23680D01*
G37*
D10*
X183645Y39418D02*
X183645Y50848D01*
X180470Y50848D02*
X186820Y50848D01*
X193063Y50848D02*
X193063Y39418D01*
X196873Y44498D02*
X193063Y50848D01*
X196873Y44498D02*
X200683Y50848D01*
X200683Y39418D01*
X211163Y39418D02*
X211263Y39420D01*
X211362Y39426D01*
X211462Y39436D01*
X211560Y39449D01*
X211659Y39467D01*
X211756Y39488D01*
X211852Y39513D01*
X211948Y39542D01*
X212042Y39575D01*
X212135Y39611D01*
X212226Y39651D01*
X212316Y39695D01*
X212404Y39742D01*
X212490Y39792D01*
X212574Y39846D01*
X212656Y39903D01*
X212735Y39963D01*
X212813Y40027D01*
X212887Y40093D01*
X212959Y40162D01*
X213028Y40234D01*
X213094Y40308D01*
X213158Y40386D01*
X213218Y40465D01*
X213275Y40547D01*
X213329Y40631D01*
X213379Y40717D01*
X213426Y40805D01*
X213470Y40895D01*
X213510Y40986D01*
X213546Y41079D01*
X213579Y41173D01*
X213608Y41269D01*
X213633Y41365D01*
X213654Y41462D01*
X213672Y41561D01*
X213685Y41659D01*
X213695Y41759D01*
X213701Y41858D01*
X213703Y41958D01*
X211163Y39417D02*
X211022Y39419D01*
X210881Y39424D01*
X210740Y39434D01*
X210599Y39447D01*
X210459Y39463D01*
X210319Y39484D01*
X210180Y39508D01*
X210041Y39536D01*
X209904Y39567D01*
X209767Y39602D01*
X209631Y39640D01*
X209496Y39682D01*
X209363Y39728D01*
X209230Y39777D01*
X209099Y39830D01*
X208970Y39886D01*
X208841Y39945D01*
X208715Y40008D01*
X208590Y40074D01*
X208467Y40143D01*
X208346Y40216D01*
X208227Y40292D01*
X208109Y40371D01*
X207994Y40452D01*
X207882Y40537D01*
X207771Y40625D01*
X207663Y40716D01*
X207557Y40809D01*
X207454Y40906D01*
X207353Y41005D01*
X207671Y48308D02*
X207673Y48408D01*
X207679Y48507D01*
X207689Y48607D01*
X207702Y48705D01*
X207720Y48804D01*
X207741Y48901D01*
X207766Y48997D01*
X207795Y49093D01*
X207828Y49187D01*
X207864Y49280D01*
X207904Y49371D01*
X207948Y49461D01*
X207995Y49549D01*
X208045Y49635D01*
X208099Y49719D01*
X208156Y49801D01*
X208216Y49880D01*
X208280Y49958D01*
X208346Y50032D01*
X208415Y50104D01*
X208487Y50173D01*
X208561Y50239D01*
X208639Y50303D01*
X208718Y50363D01*
X208800Y50420D01*
X208884Y50474D01*
X208970Y50524D01*
X209058Y50571D01*
X209148Y50615D01*
X209239Y50655D01*
X209332Y50691D01*
X209426Y50724D01*
X209522Y50753D01*
X209618Y50778D01*
X209715Y50799D01*
X209814Y50817D01*
X209912Y50830D01*
X210012Y50840D01*
X210111Y50846D01*
X210211Y50848D01*
X210344Y50846D01*
X210477Y50841D01*
X210610Y50831D01*
X210743Y50818D01*
X210875Y50801D01*
X211007Y50781D01*
X211138Y50757D01*
X211268Y50729D01*
X211398Y50698D01*
X211526Y50663D01*
X211654Y50624D01*
X211780Y50582D01*
X211905Y50536D01*
X212029Y50487D01*
X212152Y50435D01*
X212273Y50379D01*
X212392Y50319D01*
X212510Y50257D01*
X212625Y50191D01*
X212739Y50122D01*
X212851Y50049D01*
X212961Y49974D01*
X213069Y49895D01*
X208941Y46085D02*
X208857Y46137D01*
X208774Y46192D01*
X208694Y46251D01*
X208616Y46312D01*
X208541Y46376D01*
X208468Y46444D01*
X208397Y46514D01*
X208330Y46586D01*
X208265Y46661D01*
X208203Y46739D01*
X208144Y46819D01*
X208088Y46901D01*
X208036Y46985D01*
X207987Y47071D01*
X207941Y47159D01*
X207898Y47249D01*
X207859Y47340D01*
X207824Y47433D01*
X207792Y47527D01*
X207764Y47622D01*
X207739Y47718D01*
X207719Y47815D01*
X207701Y47913D01*
X207688Y48011D01*
X207679Y48110D01*
X207673Y48209D01*
X207671Y48308D01*
X212434Y44181D02*
X212518Y44129D01*
X212601Y44074D01*
X212681Y44015D01*
X212759Y43954D01*
X212834Y43890D01*
X212907Y43822D01*
X212978Y43752D01*
X213045Y43680D01*
X213110Y43605D01*
X213172Y43527D01*
X213231Y43447D01*
X213287Y43365D01*
X213339Y43281D01*
X213388Y43195D01*
X213434Y43107D01*
X213477Y43017D01*
X213516Y42926D01*
X213551Y42833D01*
X213583Y42739D01*
X213611Y42644D01*
X213636Y42548D01*
X213656Y42451D01*
X213674Y42353D01*
X213687Y42255D01*
X213696Y42156D01*
X213702Y42057D01*
X213704Y41958D01*
X212433Y44180D02*
X208941Y46085D01*
X223112Y39418D02*
X223212Y39420D01*
X223311Y39426D01*
X223411Y39436D01*
X223509Y39449D01*
X223608Y39467D01*
X223705Y39488D01*
X223801Y39513D01*
X223897Y39542D01*
X223991Y39575D01*
X224084Y39611D01*
X224175Y39651D01*
X224265Y39695D01*
X224353Y39742D01*
X224439Y39792D01*
X224523Y39846D01*
X224605Y39903D01*
X224684Y39963D01*
X224762Y40027D01*
X224836Y40093D01*
X224908Y40162D01*
X224977Y40234D01*
X225043Y40308D01*
X225107Y40386D01*
X225167Y40465D01*
X225224Y40547D01*
X225278Y40631D01*
X225328Y40717D01*
X225375Y40805D01*
X225419Y40895D01*
X225459Y40986D01*
X225495Y41079D01*
X225528Y41173D01*
X225557Y41269D01*
X225582Y41365D01*
X225603Y41462D01*
X225621Y41561D01*
X225634Y41659D01*
X225644Y41759D01*
X225650Y41858D01*
X225652Y41958D01*
X223112Y39417D02*
X222971Y39419D01*
X222830Y39424D01*
X222689Y39434D01*
X222548Y39447D01*
X222408Y39463D01*
X222268Y39484D01*
X222129Y39508D01*
X221990Y39536D01*
X221853Y39567D01*
X221716Y39602D01*
X221580Y39640D01*
X221445Y39682D01*
X221312Y39728D01*
X221179Y39777D01*
X221048Y39830D01*
X220919Y39886D01*
X220790Y39945D01*
X220664Y40008D01*
X220539Y40074D01*
X220416Y40143D01*
X220295Y40216D01*
X220176Y40292D01*
X220058Y40371D01*
X219943Y40452D01*
X219831Y40537D01*
X219720Y40625D01*
X219612Y40716D01*
X219506Y40809D01*
X219403Y40906D01*
X219302Y41005D01*
X219619Y48308D02*
X219621Y48408D01*
X219627Y48507D01*
X219637Y48607D01*
X219650Y48705D01*
X219668Y48804D01*
X219689Y48901D01*
X219714Y48997D01*
X219743Y49093D01*
X219776Y49187D01*
X219812Y49280D01*
X219852Y49371D01*
X219896Y49461D01*
X219943Y49549D01*
X219993Y49635D01*
X220047Y49719D01*
X220104Y49801D01*
X220164Y49880D01*
X220228Y49958D01*
X220294Y50032D01*
X220363Y50104D01*
X220435Y50173D01*
X220509Y50239D01*
X220587Y50303D01*
X220666Y50363D01*
X220748Y50420D01*
X220832Y50474D01*
X220918Y50524D01*
X221006Y50571D01*
X221096Y50615D01*
X221187Y50655D01*
X221280Y50691D01*
X221374Y50724D01*
X221470Y50753D01*
X221566Y50778D01*
X221663Y50799D01*
X221762Y50817D01*
X221860Y50830D01*
X221960Y50840D01*
X222059Y50846D01*
X222159Y50848D01*
X222292Y50846D01*
X222425Y50841D01*
X222558Y50831D01*
X222691Y50818D01*
X222823Y50801D01*
X222955Y50781D01*
X223086Y50757D01*
X223216Y50729D01*
X223346Y50698D01*
X223474Y50663D01*
X223602Y50624D01*
X223728Y50582D01*
X223853Y50536D01*
X223977Y50487D01*
X224100Y50435D01*
X224221Y50379D01*
X224340Y50319D01*
X224458Y50257D01*
X224573Y50191D01*
X224687Y50122D01*
X224799Y50049D01*
X224909Y49974D01*
X225017Y49895D01*
X220889Y46085D02*
X220805Y46137D01*
X220722Y46192D01*
X220642Y46251D01*
X220564Y46312D01*
X220489Y46376D01*
X220416Y46444D01*
X220345Y46514D01*
X220278Y46586D01*
X220213Y46661D01*
X220151Y46739D01*
X220092Y46819D01*
X220036Y46901D01*
X219984Y46985D01*
X219935Y47071D01*
X219889Y47159D01*
X219846Y47249D01*
X219807Y47340D01*
X219772Y47433D01*
X219740Y47527D01*
X219712Y47622D01*
X219687Y47718D01*
X219667Y47815D01*
X219649Y47913D01*
X219636Y48011D01*
X219627Y48110D01*
X219621Y48209D01*
X219619Y48308D01*
X224382Y44181D02*
X224466Y44129D01*
X224549Y44074D01*
X224629Y44015D01*
X224707Y43954D01*
X224782Y43890D01*
X224855Y43822D01*
X224926Y43752D01*
X224993Y43680D01*
X225058Y43605D01*
X225120Y43527D01*
X225179Y43447D01*
X225235Y43365D01*
X225287Y43281D01*
X225336Y43195D01*
X225382Y43107D01*
X225425Y43017D01*
X225464Y42926D01*
X225499Y42833D01*
X225531Y42739D01*
X225559Y42644D01*
X225584Y42548D01*
X225604Y42451D01*
X225622Y42353D01*
X225635Y42255D01*
X225644Y42156D01*
X225650Y42057D01*
X225652Y41958D01*
X224382Y44180D02*
X220889Y46085D01*
X238931Y50848D02*
X238931Y39418D01*
X238931Y50848D02*
X242106Y50848D01*
X242217Y50846D01*
X242327Y50840D01*
X242438Y50831D01*
X242548Y50817D01*
X242657Y50800D01*
X242766Y50779D01*
X242874Y50754D01*
X242981Y50725D01*
X243087Y50693D01*
X243192Y50657D01*
X243295Y50617D01*
X243397Y50574D01*
X243498Y50527D01*
X243597Y50476D01*
X243694Y50423D01*
X243788Y50366D01*
X243881Y50305D01*
X243972Y50242D01*
X244061Y50175D01*
X244147Y50105D01*
X244230Y50032D01*
X244312Y49957D01*
X244390Y49879D01*
X244465Y49797D01*
X244538Y49714D01*
X244608Y49628D01*
X244675Y49539D01*
X244738Y49448D01*
X244799Y49355D01*
X244856Y49261D01*
X244909Y49164D01*
X244960Y49065D01*
X245007Y48964D01*
X245050Y48862D01*
X245090Y48759D01*
X245126Y48654D01*
X245158Y48548D01*
X245187Y48441D01*
X245212Y48333D01*
X245233Y48224D01*
X245250Y48115D01*
X245264Y48005D01*
X245273Y47894D01*
X245279Y47784D01*
X245281Y47673D01*
X245281Y42593D01*
X245279Y42482D01*
X245273Y42372D01*
X245264Y42261D01*
X245250Y42151D01*
X245233Y42042D01*
X245212Y41933D01*
X245187Y41825D01*
X245158Y41718D01*
X245126Y41612D01*
X245090Y41507D01*
X245050Y41404D01*
X245007Y41302D01*
X244960Y41201D01*
X244909Y41102D01*
X244856Y41005D01*
X244799Y40911D01*
X244738Y40818D01*
X244675Y40727D01*
X244608Y40638D01*
X244538Y40552D01*
X244465Y40469D01*
X244390Y40387D01*
X244312Y40309D01*
X244230Y40234D01*
X244147Y40161D01*
X244061Y40091D01*
X243972Y40024D01*
X243881Y39961D01*
X243788Y39900D01*
X243693Y39843D01*
X243597Y39790D01*
X243498Y39739D01*
X243397Y39692D01*
X243295Y39649D01*
X243192Y39609D01*
X243087Y39573D01*
X242981Y39541D01*
X242874Y39512D01*
X242766Y39487D01*
X242657Y39466D01*
X242548Y39449D01*
X242438Y39435D01*
X242327Y39426D01*
X242217Y39420D01*
X242106Y39418D01*
X238931Y39418D01*
X252774Y39418D02*
X252774Y50848D01*
X251504Y39418D02*
X254044Y39418D01*
X254044Y50848D02*
X251504Y50848D01*
X263223Y39418D02*
X263323Y39420D01*
X263422Y39426D01*
X263522Y39436D01*
X263620Y39449D01*
X263719Y39467D01*
X263816Y39488D01*
X263912Y39513D01*
X264008Y39542D01*
X264102Y39575D01*
X264195Y39611D01*
X264286Y39651D01*
X264376Y39695D01*
X264464Y39742D01*
X264550Y39792D01*
X264634Y39846D01*
X264716Y39903D01*
X264795Y39963D01*
X264873Y40027D01*
X264947Y40093D01*
X265019Y40162D01*
X265088Y40234D01*
X265154Y40308D01*
X265218Y40386D01*
X265278Y40465D01*
X265335Y40547D01*
X265389Y40631D01*
X265439Y40717D01*
X265486Y40805D01*
X265530Y40895D01*
X265570Y40986D01*
X265606Y41079D01*
X265639Y41173D01*
X265668Y41269D01*
X265693Y41365D01*
X265714Y41462D01*
X265732Y41561D01*
X265745Y41659D01*
X265755Y41759D01*
X265761Y41858D01*
X265763Y41958D01*
X263223Y39417D02*
X263082Y39419D01*
X262941Y39424D01*
X262800Y39434D01*
X262659Y39447D01*
X262519Y39463D01*
X262379Y39484D01*
X262240Y39508D01*
X262101Y39536D01*
X261964Y39567D01*
X261827Y39602D01*
X261691Y39640D01*
X261556Y39682D01*
X261423Y39728D01*
X261290Y39777D01*
X261159Y39830D01*
X261030Y39886D01*
X260901Y39945D01*
X260775Y40008D01*
X260650Y40074D01*
X260527Y40143D01*
X260406Y40216D01*
X260287Y40292D01*
X260169Y40371D01*
X260054Y40452D01*
X259942Y40537D01*
X259831Y40625D01*
X259723Y40716D01*
X259617Y40809D01*
X259514Y40906D01*
X259413Y41005D01*
X259731Y48308D02*
X259733Y48408D01*
X259739Y48507D01*
X259749Y48607D01*
X259762Y48705D01*
X259780Y48804D01*
X259801Y48901D01*
X259826Y48997D01*
X259855Y49093D01*
X259888Y49187D01*
X259924Y49280D01*
X259964Y49371D01*
X260008Y49461D01*
X260055Y49549D01*
X260105Y49635D01*
X260159Y49719D01*
X260216Y49801D01*
X260276Y49880D01*
X260340Y49958D01*
X260406Y50032D01*
X260475Y50104D01*
X260547Y50173D01*
X260621Y50239D01*
X260699Y50303D01*
X260778Y50363D01*
X260860Y50420D01*
X260944Y50474D01*
X261030Y50524D01*
X261118Y50571D01*
X261208Y50615D01*
X261299Y50655D01*
X261392Y50691D01*
X261486Y50724D01*
X261582Y50753D01*
X261678Y50778D01*
X261775Y50799D01*
X261874Y50817D01*
X261972Y50830D01*
X262072Y50840D01*
X262171Y50846D01*
X262271Y50848D01*
X262404Y50846D01*
X262537Y50841D01*
X262670Y50831D01*
X262803Y50818D01*
X262935Y50801D01*
X263067Y50781D01*
X263198Y50757D01*
X263328Y50729D01*
X263458Y50698D01*
X263586Y50663D01*
X263714Y50624D01*
X263840Y50582D01*
X263965Y50536D01*
X264089Y50487D01*
X264212Y50435D01*
X264333Y50379D01*
X264452Y50319D01*
X264570Y50257D01*
X264685Y50191D01*
X264799Y50122D01*
X264911Y50049D01*
X265021Y49974D01*
X265129Y49895D01*
X261000Y46085D02*
X260916Y46137D01*
X260833Y46192D01*
X260753Y46251D01*
X260675Y46312D01*
X260600Y46376D01*
X260527Y46444D01*
X260456Y46514D01*
X260389Y46586D01*
X260324Y46661D01*
X260262Y46739D01*
X260203Y46819D01*
X260147Y46901D01*
X260095Y46985D01*
X260046Y47071D01*
X260000Y47159D01*
X259957Y47249D01*
X259918Y47340D01*
X259883Y47433D01*
X259851Y47527D01*
X259823Y47622D01*
X259798Y47718D01*
X259778Y47815D01*
X259760Y47913D01*
X259747Y48011D01*
X259738Y48110D01*
X259732Y48209D01*
X259730Y48308D01*
X264493Y44181D02*
X264577Y44129D01*
X264660Y44074D01*
X264740Y44015D01*
X264818Y43954D01*
X264893Y43890D01*
X264966Y43822D01*
X265037Y43752D01*
X265104Y43680D01*
X265169Y43605D01*
X265231Y43527D01*
X265290Y43447D01*
X265346Y43365D01*
X265398Y43281D01*
X265447Y43195D01*
X265493Y43107D01*
X265536Y43017D01*
X265575Y42926D01*
X265610Y42833D01*
X265642Y42739D01*
X265670Y42644D01*
X265695Y42548D01*
X265715Y42451D01*
X265733Y42353D01*
X265746Y42255D01*
X265755Y42156D01*
X265761Y42057D01*
X265763Y41958D01*
X264493Y44180D02*
X261001Y46085D01*
X271153Y39418D02*
X274963Y50848D01*
X278773Y39418D01*
X277820Y42275D02*
X272105Y42275D01*
X285344Y45768D02*
X288519Y45768D01*
X288630Y45766D01*
X288740Y45760D01*
X288851Y45751D01*
X288961Y45737D01*
X289070Y45720D01*
X289179Y45699D01*
X289287Y45674D01*
X289394Y45645D01*
X289500Y45613D01*
X289605Y45577D01*
X289708Y45537D01*
X289810Y45494D01*
X289911Y45447D01*
X290010Y45396D01*
X290107Y45343D01*
X290201Y45286D01*
X290294Y45225D01*
X290385Y45162D01*
X290474Y45095D01*
X290560Y45025D01*
X290643Y44952D01*
X290725Y44877D01*
X290803Y44799D01*
X290878Y44717D01*
X290951Y44634D01*
X291021Y44548D01*
X291088Y44459D01*
X291151Y44368D01*
X291212Y44275D01*
X291269Y44180D01*
X291322Y44084D01*
X291373Y43985D01*
X291420Y43884D01*
X291463Y43782D01*
X291503Y43679D01*
X291539Y43574D01*
X291571Y43468D01*
X291600Y43361D01*
X291625Y43253D01*
X291646Y43144D01*
X291663Y43035D01*
X291677Y42925D01*
X291686Y42814D01*
X291692Y42704D01*
X291694Y42593D01*
X291692Y42482D01*
X291686Y42372D01*
X291677Y42261D01*
X291663Y42151D01*
X291646Y42042D01*
X291625Y41933D01*
X291600Y41825D01*
X291571Y41718D01*
X291539Y41612D01*
X291503Y41507D01*
X291463Y41404D01*
X291420Y41302D01*
X291373Y41201D01*
X291322Y41102D01*
X291269Y41005D01*
X291212Y40911D01*
X291151Y40818D01*
X291088Y40727D01*
X291021Y40638D01*
X290951Y40552D01*
X290878Y40469D01*
X290803Y40387D01*
X290725Y40309D01*
X290643Y40234D01*
X290560Y40161D01*
X290474Y40091D01*
X290385Y40024D01*
X290294Y39961D01*
X290201Y39900D01*
X290107Y39843D01*
X290010Y39790D01*
X289911Y39739D01*
X289810Y39692D01*
X289708Y39649D01*
X289605Y39609D01*
X289500Y39573D01*
X289394Y39541D01*
X289287Y39512D01*
X289179Y39487D01*
X289070Y39466D01*
X288961Y39449D01*
X288851Y39435D01*
X288740Y39426D01*
X288630Y39420D01*
X288519Y39418D01*
X285344Y39418D01*
X285344Y50848D01*
X288519Y50848D01*
X288619Y50846D01*
X288718Y50840D01*
X288818Y50830D01*
X288916Y50817D01*
X289015Y50799D01*
X289112Y50778D01*
X289208Y50753D01*
X289304Y50724D01*
X289398Y50691D01*
X289491Y50655D01*
X289582Y50615D01*
X289672Y50571D01*
X289760Y50524D01*
X289846Y50474D01*
X289930Y50420D01*
X290012Y50363D01*
X290091Y50303D01*
X290169Y50239D01*
X290243Y50173D01*
X290315Y50104D01*
X290384Y50032D01*
X290450Y49958D01*
X290514Y49880D01*
X290574Y49801D01*
X290631Y49719D01*
X290685Y49635D01*
X290735Y49549D01*
X290782Y49461D01*
X290826Y49371D01*
X290866Y49280D01*
X290902Y49187D01*
X290935Y49093D01*
X290964Y48997D01*
X290989Y48901D01*
X291010Y48804D01*
X291028Y48705D01*
X291041Y48607D01*
X291051Y48507D01*
X291057Y48408D01*
X291059Y48308D01*
X291057Y48208D01*
X291051Y48109D01*
X291041Y48009D01*
X291028Y47911D01*
X291010Y47812D01*
X290989Y47715D01*
X290964Y47619D01*
X290935Y47523D01*
X290902Y47429D01*
X290866Y47336D01*
X290826Y47245D01*
X290782Y47155D01*
X290735Y47067D01*
X290685Y46981D01*
X290631Y46897D01*
X290574Y46815D01*
X290514Y46736D01*
X290450Y46658D01*
X290384Y46584D01*
X290315Y46512D01*
X290243Y46443D01*
X290169Y46377D01*
X290091Y46313D01*
X290012Y46253D01*
X289930Y46196D01*
X289846Y46142D01*
X289760Y46092D01*
X289672Y46045D01*
X289582Y46001D01*
X289491Y45961D01*
X289398Y45925D01*
X289304Y45892D01*
X289208Y45863D01*
X289112Y45838D01*
X289015Y45817D01*
X288916Y45799D01*
X288818Y45786D01*
X288718Y45776D01*
X288619Y45770D01*
X288519Y45768D01*
X297861Y50848D02*
X297861Y39418D01*
X302941Y39418D01*
X308956Y39418D02*
X314036Y39418D01*
X308956Y39418D02*
X308956Y50848D01*
X314036Y50848D01*
X312766Y45768D02*
X308956Y45768D01*
D11*
X42570Y71755D03*
X61570Y71755D03*
D12*
X23070Y51250D03*
X23070Y44750D03*
X23070Y38250D03*
X23070Y31750D03*
X23070Y25250D03*
X23070Y18750D03*
X23070Y12250D03*
X81070Y12250D03*
X81070Y18750D03*
X81070Y25250D03*
X81070Y31750D03*
X81070Y38250D03*
X81070Y44750D03*
X81070Y51250D03*
D13*
X104775Y42750D03*
X104775Y59750D03*
D14*
X136525Y12700D03*
X158750Y12700D03*
D15*
X190500Y158750D03*
D16*
X96520Y71755D02*
X77470Y71755D01*
D17*
X96520Y71755D03*
D16*
X77470Y71755D02*
X61570Y71755D01*
D18*
X190500Y158750D02*
X190500Y167640D01*
D19*
X56599Y66784D02*
X56599Y58971D01*
X64320Y51250D01*
X56599Y66784D02*
X61570Y71755D01*
D17*
X77470Y71755D03*
D19*
X79375Y74930D02*
X67945Y77725D01*
X67945Y65780D02*
X79375Y68580D01*
X59849Y66834D02*
X56674Y63659D01*
X64320Y51250D02*
X81070Y51250D01*
D16*
X96520Y71755D02*
X104775Y63500D01*
X104775Y59750D01*
D19*
X77470Y71755D02*
X74006Y72040D01*
X75750Y51250D02*
X81070Y51250D01*
D15*
X165100Y158750D03*
D20*
X165100Y167640D02*
X165100Y184150D01*
D18*
X165100Y167640D02*
X165100Y158750D01*
D20*
X42570Y73000D02*
X21590Y93980D01*
X21590Y154940D01*
X57150Y190500D01*
X158750Y190500D01*
X165100Y184150D01*
D21*
X46030Y68295D02*
X42570Y71755D01*
X46030Y68295D02*
X46030Y55245D01*
D19*
X45085Y62865D02*
X41910Y66040D01*
D21*
X46030Y55245D02*
X50475Y50800D01*
D19*
X23070Y25250D02*
X23070Y18750D01*
D22*
X39370Y18750D03*
D15*
X215900Y107950D03*
D18*
X215900Y99060D01*
D19*
X39370Y18750D02*
X23070Y18750D01*
X33370Y18750D02*
X38348Y16495D01*
X39370Y18750D01*
X38348Y21005D02*
X33370Y18750D01*
X38348Y21005D02*
X39370Y18750D01*
X23070Y51250D02*
X23070Y54425D01*
D23*
X23070Y63500D01*
D22*
X23070Y63500D03*
D15*
X165100Y107950D03*
D18*
X165100Y99060D01*
D19*
X39370Y49195D02*
X34925Y44750D01*
X23070Y44750D01*
D22*
X39370Y49195D03*
X158750Y27305D03*
D24*
X158750Y12700D01*
D19*
X40242Y46878D02*
X35127Y44952D01*
X40242Y46878D02*
X39370Y49195D01*
X37053Y50067D02*
X35127Y44952D01*
X37053Y50067D02*
X39370Y49195D01*
X81070Y44750D02*
X81070Y38250D01*
X64770Y38250D01*
D22*
X64770Y38250D03*
X39370Y38250D03*
D19*
X23070Y38250D01*
X102775Y44750D02*
X104775Y42750D01*
X102775Y44750D02*
X81070Y44750D01*
X70770Y38250D02*
X65792Y40505D01*
X64770Y38250D01*
X65792Y35995D02*
X70770Y38250D01*
X65792Y35995D02*
X64770Y38250D01*
X38348Y35995D02*
X33370Y38250D01*
X38348Y35995D02*
X39370Y38250D01*
X38348Y40505D02*
X33370Y38250D01*
X38348Y40505D02*
X39370Y38250D01*
X81070Y12250D02*
X104325Y12250D01*
X698500Y99060D02*
X701675Y95885D01*
X701675Y85725D01*
X679450Y63500D01*
X155575Y63500D01*
D18*
X698500Y99060D02*
X698500Y107950D01*
D15*
X698500Y107950D03*
D19*
X155575Y63500D02*
X104325Y12250D01*
X81070Y18750D02*
X81070Y25250D01*
X546100Y99060D02*
X549275Y95885D01*
X549275Y85725D01*
X539750Y76200D01*
X158750Y76200D01*
D18*
X546100Y99060D02*
X546100Y107950D01*
D15*
X546100Y107950D03*
D19*
X101300Y18750D02*
X81070Y18750D01*
X101300Y18750D02*
X158750Y76200D01*
X81070Y31750D02*
X69215Y31750D01*
X64770Y27305D01*
D22*
X64770Y27305D03*
X136525Y27305D03*
D24*
X136525Y12700D01*
D19*
X69013Y31548D02*
X63898Y29622D01*
X64770Y27305D01*
X67087Y26433D02*
X69013Y31548D01*
X67087Y26433D02*
X64770Y27305D01*
X23098Y55364D02*
X19010Y51276D01*
X23098Y55364D02*
X27186Y51276D01*
D25*
X97774Y44053D02*
X101584Y40243D01*
X109519Y64754D02*
X103176Y71124D01*
X99293Y46997D02*
X97864Y45568D01*
D19*
X221743Y31736D02*
X221753Y31736D01*
X226743Y31736D02*
X226753Y31736D01*
X226743Y26736D02*
X215493Y26736D01*
X226743Y26736D02*
X226743Y15486D01*
X226741Y15366D01*
X226735Y15246D01*
X226726Y15126D01*
X226712Y15006D01*
X226695Y14888D01*
X226674Y14769D01*
X226649Y14652D01*
X226620Y14535D01*
X226588Y14419D01*
X226552Y14304D01*
X226512Y14191D01*
X226469Y14079D01*
X226422Y13968D01*
X226372Y13859D01*
X226318Y13751D01*
X226260Y13646D01*
X226200Y13542D01*
X226136Y13440D01*
X226069Y13341D01*
X225998Y13243D01*
X225925Y13148D01*
X225848Y13055D01*
X225769Y12965D01*
X225687Y12877D01*
X225602Y12792D01*
X225514Y12710D01*
X225424Y12631D01*
X225331Y12554D01*
X225236Y12481D01*
X225138Y12410D01*
X225039Y12343D01*
X224937Y12279D01*
X224833Y12219D01*
X224728Y12161D01*
X224620Y12107D01*
X224511Y12057D01*
X224400Y12010D01*
X224288Y11967D01*
X224175Y11927D01*
X224060Y11891D01*
X223944Y11859D01*
X223827Y11830D01*
X223710Y11805D01*
X223591Y11784D01*
X223473Y11767D01*
X223353Y11753D01*
X223233Y11744D01*
X223113Y11738D01*
X222993Y11736D01*
X216743Y11736D01*
X215493Y26736D02*
X216743Y31736D01*
X215493Y26736D02*
X211743Y11736D01*
X211743Y26736D02*
X215493Y26736D01*
X206743Y26736D02*
X191743Y26736D01*
X206743Y26736D02*
X206743Y24236D01*
X206741Y24096D01*
X206735Y23956D01*
X206725Y23816D01*
X206712Y23676D01*
X206694Y23537D01*
X206672Y23398D01*
X206647Y23261D01*
X206618Y23123D01*
X206585Y22987D01*
X206548Y22852D01*
X206507Y22718D01*
X206462Y22585D01*
X206414Y22453D01*
X206362Y22323D01*
X206307Y22194D01*
X206248Y22067D01*
X206185Y21941D01*
X206119Y21817D01*
X206050Y21696D01*
X205977Y21576D01*
X205900Y21458D01*
X205821Y21343D01*
X205738Y21229D01*
X205652Y21119D01*
X205563Y21010D01*
X205471Y20904D01*
X205376Y20801D01*
X205279Y20700D01*
X205178Y20603D01*
X205075Y20508D01*
X204969Y20416D01*
X204860Y20327D01*
X204750Y20241D01*
X204636Y20158D01*
X204521Y20079D01*
X204403Y20002D01*
X204283Y19929D01*
X204162Y19860D01*
X204038Y19794D01*
X203912Y19731D01*
X203785Y19672D01*
X203656Y19617D01*
X203526Y19565D01*
X203394Y19517D01*
X203261Y19472D01*
X203127Y19431D01*
X202992Y19394D01*
X202856Y19361D01*
X202718Y19332D01*
X202581Y19307D01*
X202442Y19285D01*
X202303Y19267D01*
X202163Y19254D01*
X202023Y19244D01*
X201883Y19238D01*
X201743Y19236D01*
X196743Y16736D02*
X196743Y31736D01*
X196743Y16736D02*
X196745Y16596D01*
X196751Y16456D01*
X196761Y16316D01*
X196774Y16176D01*
X196792Y16037D01*
X196814Y15898D01*
X196839Y15761D01*
X196868Y15623D01*
X196901Y15487D01*
X196938Y15352D01*
X196979Y15218D01*
X197024Y15085D01*
X197072Y14953D01*
X197124Y14823D01*
X197179Y14694D01*
X197238Y14567D01*
X197301Y14441D01*
X197367Y14317D01*
X197436Y14196D01*
X197509Y14076D01*
X197586Y13958D01*
X197665Y13843D01*
X197748Y13729D01*
X197834Y13619D01*
X197923Y13510D01*
X198015Y13404D01*
X198110Y13301D01*
X198207Y13200D01*
X198308Y13103D01*
X198411Y13008D01*
X198517Y12916D01*
X198626Y12827D01*
X198736Y12741D01*
X198850Y12658D01*
X198965Y12579D01*
X199083Y12502D01*
X199203Y12429D01*
X199324Y12360D01*
X199448Y12294D01*
X199574Y12231D01*
X199701Y12172D01*
X199830Y12117D01*
X199960Y12065D01*
X200092Y12017D01*
X200225Y11972D01*
X200359Y11931D01*
X200494Y11894D01*
X200630Y11861D01*
X200768Y11832D01*
X200905Y11807D01*
X201044Y11785D01*
X201183Y11767D01*
X201323Y11754D01*
X201463Y11744D01*
X201603Y11738D01*
X201743Y11736D01*
X206743Y11736D01*
X284243Y11736D02*
X284243Y31736D01*
X284243Y11736D02*
X304243Y11736D01*
X304243Y31736D01*
X284243Y31736D01*
X289243Y26736D02*
X294243Y26736D01*
X289243Y26736D02*
X289243Y21736D01*
X294243Y21736D01*
X294243Y16736D01*
X299243Y16736D01*
X299243Y21736D01*
X695325Y79375D02*
X695325Y90488D01*
X700088Y90488D02*
X700088Y84138D01*
X547688Y84138D02*
X547688Y90488D01*
X542925Y90488D02*
X542925Y79375D01*
X546100Y82550D02*
X546100Y90488D01*
X544513Y90488D02*
X544513Y80963D01*
X698500Y82550D02*
X698500Y90488D01*
X696913Y90488D02*
X696913Y80963D01*
X542925Y82550D02*
X536575Y76200D01*
X676275Y63500D02*
X695325Y82550D01*
D25*
X35719Y47625D02*
X33338Y45244D01*
X68263Y28575D02*
X70644Y30956D01*
D19*
X20600Y51594D02*
X20600Y63500D01*
X25550Y63500D02*
X25550Y51594D01*
M02*
