G04 EAGLE Gerber RS-274X export*
G75*
%MOMM*%
%FSLAX34Y34*%
%LPD*%
%INSilkscreen Top*%
%IPPOS*%
%AMOC8*
5,1,8,0,0,1.08239X$1,22.5*%
G01*
%ADD10C,0.127000*%
%ADD11C,0.076200*%


D10*
X15370Y56750D02*
X74070Y56750D01*
X74070Y6750D02*
X30070Y6750D01*
D11*
X132024Y36199D02*
X141026Y32925D01*
X140208Y40713D02*
X140208Y42350D01*
X140208Y40713D02*
X140206Y40635D01*
X140201Y40557D01*
X140191Y40480D01*
X140178Y40403D01*
X140162Y40327D01*
X140142Y40252D01*
X140118Y40178D01*
X140091Y40105D01*
X140060Y40033D01*
X140026Y39963D01*
X139989Y39895D01*
X139948Y39828D01*
X139904Y39763D01*
X139858Y39701D01*
X139808Y39641D01*
X139756Y39583D01*
X139701Y39528D01*
X139643Y39476D01*
X139583Y39426D01*
X139521Y39380D01*
X139456Y39336D01*
X139390Y39295D01*
X139321Y39258D01*
X139251Y39224D01*
X139179Y39193D01*
X139106Y39166D01*
X139032Y39142D01*
X138957Y39122D01*
X138881Y39106D01*
X138804Y39093D01*
X138727Y39083D01*
X138649Y39078D01*
X138571Y39076D01*
X134479Y39076D01*
X134399Y39078D01*
X134319Y39084D01*
X134239Y39094D01*
X134160Y39107D01*
X134081Y39125D01*
X134004Y39146D01*
X133928Y39172D01*
X133853Y39201D01*
X133779Y39233D01*
X133707Y39269D01*
X133637Y39309D01*
X133570Y39352D01*
X133504Y39398D01*
X133441Y39448D01*
X133380Y39500D01*
X133321Y39555D01*
X133266Y39614D01*
X133214Y39674D01*
X133164Y39738D01*
X133118Y39803D01*
X133075Y39871D01*
X133035Y39941D01*
X132999Y40013D01*
X132967Y40087D01*
X132938Y40161D01*
X132913Y40238D01*
X132891Y40315D01*
X132873Y40394D01*
X132860Y40473D01*
X132850Y40552D01*
X132844Y40633D01*
X132842Y40713D01*
X132842Y42350D01*
X140208Y45455D02*
X140208Y48728D01*
X140208Y45455D02*
X132842Y45455D01*
X132842Y48728D01*
X136116Y47910D02*
X136116Y45455D01*
X136525Y51535D02*
X136372Y51537D01*
X136219Y51543D01*
X136067Y51552D01*
X135914Y51566D01*
X135762Y51583D01*
X135611Y51604D01*
X135460Y51629D01*
X135310Y51658D01*
X135160Y51690D01*
X135012Y51727D01*
X134864Y51767D01*
X134717Y51810D01*
X134572Y51858D01*
X134428Y51909D01*
X134285Y51963D01*
X134143Y52022D01*
X134004Y52083D01*
X133865Y52149D01*
X133795Y52175D01*
X133725Y52205D01*
X133658Y52238D01*
X133592Y52274D01*
X133528Y52313D01*
X133466Y52356D01*
X133407Y52402D01*
X133349Y52450D01*
X133295Y52501D01*
X133242Y52555D01*
X133193Y52612D01*
X133146Y52671D01*
X133103Y52732D01*
X133062Y52795D01*
X133025Y52860D01*
X132990Y52927D01*
X132960Y52996D01*
X132932Y53066D01*
X132909Y53137D01*
X132888Y53209D01*
X132872Y53282D01*
X132859Y53356D01*
X132849Y53431D01*
X132844Y53506D01*
X132842Y53581D01*
X132844Y53656D01*
X132849Y53731D01*
X132859Y53806D01*
X132872Y53880D01*
X132888Y53953D01*
X132909Y54025D01*
X132932Y54096D01*
X132960Y54166D01*
X132990Y54235D01*
X133025Y54302D01*
X133062Y54367D01*
X133103Y54430D01*
X133146Y54491D01*
X133193Y54550D01*
X133242Y54607D01*
X133295Y54661D01*
X133349Y54712D01*
X133407Y54761D01*
X133466Y54806D01*
X133528Y54849D01*
X133592Y54888D01*
X133658Y54925D01*
X133726Y54957D01*
X133795Y54987D01*
X133865Y55013D01*
X134003Y55078D01*
X134143Y55140D01*
X134285Y55198D01*
X134428Y55253D01*
X134572Y55304D01*
X134717Y55352D01*
X134864Y55395D01*
X135011Y55435D01*
X135160Y55472D01*
X135310Y55504D01*
X135460Y55533D01*
X135611Y55558D01*
X135762Y55579D01*
X135914Y55596D01*
X136067Y55610D01*
X136219Y55619D01*
X136372Y55625D01*
X136525Y55627D01*
X136525Y51535D02*
X136678Y51537D01*
X136831Y51543D01*
X136983Y51552D01*
X137136Y51566D01*
X137288Y51583D01*
X137439Y51604D01*
X137590Y51629D01*
X137740Y51658D01*
X137890Y51690D01*
X138038Y51727D01*
X138186Y51767D01*
X138333Y51810D01*
X138478Y51858D01*
X138622Y51909D01*
X138765Y51963D01*
X138907Y52022D01*
X139046Y52083D01*
X139185Y52149D01*
X139256Y52175D01*
X139325Y52205D01*
X139392Y52238D01*
X139458Y52274D01*
X139522Y52313D01*
X139584Y52356D01*
X139643Y52402D01*
X139701Y52450D01*
X139755Y52501D01*
X139808Y52555D01*
X139857Y52612D01*
X139904Y52671D01*
X139947Y52732D01*
X139988Y52795D01*
X140025Y52860D01*
X140060Y52927D01*
X140090Y52996D01*
X140118Y53066D01*
X140141Y53137D01*
X140162Y53209D01*
X140178Y53282D01*
X140191Y53356D01*
X140201Y53431D01*
X140206Y53506D01*
X140208Y53581D01*
X139185Y55013D02*
X139047Y55078D01*
X138907Y55140D01*
X138765Y55198D01*
X138622Y55253D01*
X138478Y55304D01*
X138333Y55352D01*
X138186Y55395D01*
X138039Y55435D01*
X137890Y55472D01*
X137740Y55504D01*
X137590Y55533D01*
X137439Y55558D01*
X137288Y55579D01*
X137136Y55596D01*
X136983Y55610D01*
X136831Y55619D01*
X136678Y55625D01*
X136525Y55627D01*
X139185Y55013D02*
X139255Y54987D01*
X139325Y54957D01*
X139392Y54924D01*
X139458Y54888D01*
X139522Y54849D01*
X139584Y54806D01*
X139643Y54760D01*
X139701Y54712D01*
X139755Y54661D01*
X139808Y54607D01*
X139857Y54550D01*
X139904Y54491D01*
X139947Y54430D01*
X139988Y54367D01*
X140025Y54302D01*
X140060Y54235D01*
X140090Y54166D01*
X140118Y54096D01*
X140141Y54025D01*
X140162Y53953D01*
X140178Y53880D01*
X140191Y53806D01*
X140201Y53731D01*
X140206Y53656D01*
X140208Y53581D01*
X138571Y51944D02*
X134479Y55218D01*
X154249Y36199D02*
X163251Y32925D01*
X162433Y40713D02*
X162433Y42350D01*
X162433Y40713D02*
X162431Y40635D01*
X162426Y40557D01*
X162416Y40480D01*
X162403Y40403D01*
X162387Y40327D01*
X162367Y40252D01*
X162343Y40178D01*
X162316Y40105D01*
X162285Y40033D01*
X162251Y39963D01*
X162214Y39895D01*
X162173Y39828D01*
X162129Y39763D01*
X162083Y39701D01*
X162033Y39641D01*
X161981Y39583D01*
X161926Y39528D01*
X161868Y39476D01*
X161808Y39426D01*
X161746Y39380D01*
X161681Y39336D01*
X161615Y39295D01*
X161546Y39258D01*
X161476Y39224D01*
X161404Y39193D01*
X161331Y39166D01*
X161257Y39142D01*
X161182Y39122D01*
X161106Y39106D01*
X161029Y39093D01*
X160952Y39083D01*
X160874Y39078D01*
X160796Y39076D01*
X156704Y39076D01*
X156624Y39078D01*
X156544Y39084D01*
X156464Y39094D01*
X156385Y39107D01*
X156306Y39125D01*
X156229Y39146D01*
X156153Y39172D01*
X156078Y39201D01*
X156004Y39233D01*
X155932Y39269D01*
X155862Y39309D01*
X155795Y39352D01*
X155729Y39398D01*
X155666Y39448D01*
X155605Y39500D01*
X155546Y39555D01*
X155491Y39614D01*
X155439Y39674D01*
X155389Y39738D01*
X155343Y39803D01*
X155300Y39871D01*
X155260Y39941D01*
X155224Y40013D01*
X155192Y40087D01*
X155163Y40161D01*
X155138Y40238D01*
X155116Y40315D01*
X155098Y40394D01*
X155085Y40473D01*
X155075Y40552D01*
X155069Y40633D01*
X155067Y40713D01*
X155067Y42350D01*
X155067Y47241D02*
X162433Y44786D01*
X162433Y49697D02*
X155067Y47241D01*
X160592Y49083D02*
X160592Y45400D01*
X162433Y52805D02*
X155067Y52805D01*
X155067Y54851D01*
X155069Y54940D01*
X155075Y55029D01*
X155085Y55118D01*
X155098Y55206D01*
X155115Y55294D01*
X155137Y55381D01*
X155162Y55466D01*
X155190Y55551D01*
X155223Y55634D01*
X155259Y55716D01*
X155298Y55796D01*
X155341Y55874D01*
X155387Y55950D01*
X155437Y56025D01*
X155490Y56097D01*
X155546Y56166D01*
X155605Y56233D01*
X155666Y56298D01*
X155731Y56359D01*
X155798Y56418D01*
X155867Y56474D01*
X155939Y56527D01*
X156014Y56577D01*
X156090Y56623D01*
X156168Y56666D01*
X156248Y56705D01*
X156330Y56741D01*
X156413Y56774D01*
X156498Y56802D01*
X156583Y56827D01*
X156670Y56849D01*
X156758Y56866D01*
X156846Y56879D01*
X156935Y56889D01*
X157024Y56895D01*
X157113Y56897D01*
X157202Y56895D01*
X157291Y56889D01*
X157380Y56879D01*
X157468Y56866D01*
X157556Y56849D01*
X157643Y56827D01*
X157728Y56802D01*
X157813Y56774D01*
X157896Y56741D01*
X157978Y56705D01*
X158058Y56666D01*
X158136Y56623D01*
X158212Y56577D01*
X158287Y56527D01*
X158359Y56474D01*
X158428Y56418D01*
X158495Y56359D01*
X158560Y56298D01*
X158621Y56233D01*
X158680Y56166D01*
X158736Y56097D01*
X158789Y56025D01*
X158839Y55950D01*
X158885Y55874D01*
X158928Y55796D01*
X158967Y55716D01*
X159003Y55634D01*
X159036Y55551D01*
X159064Y55466D01*
X159089Y55381D01*
X159111Y55294D01*
X159128Y55206D01*
X159141Y55118D01*
X159151Y55029D01*
X159157Y54940D01*
X159159Y54851D01*
X159159Y52805D01*
X159159Y55261D02*
X162433Y56898D01*
X162433Y61628D02*
X155067Y61628D01*
X155067Y59582D02*
X155067Y63674D01*
M02*
