G04 EAGLE Gerber RS-274X export*
G75*
%MOMM*%
%FSLAX34Y34*%
%LPD*%
%INBottom Copper*%
%IPPOS*%
%AMOC8*
5,1,8,0,0,1.08239X$1,22.5*%
G01*
%ADD10C,0.228600*%
%ADD11C,1.000000*%
%ADD12C,0.609600*%
%ADD13C,1.000000*%
%ADD14C,0.800000*%
%ADD15C,0.304800*%

G36*
X174651Y107065D02*
X174651Y107065D01*
X174677Y107063D01*
X174824Y107085D01*
X174971Y107102D01*
X174996Y107110D01*
X175022Y107114D01*
X175160Y107169D01*
X175299Y107219D01*
X175321Y107233D01*
X175346Y107243D01*
X175467Y107328D01*
X175592Y107408D01*
X175610Y107427D01*
X175632Y107442D01*
X175731Y107552D01*
X175834Y107659D01*
X175848Y107681D01*
X175865Y107701D01*
X175937Y107831D01*
X176013Y107958D01*
X176021Y107983D01*
X176034Y108006D01*
X176074Y108149D01*
X176119Y108290D01*
X176121Y108316D01*
X176129Y108341D01*
X176148Y108585D01*
X176148Y145415D01*
X176145Y145441D01*
X176147Y145467D01*
X176125Y145614D01*
X176108Y145761D01*
X176100Y145786D01*
X176096Y145812D01*
X176041Y145950D01*
X175991Y146089D01*
X175977Y146111D01*
X175967Y146136D01*
X175882Y146257D01*
X175802Y146382D01*
X175783Y146400D01*
X175768Y146422D01*
X175658Y146521D01*
X175551Y146624D01*
X175529Y146638D01*
X175509Y146655D01*
X175379Y146727D01*
X175252Y146803D01*
X175227Y146811D01*
X175204Y146824D01*
X175061Y146864D01*
X174920Y146909D01*
X174894Y146911D01*
X174869Y146919D01*
X174625Y146938D01*
X130175Y146938D01*
X130149Y146935D01*
X130123Y146937D01*
X129976Y146915D01*
X129829Y146898D01*
X129804Y146890D01*
X129778Y146886D01*
X129640Y146831D01*
X129501Y146781D01*
X129479Y146767D01*
X129454Y146757D01*
X129333Y146672D01*
X129208Y146592D01*
X129190Y146573D01*
X129168Y146558D01*
X129069Y146448D01*
X128966Y146341D01*
X128952Y146319D01*
X128935Y146299D01*
X128863Y146169D01*
X128787Y146042D01*
X128779Y146017D01*
X128766Y145994D01*
X128726Y145851D01*
X128681Y145710D01*
X128679Y145684D01*
X128671Y145659D01*
X128652Y145415D01*
X128652Y108585D01*
X128655Y108559D01*
X128653Y108533D01*
X128675Y108386D01*
X128692Y108239D01*
X128700Y108214D01*
X128704Y108188D01*
X128759Y108050D01*
X128809Y107911D01*
X128823Y107889D01*
X128833Y107864D01*
X128918Y107743D01*
X128998Y107618D01*
X129017Y107600D01*
X129032Y107578D01*
X129142Y107479D01*
X129249Y107376D01*
X129271Y107362D01*
X129291Y107345D01*
X129421Y107273D01*
X129548Y107197D01*
X129573Y107189D01*
X129596Y107176D01*
X129739Y107136D01*
X129880Y107091D01*
X129906Y107089D01*
X129931Y107081D01*
X130175Y107062D01*
X174625Y107062D01*
X174651Y107065D01*
G37*
D10*
X124276Y13843D02*
X121384Y13843D01*
X121277Y13845D01*
X121170Y13851D01*
X121064Y13861D01*
X120958Y13875D01*
X120852Y13892D01*
X120748Y13914D01*
X120644Y13939D01*
X120541Y13969D01*
X120439Y14002D01*
X120339Y14038D01*
X120240Y14079D01*
X120143Y14123D01*
X120047Y14171D01*
X119953Y14222D01*
X119861Y14276D01*
X119771Y14334D01*
X119684Y14396D01*
X119598Y14460D01*
X119515Y14527D01*
X119435Y14598D01*
X119357Y14672D01*
X119282Y14748D01*
X119210Y14827D01*
X119141Y14908D01*
X119075Y14993D01*
X119012Y15079D01*
X118953Y15168D01*
X118897Y15259D01*
X118844Y15352D01*
X118794Y15446D01*
X118748Y15543D01*
X118706Y15641D01*
X118668Y15741D01*
X118633Y15842D01*
X118601Y15944D01*
X118574Y16048D01*
X118551Y16152D01*
X118531Y16257D01*
X118515Y16363D01*
X118503Y16469D01*
X118495Y16576D01*
X118491Y16683D01*
X118491Y16789D01*
X118495Y16896D01*
X118503Y17003D01*
X118515Y17109D01*
X118531Y17215D01*
X118551Y17320D01*
X118574Y17424D01*
X118601Y17528D01*
X118633Y17630D01*
X118668Y17731D01*
X118706Y17831D01*
X118748Y17929D01*
X118794Y18026D01*
X118844Y18120D01*
X118897Y18213D01*
X118953Y18304D01*
X119012Y18393D01*
X119075Y18479D01*
X119141Y18564D01*
X119210Y18645D01*
X119282Y18724D01*
X119357Y18800D01*
X119435Y18874D01*
X119515Y18945D01*
X119598Y19012D01*
X119684Y19076D01*
X119771Y19138D01*
X119861Y19196D01*
X119953Y19250D01*
X120047Y19301D01*
X120143Y19349D01*
X120240Y19393D01*
X120339Y19434D01*
X120439Y19470D01*
X120541Y19503D01*
X120644Y19533D01*
X120748Y19558D01*
X120852Y19580D01*
X120958Y19597D01*
X121064Y19611D01*
X121170Y19621D01*
X121277Y19627D01*
X121384Y19629D01*
X120805Y24257D02*
X124276Y24257D01*
X120805Y24257D02*
X120711Y24255D01*
X120616Y24249D01*
X120522Y24240D01*
X120429Y24226D01*
X120336Y24209D01*
X120244Y24188D01*
X120153Y24163D01*
X120063Y24135D01*
X119974Y24103D01*
X119887Y24067D01*
X119801Y24028D01*
X119717Y23985D01*
X119634Y23939D01*
X119554Y23890D01*
X119476Y23837D01*
X119399Y23781D01*
X119326Y23722D01*
X119254Y23661D01*
X119186Y23596D01*
X119119Y23528D01*
X119056Y23458D01*
X118996Y23386D01*
X118938Y23311D01*
X118884Y23233D01*
X118833Y23154D01*
X118785Y23073D01*
X118741Y22989D01*
X118700Y22904D01*
X118663Y22818D01*
X118629Y22730D01*
X118598Y22640D01*
X118572Y22550D01*
X118549Y22458D01*
X118530Y22365D01*
X118515Y22272D01*
X118503Y22179D01*
X118495Y22085D01*
X118491Y21990D01*
X118491Y21896D01*
X118495Y21801D01*
X118503Y21707D01*
X118515Y21614D01*
X118530Y21521D01*
X118549Y21428D01*
X118572Y21336D01*
X118598Y21246D01*
X118629Y21156D01*
X118663Y21068D01*
X118700Y20982D01*
X118741Y20897D01*
X118785Y20813D01*
X118833Y20732D01*
X118884Y20653D01*
X118938Y20575D01*
X118996Y20500D01*
X119056Y20428D01*
X119119Y20358D01*
X119186Y20290D01*
X119254Y20225D01*
X119326Y20164D01*
X119399Y20105D01*
X119476Y20049D01*
X119554Y19996D01*
X119634Y19947D01*
X119717Y19901D01*
X119801Y19858D01*
X119887Y19819D01*
X119974Y19783D01*
X120063Y19751D01*
X120153Y19723D01*
X120244Y19698D01*
X120336Y19677D01*
X120429Y19660D01*
X120522Y19646D01*
X120616Y19637D01*
X120711Y19631D01*
X120805Y19629D01*
X123119Y19629D01*
X112846Y21943D02*
X109954Y24257D01*
X109954Y13843D01*
X112846Y13843D02*
X107061Y13843D01*
X101981Y12686D02*
X97352Y25414D01*
X91404Y22811D02*
X91492Y22625D01*
X91575Y22438D01*
X91654Y22249D01*
X91728Y22058D01*
X91797Y21865D01*
X91862Y21671D01*
X91922Y21475D01*
X91978Y21278D01*
X92029Y21079D01*
X92075Y20880D01*
X92116Y20679D01*
X92152Y20478D01*
X92184Y20275D01*
X92211Y20072D01*
X92233Y19868D01*
X92250Y19664D01*
X92262Y19460D01*
X92270Y19255D01*
X92272Y19050D01*
X91405Y22810D02*
X91374Y22896D01*
X91339Y22981D01*
X91300Y23064D01*
X91257Y23145D01*
X91212Y23224D01*
X91163Y23302D01*
X91110Y23377D01*
X91055Y23450D01*
X90996Y23520D01*
X90935Y23588D01*
X90870Y23653D01*
X90803Y23715D01*
X90734Y23775D01*
X90661Y23831D01*
X90587Y23884D01*
X90510Y23934D01*
X90431Y23981D01*
X90351Y24024D01*
X90268Y24064D01*
X90184Y24100D01*
X90098Y24133D01*
X90012Y24162D01*
X89923Y24187D01*
X89834Y24208D01*
X89745Y24226D01*
X89654Y24239D01*
X89563Y24249D01*
X89472Y24255D01*
X89380Y24257D01*
X89288Y24255D01*
X89197Y24249D01*
X89106Y24239D01*
X89015Y24226D01*
X88926Y24208D01*
X88837Y24187D01*
X88748Y24162D01*
X88662Y24133D01*
X88576Y24100D01*
X88492Y24064D01*
X88409Y24024D01*
X88329Y23981D01*
X88250Y23934D01*
X88173Y23884D01*
X88099Y23831D01*
X88026Y23775D01*
X87957Y23715D01*
X87890Y23653D01*
X87825Y23588D01*
X87764Y23520D01*
X87705Y23450D01*
X87650Y23377D01*
X87597Y23302D01*
X87548Y23224D01*
X87503Y23145D01*
X87460Y23064D01*
X87421Y22981D01*
X87386Y22896D01*
X87355Y22810D01*
X87355Y22811D02*
X87267Y22625D01*
X87184Y22438D01*
X87105Y22249D01*
X87031Y22058D01*
X86962Y21865D01*
X86897Y21671D01*
X86837Y21475D01*
X86781Y21278D01*
X86730Y21079D01*
X86684Y20880D01*
X86643Y20679D01*
X86607Y20478D01*
X86575Y20275D01*
X86548Y20072D01*
X86526Y19868D01*
X86509Y19664D01*
X86497Y19460D01*
X86489Y19255D01*
X86487Y19050D01*
X92272Y19050D02*
X92270Y18845D01*
X92262Y18640D01*
X92250Y18436D01*
X92233Y18232D01*
X92211Y18028D01*
X92184Y17825D01*
X92152Y17623D01*
X92116Y17421D01*
X92075Y17220D01*
X92029Y17021D01*
X91978Y16822D01*
X91922Y16625D01*
X91862Y16429D01*
X91797Y16235D01*
X91728Y16042D01*
X91654Y15851D01*
X91575Y15662D01*
X91492Y15475D01*
X91404Y15289D01*
X91405Y15290D02*
X91374Y15204D01*
X91339Y15119D01*
X91300Y15036D01*
X91257Y14955D01*
X91212Y14876D01*
X91163Y14798D01*
X91110Y14723D01*
X91055Y14650D01*
X90996Y14580D01*
X90935Y14512D01*
X90870Y14447D01*
X90803Y14385D01*
X90734Y14325D01*
X90661Y14269D01*
X90587Y14216D01*
X90510Y14166D01*
X90431Y14119D01*
X90351Y14076D01*
X90268Y14036D01*
X90184Y14000D01*
X90098Y13967D01*
X90012Y13938D01*
X89923Y13913D01*
X89834Y13892D01*
X89745Y13874D01*
X89654Y13861D01*
X89563Y13851D01*
X89472Y13845D01*
X89380Y13843D01*
X87355Y15289D02*
X87267Y15475D01*
X87184Y15662D01*
X87105Y15851D01*
X87031Y16042D01*
X86962Y16235D01*
X86897Y16429D01*
X86837Y16625D01*
X86781Y16822D01*
X86730Y17021D01*
X86684Y17220D01*
X86643Y17421D01*
X86607Y17623D01*
X86575Y17825D01*
X86548Y18028D01*
X86526Y18232D01*
X86509Y18436D01*
X86497Y18640D01*
X86489Y18845D01*
X86487Y19050D01*
X87355Y15290D02*
X87386Y15204D01*
X87421Y15119D01*
X87460Y15036D01*
X87503Y14955D01*
X87548Y14876D01*
X87597Y14798D01*
X87650Y14723D01*
X87705Y14650D01*
X87764Y14580D01*
X87825Y14512D01*
X87890Y14447D01*
X87957Y14385D01*
X88026Y14325D01*
X88099Y14269D01*
X88173Y14216D01*
X88250Y14166D01*
X88329Y14119D01*
X88409Y14076D01*
X88492Y14036D01*
X88576Y14000D01*
X88662Y13967D01*
X88748Y13938D01*
X88837Y13913D01*
X88926Y13892D01*
X89015Y13874D01*
X89106Y13861D01*
X89197Y13851D01*
X89288Y13845D01*
X89380Y13843D01*
X91694Y16157D02*
X87065Y21943D01*
X80842Y13843D02*
X77950Y13843D01*
X77843Y13845D01*
X77736Y13851D01*
X77630Y13861D01*
X77524Y13875D01*
X77418Y13892D01*
X77314Y13914D01*
X77210Y13939D01*
X77107Y13969D01*
X77005Y14002D01*
X76905Y14038D01*
X76806Y14079D01*
X76709Y14123D01*
X76613Y14171D01*
X76519Y14222D01*
X76427Y14276D01*
X76337Y14334D01*
X76250Y14396D01*
X76164Y14460D01*
X76081Y14527D01*
X76001Y14598D01*
X75923Y14672D01*
X75848Y14748D01*
X75776Y14827D01*
X75707Y14908D01*
X75641Y14993D01*
X75578Y15079D01*
X75519Y15168D01*
X75463Y15259D01*
X75410Y15352D01*
X75360Y15446D01*
X75314Y15543D01*
X75272Y15641D01*
X75234Y15741D01*
X75199Y15842D01*
X75167Y15944D01*
X75140Y16048D01*
X75117Y16152D01*
X75097Y16257D01*
X75081Y16363D01*
X75069Y16469D01*
X75061Y16576D01*
X75057Y16683D01*
X75057Y16789D01*
X75061Y16896D01*
X75069Y17003D01*
X75081Y17109D01*
X75097Y17215D01*
X75117Y17320D01*
X75140Y17424D01*
X75167Y17528D01*
X75199Y17630D01*
X75234Y17731D01*
X75272Y17831D01*
X75314Y17929D01*
X75360Y18026D01*
X75410Y18120D01*
X75463Y18213D01*
X75519Y18304D01*
X75578Y18393D01*
X75641Y18479D01*
X75707Y18564D01*
X75776Y18645D01*
X75848Y18724D01*
X75923Y18800D01*
X76001Y18874D01*
X76081Y18945D01*
X76164Y19012D01*
X76250Y19076D01*
X76337Y19138D01*
X76427Y19196D01*
X76519Y19250D01*
X76613Y19301D01*
X76709Y19349D01*
X76806Y19393D01*
X76905Y19434D01*
X77005Y19470D01*
X77107Y19503D01*
X77210Y19533D01*
X77314Y19558D01*
X77418Y19580D01*
X77524Y19597D01*
X77630Y19611D01*
X77736Y19621D01*
X77843Y19627D01*
X77950Y19629D01*
X77371Y24257D02*
X80842Y24257D01*
X77371Y24257D02*
X77277Y24255D01*
X77182Y24249D01*
X77088Y24240D01*
X76995Y24226D01*
X76902Y24209D01*
X76810Y24188D01*
X76719Y24163D01*
X76629Y24135D01*
X76540Y24103D01*
X76453Y24067D01*
X76367Y24028D01*
X76283Y23985D01*
X76200Y23939D01*
X76120Y23890D01*
X76042Y23837D01*
X75965Y23781D01*
X75892Y23722D01*
X75820Y23661D01*
X75752Y23596D01*
X75685Y23528D01*
X75622Y23458D01*
X75562Y23386D01*
X75504Y23311D01*
X75450Y23233D01*
X75399Y23154D01*
X75351Y23073D01*
X75307Y22989D01*
X75266Y22904D01*
X75229Y22818D01*
X75195Y22730D01*
X75164Y22640D01*
X75138Y22550D01*
X75115Y22458D01*
X75096Y22365D01*
X75081Y22272D01*
X75069Y22179D01*
X75061Y22085D01*
X75057Y21990D01*
X75057Y21896D01*
X75061Y21801D01*
X75069Y21707D01*
X75081Y21614D01*
X75096Y21521D01*
X75115Y21428D01*
X75138Y21336D01*
X75164Y21246D01*
X75195Y21156D01*
X75229Y21068D01*
X75266Y20982D01*
X75307Y20897D01*
X75351Y20813D01*
X75399Y20732D01*
X75450Y20653D01*
X75504Y20575D01*
X75562Y20500D01*
X75622Y20428D01*
X75685Y20358D01*
X75752Y20290D01*
X75820Y20225D01*
X75892Y20164D01*
X75965Y20105D01*
X76042Y20049D01*
X76120Y19996D01*
X76200Y19947D01*
X76283Y19901D01*
X76367Y19858D01*
X76453Y19819D01*
X76540Y19783D01*
X76629Y19751D01*
X76719Y19723D01*
X76810Y19698D01*
X76902Y19677D01*
X76995Y19660D01*
X77088Y19646D01*
X77182Y19637D01*
X77277Y19631D01*
X77371Y19629D01*
X79685Y19629D01*
X69977Y12686D02*
X65348Y25414D01*
X57086Y24258D02*
X56986Y24256D01*
X56887Y24250D01*
X56787Y24241D01*
X56689Y24227D01*
X56590Y24210D01*
X56493Y24190D01*
X56396Y24165D01*
X56300Y24137D01*
X56206Y24105D01*
X56113Y24069D01*
X56021Y24030D01*
X55931Y23988D01*
X55842Y23942D01*
X55755Y23892D01*
X55671Y23840D01*
X55588Y23784D01*
X55507Y23725D01*
X55429Y23663D01*
X55353Y23598D01*
X55280Y23530D01*
X55210Y23460D01*
X55142Y23387D01*
X55077Y23311D01*
X55015Y23233D01*
X54956Y23152D01*
X54900Y23069D01*
X54848Y22985D01*
X54798Y22898D01*
X54752Y22809D01*
X54710Y22719D01*
X54671Y22627D01*
X54635Y22534D01*
X54603Y22440D01*
X54575Y22344D01*
X54550Y22247D01*
X54530Y22150D01*
X54513Y22051D01*
X54499Y21953D01*
X54490Y21853D01*
X54484Y21754D01*
X54482Y21654D01*
X57086Y24257D02*
X57200Y24255D01*
X57313Y24249D01*
X57426Y24240D01*
X57539Y24226D01*
X57652Y24209D01*
X57763Y24188D01*
X57874Y24163D01*
X57984Y24134D01*
X58093Y24102D01*
X58201Y24066D01*
X58308Y24026D01*
X58413Y23983D01*
X58516Y23936D01*
X58618Y23885D01*
X58718Y23832D01*
X58817Y23774D01*
X58913Y23714D01*
X59007Y23650D01*
X59099Y23583D01*
X59189Y23513D01*
X59276Y23440D01*
X59361Y23365D01*
X59443Y23286D01*
X59522Y23204D01*
X59598Y23120D01*
X59672Y23034D01*
X59743Y22945D01*
X59810Y22853D01*
X59875Y22759D01*
X59936Y22664D01*
X59994Y22566D01*
X60048Y22466D01*
X60099Y22364D01*
X60147Y22261D01*
X60191Y22156D01*
X60231Y22050D01*
X60268Y21943D01*
X55350Y19629D02*
X55277Y19701D01*
X55206Y19776D01*
X55139Y19854D01*
X55074Y19934D01*
X55012Y20016D01*
X54953Y20100D01*
X54898Y20187D01*
X54845Y20276D01*
X54796Y20366D01*
X54750Y20458D01*
X54708Y20552D01*
X54669Y20648D01*
X54634Y20744D01*
X54602Y20842D01*
X54574Y20941D01*
X54550Y21041D01*
X54529Y21142D01*
X54512Y21244D01*
X54499Y21346D01*
X54490Y21448D01*
X54484Y21551D01*
X54482Y21654D01*
X55351Y19629D02*
X60268Y13843D01*
X54483Y13843D01*
X48839Y19050D02*
X48837Y19255D01*
X48829Y19460D01*
X48817Y19664D01*
X48800Y19868D01*
X48778Y20072D01*
X48751Y20275D01*
X48719Y20478D01*
X48683Y20679D01*
X48642Y20880D01*
X48596Y21079D01*
X48545Y21278D01*
X48489Y21475D01*
X48429Y21671D01*
X48364Y21865D01*
X48295Y22058D01*
X48221Y22249D01*
X48142Y22438D01*
X48059Y22625D01*
X47971Y22811D01*
X47971Y22810D02*
X47940Y22896D01*
X47905Y22981D01*
X47866Y23064D01*
X47823Y23145D01*
X47778Y23224D01*
X47729Y23302D01*
X47676Y23377D01*
X47621Y23450D01*
X47562Y23520D01*
X47501Y23588D01*
X47436Y23653D01*
X47369Y23715D01*
X47300Y23775D01*
X47227Y23831D01*
X47153Y23884D01*
X47076Y23934D01*
X46997Y23981D01*
X46917Y24024D01*
X46834Y24064D01*
X46750Y24100D01*
X46664Y24133D01*
X46578Y24162D01*
X46489Y24187D01*
X46400Y24208D01*
X46311Y24226D01*
X46220Y24239D01*
X46129Y24249D01*
X46038Y24255D01*
X45946Y24257D01*
X45854Y24255D01*
X45763Y24249D01*
X45672Y24239D01*
X45581Y24226D01*
X45492Y24208D01*
X45403Y24187D01*
X45314Y24162D01*
X45228Y24133D01*
X45142Y24100D01*
X45058Y24064D01*
X44975Y24024D01*
X44895Y23981D01*
X44816Y23934D01*
X44739Y23884D01*
X44665Y23831D01*
X44592Y23775D01*
X44523Y23715D01*
X44456Y23653D01*
X44391Y23588D01*
X44330Y23520D01*
X44271Y23450D01*
X44216Y23377D01*
X44163Y23302D01*
X44114Y23224D01*
X44069Y23145D01*
X44026Y23064D01*
X43987Y22981D01*
X43952Y22896D01*
X43921Y22810D01*
X43921Y22811D02*
X43833Y22625D01*
X43750Y22438D01*
X43671Y22249D01*
X43597Y22058D01*
X43528Y21865D01*
X43463Y21671D01*
X43403Y21475D01*
X43347Y21278D01*
X43296Y21079D01*
X43250Y20880D01*
X43209Y20679D01*
X43173Y20478D01*
X43141Y20275D01*
X43114Y20072D01*
X43092Y19868D01*
X43075Y19664D01*
X43063Y19460D01*
X43055Y19255D01*
X43053Y19050D01*
X48838Y19050D02*
X48836Y18845D01*
X48828Y18640D01*
X48816Y18436D01*
X48799Y18232D01*
X48777Y18028D01*
X48750Y17825D01*
X48718Y17623D01*
X48682Y17421D01*
X48641Y17220D01*
X48595Y17021D01*
X48544Y16822D01*
X48488Y16625D01*
X48428Y16429D01*
X48363Y16235D01*
X48294Y16042D01*
X48220Y15851D01*
X48141Y15662D01*
X48058Y15475D01*
X47970Y15289D01*
X47971Y15290D02*
X47940Y15204D01*
X47905Y15119D01*
X47866Y15036D01*
X47823Y14955D01*
X47778Y14876D01*
X47729Y14798D01*
X47676Y14723D01*
X47621Y14650D01*
X47562Y14580D01*
X47501Y14512D01*
X47436Y14447D01*
X47369Y14385D01*
X47300Y14325D01*
X47227Y14269D01*
X47153Y14216D01*
X47076Y14166D01*
X46997Y14119D01*
X46917Y14076D01*
X46834Y14036D01*
X46750Y14000D01*
X46664Y13967D01*
X46578Y13938D01*
X46489Y13913D01*
X46400Y13892D01*
X46311Y13874D01*
X46220Y13861D01*
X46129Y13851D01*
X46038Y13845D01*
X45946Y13843D01*
X43921Y15289D02*
X43833Y15475D01*
X43750Y15662D01*
X43671Y15851D01*
X43597Y16042D01*
X43528Y16235D01*
X43463Y16429D01*
X43403Y16625D01*
X43347Y16822D01*
X43296Y17021D01*
X43250Y17220D01*
X43209Y17421D01*
X43173Y17623D01*
X43141Y17825D01*
X43114Y18028D01*
X43092Y18232D01*
X43075Y18436D01*
X43063Y18640D01*
X43055Y18845D01*
X43053Y19050D01*
X43921Y15290D02*
X43952Y15204D01*
X43987Y15119D01*
X44026Y15036D01*
X44069Y14955D01*
X44114Y14876D01*
X44163Y14798D01*
X44216Y14723D01*
X44271Y14650D01*
X44330Y14580D01*
X44391Y14512D01*
X44456Y14447D01*
X44523Y14385D01*
X44592Y14325D01*
X44665Y14269D01*
X44739Y14216D01*
X44816Y14166D01*
X44895Y14119D01*
X44975Y14076D01*
X45058Y14036D01*
X45142Y14000D01*
X45228Y13967D01*
X45314Y13938D01*
X45403Y13913D01*
X45492Y13892D01*
X45581Y13874D01*
X45672Y13861D01*
X45763Y13851D01*
X45854Y13845D01*
X45946Y13843D01*
X48260Y16157D02*
X43631Y21943D01*
X34226Y24258D02*
X34126Y24256D01*
X34027Y24250D01*
X33927Y24241D01*
X33829Y24227D01*
X33730Y24210D01*
X33633Y24190D01*
X33536Y24165D01*
X33440Y24137D01*
X33346Y24105D01*
X33253Y24069D01*
X33161Y24030D01*
X33071Y23988D01*
X32982Y23942D01*
X32895Y23892D01*
X32811Y23840D01*
X32728Y23784D01*
X32647Y23725D01*
X32569Y23663D01*
X32493Y23598D01*
X32420Y23530D01*
X32350Y23460D01*
X32282Y23387D01*
X32217Y23311D01*
X32155Y23233D01*
X32096Y23152D01*
X32040Y23069D01*
X31988Y22985D01*
X31938Y22898D01*
X31892Y22809D01*
X31850Y22719D01*
X31811Y22627D01*
X31775Y22534D01*
X31743Y22440D01*
X31715Y22344D01*
X31690Y22247D01*
X31670Y22150D01*
X31653Y22051D01*
X31639Y21953D01*
X31630Y21853D01*
X31624Y21754D01*
X31622Y21654D01*
X34226Y24257D02*
X34340Y24255D01*
X34453Y24249D01*
X34566Y24240D01*
X34679Y24226D01*
X34792Y24209D01*
X34903Y24188D01*
X35014Y24163D01*
X35124Y24134D01*
X35233Y24102D01*
X35341Y24066D01*
X35448Y24026D01*
X35553Y23983D01*
X35656Y23936D01*
X35758Y23885D01*
X35858Y23832D01*
X35957Y23774D01*
X36053Y23714D01*
X36147Y23650D01*
X36239Y23583D01*
X36329Y23513D01*
X36416Y23440D01*
X36501Y23365D01*
X36583Y23286D01*
X36662Y23204D01*
X36738Y23120D01*
X36812Y23034D01*
X36883Y22945D01*
X36950Y22853D01*
X37015Y22759D01*
X37076Y22664D01*
X37134Y22566D01*
X37188Y22466D01*
X37239Y22364D01*
X37287Y22261D01*
X37331Y22156D01*
X37371Y22050D01*
X37408Y21943D01*
X32490Y19629D02*
X32417Y19701D01*
X32346Y19776D01*
X32279Y19854D01*
X32214Y19934D01*
X32152Y20016D01*
X32093Y20100D01*
X32038Y20187D01*
X31985Y20276D01*
X31936Y20366D01*
X31890Y20458D01*
X31848Y20552D01*
X31809Y20648D01*
X31774Y20744D01*
X31742Y20842D01*
X31714Y20941D01*
X31690Y21041D01*
X31669Y21142D01*
X31652Y21244D01*
X31639Y21346D01*
X31630Y21448D01*
X31624Y21551D01*
X31622Y21654D01*
X32491Y19629D02*
X37409Y13843D01*
X31623Y13843D01*
X25979Y13843D02*
X22507Y13843D01*
X22414Y13845D01*
X22321Y13851D01*
X22228Y13860D01*
X22136Y13873D01*
X22044Y13890D01*
X21953Y13910D01*
X21863Y13934D01*
X21774Y13962D01*
X21686Y13993D01*
X21600Y14028D01*
X21515Y14066D01*
X21432Y14108D01*
X21350Y14153D01*
X21270Y14201D01*
X21192Y14253D01*
X21117Y14307D01*
X21044Y14365D01*
X20973Y14425D01*
X20904Y14488D01*
X20838Y14554D01*
X20775Y14623D01*
X20715Y14694D01*
X20657Y14767D01*
X20603Y14842D01*
X20551Y14920D01*
X20503Y15000D01*
X20458Y15082D01*
X20416Y15165D01*
X20378Y15250D01*
X20343Y15336D01*
X20312Y15424D01*
X20284Y15513D01*
X20260Y15603D01*
X20240Y15694D01*
X20223Y15786D01*
X20210Y15878D01*
X20201Y15971D01*
X20195Y16064D01*
X20193Y16157D01*
X20193Y17314D01*
X20195Y17407D01*
X20201Y17500D01*
X20210Y17593D01*
X20223Y17685D01*
X20240Y17777D01*
X20260Y17868D01*
X20284Y17958D01*
X20312Y18047D01*
X20343Y18135D01*
X20378Y18221D01*
X20416Y18306D01*
X20458Y18389D01*
X20503Y18471D01*
X20551Y18551D01*
X20603Y18629D01*
X20657Y18704D01*
X20715Y18777D01*
X20775Y18848D01*
X20838Y18917D01*
X20904Y18983D01*
X20973Y19046D01*
X21044Y19106D01*
X21117Y19164D01*
X21193Y19218D01*
X21270Y19270D01*
X21350Y19318D01*
X21432Y19363D01*
X21515Y19405D01*
X21600Y19443D01*
X21686Y19478D01*
X21774Y19509D01*
X21863Y19537D01*
X21953Y19561D01*
X22044Y19581D01*
X22136Y19598D01*
X22228Y19611D01*
X22321Y19620D01*
X22414Y19626D01*
X22507Y19628D01*
X22507Y19629D02*
X25979Y19629D01*
X25979Y24257D01*
X20193Y24257D01*
X206093Y13843D02*
X208407Y20786D01*
X203779Y20786D02*
X206093Y13843D01*
X198699Y21943D02*
X195806Y24257D01*
X195806Y13843D01*
X198699Y13843D02*
X192913Y13843D01*
D11*
X171450Y158750D03*
D12*
X180975Y158750D01*
X187325Y152400D01*
X187325Y101600D01*
X180975Y95250D01*
X114300Y95250D02*
X95250Y114300D01*
D11*
X95250Y114300D03*
D12*
X114300Y95250D02*
X180975Y95250D01*
X177450Y158750D02*
X172085Y160596D01*
X171450Y158750D01*
X172085Y156904D02*
X177450Y158750D01*
X172085Y156904D02*
X171450Y158750D01*
X97004Y115156D02*
X99493Y110057D01*
X97004Y115156D02*
X95250Y114300D01*
X94394Y112546D02*
X99493Y110057D01*
X94394Y112546D02*
X95250Y114300D01*
D13*
X77470Y130150D02*
X131445Y130150D01*
D14*
X165100Y133350D03*
X152400Y120650D03*
X139700Y120650D03*
D11*
X77470Y130150D03*
D15*
X121285Y130810D02*
X133985Y118110D01*
X121285Y129540D02*
X133985Y142240D01*
D14*
X165100Y120650D03*
X152400Y133350D03*
X139700Y133350D03*
D11*
X133350Y158750D03*
D12*
X60041Y158750D01*
D11*
X39800Y138509D03*
D12*
X60041Y158750D01*
X127350Y158750D02*
X132715Y156904D01*
X133350Y158750D01*
X132715Y160596D02*
X127350Y158750D01*
X132715Y160596D02*
X133350Y158750D01*
X44043Y142752D02*
X38944Y140264D01*
X39800Y138509D01*
X41554Y137653D02*
X44043Y142752D01*
X41554Y137653D02*
X39800Y138509D01*
M02*
