G04 EAGLE Gerber RS-274X export*
G75*
%MOMM*%
%FSLAX34Y34*%
%LPD*%
%INTop Copper*%
%IPPOS*%
%AMOC8*
5,1,8,0,0,1.08239X$1,22.5*%
G01*
%ADD10C,0.279400*%
%ADD11R,0.012400X0.002500*%
%ADD12R,0.009900X0.002500*%
%ADD13R,0.022400X0.002500*%
%ADD14R,0.020000X0.002500*%
%ADD15R,0.030100X0.002500*%
%ADD16R,0.040100X0.002500*%
%ADD17R,0.035100X0.002500*%
%ADD18R,0.045000X0.002500*%
%ADD19R,0.044900X0.002500*%
%ADD20R,0.052600X0.002500*%
%ADD21R,0.052400X0.002500*%
%ADD22R,0.060100X0.002500*%
%ADD23R,0.057500X0.002500*%
%ADD24R,0.067500X0.002500*%
%ADD25R,0.065000X0.002500*%
%ADD26R,0.072400X0.002500*%
%ADD27R,0.070100X0.002500*%
%ADD28R,0.079900X0.002500*%
%ADD29R,0.080100X0.002500*%
%ADD30R,0.085000X0.002500*%
%ADD31R,0.092500X0.002500*%
%ADD32R,0.092400X0.002500*%
%ADD33R,0.097400X0.002500*%
%ADD34R,0.104900X0.002500*%
%ADD35R,0.105000X0.002500*%
%ADD36R,0.112600X0.002500*%
%ADD37R,0.110100X0.002500*%
%ADD38R,0.120000X0.002500*%
%ADD39R,0.117500X0.002500*%
%ADD40R,0.125000X0.002500*%
%ADD41R,0.122500X0.002500*%
%ADD42R,0.132400X0.002500*%
%ADD43R,0.130000X0.002500*%
%ADD44R,0.137600X0.002500*%
%ADD45R,0.135000X0.002500*%
%ADD46R,0.145000X0.002500*%
%ADD47R,0.140000X0.002500*%
%ADD48R,0.150100X0.002500*%
%ADD49R,0.147500X0.002500*%
%ADD50R,0.157500X0.002500*%
%ADD51R,0.152400X0.002500*%
%ADD52R,0.162600X0.002500*%
%ADD53R,0.162500X0.002500*%
%ADD54R,0.169900X0.002500*%
%ADD55R,0.167500X0.002500*%
%ADD56R,0.175100X0.002500*%
%ADD57R,0.175000X0.002500*%
%ADD58R,0.182500X0.002500*%
%ADD59R,0.180100X0.002500*%
%ADD60R,0.187400X0.002500*%
%ADD61R,0.187500X0.002500*%
%ADD62R,0.192500X0.002500*%
%ADD63R,0.192400X0.002500*%
%ADD64R,0.200000X0.002500*%
%ADD65R,0.199900X0.002500*%
%ADD66R,0.207500X0.002500*%
%ADD67R,0.205000X0.002500*%
%ADD68R,0.212400X0.002500*%
%ADD69R,0.212600X0.002500*%
%ADD70R,0.217500X0.002500*%
%ADD71R,0.217600X0.002500*%
%ADD72R,0.225000X0.002500*%
%ADD73R,0.229900X0.002500*%
%ADD74R,0.230000X0.002500*%
%ADD75R,0.237400X0.002500*%
%ADD76R,0.237500X0.002500*%
%ADD77R,0.242500X0.002500*%
%ADD78R,0.242400X0.002500*%
%ADD79R,0.250000X0.002500*%
%ADD80R,0.255000X0.002500*%
%ADD81R,0.262600X0.002500*%
%ADD82R,0.260000X0.002500*%
%ADD83R,0.267600X0.002500*%
%ADD84R,0.267500X0.002500*%
%ADD85R,0.275000X0.002500*%
%ADD86R,0.272500X0.002500*%
%ADD87R,0.280100X0.002500*%
%ADD88R,0.280000X0.002500*%
%ADD89R,0.285000X0.002500*%
%ADD90R,0.285100X0.002500*%
%ADD91R,0.292500X0.002500*%
%ADD92R,0.297600X0.002500*%
%ADD93R,0.297400X0.002500*%
%ADD94R,0.305100X0.002500*%
%ADD95R,0.304900X0.002500*%
%ADD96R,0.309900X0.002500*%
%ADD97R,0.310000X0.002500*%
%ADD98R,0.317400X0.002500*%
%ADD99R,0.317600X0.002500*%
%ADD100R,0.322500X0.002500*%
%ADD101R,0.322600X0.002500*%
%ADD102R,0.330000X0.002500*%
%ADD103R,0.334900X0.002500*%
%ADD104R,0.335000X0.002500*%
%ADD105R,0.342400X0.002500*%
%ADD106R,0.339900X0.002500*%
%ADD107R,0.347500X0.002500*%
%ADD108R,0.004900X0.002500*%
%ADD109R,0.347400X0.002500*%
%ADD110R,0.352500X0.002500*%
%ADD111R,0.012500X0.002500*%
%ADD112R,0.015000X0.002500*%
%ADD113R,0.360000X0.002500*%
%ADD114R,0.022500X0.002500*%
%ADD115R,0.360100X0.002500*%
%ADD116R,0.365000X0.002500*%
%ADD117R,0.032600X0.002500*%
%ADD118R,0.030000X0.002500*%
%ADD119R,0.372500X0.002500*%
%ADD120R,0.037500X0.002500*%
%ADD121R,0.037600X0.002500*%
%ADD122R,0.377500X0.002500*%
%ADD123R,0.045100X0.002500*%
%ADD124R,0.385000X0.002500*%
%ADD125R,0.050000X0.002500*%
%ADD126R,0.050100X0.002500*%
%ADD127R,0.389900X0.002500*%
%ADD128R,0.390100X0.002500*%
%ADD129R,0.397400X0.002500*%
%ADD130R,0.062500X0.002500*%
%ADD131R,0.397500X0.002500*%
%ADD132R,0.404900X0.002500*%
%ADD133R,0.069900X0.002500*%
%ADD134R,0.410000X0.002500*%
%ADD135R,0.074900X0.002500*%
%ADD136R,0.075000X0.002500*%
%ADD137R,0.409900X0.002500*%
%ADD138R,0.417600X0.002500*%
%ADD139R,0.082400X0.002500*%
%ADD140R,0.082500X0.002500*%
%ADD141R,0.417500X0.002500*%
%ADD142R,0.422500X0.002500*%
%ADD143R,0.087400X0.002500*%
%ADD144R,0.087600X0.002500*%
%ADD145R,0.422600X0.002500*%
%ADD146R,0.427600X0.002500*%
%ADD147R,0.095100X0.002500*%
%ADD148R,0.095000X0.002500*%
%ADD149R,0.430100X0.002500*%
%ADD150R,0.435100X0.002500*%
%ADD151R,0.100100X0.002500*%
%ADD152R,0.435000X0.002500*%
%ADD153R,0.442600X0.002500*%
%ADD154R,0.107600X0.002500*%
%ADD155R,0.107400X0.002500*%
%ADD156R,0.442500X0.002500*%
%ADD157R,0.447500X0.002500*%
%ADD158R,0.112500X0.002500*%
%ADD159R,0.447400X0.002500*%
%ADD160R,0.455100X0.002500*%
%ADD161R,0.455000X0.002500*%
%ADD162R,0.460100X0.002500*%
%ADD163R,0.460000X0.002500*%
%ADD164R,0.467500X0.002500*%
%ADD165R,0.129900X0.002500*%
%ADD166R,0.475000X0.002500*%
%ADD167R,0.137500X0.002500*%
%ADD168R,0.137400X0.002500*%
%ADD169R,0.480000X0.002500*%
%ADD170R,0.142400X0.002500*%
%ADD171R,0.142500X0.002500*%
%ADD172R,0.487500X0.002500*%
%ADD173R,0.150000X0.002500*%
%ADD174R,0.487600X0.002500*%
%ADD175R,0.495000X0.002500*%
%ADD176R,0.155000X0.002500*%
%ADD177R,0.155100X0.002500*%
%ADD178R,0.495100X0.002500*%
%ADD179R,0.499900X0.002500*%
%ADD180R,0.162400X0.002500*%
%ADD181R,0.500000X0.002500*%
%ADD182R,0.507400X0.002500*%
%ADD183R,0.170100X0.002500*%
%ADD184R,0.170000X0.002500*%
%ADD185R,0.514900X0.002500*%
%ADD186R,0.709900X0.002500*%
%ADD187R,0.707400X0.002500*%
%ADD188R,0.712400X0.002500*%
%ADD189R,0.710000X0.002500*%
%ADD190R,0.717400X0.002500*%
%ADD191R,0.715000X0.002500*%
%ADD192R,0.719900X0.002500*%
%ADD193R,0.717500X0.002500*%
%ADD194R,0.725000X0.002500*%
%ADD195R,0.722600X0.002500*%
%ADD196R,0.725100X0.002500*%
%ADD197R,0.727500X0.002500*%
%ADD198R,0.727600X0.002500*%
%ADD199R,0.732500X0.002500*%
%ADD200R,0.732400X0.002500*%
%ADD201R,0.735000X0.002500*%
%ADD202R,0.734900X0.002500*%
%ADD203R,0.739900X0.002500*%
%ADD204R,0.742500X0.002500*%
%ADD205R,0.747500X0.002500*%
%ADD206R,0.750000X0.002500*%
%ADD207R,0.752500X0.002500*%
%ADD208R,0.757600X0.002500*%
%ADD209R,0.760100X0.002500*%
%ADD210R,0.765100X0.002500*%
%ADD211R,0.762400X0.002500*%
%ADD212R,0.767600X0.002500*%
%ADD213R,0.764900X0.002500*%
%ADD214R,0.769900X0.002500*%
%ADD215R,0.772600X0.002500*%
%ADD216R,0.772500X0.002500*%
%ADD217R,0.775000X0.002500*%
%ADD218R,0.779900X0.002500*%
%ADD219R,0.780000X0.002500*%
%ADD220R,0.782400X0.002500*%
%ADD221R,0.782500X0.002500*%
%ADD222R,0.787500X0.002500*%
%ADD223R,0.785100X0.002500*%
%ADD224R,0.790000X0.002500*%
%ADD225R,0.787600X0.002500*%
%ADD226R,0.795000X0.002500*%
%ADD227R,0.794900X0.002500*%
%ADD228R,0.797500X0.002500*%
%ADD229R,0.797400X0.002500*%
%ADD230R,0.802500X0.002500*%
%ADD231R,0.807400X0.002500*%
%ADD232R,0.805000X0.002500*%
%ADD233R,0.809900X0.002500*%
%ADD234R,0.810000X0.002500*%
%ADD235R,0.810100X0.002500*%
%ADD236R,0.807500X0.002500*%
%ADD237R,0.807600X0.002500*%
%ADD238R,0.805100X0.002500*%
%ADD239R,0.802400X0.002500*%
%ADD240R,0.804900X0.002500*%
%ADD241R,0.802600X0.002500*%
%ADD242R,0.799900X0.002500*%
%ADD243R,0.800100X0.002500*%
%ADD244R,0.800000X0.002500*%
%ADD245R,0.797600X0.002500*%
%ADD246R,0.792500X0.002500*%
%ADD247R,0.792400X0.002500*%
%ADD248R,0.789900X0.002500*%
%ADD249R,0.790100X0.002500*%
%ADD250R,0.787400X0.002500*%
%ADD251R,0.785000X0.002500*%
%ADD252R,0.784900X0.002500*%
%ADD253R,0.782600X0.002500*%
%ADD254R,0.780100X0.002500*%
%ADD255R,0.777500X0.002500*%
%ADD256R,0.777400X0.002500*%
%ADD257R,0.777600X0.002500*%
%ADD258R,0.775100X0.002500*%
%ADD259R,0.772400X0.002500*%
%ADD260R,0.770000X0.002500*%
%ADD261R,0.767500X0.002500*%
%ADD262R,0.770100X0.002500*%
%ADD263R,0.765000X0.002500*%
%ADD264R,0.767400X0.002500*%
%ADD265R,0.762500X0.002500*%
%ADD266R,0.760000X0.002500*%
%ADD267R,0.757500X0.002500*%
%ADD268R,0.759900X0.002500*%
%ADD269R,0.757400X0.002500*%
%ADD270R,0.755100X0.002500*%
%ADD271R,0.752600X0.002500*%
%ADD272R,0.754900X0.002500*%
%ADD273R,0.755000X0.002500*%
%ADD274R,0.750100X0.002500*%
%ADD275R,0.749900X0.002500*%
%ADD276R,0.747400X0.002500*%
%ADD277R,0.744900X0.002500*%
%ADD278R,0.745000X0.002500*%
%ADD279R,0.747600X0.002500*%
%ADD280R,0.745100X0.002500*%
%ADD281R,0.742400X0.002500*%
%ADD282R,0.740000X0.002500*%
%ADD283R,0.737600X0.002500*%
%ADD284R,0.812600X0.002500*%
%ADD285R,0.812500X0.002500*%
%ADD286R,0.815000X0.002500*%
%ADD287R,0.817600X0.002500*%
%ADD288R,0.817500X0.002500*%
%ADD289R,0.820100X0.002500*%
%ADD290R,0.820000X0.002500*%
%ADD291R,0.822500X0.002500*%
%ADD292R,0.825000X0.002500*%
%ADD293R,0.827600X0.002500*%
%ADD294R,0.830100X0.002500*%
%ADD295R,0.832600X0.002500*%
%ADD296R,0.832500X0.002500*%
%ADD297R,0.834900X0.002500*%
%ADD298R,0.837600X0.002500*%
%ADD299R,0.837400X0.002500*%
%ADD300R,0.840100X0.002500*%
%ADD301R,0.839900X0.002500*%
%ADD302R,0.842500X0.002500*%
%ADD303R,0.844900X0.002500*%
%ADD304R,0.845000X0.002500*%
%ADD305R,0.847600X0.002500*%
%ADD306R,0.847500X0.002500*%
%ADD307R,0.850000X0.002500*%
%ADD308R,0.850100X0.002500*%
%ADD309R,0.852500X0.002500*%
%ADD310R,0.855100X0.002500*%
%ADD311R,0.855000X0.002500*%
%ADD312R,0.857500X0.002500*%
%ADD313R,0.860000X0.002500*%
%ADD314R,0.864900X0.002500*%
%ADD315R,0.865000X0.002500*%
%ADD316R,0.870000X0.002500*%
%ADD317R,0.870100X0.002500*%
%ADD318R,0.872500X0.002500*%
%ADD319R,0.875000X0.002500*%
%ADD320R,0.874900X0.002500*%
%ADD321R,0.872400X0.002500*%
%ADD322R,0.867400X0.002500*%
%ADD323R,0.867500X0.002500*%
%ADD324R,0.862500X0.002500*%
%ADD325R,0.857600X0.002500*%
%ADD326R,0.852400X0.002500*%
%ADD327R,0.842600X0.002500*%
%ADD328R,0.837500X0.002500*%
%ADD329R,0.835000X0.002500*%
%ADD330R,0.832400X0.002500*%
%ADD331R,0.830000X0.002500*%
%ADD332R,0.824900X0.002500*%
%ADD333R,0.825100X0.002500*%
%ADD334R,0.822600X0.002500*%
%ADD335R,0.815100X0.002500*%
%ADD336R,0.827400X0.002500*%
%ADD337R,0.880000X0.002500*%
%ADD338R,0.877500X0.002500*%
%ADD339R,0.892500X0.002500*%
%ADD340R,0.890000X0.002500*%
%ADD341R,0.902500X0.002500*%
%ADD342R,0.899900X0.002500*%
%ADD343R,0.915000X0.002500*%
%ADD344R,0.912600X0.002500*%
%ADD345R,0.925100X0.002500*%
%ADD346R,0.922500X0.002500*%
%ADD347R,0.940000X0.002500*%
%ADD348R,0.934900X0.002500*%
%ADD349R,0.949900X0.002500*%
%ADD350R,0.947500X0.002500*%
%ADD351R,0.962400X0.002500*%
%ADD352R,0.957500X0.002500*%
%ADD353R,0.977400X0.002500*%
%ADD354R,0.972400X0.002500*%
%ADD355R,0.987600X0.002500*%
%ADD356R,0.982600X0.002500*%
%ADD357R,0.997500X0.002500*%
%ADD358R,0.992400X0.002500*%
%ADD359R,1.010100X0.002500*%
%ADD360R,1.005000X0.002500*%
%ADD361R,1.020000X0.002500*%
%ADD362R,1.015000X0.002500*%
%ADD363R,1.032400X0.002500*%
%ADD364R,1.027400X0.002500*%
%ADD365R,1.040000X0.002500*%
%ADD366R,1.052500X0.002500*%
%ADD367R,1.050100X0.002500*%
%ADD368R,1.062500X0.002500*%
%ADD369R,1.060100X0.002500*%
%ADD370R,1.075100X0.002500*%
%ADD371R,1.070100X0.002500*%
%ADD372R,1.082600X0.002500*%
%ADD373R,1.077500X0.002500*%
%ADD374R,1.090000X0.002500*%
%ADD375R,1.099900X0.002500*%
%ADD376R,1.095000X0.002500*%
%ADD377R,1.105000X0.002500*%
%ADD378R,1.102400X0.002500*%
%ADD379R,1.107500X0.002500*%
%ADD380R,1.102600X0.002500*%
%ADD381R,1.105100X0.002500*%
%ADD382R,1.102500X0.002500*%
%ADD383R,1.100100X0.002500*%
%ADD384R,1.100000X0.002500*%
%ADD385R,1.097600X0.002500*%
%ADD386R,1.097500X0.002500*%
%ADD387R,1.095100X0.002500*%
%ADD388R,1.094900X0.002500*%
%ADD389R,1.092500X0.002500*%
%ADD390R,1.087500X0.002500*%
%ADD391R,1.087600X0.002500*%
%ADD392R,1.084900X0.002500*%
%ADD393R,1.085000X0.002500*%
%ADD394R,1.082400X0.002500*%
%ADD395R,1.082500X0.002500*%
%ADD396R,1.080000X0.002500*%
%ADD397R,1.080100X0.002500*%
%ADD398R,1.077600X0.002500*%
%ADD399R,1.075000X0.002500*%
%ADD400R,1.072500X0.002500*%
%ADD401R,1.072600X0.002500*%
%ADD402R,1.067500X0.002500*%
%ADD403R,1.065000X0.002500*%
%ADD404R,1.107600X0.002500*%
%ADD405R,1.110000X0.002500*%
%ADD406R,1.092600X0.002500*%
%ADD407R,1.070000X0.002500*%
%ADD408R,1.060000X0.002500*%
%ADD409R,1.039900X0.002500*%
%ADD410R,1.049900X0.002500*%
%ADD411R,1.029900X0.002500*%
%ADD412R,1.037500X0.002500*%
%ADD413R,1.025000X0.002500*%
%ADD414R,1.002600X0.002500*%
%ADD415R,0.979900X0.002500*%
%ADD416R,0.964900X0.002500*%
%ADD417R,0.972500X0.002500*%
%ADD418R,0.955000X0.002500*%
%ADD419R,0.957400X0.002500*%
%ADD420R,0.945000X0.002500*%
%ADD421R,0.947600X0.002500*%
%ADD422R,0.932600X0.002500*%
%ADD423R,0.937500X0.002500*%
%ADD424R,0.920000X0.002500*%
%ADD425R,0.924900X0.002500*%
%ADD426R,0.907400X0.002500*%
%ADD427R,0.897400X0.002500*%
%ADD428R,0.902400X0.002500*%
%ADD429R,0.887600X0.002500*%
%ADD430R,0.892600X0.002500*%
%ADD431R,0.877600X0.002500*%
%ADD432R,0.882500X0.002500*%
%ADD433R,0.869900X0.002500*%
%ADD434R,0.849900X0.002500*%
%ADD435R,0.835100X0.002500*%
%ADD436R,0.822400X0.002500*%
%ADD437R,0.792600X0.002500*%
%ADD438R,0.795100X0.002500*%
%ADD439R,0.827500X0.002500*%
%ADD440R,0.840000X0.002500*%
%ADD441R,0.854900X0.002500*%
%ADD442R,0.859900X0.002500*%
%ADD443R,0.862400X0.002500*%
%ADD444R,0.879900X0.002500*%
%ADD445R,0.887400X0.002500*%
%ADD446R,0.885000X0.002500*%
%ADD447R,0.897500X0.002500*%
%ADD448R,0.905000X0.002500*%
%ADD449R,0.907500X0.002500*%
%ADD450R,0.910100X0.002500*%
%ADD451R,0.917500X0.002500*%
%ADD452R,0.922400X0.002500*%
%ADD453R,0.925000X0.002500*%
%ADD454R,0.932400X0.002500*%
%ADD455R,0.930000X0.002500*%
%ADD456R,0.942400X0.002500*%
%ADD457R,0.942500X0.002500*%
%ADD458R,0.952400X0.002500*%
%ADD459R,0.952500X0.002500*%
%ADD460R,0.967500X0.002500*%
%ADD461R,0.965100X0.002500*%
%ADD462R,0.985100X0.002500*%
%ADD463R,2.047500X0.002500*%
%ADD464R,2.045000X0.002500*%
%ADD465R,2.042500X0.002500*%
%ADD466R,2.040000X0.002500*%
%ADD467R,2.037500X0.002500*%
%ADD468R,2.035000X0.002500*%
%ADD469R,2.032600X0.002500*%
%ADD470R,2.030100X0.002500*%
%ADD471R,2.027600X0.002500*%
%ADD472R,2.025100X0.002500*%
%ADD473R,2.022600X0.002500*%
%ADD474R,2.020100X0.002500*%
%ADD475R,2.017600X0.002500*%
%ADD476R,2.015100X0.002500*%
%ADD477R,2.012600X0.002500*%
%ADD478R,2.010000X0.002500*%
%ADD479R,2.007400X0.002500*%
%ADD480R,2.004900X0.002500*%
%ADD481R,2.002400X0.002500*%
%ADD482R,1.999900X0.002500*%
%ADD483R,1.997400X0.002500*%
%ADD484R,1.994900X0.002500*%
%ADD485R,1.992500X0.002500*%
%ADD486R,1.990000X0.002500*%
%ADD487R,1.987500X0.002500*%
%ADD488R,1.985000X0.002500*%
%ADD489R,1.982500X0.002500*%
%ADD490R,1.980000X0.002500*%
%ADD491R,1.977500X0.002500*%
%ADD492R,1.975000X0.002500*%
%ADD493R,1.972500X0.002500*%
%ADD494R,1.970000X0.002500*%
%ADD495R,1.967500X0.002500*%
%ADD496R,1.965000X0.002500*%
%ADD497R,1.962400X0.002500*%
%ADD498R,1.957400X0.002500*%
%ADD499R,1.954900X0.002500*%
%ADD500R,1.952400X0.002500*%
%ADD501R,1.947500X0.002500*%
%ADD502R,1.942600X0.002500*%
%ADD503R,1.937500X0.002500*%
%ADD504R,1.932600X0.002500*%
%ADD505R,1.927500X0.002500*%
%ADD506R,1.930100X0.002500*%
%ADD507R,1.935000X0.002500*%
%ADD508R,1.940100X0.002500*%
%ADD509R,1.959900X0.002500*%
%ADD510R,2.050100X0.002500*%
%ADD511R,2.052500X0.002500*%
%ADD512R,2.057500X0.002500*%
%ADD513R,2.060000X0.002500*%
%ADD514R,2.062500X0.002500*%
%ADD515R,2.067500X0.002500*%
%ADD516R,2.070000X0.002500*%
%ADD517R,2.072500X0.002500*%
%ADD518R,2.077400X0.002500*%
%ADD519R,2.079900X0.002500*%
%ADD520R,2.082400X0.002500*%
%ADD521R,2.087400X0.002500*%
%ADD522R,2.090000X0.002500*%
%ADD523R,2.092500X0.002500*%
%ADD524R,2.097500X0.002500*%
%ADD525R,2.100000X0.002500*%
%ADD526R,2.102500X0.002500*%
%ADD527R,2.107500X0.002500*%
%ADD528R,2.110000X0.002500*%
%ADD529R,2.112500X0.002500*%
%ADD530R,2.117500X0.002500*%
%ADD531R,2.119900X0.002500*%
%ADD532R,2.122400X0.002500*%
%ADD533R,2.127400X0.002500*%
%ADD534R,2.129900X0.002500*%
%ADD535R,2.135000X0.002500*%
%ADD536R,2.137600X0.002500*%
%ADD537R,2.142600X0.002500*%
%ADD538R,2.145100X0.002500*%
%ADD539R,2.147600X0.002500*%
%ADD540R,2.152600X0.002500*%
%ADD541R,2.155100X0.002500*%
%ADD542R,2.157600X0.002500*%
%ADD543R,2.162500X0.002500*%
%ADD544R,2.165000X0.002500*%
%ADD545R,2.167500X0.002500*%
%ADD546R,2.172500X0.002500*%
%ADD547R,2.175100X0.002500*%
%ADD548R,2.177500X0.002500*%
%ADD549R,2.182500X0.002500*%
%ADD550R,2.187500X0.002500*%
%ADD551R,2.190000X0.002500*%
%ADD552R,2.192500X0.002500*%
%ADD553R,2.197500X0.002500*%
%ADD554R,2.199900X0.002500*%
%ADD555R,2.202400X0.002500*%
%ADD556R,2.207400X0.002500*%
%ADD557R,2.209900X0.002500*%
%ADD558R,2.212400X0.002500*%
%ADD559R,2.217500X0.002500*%
%ADD560R,2.220000X0.002500*%
%ADD561R,2.222500X0.002500*%
%ADD562R,2.227500X0.002500*%
%ADD563R,2.230000X0.002500*%
%ADD564R,2.232500X0.002500*%
%ADD565R,2.237500X0.002500*%
%ADD566R,2.240000X0.002500*%
%ADD567R,2.242500X0.002500*%
%ADD568R,2.247400X0.002500*%
%ADD569R,2.249900X0.002500*%
%ADD570R,2.252400X0.002500*%
%ADD571R,2.257400X0.002500*%
%ADD572R,2.262600X0.002500*%
%ADD573R,2.267600X0.002500*%
%ADD574R,2.272600X0.002500*%
%ADD575R,2.277600X0.002500*%
%ADD576R,2.282600X0.002500*%
%ADD577R,2.287500X0.002500*%
%ADD578R,2.292500X0.002500*%
%ADD579R,2.297500X0.002500*%
%ADD580R,2.302600X0.002500*%
%ADD581R,2.307500X0.002500*%
%ADD582R,2.312500X0.002500*%
%ADD583R,2.315000X0.002500*%
%ADD584R,2.317500X0.002500*%
%ADD585R,2.322500X0.002500*%
%ADD586R,2.327400X0.002500*%
%ADD587R,2.332400X0.002500*%
%ADD588R,2.337400X0.002500*%
%ADD589R,2.342500X0.002500*%
%ADD590R,2.347500X0.002500*%
%ADD591R,2.334900X0.002500*%
%ADD592R,2.320000X0.002500*%
%ADD593R,2.245000X0.002500*%
%ADD594R,0.555000X0.002500*%
%ADD595R,0.555100X0.002500*%
%ADD596R,0.550000X0.002500*%
%ADD597R,1.087400X0.002500*%
%ADD598R,0.542500X0.002500*%
%ADD599R,0.535000X0.002500*%
%ADD600R,1.057500X0.002500*%
%ADD601R,0.529900X0.002500*%
%ADD602R,1.042500X0.002500*%
%ADD603R,0.530100X0.002500*%
%ADD604R,0.522400X0.002500*%
%ADD605R,1.030000X0.002500*%
%ADD606R,0.522600X0.002500*%
%ADD607R,1.015100X0.002500*%
%ADD608R,0.510000X0.002500*%
%ADD609R,1.002500X0.002500*%
%ADD610R,0.509900X0.002500*%
%ADD611R,0.502500X0.002500*%
%ADD612R,0.990000X0.002500*%
%ADD613R,0.502400X0.002500*%
%ADD614R,0.497400X0.002500*%
%ADD615R,0.974900X0.002500*%
%ADD616R,0.489900X0.002500*%
%ADD617R,0.962500X0.002500*%
%ADD618R,0.490100X0.002500*%
%ADD619R,0.485000X0.002500*%
%ADD620R,0.950100X0.002500*%
%ADD621R,0.482500X0.002500*%
%ADD622R,0.477500X0.002500*%
%ADD623R,0.937600X0.002500*%
%ADD624R,0.472500X0.002500*%
%ADD625R,0.922600X0.002500*%
%ADD626R,0.470000X0.002500*%
%ADD627R,0.465100X0.002500*%
%ADD628R,0.912400X0.002500*%
%ADD629R,0.464900X0.002500*%
%ADD630R,0.897600X0.002500*%
%ADD631R,0.457500X0.002500*%
%ADD632R,0.452600X0.002500*%
%ADD633R,0.887500X0.002500*%
%ADD634R,0.452500X0.002500*%
%ADD635R,0.447600X0.002500*%
%ADD636R,0.445000X0.002500*%
%ADD637R,0.440100X0.002500*%
%ADD638R,0.860100X0.002500*%
%ADD639R,0.440000X0.002500*%
%ADD640R,0.432500X0.002500*%
%ADD641R,0.427500X0.002500*%
%ADD642R,0.420100X0.002500*%
%ADD643R,0.415000X0.002500*%
%ADD644R,0.414900X0.002500*%
%ADD645R,0.407400X0.002500*%
%ADD646R,0.402400X0.002500*%
%ADD647R,0.399900X0.002500*%
%ADD648R,0.395100X0.002500*%
%ADD649R,0.390000X0.002500*%
%ADD650R,0.387600X0.002500*%
%ADD651R,0.384900X0.002500*%
%ADD652R,0.382500X0.002500*%
%ADD653R,0.724900X0.002500*%
%ADD654R,0.370000X0.002500*%
%ADD655R,0.715100X0.002500*%
%ADD656R,0.704900X0.002500*%
%ADD657R,0.357500X0.002500*%
%ADD658R,0.695100X0.002500*%
%ADD659R,0.679900X0.002500*%
%ADD660R,0.344900X0.002500*%
%ADD661R,0.670100X0.002500*%
%ADD662R,0.340000X0.002500*%
%ADD663R,0.659900X0.002500*%
%ADD664R,0.332500X0.002500*%
%ADD665R,0.327500X0.002500*%
%ADD666R,0.647600X0.002500*%
%ADD667R,0.322400X0.002500*%
%ADD668R,0.635000X0.002500*%
%ADD669R,0.320100X0.002500*%
%ADD670R,0.314900X0.002500*%
%ADD671R,0.625000X0.002500*%
%ADD672R,0.315100X0.002500*%
%ADD673R,0.310100X0.002500*%
%ADD674R,0.615000X0.002500*%
%ADD675R,0.302600X0.002500*%
%ADD676R,0.605000X0.002500*%
%ADD677R,0.302400X0.002500*%
%ADD678R,0.297500X0.002500*%
%ADD679R,0.592500X0.002500*%
%ADD680R,0.290000X0.002500*%
%ADD681R,0.582400X0.002500*%
%ADD682R,0.290100X0.002500*%
%ADD683R,0.577400X0.002500*%
%ADD684R,0.277600X0.002500*%
%ADD685R,0.567600X0.002500*%
%ADD686R,0.277500X0.002500*%
%ADD687R,0.265100X0.002500*%
%ADD688R,0.565100X0.002500*%
%ADD689R,0.265000X0.002500*%
%ADD690R,0.562600X0.002500*%
%ADD691R,0.259900X0.002500*%
%ADD692R,0.254900X0.002500*%
%ADD693R,0.247500X0.002500*%
%ADD694R,0.560000X0.002500*%
%ADD695R,0.557400X0.002500*%
%ADD696R,0.242600X0.002500*%
%ADD697R,0.234900X0.002500*%
%ADD698R,0.235000X0.002500*%
%ADD699R,0.222500X0.002500*%
%ADD700R,0.552500X0.002500*%
%ADD701R,0.217400X0.002500*%
%ADD702R,0.209900X0.002500*%
%ADD703R,0.210100X0.002500*%
%ADD704R,0.204900X0.002500*%
%ADD705R,0.197500X0.002500*%
%ADD706R,0.197400X0.002500*%
%ADD707R,0.547600X0.002500*%
%ADD708R,0.184900X0.002500*%
%ADD709R,0.185100X0.002500*%
%ADD710R,0.172500X0.002500*%
%ADD711R,0.542600X0.002500*%
%ADD712R,0.160000X0.002500*%
%ADD713R,0.154900X0.002500*%
%ADD714R,0.540000X0.002500*%
%ADD715R,0.149900X0.002500*%
%ADD716R,0.142600X0.002500*%
%ADD717R,0.537400X0.002500*%
%ADD718R,0.132600X0.002500*%
%ADD719R,0.127400X0.002500*%
%ADD720R,0.115000X0.002500*%
%ADD721R,0.532500X0.002500*%
%ADD722R,0.107500X0.002500*%
%ADD723R,0.110000X0.002500*%
%ADD724R,0.102400X0.002500*%
%ADD725R,0.094900X0.002500*%
%ADD726R,0.090000X0.002500*%
%ADD727R,0.527600X0.002500*%
%ADD728R,0.077400X0.002500*%
%ADD729R,0.080000X0.002500*%
%ADD730R,0.072600X0.002500*%
%ADD731R,0.067600X0.002500*%
%ADD732R,0.525100X0.002500*%
%ADD733R,0.060000X0.002500*%
%ADD734R,0.042600X0.002500*%
%ADD735R,0.047400X0.002500*%
%ADD736R,0.035000X0.002500*%
%ADD737R,0.027600X0.002500*%
%ADD738R,0.520000X0.002500*%
%ADD739R,0.025000X0.002500*%
%ADD740R,0.517400X0.002500*%
%ADD741R,0.017500X0.002500*%
%ADD742R,0.007400X0.002500*%
%ADD743R,0.010000X0.002500*%
%ADD744R,0.512500X0.002500*%
%ADD745R,0.507500X0.002500*%
%ADD746R,0.505100X0.002500*%
%ADD747R,0.502600X0.002500*%
%ADD748R,0.494900X0.002500*%
%ADD749R,0.492500X0.002500*%
%ADD750R,0.490000X0.002500*%
%ADD751R,0.485100X0.002500*%
%ADD752R,0.482600X0.002500*%
%ADD753R,0.477400X0.002500*%
%ADD754R,0.474900X0.002500*%
%ADD755R,0.472400X0.002500*%
%ADD756R,0.469900X0.002500*%
%ADD757R,0.462600X0.002500*%
%ADD758R,0.457400X0.002500*%
%ADD759R,0.454900X0.002500*%
%ADD760R,0.452400X0.002500*%
%ADD761R,0.449900X0.002500*%
%ADD762R,0.445100X0.002500*%
%ADD763R,0.437600X0.002500*%
%ADD764R,0.432400X0.002500*%
%ADD765R,0.429900X0.002500*%
%ADD766R,0.425100X0.002500*%
%ADD767R,0.412400X0.002500*%
%ADD768R,0.407500X0.002500*%
%ADD769R,0.405100X0.002500*%
%ADD770R,0.400100X0.002500*%
%ADD771R,0.395000X0.002500*%
%ADD772R,0.245000X0.002500*%
%ADD773R,0.306000X0.018000*%
%ADD774R,0.882000X0.018000*%
%ADD775R,0.558000X0.018000*%
%ADD776R,1.746000X0.018000*%
%ADD777R,0.648000X0.018000*%
%ADD778R,1.854000X0.018000*%
%ADD779R,0.954000X0.018000*%
%ADD780R,2.088000X0.018000*%
%ADD781R,1.188000X0.018000*%
%ADD782R,3.618000X0.018000*%
%ADD783R,5.256000X0.018000*%
%ADD784R,5.292000X0.018000*%
%ADD785R,5.310000X0.018000*%
%ADD786R,5.364000X0.018000*%
%ADD787R,5.382000X0.018000*%
%ADD788R,5.418000X0.018000*%
%ADD789R,5.436000X0.018000*%
%ADD790R,5.454000X0.018000*%
%ADD791R,5.490000X0.018000*%
%ADD792R,5.526000X0.018000*%
%ADD793R,5.544000X0.018000*%
%ADD794R,5.562000X0.018000*%
%ADD795R,5.580000X0.018000*%
%ADD796R,5.598000X0.018000*%
%ADD797R,5.634000X0.018000*%
%ADD798R,5.670000X0.018000*%
%ADD799R,5.688000X0.018000*%
%ADD800R,5.706000X0.018000*%
%ADD801R,5.724000X0.018000*%
%ADD802R,5.742000X0.018000*%
%ADD803R,5.760000X0.018000*%
%ADD804R,5.778000X0.018000*%
%ADD805R,5.796000X0.018000*%
%ADD806R,5.814000X0.018000*%
%ADD807R,2.124000X0.018000*%
%ADD808R,3.330000X0.018000*%
%ADD809R,2.070000X0.018000*%
%ADD810R,3.258000X0.018000*%
%ADD811R,1.998000X0.018000*%
%ADD812R,3.204000X0.018000*%
%ADD813R,1.944000X0.018000*%
%ADD814R,3.168000X0.018000*%
%ADD815R,1.908000X0.018000*%
%ADD816R,3.132000X0.018000*%
%ADD817R,3.114000X0.018000*%
%ADD818R,1.818000X0.018000*%
%ADD819R,3.078000X0.018000*%
%ADD820R,1.800000X0.018000*%
%ADD821R,1.764000X0.018000*%
%ADD822R,3.042000X0.018000*%
%ADD823R,1.692000X0.018000*%
%ADD824R,3.024000X0.018000*%
%ADD825R,1.674000X0.018000*%
%ADD826R,3.006000X0.018000*%
%ADD827R,1.656000X0.018000*%
%ADD828R,2.988000X0.018000*%
%ADD829R,1.620000X0.018000*%
%ADD830R,2.970000X0.018000*%
%ADD831R,1.602000X0.018000*%
%ADD832R,2.952000X0.018000*%
%ADD833R,1.584000X0.018000*%
%ADD834R,1.530000X0.018000*%
%ADD835R,2.934000X0.018000*%
%ADD836R,1.494000X0.018000*%
%ADD837R,1.476000X0.018000*%
%ADD838R,2.916000X0.018000*%
%ADD839R,1.458000X0.018000*%
%ADD840R,2.898000X0.018000*%
%ADD841R,1.422000X0.018000*%
%ADD842R,1.386000X0.018000*%
%ADD843R,2.880000X0.018000*%
%ADD844R,1.368000X0.018000*%
%ADD845R,1.350000X0.018000*%
%ADD846R,0.828000X0.018000*%
%ADD847R,1.404000X0.018000*%
%ADD848R,1.044000X0.018000*%
%ADD849R,4.464000X0.018000*%
%ADD850R,4.428000X0.018000*%
%ADD851R,4.392000X0.018000*%
%ADD852R,4.374000X0.018000*%
%ADD853R,4.356000X0.018000*%
%ADD854R,4.338000X0.018000*%
%ADD855R,4.266000X0.018000*%
%ADD856R,4.284000X0.018000*%
%ADD857R,4.212000X0.018000*%
%ADD858R,0.972000X0.018000*%
%ADD859R,0.900000X0.018000*%
%ADD860R,1.314000X0.018000*%
%ADD861R,0.846000X0.018000*%
%ADD862R,1.206000X0.018000*%
%ADD863R,1.116000X0.018000*%
%ADD864R,1.512000X0.018000*%
%ADD865R,0.810000X0.018000*%
%ADD866R,1.008000X0.018000*%
%ADD867R,0.774000X0.018000*%
%ADD868R,0.756000X0.018000*%
%ADD869R,0.936000X0.018000*%
%ADD870R,0.738000X0.018000*%
%ADD871R,0.720000X0.018000*%
%ADD872R,0.864000X0.018000*%
%ADD873R,0.792000X0.018000*%
%ADD874R,0.702000X0.018000*%
%ADD875R,0.162000X0.018000*%
%ADD876R,0.144000X0.018000*%
%ADD877R,0.198000X0.018000*%
%ADD878R,0.684000X0.018000*%
%ADD879R,0.270000X0.018000*%
%ADD880R,0.288000X0.018000*%
%ADD881R,0.666000X0.018000*%
%ADD882R,0.342000X0.018000*%
%ADD883R,0.324000X0.018000*%
%ADD884R,0.378000X0.018000*%
%ADD885R,0.396000X0.018000*%
%ADD886R,0.414000X0.018000*%
%ADD887R,0.612000X0.018000*%
%ADD888R,0.432000X0.018000*%
%ADD889R,0.450000X0.018000*%
%ADD890R,0.630000X0.018000*%
%ADD891R,0.468000X0.018000*%
%ADD892R,0.594000X0.018000*%
%ADD893R,0.486000X0.018000*%
%ADD894R,0.576000X0.018000*%
%ADD895R,0.504000X0.018000*%
%ADD896R,0.522000X0.018000*%
%ADD897R,0.540000X0.018000*%
%ADD898R,3.060000X0.018000*%
%ADD899R,3.096000X0.018000*%
%ADD900R,2.574000X0.018000*%
%ADD901R,2.592000X0.018000*%
%ADD902R,2.556000X0.018000*%
%ADD903R,0.360000X0.018000*%
%ADD904R,0.252000X0.018000*%
%ADD905R,0.234000X0.018000*%
%ADD906R,0.216000X0.018000*%
%ADD907R,0.180000X0.018000*%
%ADD908R,0.108000X0.018000*%
%ADD909R,1.062000X0.018000*%
%ADD910R,1.080000X0.018000*%
%ADD911R,2.628000X0.018000*%
%ADD912R,2.610000X0.018000*%
%ADD913R,2.538000X0.018000*%
%ADD914R,2.520000X0.018000*%
%ADD915R,2.502000X0.018000*%
%ADD916R,2.466000X0.018000*%
%ADD917R,2.430000X0.018000*%
%ADD918R,2.394000X0.018000*%
%ADD919R,2.358000X0.018000*%
%ADD920R,2.340000X0.018000*%
%ADD921R,2.286000X0.018000*%
%ADD922R,2.250000X0.018000*%
%ADD923R,2.214000X0.018000*%
%ADD924R,2.160000X0.018000*%
%ADD925R,2.106000X0.018000*%
%ADD926R,2.034000X0.018000*%
%ADD927R,1.890000X0.018000*%
%ADD928R,1.872000X0.018000*%
%ADD929R,1.836000X0.018000*%
%ADD930R,1.782000X0.018000*%
%ADD931R,1.728000X0.018000*%
%ADD932R,1.638000X0.018000*%
%ADD933R,1.566000X0.018000*%
%ADD934R,1.440000X0.018000*%
%ADD935R,1.332000X0.018000*%
%ADD936R,1.296000X0.018000*%
%ADD937R,1.224000X0.018000*%
%ADD938R,1.170000X0.018000*%
%ADD939R,1.152000X0.018000*%
%ADD940R,1.098000X0.018000*%
%ADD941R,1.026000X0.018000*%
%ADD942R,0.036000X0.018000*%
%ADD943R,1.300000X1.500000*%
%ADD944R,1.400000X1.000000*%
%ADD945R,1.750000X0.609600*%
%ADD946C,2.000000*%
%ADD947C,0.609600*%
%ADD948C,1.000000*%
%ADD949C,1.000000*%
%ADD950C,0.304800*%
%ADD951C,0.800000*%

G36*
X172139Y109682D02*
X172139Y109682D01*
X172193Y109680D01*
X172307Y109702D01*
X172423Y109716D01*
X172474Y109734D01*
X172527Y109745D01*
X172633Y109793D01*
X172742Y109833D01*
X172787Y109863D01*
X172836Y109886D01*
X172928Y109957D01*
X173024Y110021D01*
X173061Y110061D01*
X173104Y110095D01*
X173177Y110186D01*
X173256Y110271D01*
X173282Y110318D01*
X173316Y110361D01*
X173366Y110466D01*
X173422Y110567D01*
X173437Y110619D01*
X173460Y110668D01*
X173472Y110741D01*
X173516Y110894D01*
X173522Y111052D01*
X173534Y111125D01*
X173534Y142875D01*
X173528Y142929D01*
X173530Y142983D01*
X173508Y143097D01*
X173494Y143213D01*
X173476Y143264D01*
X173465Y143317D01*
X173417Y143423D01*
X173377Y143532D01*
X173347Y143577D01*
X173324Y143626D01*
X173253Y143718D01*
X173189Y143814D01*
X173149Y143851D01*
X173115Y143894D01*
X173024Y143967D01*
X172939Y144046D01*
X172892Y144072D01*
X172850Y144106D01*
X172744Y144156D01*
X172643Y144212D01*
X172591Y144227D01*
X172542Y144250D01*
X172469Y144262D01*
X172316Y144306D01*
X172158Y144312D01*
X172085Y144324D01*
X132715Y144324D01*
X132661Y144318D01*
X132607Y144320D01*
X132493Y144298D01*
X132377Y144284D01*
X132326Y144266D01*
X132273Y144255D01*
X132167Y144207D01*
X132058Y144167D01*
X132013Y144137D01*
X131964Y144114D01*
X131872Y144043D01*
X131776Y143979D01*
X131739Y143939D01*
X131696Y143905D01*
X131623Y143814D01*
X131544Y143729D01*
X131518Y143682D01*
X131484Y143640D01*
X131435Y143534D01*
X131378Y143433D01*
X131363Y143381D01*
X131340Y143332D01*
X131328Y143259D01*
X131284Y143106D01*
X131278Y142948D01*
X131266Y142875D01*
X131266Y111125D01*
X131272Y111071D01*
X131270Y111017D01*
X131292Y110903D01*
X131306Y110787D01*
X131324Y110736D01*
X131335Y110683D01*
X131383Y110577D01*
X131423Y110468D01*
X131453Y110423D01*
X131476Y110374D01*
X131547Y110282D01*
X131611Y110186D01*
X131651Y110149D01*
X131685Y110106D01*
X131776Y110033D01*
X131861Y109954D01*
X131908Y109928D01*
X131951Y109894D01*
X132056Y109845D01*
X132157Y109788D01*
X132209Y109773D01*
X132258Y109750D01*
X132331Y109738D01*
X132484Y109694D01*
X132642Y109688D01*
X132715Y109676D01*
X172085Y109676D01*
X172139Y109682D01*
G37*
G36*
X86484Y20478D02*
X86484Y20478D01*
X86504Y20476D01*
X86605Y20498D01*
X86707Y20514D01*
X86725Y20524D01*
X86744Y20528D01*
X86833Y20581D01*
X86925Y20630D01*
X86938Y20644D01*
X86955Y20654D01*
X87023Y20733D01*
X87094Y20808D01*
X87102Y20826D01*
X87115Y20841D01*
X87154Y20937D01*
X87198Y21031D01*
X87200Y21051D01*
X87207Y21069D01*
X87226Y21236D01*
X87226Y41236D01*
X87219Y41277D01*
X87221Y41319D01*
X87199Y41398D01*
X87186Y41479D01*
X87167Y41515D01*
X87155Y41556D01*
X87109Y41624D01*
X87071Y41696D01*
X87041Y41725D01*
X87018Y41759D01*
X86952Y41809D01*
X86893Y41865D01*
X86855Y41883D01*
X86822Y41908D01*
X86744Y41934D01*
X86670Y41969D01*
X86628Y41974D01*
X86589Y41987D01*
X86507Y41987D01*
X86425Y41996D01*
X86384Y41987D01*
X86343Y41987D01*
X86265Y41961D01*
X86185Y41944D01*
X86149Y41923D01*
X86110Y41909D01*
X86044Y41860D01*
X85974Y41818D01*
X85947Y41786D01*
X85913Y41761D01*
X85818Y41636D01*
X85814Y41631D01*
X85813Y41629D01*
X85812Y41628D01*
X75976Y25234D01*
X75976Y41236D01*
X75969Y41277D01*
X75971Y41319D01*
X75949Y41398D01*
X75936Y41479D01*
X75917Y41515D01*
X75905Y41556D01*
X75859Y41624D01*
X75821Y41696D01*
X75791Y41725D01*
X75768Y41759D01*
X75702Y41809D01*
X75643Y41865D01*
X75605Y41883D01*
X75572Y41908D01*
X75494Y41934D01*
X75420Y41969D01*
X75378Y41974D01*
X75339Y41987D01*
X75257Y41987D01*
X75175Y41996D01*
X75134Y41987D01*
X75093Y41987D01*
X75015Y41961D01*
X74935Y41944D01*
X74899Y41923D01*
X74860Y41909D01*
X74794Y41860D01*
X74724Y41818D01*
X74697Y41786D01*
X74663Y41761D01*
X74568Y41636D01*
X74564Y41631D01*
X74563Y41629D01*
X74562Y41628D01*
X62562Y21628D01*
X62524Y21533D01*
X62481Y21441D01*
X62479Y21419D01*
X62471Y21399D01*
X62466Y21297D01*
X62454Y21197D01*
X62459Y21175D01*
X62458Y21153D01*
X62485Y21056D01*
X62507Y20956D01*
X62518Y20937D01*
X62524Y20916D01*
X62581Y20832D01*
X62633Y20745D01*
X62649Y20731D01*
X62662Y20713D01*
X62742Y20651D01*
X62820Y20585D01*
X62840Y20577D01*
X62857Y20564D01*
X62953Y20531D01*
X63048Y20493D01*
X63075Y20490D01*
X63090Y20485D01*
X63123Y20485D01*
X63215Y20475D01*
X86465Y20475D01*
X86484Y20478D01*
G37*
G36*
X95234Y20478D02*
X95234Y20478D01*
X95254Y20476D01*
X95355Y20498D01*
X95457Y20514D01*
X95475Y20524D01*
X95494Y20528D01*
X95583Y20581D01*
X95675Y20630D01*
X95688Y20644D01*
X95705Y20654D01*
X95773Y20733D01*
X95844Y20808D01*
X95852Y20826D01*
X95865Y20841D01*
X95904Y20937D01*
X95948Y21031D01*
X95950Y21051D01*
X95957Y21069D01*
X95976Y21236D01*
X95976Y41236D01*
X95973Y41256D01*
X95975Y41275D01*
X95953Y41377D01*
X95936Y41479D01*
X95927Y41496D01*
X95923Y41516D01*
X95869Y41605D01*
X95821Y41696D01*
X95807Y41710D01*
X95796Y41727D01*
X95718Y41794D01*
X95643Y41865D01*
X95625Y41874D01*
X95609Y41887D01*
X95513Y41926D01*
X95420Y41969D01*
X95400Y41971D01*
X95381Y41979D01*
X95215Y41997D01*
X90215Y41997D01*
X90195Y41994D01*
X90175Y41996D01*
X90074Y41974D01*
X89972Y41957D01*
X89954Y41948D01*
X89935Y41944D01*
X89846Y41891D01*
X89754Y41842D01*
X89741Y41828D01*
X89724Y41818D01*
X89656Y41739D01*
X89585Y41664D01*
X89577Y41646D01*
X89564Y41631D01*
X89525Y41535D01*
X89481Y41441D01*
X89479Y41421D01*
X89472Y41403D01*
X89453Y41236D01*
X89453Y21236D01*
X89457Y21216D01*
X89454Y21197D01*
X89476Y21095D01*
X89493Y20993D01*
X89502Y20976D01*
X89507Y20956D01*
X89560Y20867D01*
X89608Y20776D01*
X89623Y20762D01*
X89633Y20745D01*
X89711Y20678D01*
X89786Y20606D01*
X89805Y20598D01*
X89820Y20585D01*
X89916Y20546D01*
X90010Y20503D01*
X90029Y20501D01*
X90048Y20493D01*
X90215Y20475D01*
X95215Y20475D01*
X95234Y20478D01*
G37*
G36*
X99017Y20479D02*
X99017Y20479D01*
X99039Y20478D01*
X100746Y20647D01*
X100769Y20653D01*
X100893Y20676D01*
X102534Y21174D01*
X102556Y21184D01*
X102672Y21231D01*
X104185Y22039D01*
X104204Y22054D01*
X104309Y22122D01*
X105635Y23210D01*
X105650Y23228D01*
X105740Y23316D01*
X106828Y24642D01*
X106840Y24663D01*
X106911Y24766D01*
X107720Y26279D01*
X107728Y26302D01*
X107777Y26417D01*
X108275Y28058D01*
X108278Y28082D01*
X108304Y28204D01*
X108472Y29911D01*
X108468Y29969D01*
X108475Y30025D01*
X108461Y30090D01*
X108456Y30157D01*
X108435Y30210D01*
X108423Y30266D01*
X108388Y30323D01*
X108363Y30384D01*
X108326Y30428D01*
X108296Y30477D01*
X108246Y30520D01*
X108202Y30570D01*
X108153Y30600D01*
X108109Y30637D01*
X108048Y30662D01*
X107990Y30695D01*
X107934Y30707D01*
X107881Y30729D01*
X107780Y30740D01*
X107750Y30746D01*
X107736Y30745D01*
X107715Y30747D01*
X102715Y30747D01*
X102616Y30731D01*
X102516Y30721D01*
X102495Y30711D01*
X102472Y30707D01*
X102383Y30661D01*
X102292Y30619D01*
X102275Y30603D01*
X102254Y30592D01*
X102185Y30520D01*
X102112Y30451D01*
X102101Y30431D01*
X102085Y30414D01*
X102043Y30323D01*
X101995Y30235D01*
X101989Y30207D01*
X101981Y30191D01*
X101978Y30158D01*
X101958Y30071D01*
X101874Y29322D01*
X101653Y28691D01*
X101298Y28126D01*
X100825Y27653D01*
X100259Y27298D01*
X99629Y27077D01*
X98879Y26992D01*
X98783Y26965D01*
X98685Y26944D01*
X98665Y26932D01*
X98643Y26926D01*
X98560Y26869D01*
X98474Y26818D01*
X98459Y26800D01*
X98439Y26787D01*
X98379Y26707D01*
X98314Y26631D01*
X98305Y26609D01*
X98291Y26591D01*
X98259Y26496D01*
X98222Y26403D01*
X98219Y26374D01*
X98213Y26358D01*
X98213Y26325D01*
X98203Y26236D01*
X98203Y21236D01*
X98213Y21179D01*
X98212Y21122D01*
X98232Y21059D01*
X98243Y20993D01*
X98270Y20943D01*
X98287Y20888D01*
X98327Y20835D01*
X98358Y20776D01*
X98400Y20736D01*
X98434Y20690D01*
X98488Y20652D01*
X98536Y20606D01*
X98588Y20582D01*
X98635Y20550D01*
X98699Y20531D01*
X98760Y20503D01*
X98816Y20497D01*
X98871Y20480D01*
X98973Y20479D01*
X99004Y20476D01*
X99017Y20479D01*
G37*
G36*
X99080Y35505D02*
X99080Y35505D01*
X99158Y35512D01*
X99200Y35530D01*
X99244Y35540D01*
X99311Y35580D01*
X99382Y35612D01*
X99430Y35651D01*
X99455Y35666D01*
X99473Y35687D01*
X99512Y35719D01*
X103264Y39597D01*
X103271Y39608D01*
X103282Y39616D01*
X103342Y39709D01*
X103404Y39799D01*
X103408Y39811D01*
X103415Y39823D01*
X103442Y39930D01*
X103473Y40035D01*
X103472Y40048D01*
X103475Y40061D01*
X103467Y40171D01*
X103462Y40281D01*
X103458Y40293D01*
X103457Y40306D01*
X103413Y40408D01*
X103374Y40510D01*
X103366Y40521D01*
X103360Y40533D01*
X103287Y40615D01*
X103217Y40700D01*
X103206Y40707D01*
X103197Y40717D01*
X103056Y40808D01*
X101877Y41395D01*
X101847Y41404D01*
X101753Y41444D01*
X100490Y41817D01*
X100459Y41821D01*
X100360Y41844D01*
X99050Y41992D01*
X98987Y41989D01*
X98925Y41996D01*
X98866Y41983D01*
X98805Y41980D01*
X98746Y41957D01*
X98685Y41944D01*
X98632Y41913D01*
X98576Y41890D01*
X98528Y41850D01*
X98474Y41818D01*
X98434Y41771D01*
X98387Y41732D01*
X98355Y41679D01*
X98314Y41631D01*
X98291Y41574D01*
X98259Y41522D01*
X98245Y41461D01*
X98222Y41403D01*
X98212Y41314D01*
X98205Y41283D01*
X98207Y41265D01*
X98203Y41236D01*
X98203Y36248D01*
X98216Y36171D01*
X98219Y36093D01*
X98236Y36051D01*
X98243Y36005D01*
X98279Y35937D01*
X98307Y35864D01*
X98337Y35829D01*
X98358Y35788D01*
X98415Y35735D01*
X98464Y35674D01*
X98503Y35650D01*
X98536Y35619D01*
X98607Y35586D01*
X98673Y35545D01*
X98718Y35534D01*
X98760Y35515D01*
X98837Y35507D01*
X98913Y35489D01*
X98959Y35493D01*
X99004Y35488D01*
X99080Y35505D01*
G37*
G36*
X107699Y33205D02*
X107699Y33205D01*
X107802Y33217D01*
X107820Y33225D01*
X107840Y33228D01*
X107931Y33277D01*
X108025Y33320D01*
X108039Y33334D01*
X108057Y33343D01*
X108128Y33418D01*
X108203Y33490D01*
X108213Y33507D01*
X108226Y33522D01*
X108270Y33616D01*
X108318Y33707D01*
X108322Y33727D01*
X108330Y33745D01*
X108341Y33848D01*
X108358Y33950D01*
X108355Y33974D01*
X108357Y33989D01*
X108350Y34021D01*
X108340Y34116D01*
X108078Y35282D01*
X108066Y35312D01*
X108038Y35409D01*
X107578Y36511D01*
X107561Y36538D01*
X107516Y36629D01*
X106871Y37635D01*
X106814Y37699D01*
X106763Y37768D01*
X106732Y37790D01*
X106707Y37818D01*
X106632Y37860D01*
X106562Y37910D01*
X106526Y37920D01*
X106493Y37939D01*
X106409Y37955D01*
X106326Y37980D01*
X106288Y37978D01*
X106251Y37985D01*
X106166Y37974D01*
X106080Y37971D01*
X106045Y37957D01*
X106007Y37952D01*
X105930Y37914D01*
X105850Y37884D01*
X105811Y37855D01*
X105787Y37843D01*
X105765Y37822D01*
X105715Y37785D01*
X102156Y34510D01*
X102102Y34441D01*
X102042Y34378D01*
X102027Y34345D01*
X102004Y34316D01*
X101975Y34234D01*
X101938Y34155D01*
X101934Y34119D01*
X101922Y34084D01*
X101921Y33997D01*
X101911Y33910D01*
X101919Y33875D01*
X101918Y33838D01*
X101945Y33755D01*
X101964Y33670D01*
X101982Y33639D01*
X101993Y33604D01*
X102045Y33534D01*
X102090Y33459D01*
X102117Y33435D01*
X102139Y33406D01*
X102210Y33356D01*
X102277Y33299D01*
X102310Y33285D01*
X102340Y33264D01*
X102424Y33240D01*
X102505Y33207D01*
X102551Y33202D01*
X102576Y33194D01*
X102607Y33196D01*
X102671Y33188D01*
X107597Y33188D01*
X107699Y33205D01*
G37*
D10*
X14576Y48943D02*
X14576Y60373D01*
X11401Y60373D02*
X17751Y60373D01*
X23995Y60373D02*
X23995Y48943D01*
X27805Y54023D02*
X23995Y60373D01*
X27805Y54023D02*
X31615Y60373D01*
X31615Y48943D01*
X42095Y48943D02*
X42195Y48945D01*
X42294Y48951D01*
X42394Y48961D01*
X42492Y48974D01*
X42591Y48992D01*
X42688Y49013D01*
X42784Y49038D01*
X42880Y49067D01*
X42974Y49100D01*
X43067Y49136D01*
X43158Y49176D01*
X43248Y49220D01*
X43336Y49267D01*
X43422Y49317D01*
X43506Y49371D01*
X43588Y49428D01*
X43667Y49488D01*
X43745Y49552D01*
X43819Y49618D01*
X43891Y49687D01*
X43960Y49759D01*
X44026Y49833D01*
X44090Y49911D01*
X44150Y49990D01*
X44207Y50072D01*
X44261Y50156D01*
X44311Y50242D01*
X44358Y50330D01*
X44402Y50420D01*
X44442Y50511D01*
X44478Y50604D01*
X44511Y50698D01*
X44540Y50794D01*
X44565Y50890D01*
X44586Y50987D01*
X44604Y51086D01*
X44617Y51184D01*
X44627Y51284D01*
X44633Y51383D01*
X44635Y51483D01*
X42095Y48942D02*
X41954Y48944D01*
X41813Y48949D01*
X41672Y48959D01*
X41531Y48972D01*
X41391Y48988D01*
X41251Y49009D01*
X41112Y49033D01*
X40973Y49061D01*
X40836Y49092D01*
X40699Y49127D01*
X40563Y49165D01*
X40428Y49207D01*
X40295Y49253D01*
X40162Y49302D01*
X40031Y49355D01*
X39902Y49411D01*
X39773Y49470D01*
X39647Y49533D01*
X39522Y49599D01*
X39399Y49668D01*
X39278Y49741D01*
X39159Y49817D01*
X39041Y49896D01*
X38926Y49977D01*
X38814Y50062D01*
X38703Y50150D01*
X38595Y50241D01*
X38489Y50334D01*
X38386Y50431D01*
X38285Y50530D01*
X38602Y57833D02*
X38604Y57933D01*
X38610Y58032D01*
X38620Y58132D01*
X38633Y58230D01*
X38651Y58329D01*
X38672Y58426D01*
X38697Y58522D01*
X38726Y58618D01*
X38759Y58712D01*
X38795Y58805D01*
X38835Y58896D01*
X38879Y58986D01*
X38926Y59074D01*
X38976Y59160D01*
X39030Y59244D01*
X39087Y59326D01*
X39147Y59405D01*
X39211Y59483D01*
X39277Y59557D01*
X39346Y59629D01*
X39418Y59698D01*
X39492Y59764D01*
X39570Y59828D01*
X39649Y59888D01*
X39731Y59945D01*
X39815Y59999D01*
X39901Y60049D01*
X39989Y60096D01*
X40079Y60140D01*
X40170Y60180D01*
X40263Y60216D01*
X40357Y60249D01*
X40453Y60278D01*
X40549Y60303D01*
X40646Y60324D01*
X40745Y60342D01*
X40843Y60355D01*
X40943Y60365D01*
X41042Y60371D01*
X41142Y60373D01*
X41275Y60371D01*
X41408Y60366D01*
X41541Y60356D01*
X41674Y60343D01*
X41806Y60326D01*
X41938Y60306D01*
X42069Y60282D01*
X42199Y60254D01*
X42329Y60223D01*
X42457Y60188D01*
X42585Y60149D01*
X42711Y60107D01*
X42836Y60061D01*
X42960Y60012D01*
X43083Y59960D01*
X43204Y59904D01*
X43323Y59844D01*
X43441Y59782D01*
X43556Y59716D01*
X43670Y59647D01*
X43782Y59574D01*
X43892Y59499D01*
X44000Y59420D01*
X39872Y55610D02*
X39788Y55662D01*
X39705Y55717D01*
X39625Y55776D01*
X39547Y55837D01*
X39472Y55901D01*
X39399Y55969D01*
X39328Y56039D01*
X39261Y56111D01*
X39196Y56186D01*
X39134Y56264D01*
X39075Y56344D01*
X39019Y56426D01*
X38967Y56510D01*
X38918Y56596D01*
X38872Y56684D01*
X38829Y56774D01*
X38790Y56865D01*
X38755Y56958D01*
X38723Y57052D01*
X38695Y57147D01*
X38670Y57243D01*
X38650Y57340D01*
X38632Y57438D01*
X38619Y57536D01*
X38610Y57635D01*
X38604Y57734D01*
X38602Y57833D01*
X43365Y53706D02*
X43449Y53654D01*
X43532Y53599D01*
X43612Y53540D01*
X43690Y53479D01*
X43765Y53415D01*
X43838Y53347D01*
X43909Y53277D01*
X43976Y53205D01*
X44041Y53130D01*
X44103Y53052D01*
X44162Y52972D01*
X44218Y52890D01*
X44270Y52806D01*
X44319Y52720D01*
X44365Y52632D01*
X44408Y52542D01*
X44447Y52451D01*
X44482Y52358D01*
X44514Y52264D01*
X44542Y52169D01*
X44567Y52073D01*
X44587Y51976D01*
X44605Y51878D01*
X44618Y51780D01*
X44627Y51681D01*
X44633Y51582D01*
X44635Y51483D01*
X43365Y53705D02*
X39872Y55610D01*
X54043Y48943D02*
X54143Y48945D01*
X54242Y48951D01*
X54342Y48961D01*
X54440Y48974D01*
X54539Y48992D01*
X54636Y49013D01*
X54732Y49038D01*
X54828Y49067D01*
X54922Y49100D01*
X55015Y49136D01*
X55106Y49176D01*
X55196Y49220D01*
X55284Y49267D01*
X55370Y49317D01*
X55454Y49371D01*
X55536Y49428D01*
X55615Y49488D01*
X55693Y49552D01*
X55767Y49618D01*
X55839Y49687D01*
X55908Y49759D01*
X55974Y49833D01*
X56038Y49911D01*
X56098Y49990D01*
X56155Y50072D01*
X56209Y50156D01*
X56259Y50242D01*
X56306Y50330D01*
X56350Y50420D01*
X56390Y50511D01*
X56426Y50604D01*
X56459Y50698D01*
X56488Y50794D01*
X56513Y50890D01*
X56534Y50987D01*
X56552Y51086D01*
X56565Y51184D01*
X56575Y51284D01*
X56581Y51383D01*
X56583Y51483D01*
X54043Y48942D02*
X53902Y48944D01*
X53761Y48949D01*
X53620Y48959D01*
X53479Y48972D01*
X53339Y48988D01*
X53199Y49009D01*
X53060Y49033D01*
X52921Y49061D01*
X52784Y49092D01*
X52647Y49127D01*
X52511Y49165D01*
X52376Y49207D01*
X52243Y49253D01*
X52110Y49302D01*
X51979Y49355D01*
X51850Y49411D01*
X51721Y49470D01*
X51595Y49533D01*
X51470Y49599D01*
X51347Y49668D01*
X51226Y49741D01*
X51107Y49817D01*
X50989Y49896D01*
X50874Y49977D01*
X50762Y50062D01*
X50651Y50150D01*
X50543Y50241D01*
X50437Y50334D01*
X50334Y50431D01*
X50233Y50530D01*
X50550Y57833D02*
X50552Y57933D01*
X50558Y58032D01*
X50568Y58132D01*
X50581Y58230D01*
X50599Y58329D01*
X50620Y58426D01*
X50645Y58522D01*
X50674Y58618D01*
X50707Y58712D01*
X50743Y58805D01*
X50783Y58896D01*
X50827Y58986D01*
X50874Y59074D01*
X50924Y59160D01*
X50978Y59244D01*
X51035Y59326D01*
X51095Y59405D01*
X51159Y59483D01*
X51225Y59557D01*
X51294Y59629D01*
X51366Y59698D01*
X51440Y59764D01*
X51518Y59828D01*
X51597Y59888D01*
X51679Y59945D01*
X51763Y59999D01*
X51849Y60049D01*
X51937Y60096D01*
X52027Y60140D01*
X52118Y60180D01*
X52211Y60216D01*
X52305Y60249D01*
X52401Y60278D01*
X52497Y60303D01*
X52594Y60324D01*
X52693Y60342D01*
X52791Y60355D01*
X52891Y60365D01*
X52990Y60371D01*
X53090Y60373D01*
X53223Y60371D01*
X53356Y60366D01*
X53489Y60356D01*
X53622Y60343D01*
X53754Y60326D01*
X53886Y60306D01*
X54017Y60282D01*
X54147Y60254D01*
X54277Y60223D01*
X54405Y60188D01*
X54533Y60149D01*
X54659Y60107D01*
X54784Y60061D01*
X54908Y60012D01*
X55031Y59960D01*
X55152Y59904D01*
X55271Y59844D01*
X55389Y59782D01*
X55504Y59716D01*
X55618Y59647D01*
X55730Y59574D01*
X55840Y59499D01*
X55948Y59420D01*
X51820Y55610D02*
X51736Y55662D01*
X51653Y55717D01*
X51573Y55776D01*
X51495Y55837D01*
X51420Y55901D01*
X51347Y55969D01*
X51276Y56039D01*
X51209Y56111D01*
X51144Y56186D01*
X51082Y56264D01*
X51023Y56344D01*
X50967Y56426D01*
X50915Y56510D01*
X50866Y56596D01*
X50820Y56684D01*
X50777Y56774D01*
X50738Y56865D01*
X50703Y56958D01*
X50671Y57052D01*
X50643Y57147D01*
X50618Y57243D01*
X50598Y57340D01*
X50580Y57438D01*
X50567Y57536D01*
X50558Y57635D01*
X50552Y57734D01*
X50550Y57833D01*
X55313Y53706D02*
X55397Y53654D01*
X55480Y53599D01*
X55560Y53540D01*
X55638Y53479D01*
X55713Y53415D01*
X55786Y53347D01*
X55857Y53277D01*
X55924Y53205D01*
X55989Y53130D01*
X56051Y53052D01*
X56110Y52972D01*
X56166Y52890D01*
X56218Y52806D01*
X56267Y52720D01*
X56313Y52632D01*
X56356Y52542D01*
X56395Y52451D01*
X56430Y52358D01*
X56462Y52264D01*
X56490Y52169D01*
X56515Y52073D01*
X56535Y51976D01*
X56553Y51878D01*
X56566Y51780D01*
X56575Y51681D01*
X56581Y51582D01*
X56583Y51483D01*
X55313Y53705D02*
X51820Y55610D01*
X69862Y60373D02*
X69862Y48943D01*
X69862Y60373D02*
X73037Y60373D01*
X73148Y60371D01*
X73258Y60365D01*
X73369Y60356D01*
X73479Y60342D01*
X73588Y60325D01*
X73697Y60304D01*
X73805Y60279D01*
X73912Y60250D01*
X74018Y60218D01*
X74123Y60182D01*
X74226Y60142D01*
X74328Y60099D01*
X74429Y60052D01*
X74528Y60001D01*
X74625Y59948D01*
X74719Y59891D01*
X74812Y59830D01*
X74903Y59767D01*
X74992Y59700D01*
X75078Y59630D01*
X75161Y59557D01*
X75243Y59482D01*
X75321Y59404D01*
X75396Y59322D01*
X75469Y59239D01*
X75539Y59153D01*
X75606Y59064D01*
X75669Y58973D01*
X75730Y58880D01*
X75787Y58786D01*
X75840Y58689D01*
X75891Y58590D01*
X75938Y58489D01*
X75981Y58387D01*
X76021Y58284D01*
X76057Y58179D01*
X76089Y58073D01*
X76118Y57966D01*
X76143Y57858D01*
X76164Y57749D01*
X76181Y57640D01*
X76195Y57530D01*
X76204Y57419D01*
X76210Y57309D01*
X76212Y57198D01*
X76212Y52118D01*
X76210Y52007D01*
X76204Y51897D01*
X76195Y51786D01*
X76181Y51676D01*
X76164Y51567D01*
X76143Y51458D01*
X76118Y51350D01*
X76089Y51243D01*
X76057Y51137D01*
X76021Y51032D01*
X75981Y50929D01*
X75938Y50827D01*
X75891Y50726D01*
X75840Y50627D01*
X75787Y50530D01*
X75730Y50436D01*
X75669Y50343D01*
X75606Y50252D01*
X75539Y50163D01*
X75469Y50077D01*
X75396Y49994D01*
X75321Y49912D01*
X75243Y49834D01*
X75161Y49759D01*
X75078Y49686D01*
X74992Y49616D01*
X74903Y49549D01*
X74812Y49486D01*
X74719Y49425D01*
X74624Y49368D01*
X74528Y49315D01*
X74429Y49264D01*
X74328Y49217D01*
X74226Y49174D01*
X74123Y49134D01*
X74018Y49098D01*
X73912Y49066D01*
X73805Y49037D01*
X73697Y49012D01*
X73588Y48991D01*
X73479Y48974D01*
X73369Y48960D01*
X73258Y48951D01*
X73148Y48945D01*
X73037Y48943D01*
X69862Y48943D01*
X83705Y48943D02*
X83705Y60373D01*
X82435Y48943D02*
X84975Y48943D01*
X84975Y60373D02*
X82435Y60373D01*
X94154Y48943D02*
X94254Y48945D01*
X94353Y48951D01*
X94453Y48961D01*
X94551Y48974D01*
X94650Y48992D01*
X94747Y49013D01*
X94843Y49038D01*
X94939Y49067D01*
X95033Y49100D01*
X95126Y49136D01*
X95217Y49176D01*
X95307Y49220D01*
X95395Y49267D01*
X95481Y49317D01*
X95565Y49371D01*
X95647Y49428D01*
X95726Y49488D01*
X95804Y49552D01*
X95878Y49618D01*
X95950Y49687D01*
X96019Y49759D01*
X96085Y49833D01*
X96149Y49911D01*
X96209Y49990D01*
X96266Y50072D01*
X96320Y50156D01*
X96370Y50242D01*
X96417Y50330D01*
X96461Y50420D01*
X96501Y50511D01*
X96537Y50604D01*
X96570Y50698D01*
X96599Y50794D01*
X96624Y50890D01*
X96645Y50987D01*
X96663Y51086D01*
X96676Y51184D01*
X96686Y51284D01*
X96692Y51383D01*
X96694Y51483D01*
X94154Y48942D02*
X94013Y48944D01*
X93872Y48949D01*
X93731Y48959D01*
X93590Y48972D01*
X93450Y48988D01*
X93310Y49009D01*
X93171Y49033D01*
X93032Y49061D01*
X92895Y49092D01*
X92758Y49127D01*
X92622Y49165D01*
X92487Y49207D01*
X92354Y49253D01*
X92221Y49302D01*
X92090Y49355D01*
X91961Y49411D01*
X91832Y49470D01*
X91706Y49533D01*
X91581Y49599D01*
X91458Y49668D01*
X91337Y49741D01*
X91218Y49817D01*
X91100Y49896D01*
X90985Y49977D01*
X90873Y50062D01*
X90762Y50150D01*
X90654Y50241D01*
X90548Y50334D01*
X90445Y50431D01*
X90344Y50530D01*
X90662Y57833D02*
X90664Y57933D01*
X90670Y58032D01*
X90680Y58132D01*
X90693Y58230D01*
X90711Y58329D01*
X90732Y58426D01*
X90757Y58522D01*
X90786Y58618D01*
X90819Y58712D01*
X90855Y58805D01*
X90895Y58896D01*
X90939Y58986D01*
X90986Y59074D01*
X91036Y59160D01*
X91090Y59244D01*
X91147Y59326D01*
X91207Y59405D01*
X91271Y59483D01*
X91337Y59557D01*
X91406Y59629D01*
X91478Y59698D01*
X91552Y59764D01*
X91630Y59828D01*
X91709Y59888D01*
X91791Y59945D01*
X91875Y59999D01*
X91961Y60049D01*
X92049Y60096D01*
X92139Y60140D01*
X92230Y60180D01*
X92323Y60216D01*
X92417Y60249D01*
X92513Y60278D01*
X92609Y60303D01*
X92706Y60324D01*
X92805Y60342D01*
X92903Y60355D01*
X93003Y60365D01*
X93102Y60371D01*
X93202Y60373D01*
X93335Y60371D01*
X93468Y60366D01*
X93601Y60356D01*
X93734Y60343D01*
X93866Y60326D01*
X93998Y60306D01*
X94129Y60282D01*
X94259Y60254D01*
X94389Y60223D01*
X94517Y60188D01*
X94645Y60149D01*
X94771Y60107D01*
X94896Y60061D01*
X95020Y60012D01*
X95143Y59960D01*
X95264Y59904D01*
X95383Y59844D01*
X95501Y59782D01*
X95616Y59716D01*
X95730Y59647D01*
X95842Y59574D01*
X95952Y59499D01*
X96060Y59420D01*
X91932Y55610D02*
X91848Y55662D01*
X91765Y55717D01*
X91685Y55776D01*
X91607Y55837D01*
X91532Y55901D01*
X91459Y55969D01*
X91388Y56039D01*
X91321Y56111D01*
X91256Y56186D01*
X91194Y56264D01*
X91135Y56344D01*
X91079Y56426D01*
X91027Y56510D01*
X90978Y56596D01*
X90932Y56684D01*
X90889Y56774D01*
X90850Y56865D01*
X90815Y56958D01*
X90783Y57052D01*
X90755Y57147D01*
X90730Y57243D01*
X90710Y57340D01*
X90692Y57438D01*
X90679Y57536D01*
X90670Y57635D01*
X90664Y57734D01*
X90662Y57833D01*
X95425Y53706D02*
X95509Y53654D01*
X95592Y53599D01*
X95672Y53540D01*
X95750Y53479D01*
X95825Y53415D01*
X95898Y53347D01*
X95969Y53277D01*
X96036Y53205D01*
X96101Y53130D01*
X96163Y53052D01*
X96222Y52972D01*
X96278Y52890D01*
X96330Y52806D01*
X96379Y52720D01*
X96425Y52632D01*
X96468Y52542D01*
X96507Y52451D01*
X96542Y52358D01*
X96574Y52264D01*
X96602Y52169D01*
X96627Y52073D01*
X96647Y51976D01*
X96665Y51878D01*
X96678Y51780D01*
X96687Y51681D01*
X96693Y51582D01*
X96695Y51483D01*
X95424Y53705D02*
X91932Y55610D01*
X102084Y48943D02*
X105894Y60373D01*
X109704Y48943D01*
X108752Y51800D02*
X103037Y51800D01*
X116275Y55293D02*
X119450Y55293D01*
X119561Y55291D01*
X119671Y55285D01*
X119782Y55276D01*
X119892Y55262D01*
X120001Y55245D01*
X120110Y55224D01*
X120218Y55199D01*
X120325Y55170D01*
X120431Y55138D01*
X120536Y55102D01*
X120639Y55062D01*
X120741Y55019D01*
X120842Y54972D01*
X120941Y54921D01*
X121038Y54868D01*
X121132Y54811D01*
X121225Y54750D01*
X121316Y54687D01*
X121405Y54620D01*
X121491Y54550D01*
X121574Y54477D01*
X121656Y54402D01*
X121734Y54324D01*
X121809Y54242D01*
X121882Y54159D01*
X121952Y54073D01*
X122019Y53984D01*
X122082Y53893D01*
X122143Y53800D01*
X122200Y53705D01*
X122253Y53609D01*
X122304Y53510D01*
X122351Y53409D01*
X122394Y53307D01*
X122434Y53204D01*
X122470Y53099D01*
X122502Y52993D01*
X122531Y52886D01*
X122556Y52778D01*
X122577Y52669D01*
X122594Y52560D01*
X122608Y52450D01*
X122617Y52339D01*
X122623Y52229D01*
X122625Y52118D01*
X122623Y52007D01*
X122617Y51897D01*
X122608Y51786D01*
X122594Y51676D01*
X122577Y51567D01*
X122556Y51458D01*
X122531Y51350D01*
X122502Y51243D01*
X122470Y51137D01*
X122434Y51032D01*
X122394Y50929D01*
X122351Y50827D01*
X122304Y50726D01*
X122253Y50627D01*
X122200Y50530D01*
X122143Y50436D01*
X122082Y50343D01*
X122019Y50252D01*
X121952Y50163D01*
X121882Y50077D01*
X121809Y49994D01*
X121734Y49912D01*
X121656Y49834D01*
X121574Y49759D01*
X121491Y49686D01*
X121405Y49616D01*
X121316Y49549D01*
X121225Y49486D01*
X121132Y49425D01*
X121037Y49368D01*
X120941Y49315D01*
X120842Y49264D01*
X120741Y49217D01*
X120639Y49174D01*
X120536Y49134D01*
X120431Y49098D01*
X120325Y49066D01*
X120218Y49037D01*
X120110Y49012D01*
X120001Y48991D01*
X119892Y48974D01*
X119782Y48960D01*
X119671Y48951D01*
X119561Y48945D01*
X119450Y48943D01*
X116275Y48943D01*
X116275Y60373D01*
X119450Y60373D01*
X119550Y60371D01*
X119649Y60365D01*
X119749Y60355D01*
X119847Y60342D01*
X119946Y60324D01*
X120043Y60303D01*
X120139Y60278D01*
X120235Y60249D01*
X120329Y60216D01*
X120422Y60180D01*
X120513Y60140D01*
X120603Y60096D01*
X120691Y60049D01*
X120777Y59999D01*
X120861Y59945D01*
X120943Y59888D01*
X121022Y59828D01*
X121100Y59764D01*
X121174Y59698D01*
X121246Y59629D01*
X121315Y59557D01*
X121381Y59483D01*
X121445Y59405D01*
X121505Y59326D01*
X121562Y59244D01*
X121616Y59160D01*
X121666Y59074D01*
X121713Y58986D01*
X121757Y58896D01*
X121797Y58805D01*
X121833Y58712D01*
X121866Y58618D01*
X121895Y58522D01*
X121920Y58426D01*
X121941Y58329D01*
X121959Y58230D01*
X121972Y58132D01*
X121982Y58032D01*
X121988Y57933D01*
X121990Y57833D01*
X121988Y57733D01*
X121982Y57634D01*
X121972Y57534D01*
X121959Y57436D01*
X121941Y57337D01*
X121920Y57240D01*
X121895Y57144D01*
X121866Y57048D01*
X121833Y56954D01*
X121797Y56861D01*
X121757Y56770D01*
X121713Y56680D01*
X121666Y56592D01*
X121616Y56506D01*
X121562Y56422D01*
X121505Y56340D01*
X121445Y56261D01*
X121381Y56183D01*
X121315Y56109D01*
X121246Y56037D01*
X121174Y55968D01*
X121100Y55902D01*
X121022Y55838D01*
X120943Y55778D01*
X120861Y55721D01*
X120777Y55667D01*
X120691Y55617D01*
X120603Y55570D01*
X120513Y55526D01*
X120422Y55486D01*
X120329Y55450D01*
X120235Y55417D01*
X120139Y55388D01*
X120043Y55363D01*
X119946Y55342D01*
X119847Y55324D01*
X119749Y55311D01*
X119649Y55301D01*
X119550Y55295D01*
X119450Y55293D01*
X128793Y60373D02*
X128793Y48943D01*
X133873Y48943D01*
X139887Y48943D02*
X144967Y48943D01*
X139887Y48943D02*
X139887Y60373D01*
X144967Y60373D01*
X143697Y55293D02*
X139887Y55293D01*
D11*
X195401Y60291D03*
D12*
X213288Y60291D03*
D13*
X195401Y60316D03*
D14*
X213289Y60316D03*
D15*
X195413Y60341D03*
X213288Y60341D03*
D16*
X195413Y60366D03*
D17*
X213288Y60366D03*
D18*
X195414Y60391D03*
D19*
X213288Y60391D03*
D20*
X195426Y60416D03*
D21*
X213276Y60416D03*
D22*
X195413Y60441D03*
D23*
X213276Y60441D03*
D24*
X195426Y60466D03*
D25*
X213264Y60466D03*
D26*
X195426Y60491D03*
D27*
X213263Y60491D03*
D28*
X195438Y60516D03*
D29*
X213263Y60516D03*
D30*
X195439Y60541D03*
X213264Y60541D03*
D31*
X195451Y60566D03*
D32*
X213251Y60566D03*
D33*
X195451Y60591D03*
X213251Y60591D03*
D34*
X195463Y60616D03*
D35*
X213238Y60616D03*
D36*
X195451Y60641D03*
D37*
X213238Y60641D03*
D38*
X195464Y60666D03*
D39*
X213226Y60666D03*
D40*
X195463Y60691D03*
D41*
X213226Y60691D03*
D42*
X195476Y60716D03*
D43*
X213214Y60716D03*
D44*
X195476Y60741D03*
D45*
X213214Y60741D03*
D46*
X195489Y60766D03*
D47*
X213213Y60766D03*
D48*
X195488Y60791D03*
D49*
X213200Y60791D03*
D50*
X195501Y60816D03*
D51*
X213201Y60816D03*
D52*
X195501Y60841D03*
D53*
X213201Y60841D03*
D54*
X195513Y60866D03*
D55*
X213201Y60866D03*
D56*
X195513Y60891D03*
D57*
X213189Y60891D03*
D58*
X195526Y60916D03*
D59*
X213188Y60916D03*
D60*
X195526Y60941D03*
D61*
X213175Y60941D03*
D62*
X195526Y60966D03*
D63*
X213176Y60966D03*
D64*
X195539Y60991D03*
D65*
X213163Y60991D03*
D66*
X195551Y61016D03*
D67*
X213164Y61016D03*
D68*
X195551Y61041D03*
D69*
X213151Y61041D03*
D70*
X195551Y61066D03*
D71*
X213151Y61066D03*
D72*
X195564Y61091D03*
X213139Y61091D03*
D73*
X195563Y61116D03*
D74*
X213139Y61116D03*
D75*
X195576Y61141D03*
D76*
X213126Y61141D03*
D77*
X195576Y61166D03*
D78*
X213126Y61166D03*
D79*
X195589Y61191D03*
X213113Y61191D03*
D80*
X195589Y61216D03*
X213113Y61216D03*
D81*
X195601Y61241D03*
D82*
X213114Y61241D03*
D83*
X195601Y61266D03*
D84*
X213101Y61266D03*
D85*
X195613Y61291D03*
D86*
X213101Y61291D03*
D87*
X195613Y61316D03*
D88*
X213089Y61316D03*
D89*
X195613Y61341D03*
D90*
X213088Y61341D03*
D91*
X195625Y61366D03*
X213075Y61366D03*
D92*
X195626Y61391D03*
D93*
X213076Y61391D03*
D94*
X195638Y61416D03*
D95*
X213063Y61416D03*
D96*
X195638Y61441D03*
D97*
X213064Y61441D03*
D98*
X195651Y61466D03*
D99*
X213051Y61466D03*
D100*
X195651Y61491D03*
D101*
X213051Y61491D03*
D102*
X195664Y61516D03*
X213039Y61516D03*
D103*
X195663Y61541D03*
D104*
X213039Y61541D03*
D105*
X195676Y61566D03*
D106*
X213038Y61566D03*
D107*
X195676Y61591D03*
D108*
X208688Y61591D03*
D109*
X213026Y61591D03*
D110*
X195676Y61616D03*
D111*
X199976Y61616D03*
D112*
X208714Y61616D03*
D110*
X213025Y61616D03*
D113*
X195689Y61641D03*
D114*
X199950Y61641D03*
X208751Y61641D03*
D115*
X213013Y61641D03*
D116*
X195689Y61666D03*
D117*
X199926Y61666D03*
D118*
X208763Y61666D03*
D116*
X213014Y61666D03*
D119*
X195701Y61691D03*
D120*
X199901Y61691D03*
D121*
X208801Y61691D03*
D119*
X213001Y61691D03*
D122*
X195701Y61716D03*
D123*
X199888Y61716D03*
X208813Y61716D03*
D122*
X213001Y61716D03*
D124*
X195714Y61741D03*
D125*
X199864Y61741D03*
D126*
X208838Y61741D03*
D124*
X212989Y61741D03*
D127*
X195713Y61766D03*
D23*
X199851Y61766D03*
X208851Y61766D03*
D128*
X212988Y61766D03*
D129*
X195726Y61791D03*
D130*
X199826Y61791D03*
X208876Y61791D03*
D131*
X212975Y61791D03*
D132*
X195738Y61816D03*
D133*
X199813Y61816D03*
X208888Y61816D03*
D132*
X212963Y61816D03*
D134*
X195739Y61841D03*
D135*
X199788Y61841D03*
D136*
X208914Y61841D03*
D137*
X212963Y61841D03*
D138*
X195751Y61866D03*
D139*
X199776Y61866D03*
D140*
X208925Y61866D03*
D141*
X212951Y61866D03*
D142*
X195750Y61891D03*
D143*
X199751Y61891D03*
D144*
X208951Y61891D03*
D145*
X212951Y61891D03*
D146*
X195751Y61916D03*
D147*
X199738Y61916D03*
D148*
X208963Y61916D03*
D149*
X212938Y61916D03*
D150*
X195763Y61941D03*
D151*
X199713Y61941D03*
X208988Y61941D03*
D152*
X212939Y61941D03*
D153*
X195776Y61966D03*
D154*
X199701Y61966D03*
D155*
X209001Y61966D03*
D156*
X212926Y61966D03*
D157*
X195775Y61991D03*
D36*
X199676Y61991D03*
D158*
X209026Y61991D03*
D159*
X212926Y61991D03*
D160*
X195788Y62016D03*
D38*
X199663Y62016D03*
D39*
X209051Y62016D03*
D161*
X212913Y62016D03*
D162*
X195788Y62041D03*
D40*
X199638Y62041D03*
X209064Y62041D03*
D163*
X212913Y62041D03*
D164*
X195801Y62066D03*
D43*
X199613Y62066D03*
D165*
X209088Y62066D03*
D164*
X212901Y62066D03*
D166*
X195814Y62091D03*
D167*
X199600Y62091D03*
D168*
X209101Y62091D03*
D166*
X212889Y62091D03*
D169*
X195814Y62116D03*
D170*
X199576Y62116D03*
D171*
X209126Y62116D03*
D169*
X212889Y62116D03*
D172*
X195826Y62141D03*
D173*
X199564Y62141D03*
D48*
X209138Y62141D03*
D174*
X212876Y62141D03*
D175*
X195839Y62166D03*
D176*
X199539Y62166D03*
D177*
X209163Y62166D03*
D178*
X212863Y62166D03*
D179*
X195838Y62191D03*
D53*
X199526Y62191D03*
D180*
X209176Y62191D03*
D181*
X212863Y62191D03*
D182*
X195851Y62216D03*
D183*
X199488Y62216D03*
D184*
X209214Y62216D03*
D182*
X212851Y62216D03*
D185*
X195863Y62241D03*
D56*
X199463Y62241D03*
D57*
X209239Y62241D03*
D185*
X212838Y62241D03*
D186*
X196813Y62266D03*
D187*
X211876Y62266D03*
D188*
X196801Y62291D03*
D189*
X211889Y62291D03*
D190*
X196801Y62316D03*
D191*
X211889Y62316D03*
D192*
X196788Y62341D03*
D193*
X211901Y62341D03*
D194*
X196789Y62366D03*
D195*
X211901Y62366D03*
D194*
X196789Y62391D03*
D196*
X211913Y62391D03*
D197*
X196776Y62416D03*
D198*
X211926Y62416D03*
D199*
X196776Y62441D03*
D200*
X211926Y62441D03*
D201*
X196764Y62466D03*
D202*
X211938Y62466D03*
D203*
X196763Y62491D03*
X211938Y62491D03*
D204*
X196750Y62516D03*
X211951Y62516D03*
D205*
X196750Y62541D03*
X211951Y62541D03*
D206*
X196738Y62566D03*
X211964Y62566D03*
D207*
X196725Y62591D03*
X211976Y62591D03*
D208*
X196726Y62616D03*
X211976Y62616D03*
D209*
X196713Y62641D03*
D208*
X211976Y62641D03*
D210*
X196713Y62666D03*
D211*
X211976Y62666D03*
D212*
X196701Y62691D03*
D213*
X211988Y62691D03*
D212*
X196701Y62716D03*
D214*
X211988Y62716D03*
D215*
X196701Y62741D03*
D216*
X212001Y62741D03*
D217*
X196689Y62766D03*
X212014Y62766D03*
D218*
X196688Y62791D03*
D219*
X212014Y62791D03*
D220*
X196676Y62816D03*
D221*
X212026Y62816D03*
D222*
X196676Y62841D03*
D223*
X212013Y62841D03*
D224*
X196664Y62866D03*
D225*
X212026Y62866D03*
D224*
X196664Y62891D03*
X212038Y62891D03*
D226*
X196664Y62916D03*
D227*
X212038Y62916D03*
D228*
X196651Y62941D03*
D229*
X212051Y62941D03*
D230*
X196651Y62966D03*
X212051Y62966D03*
X196651Y62991D03*
X212051Y62991D03*
D231*
X196651Y63016D03*
D232*
X212064Y63016D03*
D233*
X196638Y63041D03*
D234*
X212064Y63041D03*
D233*
X196638Y63066D03*
D234*
X212064Y63066D03*
X196664Y63091D03*
D235*
X212038Y63091D03*
D234*
X196664Y63116D03*
D235*
X212038Y63116D03*
D234*
X196689Y63141D03*
D235*
X212013Y63141D03*
D234*
X196689Y63166D03*
D235*
X212013Y63166D03*
D234*
X196714Y63191D03*
D236*
X212000Y63191D03*
D234*
X196714Y63216D03*
D233*
X211988Y63216D03*
D236*
X196726Y63241D03*
D231*
X211976Y63241D03*
D233*
X196738Y63266D03*
X211963Y63266D03*
D231*
X196751Y63291D03*
X211951Y63291D03*
D236*
X196776Y63316D03*
D231*
X211951Y63316D03*
D236*
X196776Y63341D03*
D237*
X211926Y63341D03*
D232*
X196789Y63366D03*
D238*
X211913Y63366D03*
D236*
X196801Y63391D03*
D237*
X211901Y63391D03*
D232*
X196814Y63416D03*
D238*
X211888Y63416D03*
D232*
X196839Y63441D03*
D238*
X211888Y63441D03*
D232*
X196839Y63466D03*
X211864Y63466D03*
X196863Y63491D03*
D230*
X211851Y63491D03*
X196875Y63516D03*
D232*
X211839Y63516D03*
D230*
X196875Y63541D03*
D239*
X211826Y63541D03*
D230*
X196900Y63566D03*
D240*
X211813Y63566D03*
D230*
X196900Y63591D03*
D239*
X211801Y63591D03*
D241*
X196926Y63616D03*
D242*
X211788Y63616D03*
D243*
X196938Y63641D03*
D230*
X211775Y63641D03*
D243*
X196938Y63666D03*
X211763Y63666D03*
X196963Y63691D03*
D244*
X211739Y63691D03*
D245*
X196976Y63716D03*
D244*
X211739Y63716D03*
X196988Y63741D03*
D228*
X211726Y63741D03*
X197000Y63766D03*
X211701Y63766D03*
X197025Y63791D03*
X211701Y63791D03*
X197025Y63816D03*
X211676Y63816D03*
D227*
X197038Y63841D03*
D228*
X211676Y63841D03*
D226*
X197064Y63866D03*
D227*
X211663Y63866D03*
D226*
X197064Y63891D03*
X211638Y63891D03*
X197089Y63916D03*
X211638Y63916D03*
D246*
X197101Y63941D03*
D227*
X211613Y63941D03*
D246*
X197101Y63966D03*
X211601Y63966D03*
D247*
X197126Y63991D03*
D226*
X211589Y63991D03*
D248*
X197138Y64016D03*
D246*
X211576Y64016D03*
D247*
X197151Y64041D03*
D224*
X211564Y64041D03*
D248*
X197163Y64066D03*
D246*
X211551Y64066D03*
X197176Y64091D03*
D224*
X211539Y64091D03*
X197189Y64116D03*
D249*
X211513Y64116D03*
D222*
X197201Y64141D03*
D249*
X211513Y64141D03*
D224*
X197214Y64166D03*
D225*
X211501Y64166D03*
D222*
X197226Y64191D03*
D250*
X211476Y64191D03*
D222*
X197251Y64216D03*
D250*
X211476Y64216D03*
D222*
X197251Y64241D03*
D250*
X211451Y64241D03*
D251*
X197264Y64266D03*
D252*
X211438Y64266D03*
X197288Y64291D03*
D250*
X211426Y64291D03*
D220*
X197301Y64316D03*
D251*
X211414Y64316D03*
X197314Y64341D03*
D221*
X211401Y64341D03*
X197326Y64366D03*
D223*
X211388Y64366D03*
D221*
X197351Y64391D03*
D253*
X211376Y64391D03*
D221*
X197351Y64416D03*
X211351Y64416D03*
D219*
X197364Y64441D03*
D221*
X211351Y64441D03*
D254*
X197388Y64466D03*
D219*
X211339Y64466D03*
D254*
X197388Y64491D03*
D218*
X211313Y64491D03*
D219*
X197413Y64516D03*
D218*
X211313Y64516D03*
D255*
X197425Y64541D03*
D218*
X211288Y64541D03*
D255*
X197425Y64566D03*
D256*
X211276Y64566D03*
D257*
X197451Y64591D03*
D256*
X211276Y64591D03*
D258*
X197463Y64616D03*
D257*
X211251Y64616D03*
X197476Y64641D03*
D258*
X211238Y64641D03*
X197488Y64666D03*
D257*
X211226Y64666D03*
D215*
X197501Y64691D03*
D258*
X211213Y64691D03*
X197513Y64716D03*
D217*
X211189Y64716D03*
D215*
X197526Y64741D03*
D217*
X211189Y64741D03*
D259*
X197551Y64766D03*
D216*
X211176Y64766D03*
D259*
X197551Y64791D03*
X211151Y64791D03*
D216*
X197576Y64816D03*
D259*
X211151Y64816D03*
D260*
X197589Y64841D03*
D216*
X211125Y64841D03*
D260*
X197589Y64866D03*
X211113Y64866D03*
X197614Y64891D03*
D212*
X211101Y64891D03*
D261*
X197626Y64916D03*
D262*
X211088Y64916D03*
D260*
X197639Y64941D03*
D212*
X211076Y64941D03*
D261*
X197651Y64966D03*
D260*
X211064Y64966D03*
D263*
X197664Y64991D03*
D261*
X211051Y64991D03*
D264*
X197676Y65016D03*
D263*
X211039Y65016D03*
D213*
X197688Y65041D03*
D261*
X211026Y65041D03*
D213*
X197713Y65066D03*
D263*
X211014Y65066D03*
D211*
X197726Y65091D03*
D263*
X210989Y65091D03*
D211*
X197726Y65116D03*
D263*
X210989Y65116D03*
D265*
X197751Y65141D03*
D263*
X210963Y65141D03*
D266*
X197764Y65166D03*
D265*
X210950Y65166D03*
X197776Y65191D03*
D266*
X210938Y65191D03*
X197789Y65216D03*
D211*
X210926Y65216D03*
D267*
X197801Y65241D03*
D266*
X210914Y65241D03*
D268*
X197813Y65266D03*
D266*
X210889Y65266D03*
D269*
X197826Y65291D03*
D266*
X210889Y65291D03*
D269*
X197851Y65316D03*
D267*
X210876Y65316D03*
D269*
X197851Y65341D03*
D267*
X210851Y65341D03*
X197876Y65366D03*
X210851Y65366D03*
D270*
X197888Y65391D03*
D208*
X210826Y65391D03*
D270*
X197888Y65416D03*
D208*
X210826Y65416D03*
D270*
X197913Y65441D03*
D269*
X210801Y65441D03*
D271*
X197926Y65466D03*
D272*
X210788Y65466D03*
D273*
X197938Y65491D03*
D272*
X210788Y65491D03*
D207*
X197950Y65516D03*
D272*
X210763Y65516D03*
D207*
X197950Y65541D03*
X210751Y65541D03*
X197975Y65566D03*
D273*
X210739Y65566D03*
D206*
X197988Y65591D03*
D207*
X210726Y65591D03*
D271*
X198001Y65616D03*
D206*
X210714Y65616D03*
D274*
X198013Y65641D03*
D271*
X210701Y65641D03*
D274*
X198038Y65666D03*
X210688Y65666D03*
X198038Y65691D03*
D206*
X210664Y65691D03*
D205*
X198051Y65716D03*
D206*
X210664Y65716D03*
D205*
X198076Y65741D03*
D275*
X210638Y65741D03*
D205*
X198076Y65766D03*
D275*
X210638Y65766D03*
D276*
X198101Y65791D03*
X210626Y65791D03*
X198101Y65816D03*
X210601Y65816D03*
D277*
X198113Y65841D03*
D276*
X210601Y65841D03*
D278*
X198139Y65866D03*
D279*
X210576Y65866D03*
D278*
X198139Y65891D03*
D280*
X210563Y65891D03*
D278*
X198164Y65916D03*
D280*
X210563Y65916D03*
D204*
X198176Y65941D03*
D278*
X210539Y65941D03*
D204*
X198176Y65966D03*
X210526Y65966D03*
X198201Y65991D03*
D278*
X210514Y65991D03*
D204*
X198201Y66016D03*
X210501Y66016D03*
D281*
X198226Y66041D03*
D278*
X210489Y66041D03*
D203*
X198238Y66066D03*
D204*
X210476Y66066D03*
X198251Y66091D03*
D203*
X210463Y66091D03*
D282*
X198264Y66116D03*
D204*
X210450Y66116D03*
D282*
X198264Y66141D03*
X210438Y66141D03*
X198289Y66166D03*
D204*
X210425Y66166D03*
D282*
X198289Y66191D03*
X210413Y66191D03*
X198314Y66216D03*
X210413Y66216D03*
X198314Y66241D03*
X210389Y66241D03*
D283*
X198326Y66266D03*
D282*
X210389Y66266D03*
D281*
X198326Y66291D03*
D282*
X210364Y66291D03*
D281*
X198326Y66316D03*
D204*
X210376Y66316D03*
D278*
X198339Y66341D03*
D204*
X210376Y66341D03*
D205*
X198326Y66366D03*
D280*
X210363Y66366D03*
D205*
X198326Y66391D03*
X210375Y66391D03*
D206*
X198339Y66416D03*
X210363Y66416D03*
D207*
X198326Y66441D03*
D206*
X210363Y66441D03*
D273*
X198339Y66466D03*
D207*
X210375Y66466D03*
D273*
X198339Y66491D03*
D272*
X210363Y66491D03*
D267*
X198326Y66516D03*
D272*
X210363Y66516D03*
D268*
X198338Y66541D03*
X210363Y66541D03*
X198338Y66566D03*
X210363Y66566D03*
D213*
X198338Y66591D03*
D263*
X210364Y66591D03*
D213*
X198338Y66616D03*
D263*
X210364Y66616D03*
D261*
X198351Y66641D03*
D263*
X210364Y66641D03*
D260*
X198339Y66666D03*
D262*
X210363Y66666D03*
D260*
X198339Y66691D03*
D262*
X210363Y66691D03*
D217*
X198339Y66716D03*
D216*
X210351Y66716D03*
D217*
X198339Y66741D03*
X210364Y66741D03*
D256*
X198351Y66766D03*
D217*
X210364Y66766D03*
D218*
X198338Y66791D03*
D219*
X210364Y66791D03*
D218*
X198338Y66816D03*
D219*
X210364Y66816D03*
D220*
X198351Y66841D03*
D221*
X210351Y66841D03*
D252*
X198338Y66866D03*
D251*
X210364Y66866D03*
D222*
X198351Y66891D03*
D251*
X210364Y66891D03*
D224*
X198339Y66916D03*
D249*
X210363Y66916D03*
D224*
X198339Y66941D03*
D249*
X210363Y66941D03*
D246*
X198351Y66966D03*
X210351Y66966D03*
D226*
X198339Y66991D03*
D227*
X210363Y66991D03*
D229*
X198351Y67016D03*
D227*
X210363Y67016D03*
D229*
X198351Y67041D03*
X210351Y67041D03*
D242*
X198338Y67066D03*
X210363Y67066D03*
D239*
X198351Y67091D03*
X210351Y67091D03*
D240*
X198338Y67116D03*
X210363Y67116D03*
D236*
X198351Y67141D03*
D240*
X210363Y67141D03*
D236*
X198351Y67166D03*
X210350Y67166D03*
D235*
X198338Y67191D03*
X210363Y67191D03*
D284*
X198351Y67216D03*
D285*
X210351Y67216D03*
D284*
X198351Y67241D03*
D286*
X210364Y67241D03*
D287*
X198351Y67266D03*
D286*
X210364Y67266D03*
D287*
X198351Y67291D03*
D288*
X210351Y67291D03*
D289*
X198338Y67316D03*
D290*
X210364Y67316D03*
D291*
X198350Y67341D03*
X210351Y67341D03*
X198350Y67366D03*
D292*
X210364Y67366D03*
D293*
X198351Y67391D03*
D292*
X210364Y67391D03*
D293*
X198351Y67416D03*
X210351Y67416D03*
D294*
X198338Y67441D03*
X210363Y67441D03*
D295*
X198351Y67466D03*
D296*
X210351Y67466D03*
D295*
X198351Y67491D03*
D297*
X210363Y67491D03*
D298*
X198351Y67516D03*
D297*
X210363Y67516D03*
D298*
X198351Y67541D03*
D299*
X210351Y67541D03*
D300*
X198338Y67566D03*
D301*
X210363Y67566D03*
D302*
X198350Y67591D03*
D301*
X210363Y67591D03*
D302*
X198350Y67616D03*
D303*
X210363Y67616D03*
D304*
X198338Y67641D03*
D303*
X210363Y67641D03*
D305*
X198351Y67666D03*
D306*
X210350Y67666D03*
D307*
X198339Y67691D03*
D308*
X210363Y67691D03*
D309*
X198351Y67716D03*
D308*
X210363Y67716D03*
D309*
X198351Y67741D03*
D310*
X210363Y67741D03*
D311*
X198339Y67766D03*
D310*
X210363Y67766D03*
D312*
X198351Y67791D03*
X210351Y67791D03*
D313*
X198339Y67816D03*
X210364Y67816D03*
X198339Y67841D03*
X210364Y67841D03*
D314*
X198338Y67866D03*
D315*
X210364Y67866D03*
D314*
X198338Y67891D03*
D315*
X210364Y67891D03*
D314*
X198338Y67916D03*
D315*
X210364Y67916D03*
D316*
X198339Y67941D03*
D317*
X210363Y67941D03*
D316*
X198339Y67966D03*
D317*
X210363Y67966D03*
D318*
X198326Y67991D03*
X210375Y67991D03*
D319*
X198339Y68016D03*
X210363Y68016D03*
X198339Y68041D03*
X210363Y68041D03*
X198314Y68066D03*
X210388Y68066D03*
X198314Y68091D03*
X210388Y68091D03*
D320*
X198288Y68116D03*
X210413Y68116D03*
D318*
X198276Y68141D03*
D321*
X210426Y68141D03*
D316*
X198264Y68166D03*
X210438Y68166D03*
X198239Y68191D03*
D317*
X210463Y68191D03*
D322*
X198226Y68216D03*
D323*
X210476Y68216D03*
X198201Y68241D03*
X210501Y68241D03*
D315*
X198189Y68266D03*
X210514Y68266D03*
X198164Y68291D03*
D324*
X210551Y68291D03*
D313*
X198139Y68316D03*
X210564Y68316D03*
D312*
X198126Y68341D03*
X210576Y68341D03*
X198101Y68366D03*
D325*
X210601Y68366D03*
D326*
X198076Y68391D03*
D309*
X210626Y68391D03*
X198051Y68416D03*
X210651Y68416D03*
D307*
X198039Y68441D03*
D308*
X210663Y68441D03*
D303*
X198013Y68466D03*
D306*
X210701Y68466D03*
D304*
X197989Y68491D03*
X210714Y68491D03*
D301*
X197963Y68516D03*
D327*
X210726Y68516D03*
D301*
X197938Y68541D03*
X210763Y68541D03*
D328*
X197926Y68566D03*
D299*
X210776Y68566D03*
D329*
X197889Y68591D03*
D328*
X210800Y68591D03*
D330*
X197876Y68616D03*
X210826Y68616D03*
D331*
X197864Y68641D03*
D330*
X210851Y68641D03*
D331*
X197839Y68666D03*
X210863Y68666D03*
D332*
X197813Y68691D03*
X210888Y68691D03*
D333*
X197788Y68716D03*
D292*
X210914Y68716D03*
D334*
X197776Y68741D03*
D291*
X210926Y68741D03*
D334*
X197751Y68766D03*
X210951Y68766D03*
D290*
X197738Y68791D03*
D288*
X210976Y68791D03*
D287*
X197701Y68816D03*
D288*
X211001Y68816D03*
D335*
X197688Y68841D03*
X211013Y68841D03*
D286*
X197663Y68866D03*
X211039Y68866D03*
D285*
X197650Y68891D03*
D234*
X211064Y68891D03*
D284*
X197626Y68916D03*
D235*
X211088Y68916D03*
X197613Y68941D03*
D236*
X211101Y68941D03*
D234*
X197588Y68966D03*
D231*
X211126Y68966D03*
D236*
X197575Y68991D03*
D240*
X211138Y68991D03*
D237*
X197551Y69016D03*
D232*
X211163Y69016D03*
D238*
X197538Y69041D03*
D239*
X211176Y69041D03*
D232*
X197513Y69066D03*
D239*
X211201Y69066D03*
D230*
X197500Y69091D03*
X211226Y69091D03*
X197476Y69116D03*
D243*
X211238Y69116D03*
D230*
X197451Y69141D03*
D243*
X211263Y69141D03*
D244*
X197439Y69166D03*
X211289Y69166D03*
D242*
X197413Y69191D03*
D228*
X211301Y69191D03*
D244*
X197389Y69216D03*
D245*
X211326Y69216D03*
D244*
X197364Y69241D03*
D245*
X211351Y69241D03*
D244*
X197339Y69266D03*
D229*
X211376Y69266D03*
D239*
X197301Y69291D03*
D242*
X211413Y69291D03*
D236*
X197251Y69316D03*
D230*
X211451Y69316D03*
D285*
X197201Y69341D03*
D235*
X211513Y69341D03*
D334*
X197126Y69366D03*
D288*
X211576Y69366D03*
D295*
X197076Y69391D03*
D336*
X211651Y69391D03*
D301*
X197013Y69416D03*
D328*
X211701Y69416D03*
D307*
X196939Y69441D03*
D303*
X211763Y69441D03*
D313*
X196864Y69466D03*
D325*
X211851Y69466D03*
D316*
X196789Y69491D03*
D314*
X211913Y69491D03*
D337*
X196713Y69516D03*
D338*
X212001Y69516D03*
D339*
X196650Y69541D03*
D340*
X212064Y69541D03*
D341*
X196575Y69566D03*
D342*
X212138Y69566D03*
D343*
X196489Y69591D03*
D344*
X212226Y69591D03*
D345*
X196413Y69616D03*
D346*
X212301Y69616D03*
D347*
X196339Y69641D03*
D348*
X212363Y69641D03*
D349*
X196263Y69666D03*
D350*
X212451Y69666D03*
D351*
X196176Y69691D03*
D352*
X212526Y69691D03*
D353*
X196101Y69716D03*
D354*
X212601Y69716D03*
D355*
X196026Y69741D03*
D356*
X212676Y69741D03*
D357*
X195951Y69766D03*
D358*
X212751Y69766D03*
D359*
X195888Y69791D03*
D360*
X212814Y69791D03*
D361*
X195813Y69816D03*
D362*
X212889Y69816D03*
D363*
X195726Y69841D03*
D364*
X212976Y69841D03*
D365*
X195664Y69866D03*
X213039Y69866D03*
D366*
X195601Y69891D03*
D367*
X213113Y69891D03*
D368*
X195526Y69916D03*
D369*
X213163Y69916D03*
D370*
X195463Y69941D03*
D371*
X213238Y69941D03*
D372*
X195401Y69966D03*
D373*
X213301Y69966D03*
D374*
X195338Y69991D03*
X213364Y69991D03*
D375*
X195288Y70016D03*
D376*
X213414Y70016D03*
D377*
X195239Y70041D03*
D378*
X213451Y70041D03*
D379*
X195226Y70066D03*
D380*
X213476Y70066D03*
D377*
X195214Y70091D03*
D381*
X213488Y70091D03*
D377*
X195214Y70116D03*
D380*
X213501Y70116D03*
D381*
X195188Y70141D03*
D380*
X213501Y70141D03*
D382*
X195175Y70166D03*
X213526Y70166D03*
X195175Y70191D03*
X213526Y70191D03*
D383*
X195163Y70216D03*
D384*
X213539Y70216D03*
D383*
X195163Y70241D03*
D384*
X213539Y70241D03*
D385*
X195151Y70266D03*
D386*
X213551Y70266D03*
D384*
X195139Y70291D03*
D386*
X213551Y70291D03*
X195126Y70316D03*
D387*
X213563Y70316D03*
D386*
X195126Y70341D03*
D387*
X213563Y70341D03*
D386*
X195126Y70366D03*
D385*
X213576Y70366D03*
D388*
X195113Y70391D03*
D376*
X213589Y70391D03*
D388*
X195113Y70416D03*
D376*
X213589Y70416D03*
D389*
X195101Y70441D03*
X213601Y70441D03*
X195101Y70466D03*
X213601Y70466D03*
D374*
X195089Y70491D03*
X213614Y70491D03*
X195089Y70516D03*
X213614Y70516D03*
X195089Y70541D03*
X213614Y70541D03*
D390*
X195076Y70566D03*
D391*
X213626Y70566D03*
D390*
X195076Y70591D03*
D391*
X213626Y70591D03*
D392*
X195063Y70616D03*
D391*
X213626Y70616D03*
D392*
X195063Y70641D03*
D393*
X213639Y70641D03*
D392*
X195063Y70666D03*
D393*
X213639Y70666D03*
D394*
X195051Y70691D03*
D395*
X213651Y70691D03*
D394*
X195051Y70716D03*
D395*
X213651Y70716D03*
D393*
X195038Y70741D03*
D395*
X213651Y70741D03*
D372*
X195026Y70766D03*
D396*
X213664Y70766D03*
D372*
X195026Y70791D03*
D396*
X213664Y70791D03*
D372*
X195026Y70816D03*
D396*
X213664Y70816D03*
D397*
X195013Y70841D03*
D398*
X213676Y70841D03*
D397*
X195013Y70866D03*
D398*
X213676Y70866D03*
D397*
X195013Y70891D03*
D398*
X213676Y70891D03*
D397*
X195013Y70916D03*
D373*
X213701Y70916D03*
X195000Y70941D03*
X213701Y70941D03*
X195000Y70966D03*
X213701Y70966D03*
X195000Y70991D03*
X213701Y70991D03*
X195000Y71016D03*
D399*
X213714Y71016D03*
X194988Y71041D03*
X213714Y71041D03*
X194988Y71066D03*
X213714Y71066D03*
X194988Y71091D03*
X213714Y71091D03*
X194988Y71116D03*
D400*
X213726Y71116D03*
D399*
X194988Y71141D03*
D400*
X213726Y71141D03*
D401*
X194976Y71166D03*
D400*
X213726Y71166D03*
D401*
X194976Y71191D03*
D400*
X213726Y71191D03*
D401*
X194976Y71216D03*
D371*
X213738Y71216D03*
D401*
X194976Y71241D03*
D371*
X213738Y71241D03*
D401*
X194976Y71266D03*
D371*
X213738Y71266D03*
D401*
X194976Y71291D03*
D371*
X213738Y71291D03*
D401*
X194976Y71316D03*
D371*
X213738Y71316D03*
X194963Y71341D03*
D402*
X213751Y71341D03*
D371*
X194963Y71366D03*
D402*
X213751Y71366D03*
D371*
X194963Y71391D03*
D402*
X213751Y71391D03*
D371*
X194963Y71416D03*
D402*
X213751Y71416D03*
D371*
X194963Y71441D03*
D402*
X213751Y71441D03*
D371*
X194963Y71466D03*
D403*
X213764Y71466D03*
D371*
X194963Y71491D03*
D403*
X213764Y71491D03*
D371*
X194963Y71516D03*
D403*
X213764Y71516D03*
D402*
X194950Y71541D03*
D403*
X213764Y71541D03*
D402*
X194950Y71566D03*
D403*
X213764Y71566D03*
D402*
X194950Y71591D03*
D403*
X213764Y71591D03*
D402*
X194950Y71616D03*
D403*
X213764Y71616D03*
D402*
X194950Y71641D03*
D403*
X213764Y71641D03*
D402*
X194950Y71666D03*
D368*
X213776Y71666D03*
D402*
X194950Y71691D03*
D368*
X213776Y71691D03*
D402*
X194950Y71716D03*
D368*
X213776Y71716D03*
D402*
X194950Y71741D03*
D368*
X213776Y71741D03*
D402*
X194950Y71766D03*
D368*
X213776Y71766D03*
D402*
X194950Y71791D03*
D368*
X213776Y71791D03*
D402*
X194950Y71816D03*
D368*
X213776Y71816D03*
D402*
X194950Y71841D03*
D368*
X213776Y71841D03*
D402*
X194950Y71866D03*
D368*
X213776Y71866D03*
D402*
X194950Y71891D03*
D368*
X213776Y71891D03*
D402*
X194950Y71916D03*
D368*
X213776Y71916D03*
D402*
X194950Y71941D03*
D368*
X213776Y71941D03*
D402*
X194950Y71966D03*
D368*
X213776Y71966D03*
D402*
X194950Y71991D03*
D368*
X213776Y71991D03*
D402*
X194950Y72016D03*
D368*
X213776Y72016D03*
D402*
X194950Y72041D03*
D368*
X213776Y72041D03*
D402*
X194950Y72066D03*
D368*
X213776Y72066D03*
D402*
X194950Y72091D03*
D368*
X213776Y72091D03*
D402*
X194950Y72116D03*
D368*
X213776Y72116D03*
D402*
X194950Y72141D03*
D368*
X213776Y72141D03*
D402*
X194950Y72166D03*
D368*
X213776Y72166D03*
D402*
X194950Y72191D03*
D368*
X213776Y72191D03*
D402*
X194950Y72216D03*
D368*
X213776Y72216D03*
D402*
X194950Y72241D03*
D368*
X213776Y72241D03*
D402*
X194950Y72266D03*
D368*
X213776Y72266D03*
D402*
X194950Y72291D03*
D368*
X213776Y72291D03*
D402*
X194950Y72316D03*
D368*
X213776Y72316D03*
D402*
X194950Y72341D03*
D368*
X213776Y72341D03*
D402*
X194950Y72366D03*
D368*
X213776Y72366D03*
D402*
X194950Y72391D03*
D368*
X213776Y72391D03*
D402*
X194950Y72416D03*
D403*
X213764Y72416D03*
D402*
X194950Y72441D03*
D403*
X213764Y72441D03*
D402*
X194950Y72466D03*
D403*
X213764Y72466D03*
D402*
X194950Y72491D03*
D403*
X213764Y72491D03*
D402*
X194950Y72516D03*
D403*
X213764Y72516D03*
D371*
X194963Y72541D03*
D403*
X213764Y72541D03*
D371*
X194963Y72566D03*
D403*
X213764Y72566D03*
D371*
X194963Y72591D03*
D403*
X213764Y72591D03*
D371*
X194963Y72616D03*
D402*
X213751Y72616D03*
D371*
X194963Y72641D03*
D402*
X213751Y72641D03*
D371*
X194963Y72666D03*
D402*
X213751Y72666D03*
D371*
X194963Y72691D03*
D402*
X213751Y72691D03*
D371*
X194963Y72716D03*
D402*
X213751Y72716D03*
D371*
X194963Y72741D03*
X213738Y72741D03*
D401*
X194976Y72766D03*
D371*
X213738Y72766D03*
D401*
X194976Y72791D03*
D371*
X213738Y72791D03*
D401*
X194976Y72816D03*
D371*
X213738Y72816D03*
D401*
X194976Y72841D03*
D371*
X213738Y72841D03*
D401*
X194976Y72866D03*
D400*
X213726Y72866D03*
D401*
X194976Y72891D03*
D400*
X213726Y72891D03*
D399*
X194988Y72916D03*
D400*
X213726Y72916D03*
D399*
X194988Y72941D03*
D400*
X213726Y72941D03*
D399*
X194988Y72966D03*
X213714Y72966D03*
X194988Y72991D03*
X213714Y72991D03*
X194988Y73016D03*
X213714Y73016D03*
D373*
X195000Y73041D03*
D399*
X213714Y73041D03*
D373*
X195000Y73066D03*
X213701Y73066D03*
X195000Y73091D03*
X213701Y73091D03*
X195000Y73116D03*
X213701Y73116D03*
D397*
X195013Y73141D03*
X213688Y73141D03*
X195013Y73166D03*
X213688Y73166D03*
D373*
X195026Y73191D03*
D397*
X213688Y73191D03*
D373*
X195026Y73216D03*
D397*
X213688Y73216D03*
D396*
X195039Y73241D03*
D395*
X213676Y73241D03*
D396*
X195039Y73266D03*
D395*
X213676Y73266D03*
D396*
X195039Y73291D03*
X213664Y73291D03*
D394*
X195051Y73316D03*
D395*
X213651Y73316D03*
D394*
X195051Y73341D03*
D395*
X213651Y73341D03*
D394*
X195051Y73366D03*
D395*
X213651Y73366D03*
D392*
X195063Y73391D03*
D393*
X213639Y73391D03*
D392*
X195063Y73416D03*
D393*
X213639Y73416D03*
D392*
X195063Y73441D03*
D391*
X213626Y73441D03*
D390*
X195076Y73466D03*
D391*
X213626Y73466D03*
D390*
X195076Y73491D03*
D391*
X213626Y73491D03*
D390*
X195076Y73516D03*
D374*
X213614Y73516D03*
X195089Y73541D03*
X213614Y73541D03*
X195089Y73566D03*
D389*
X213601Y73566D03*
X195101Y73591D03*
X213601Y73591D03*
X195101Y73616D03*
X213601Y73616D03*
X195101Y73641D03*
D376*
X213589Y73641D03*
D388*
X195113Y73666D03*
D376*
X213589Y73666D03*
D388*
X195113Y73691D03*
D385*
X213576Y73691D03*
D386*
X195126Y73716D03*
D385*
X213576Y73716D03*
D386*
X195126Y73741D03*
D384*
X213564Y73741D03*
X195139Y73766D03*
X213564Y73766D03*
X195139Y73791D03*
D382*
X213551Y73791D03*
D383*
X195163Y73816D03*
D384*
X213539Y73816D03*
D383*
X195163Y73841D03*
D384*
X213539Y73841D03*
D382*
X195175Y73866D03*
X213526Y73866D03*
X195175Y73891D03*
D381*
X213513Y73891D03*
X195188Y73916D03*
X213513Y73916D03*
X195188Y73941D03*
D404*
X213501Y73941D03*
X195201Y73966D03*
X213501Y73966D03*
X195201Y73991D03*
D405*
X213489Y73991D03*
D379*
X195226Y74016D03*
X213476Y74016D03*
D384*
X195264Y74041D03*
D405*
X213464Y74041D03*
D388*
X195313Y74066D03*
D379*
X213451Y74066D03*
D390*
X195376Y74091D03*
D382*
X213400Y74091D03*
D373*
X195426Y74116D03*
D406*
X213351Y74116D03*
D407*
X195489Y74141D03*
D372*
X213276Y74141D03*
D369*
X195538Y74166D03*
D400*
X213201Y74166D03*
D367*
X195613Y74191D03*
D408*
X213139Y74191D03*
D409*
X195688Y74216D03*
D410*
X213063Y74216D03*
D411*
X195738Y74241D03*
D412*
X212976Y74241D03*
D361*
X195813Y74266D03*
D413*
X212914Y74266D03*
D359*
X195888Y74291D03*
D362*
X212838Y74291D03*
D357*
X195951Y74316D03*
D414*
X212776Y74316D03*
D355*
X196026Y74341D03*
D358*
X212701Y74341D03*
D353*
X196101Y74366D03*
D415*
X212613Y74366D03*
D416*
X196163Y74391D03*
D417*
X212551Y74391D03*
D418*
X196238Y74416D03*
D419*
X212476Y74416D03*
D420*
X196314Y74441D03*
D421*
X212401Y74441D03*
D422*
X196401Y74466D03*
D423*
X212326Y74466D03*
D424*
X196464Y74491D03*
D425*
X212263Y74491D03*
D426*
X196551Y74516D03*
D343*
X212189Y74516D03*
D427*
X196626Y74541D03*
D428*
X212101Y74541D03*
D429*
X196701Y74566D03*
D430*
X212026Y74566D03*
D431*
X196776Y74591D03*
D432*
X211951Y74591D03*
D323*
X196851Y74616D03*
D433*
X211888Y74616D03*
D309*
X196926Y74641D03*
D313*
X211814Y74641D03*
D303*
X196988Y74666D03*
D434*
X211738Y74666D03*
D435*
X197063Y74691D03*
D327*
X211676Y74691D03*
D333*
X197138Y74716D03*
D296*
X211601Y74716D03*
D286*
X197214Y74741D03*
D436*
X211526Y74741D03*
D231*
X197276Y74766D03*
D286*
X211464Y74766D03*
D228*
X197351Y74791D03*
D232*
X211414Y74791D03*
D246*
X197401Y74816D03*
D245*
X211351Y74816D03*
D246*
X197426Y74841D03*
D249*
X211288Y74841D03*
D246*
X197450Y74866D03*
D252*
X211238Y74866D03*
D437*
X197476Y74891D03*
D251*
X211214Y74891D03*
D438*
X197488Y74916D03*
D225*
X211201Y74916D03*
D438*
X197513Y74941D03*
D225*
X211176Y74941D03*
D226*
X197538Y74966D03*
D224*
X211164Y74966D03*
D228*
X197550Y74991D03*
D224*
X211139Y74991D03*
D245*
X197576Y75016D03*
D246*
X211126Y75016D03*
D245*
X197601Y75041D03*
D437*
X211101Y75041D03*
D244*
X197613Y75066D03*
D226*
X211089Y75066D03*
D244*
X197638Y75091D03*
D228*
X211051Y75091D03*
D241*
X197651Y75116D03*
D243*
X211038Y75116D03*
D241*
X197676Y75141D03*
D230*
X211026Y75141D03*
D236*
X197700Y75166D03*
D239*
X211001Y75166D03*
D236*
X197726Y75191D03*
D240*
X210988Y75191D03*
D234*
X197739Y75216D03*
D232*
X210963Y75216D03*
D234*
X197764Y75241D03*
D233*
X210938Y75241D03*
D286*
X197789Y75266D03*
D233*
X210913Y75266D03*
D286*
X197814Y75291D03*
D285*
X210900Y75291D03*
D288*
X197826Y75316D03*
D286*
X210864Y75316D03*
D290*
X197864Y75341D03*
D288*
X210851Y75341D03*
D291*
X197876Y75366D03*
D289*
X210838Y75366D03*
D291*
X197901Y75391D03*
X210801Y75391D03*
D439*
X197926Y75416D03*
D292*
X210789Y75416D03*
D439*
X197951Y75441D03*
D293*
X210751Y75441D03*
D330*
X197976Y75466D03*
D331*
X210739Y75466D03*
D330*
X198001Y75491D03*
D296*
X210701Y75491D03*
D328*
X198026Y75516D03*
D435*
X210688Y75516D03*
D301*
X198063Y75541D03*
D440*
X210664Y75541D03*
D302*
X198076Y75566D03*
D327*
X210626Y75566D03*
D303*
X198113Y75591D03*
D304*
X210614Y75591D03*
D307*
X198139Y75616D03*
D306*
X210576Y75616D03*
D311*
X198164Y75641D03*
D309*
X210551Y75641D03*
D312*
X198201Y75666D03*
D441*
X210513Y75666D03*
D313*
X198214Y75691D03*
D442*
X210488Y75691D03*
D443*
X198251Y75716D03*
X210451Y75716D03*
D323*
X198276Y75741D03*
X210425Y75741D03*
D318*
X198326Y75766D03*
D321*
X210401Y75766D03*
D338*
X198351Y75791D03*
D319*
X210363Y75791D03*
D444*
X198388Y75816D03*
X210338Y75816D03*
D445*
X198426Y75841D03*
D446*
X210289Y75841D03*
D339*
X198451Y75866D03*
D340*
X210264Y75866D03*
D427*
X198501Y75891D03*
D447*
X210226Y75891D03*
D448*
X198539Y75916D03*
D341*
X210176Y75916D03*
D449*
X198576Y75941D03*
D450*
X210138Y75941D03*
D451*
X198626Y75966D03*
D343*
X210089Y75966D03*
D452*
X198676Y75991D03*
D453*
X210039Y75991D03*
D454*
X198726Y76016D03*
D455*
X209989Y76016D03*
D456*
X198776Y76041D03*
D457*
X209926Y76041D03*
D458*
X198851Y76066D03*
D459*
X209876Y76066D03*
D460*
X198926Y76091D03*
D461*
X209788Y76091D03*
D356*
X199026Y76116D03*
D462*
X209688Y76116D03*
D463*
X204350Y76141D03*
D464*
X204363Y76166D03*
D465*
X204350Y76191D03*
X204350Y76216D03*
D466*
X204363Y76241D03*
D467*
X204350Y76266D03*
D468*
X204363Y76291D03*
D469*
X204351Y76316D03*
D470*
X204363Y76341D03*
X204363Y76366D03*
D471*
X204351Y76391D03*
D472*
X204363Y76416D03*
D473*
X204351Y76441D03*
D474*
X204363Y76466D03*
D475*
X204351Y76491D03*
X204351Y76516D03*
D476*
X204363Y76541D03*
D477*
X204351Y76566D03*
D478*
X204364Y76591D03*
D479*
X204351Y76616D03*
X204351Y76641D03*
D480*
X204363Y76666D03*
D481*
X204351Y76691D03*
D482*
X204363Y76716D03*
D483*
X204351Y76741D03*
X204351Y76766D03*
D484*
X204363Y76791D03*
D485*
X204351Y76816D03*
D486*
X204364Y76841D03*
D487*
X204351Y76866D03*
X204351Y76891D03*
D488*
X204364Y76916D03*
D489*
X204351Y76941D03*
D490*
X204364Y76966D03*
D491*
X204351Y76991D03*
X204351Y77016D03*
D492*
X204364Y77041D03*
D493*
X204351Y77066D03*
D494*
X204364Y77091D03*
D495*
X204351Y77116D03*
X204351Y77141D03*
D496*
X204364Y77166D03*
D497*
X204351Y77191D03*
X204351Y77216D03*
D498*
X204351Y77241D03*
X204351Y77266D03*
D499*
X204363Y77291D03*
D500*
X204351Y77316D03*
X204351Y77341D03*
D501*
X204351Y77366D03*
X204351Y77391D03*
X204351Y77416D03*
D502*
X204351Y77441D03*
X204351Y77466D03*
X204351Y77491D03*
D503*
X204351Y77516D03*
X204351Y77541D03*
X204351Y77566D03*
D504*
X204351Y77591D03*
X204351Y77616D03*
X204351Y77641D03*
D505*
X204351Y77666D03*
X204351Y77691D03*
D506*
X204338Y77716D03*
D504*
X204351Y77741D03*
D507*
X204339Y77766D03*
D503*
X204351Y77791D03*
D508*
X204338Y77816D03*
D502*
X204351Y77841D03*
D501*
X204351Y77866D03*
X204351Y77891D03*
D500*
X204351Y77916D03*
X204351Y77941D03*
D498*
X204351Y77966D03*
D509*
X204363Y77991D03*
D497*
X204351Y78016D03*
D495*
X204351Y78041D03*
X204351Y78066D03*
D493*
X204351Y78091D03*
D491*
X204351Y78116D03*
X204351Y78141D03*
D489*
X204351Y78166D03*
D488*
X204364Y78191D03*
D487*
X204351Y78216D03*
D485*
X204351Y78241D03*
D484*
X204363Y78266D03*
D483*
X204351Y78291D03*
D482*
X204363Y78316D03*
D481*
X204351Y78341D03*
D479*
X204351Y78366D03*
D478*
X204364Y78391D03*
D477*
X204351Y78416D03*
D475*
X204351Y78441D03*
D474*
X204363Y78466D03*
D473*
X204351Y78491D03*
D471*
X204351Y78516D03*
D470*
X204363Y78541D03*
D469*
X204351Y78566D03*
D467*
X204350Y78591D03*
D466*
X204363Y78616D03*
D465*
X204350Y78641D03*
D463*
X204350Y78666D03*
D510*
X204363Y78691D03*
D511*
X204351Y78716D03*
D512*
X204351Y78741D03*
D513*
X204364Y78766D03*
D514*
X204351Y78791D03*
D515*
X204351Y78816D03*
D516*
X204364Y78841D03*
D517*
X204351Y78866D03*
D518*
X204351Y78891D03*
D519*
X204363Y78916D03*
D520*
X204351Y78941D03*
D521*
X204351Y78966D03*
D522*
X204364Y78991D03*
D523*
X204351Y79016D03*
D524*
X204351Y79041D03*
D525*
X204364Y79066D03*
D526*
X204351Y79091D03*
D527*
X204351Y79116D03*
D528*
X204364Y79141D03*
D529*
X204351Y79166D03*
D530*
X204351Y79191D03*
D531*
X204363Y79216D03*
D532*
X204351Y79241D03*
D533*
X204351Y79266D03*
D534*
X204363Y79291D03*
D535*
X204364Y79316D03*
D536*
X204351Y79341D03*
D537*
X204351Y79366D03*
D538*
X204363Y79391D03*
D539*
X204351Y79416D03*
D540*
X204351Y79441D03*
D541*
X204363Y79466D03*
D542*
X204351Y79491D03*
D543*
X204350Y79516D03*
D544*
X204363Y79541D03*
D545*
X204350Y79566D03*
D546*
X204350Y79591D03*
D547*
X204363Y79616D03*
D548*
X204351Y79641D03*
D549*
X204351Y79666D03*
D550*
X204351Y79691D03*
D551*
X204364Y79716D03*
D552*
X204351Y79741D03*
D553*
X204351Y79766D03*
D554*
X204363Y79791D03*
D555*
X204351Y79816D03*
D556*
X204351Y79841D03*
D557*
X204363Y79866D03*
D558*
X204351Y79891D03*
D559*
X204351Y79916D03*
D560*
X204364Y79941D03*
D561*
X204351Y79966D03*
D562*
X204351Y79991D03*
D563*
X204364Y80016D03*
D564*
X204351Y80041D03*
D565*
X204351Y80066D03*
D566*
X204364Y80091D03*
D567*
X204351Y80116D03*
D568*
X204351Y80141D03*
D569*
X204363Y80166D03*
D570*
X204351Y80191D03*
D571*
X204351Y80216D03*
X204351Y80241D03*
D572*
X204351Y80266D03*
D573*
X204351Y80291D03*
X204351Y80316D03*
D574*
X204351Y80341D03*
D575*
X204351Y80366D03*
X204351Y80391D03*
D576*
X204351Y80416D03*
D577*
X204350Y80441D03*
X204350Y80466D03*
D578*
X204350Y80491D03*
D579*
X204350Y80516D03*
X204350Y80541D03*
D580*
X204351Y80566D03*
D581*
X204351Y80591D03*
X204351Y80616D03*
D582*
X204351Y80641D03*
D583*
X204339Y80666D03*
D584*
X204351Y80691D03*
D585*
X204351Y80716D03*
X204351Y80741D03*
D586*
X204351Y80766D03*
D587*
X204351Y80791D03*
X204351Y80816D03*
D588*
X204351Y80841D03*
X204351Y80866D03*
D589*
X204351Y80891D03*
X204351Y80916D03*
D590*
X204351Y80941D03*
X204351Y80966D03*
X204351Y80991D03*
X204351Y81016D03*
D589*
X204351Y81041D03*
X204351Y81066D03*
D588*
X204351Y81091D03*
D591*
X204338Y81116D03*
D587*
X204351Y81141D03*
D586*
X204351Y81166D03*
D585*
X204351Y81191D03*
D592*
X204339Y81216D03*
D584*
X204351Y81241D03*
D582*
X204351Y81266D03*
D581*
X204351Y81291D03*
D580*
X204351Y81316D03*
D579*
X204350Y81341D03*
X204350Y81366D03*
D578*
X204350Y81391D03*
D577*
X204350Y81416D03*
D576*
X204351Y81441D03*
D575*
X204351Y81466D03*
D574*
X204351Y81491D03*
D573*
X204351Y81516D03*
D572*
X204351Y81541D03*
D571*
X204351Y81566D03*
D570*
X204351Y81591D03*
D568*
X204351Y81616D03*
D593*
X204339Y81641D03*
D594*
X195914Y81666D03*
D377*
X204314Y81666D03*
D595*
X212763Y81666D03*
D596*
X195914Y81691D03*
D597*
X204326Y81691D03*
D596*
X212789Y81691D03*
D598*
X195901Y81716D03*
D401*
X204326Y81716D03*
D598*
X212801Y81716D03*
D599*
X195889Y81741D03*
D600*
X204326Y81741D03*
D599*
X212814Y81741D03*
D601*
X195888Y81766D03*
D602*
X204325Y81766D03*
D603*
X212813Y81766D03*
D604*
X195876Y81791D03*
D605*
X204339Y81791D03*
D606*
X212826Y81791D03*
D185*
X195863Y81816D03*
D607*
X204338Y81816D03*
D185*
X212838Y81816D03*
D608*
X195864Y81841D03*
D609*
X204351Y81841D03*
D610*
X212838Y81841D03*
D611*
X195851Y81866D03*
D612*
X204339Y81866D03*
D613*
X212851Y81866D03*
D614*
X195851Y81891D03*
D615*
X204338Y81891D03*
D178*
X212863Y81891D03*
D616*
X195838Y81916D03*
D617*
X204351Y81916D03*
D618*
X212863Y81916D03*
D619*
X195839Y81941D03*
D620*
X204338Y81941D03*
D621*
X212876Y81941D03*
D622*
X195826Y81966D03*
D623*
X204351Y81966D03*
D622*
X212876Y81966D03*
D624*
X195826Y81991D03*
D625*
X204351Y81991D03*
D626*
X212889Y81991D03*
D627*
X195813Y82016D03*
D628*
X204351Y82016D03*
D629*
X212888Y82016D03*
D162*
X195813Y82041D03*
D630*
X204351Y82041D03*
D631*
X212900Y82041D03*
D632*
X195801Y82066D03*
D633*
X204351Y82066D03*
D634*
X212900Y82066D03*
D635*
X195801Y82091D03*
D321*
X204351Y82091D03*
D636*
X212914Y82091D03*
D637*
X195788Y82116D03*
D638*
X204363Y82116D03*
D639*
X212914Y82116D03*
D152*
X195788Y82141D03*
D434*
X204363Y82141D03*
D640*
X212926Y82141D03*
D641*
X195775Y82166D03*
D435*
X204363Y82166D03*
D146*
X212926Y82166D03*
D145*
X195776Y82191D03*
D332*
X204363Y82191D03*
D642*
X212938Y82191D03*
D643*
X195764Y82216D03*
D234*
X204364Y82216D03*
D644*
X212938Y82216D03*
D137*
X195763Y82241D03*
D243*
X204363Y82241D03*
D645*
X212951Y82241D03*
D646*
X195751Y82266D03*
D252*
X204363Y82266D03*
D647*
X212963Y82266D03*
D131*
X195751Y82291D03*
D258*
X204363Y82291D03*
D648*
X212963Y82291D03*
D649*
X195739Y82316D03*
D213*
X204363Y82316D03*
D650*
X212976Y82316D03*
D651*
X195738Y82341D03*
D206*
X204364Y82341D03*
D652*
X212976Y82341D03*
D122*
X195726Y82366D03*
D282*
X204364Y82366D03*
D122*
X212976Y82366D03*
D119*
X195726Y82391D03*
D653*
X204363Y82391D03*
D654*
X212989Y82391D03*
D116*
X195714Y82416D03*
D655*
X204363Y82416D03*
D116*
X212989Y82416D03*
D113*
X195714Y82441D03*
D656*
X204363Y82441D03*
D657*
X213000Y82441D03*
D110*
X195701Y82466D03*
D658*
X204363Y82466D03*
D110*
X213000Y82466D03*
D107*
X195701Y82491D03*
D659*
X204363Y82491D03*
D660*
X213013Y82491D03*
D106*
X195688Y82516D03*
D661*
X204363Y82516D03*
D662*
X213014Y82516D03*
D104*
X195689Y82541D03*
D663*
X204363Y82541D03*
D664*
X213026Y82541D03*
D665*
X195676Y82566D03*
D666*
X204351Y82566D03*
D665*
X213026Y82566D03*
D667*
X195676Y82591D03*
D668*
X204364Y82591D03*
D669*
X213038Y82591D03*
D670*
X195663Y82616D03*
D671*
X204364Y82616D03*
D672*
X213038Y82616D03*
D673*
X195663Y82641D03*
D674*
X204364Y82641D03*
D96*
X213038Y82641D03*
D675*
X195651Y82666D03*
D676*
X204364Y82666D03*
D677*
X213051Y82666D03*
D678*
X195650Y82691D03*
D679*
X204351Y82691D03*
D93*
X213051Y82691D03*
D680*
X195638Y82716D03*
D681*
X204351Y82716D03*
D682*
X213063Y82716D03*
D90*
X195638Y82741D03*
D683*
X204351Y82741D03*
D90*
X213063Y82741D03*
D684*
X195626Y82766D03*
D685*
X204351Y82766D03*
D686*
X213076Y82766D03*
D86*
X195625Y82791D03*
D685*
X204351Y82791D03*
D86*
X213076Y82791D03*
D687*
X195613Y82816D03*
D688*
X204338Y82816D03*
D689*
X213089Y82816D03*
D82*
X195614Y82841D03*
D690*
X204351Y82841D03*
D691*
X213088Y82841D03*
D80*
X195614Y82866D03*
D690*
X204351Y82866D03*
D692*
X213088Y82866D03*
D693*
X195601Y82891D03*
D694*
X204338Y82891D03*
D693*
X213100Y82891D03*
D77*
X195601Y82916D03*
D695*
X204351Y82916D03*
D696*
X213101Y82916D03*
D697*
X195588Y82941D03*
D695*
X204351Y82941D03*
D698*
X213114Y82941D03*
D74*
X195589Y82966D03*
D695*
X204351Y82966D03*
D74*
X213114Y82966D03*
D699*
X195576Y82991D03*
D700*
X204351Y82991D03*
D699*
X213126Y82991D03*
D701*
X195576Y83016D03*
D700*
X204351Y83016D03*
D71*
X213126Y83016D03*
D702*
X195563Y83041D03*
D700*
X204351Y83041D03*
D703*
X213138Y83041D03*
D67*
X195564Y83066D03*
D700*
X204351Y83066D03*
D704*
X213138Y83066D03*
D705*
X195551Y83091D03*
D596*
X204339Y83091D03*
D706*
X213151Y83091D03*
D63*
X195551Y83116D03*
D707*
X204351Y83116D03*
D63*
X213151Y83116D03*
D708*
X195538Y83141D03*
D707*
X204351Y83141D03*
D709*
X213163Y83141D03*
D59*
X195538Y83166D03*
D707*
X204351Y83166D03*
D59*
X213163Y83166D03*
D710*
X195526Y83191D03*
D711*
X204351Y83191D03*
D56*
X213163Y83191D03*
D55*
X195525Y83216D03*
D711*
X204351Y83216D03*
D55*
X213176Y83216D03*
D712*
X195514Y83241D03*
D711*
X204351Y83241D03*
D53*
X213176Y83241D03*
D177*
X195513Y83266D03*
D711*
X204351Y83266D03*
D713*
X213188Y83266D03*
D49*
X195501Y83291D03*
D714*
X204338Y83291D03*
D715*
X213188Y83291D03*
D716*
X195501Y83316D03*
D717*
X204351Y83316D03*
D171*
X213200Y83316D03*
D718*
X195501Y83341D03*
D717*
X204351Y83341D03*
D44*
X213201Y83341D03*
D719*
X195501Y83366D03*
D717*
X204351Y83366D03*
D43*
X213214Y83366D03*
D38*
X195488Y83391D03*
D717*
X204351Y83391D03*
D41*
X213201Y83391D03*
D720*
X195489Y83416D03*
D721*
X204351Y83416D03*
D720*
X213214Y83416D03*
D722*
X195476Y83441D03*
D721*
X204351Y83441D03*
D723*
X213213Y83441D03*
D724*
X195476Y83466D03*
D721*
X204351Y83466D03*
D35*
X213213Y83466D03*
D725*
X195463Y83491D03*
D721*
X204351Y83491D03*
D33*
X213226Y83491D03*
D726*
X195464Y83516D03*
D721*
X204351Y83516D03*
D31*
X213226Y83516D03*
D140*
X195451Y83541D03*
D727*
X204351Y83541D03*
D30*
X213239Y83541D03*
D728*
X195451Y83566D03*
D727*
X204351Y83566D03*
D729*
X213239Y83566D03*
D133*
X195438Y83591D03*
D727*
X204351Y83591D03*
D730*
X213251Y83591D03*
D130*
X195425Y83616D03*
D727*
X204351Y83616D03*
D731*
X213251Y83616D03*
D23*
X195426Y83641D03*
D732*
X204363Y83641D03*
D733*
X213264Y83641D03*
D126*
X195413Y83666D03*
D606*
X204351Y83666D03*
D21*
X213276Y83666D03*
D734*
X195426Y83691D03*
D606*
X204351Y83691D03*
D735*
X213276Y83691D03*
D736*
X195414Y83716D03*
D606*
X204351Y83716D03*
D121*
X213276Y83716D03*
D737*
X195401Y83741D03*
D606*
X204351Y83741D03*
D15*
X213288Y83741D03*
D13*
X195401Y83766D03*
D738*
X204364Y83766D03*
D739*
X213289Y83766D03*
D112*
X195388Y83791D03*
D740*
X204351Y83791D03*
D741*
X213301Y83791D03*
D742*
X195376Y83816D03*
D740*
X204351Y83816D03*
D743*
X213314Y83816D03*
D740*
X204351Y83841D03*
X204351Y83866D03*
D185*
X204363Y83891D03*
D744*
X204351Y83916D03*
X204351Y83941D03*
X204351Y83966D03*
X204351Y83991D03*
D608*
X204364Y84016D03*
D745*
X204351Y84041D03*
X204351Y84066D03*
X204351Y84091D03*
X204351Y84116D03*
D746*
X204363Y84141D03*
D747*
X204351Y84166D03*
X204351Y84191D03*
X204351Y84216D03*
X204351Y84241D03*
D181*
X204364Y84266D03*
X204364Y84291D03*
D614*
X204351Y84316D03*
X204351Y84341D03*
X204351Y84366D03*
D748*
X204363Y84391D03*
X204363Y84416D03*
D749*
X204351Y84441D03*
X204351Y84466D03*
X204351Y84491D03*
D750*
X204364Y84516D03*
X204364Y84541D03*
D172*
X204351Y84566D03*
X204351Y84591D03*
X204351Y84616D03*
D751*
X204363Y84641D03*
X204363Y84666D03*
X204363Y84691D03*
D752*
X204351Y84716D03*
X204351Y84741D03*
D169*
X204364Y84766D03*
X204364Y84791D03*
X204364Y84816D03*
D753*
X204351Y84841D03*
X204351Y84866D03*
D754*
X204363Y84891D03*
X204363Y84916D03*
X204363Y84941D03*
D755*
X204351Y84966D03*
X204351Y84991D03*
D756*
X204363Y85016D03*
X204363Y85041D03*
X204363Y85066D03*
X204363Y85091D03*
D164*
X204351Y85116D03*
D627*
X204363Y85141D03*
X204363Y85166D03*
X204363Y85191D03*
X204363Y85216D03*
D757*
X204351Y85241D03*
X204351Y85266D03*
D163*
X204364Y85291D03*
X204364Y85316D03*
X204364Y85341D03*
X204364Y85366D03*
D758*
X204351Y85391D03*
D759*
X204363Y85416D03*
X204363Y85441D03*
X204363Y85466D03*
X204363Y85491D03*
D760*
X204351Y85516D03*
D761*
X204363Y85541D03*
X204363Y85566D03*
X204363Y85591D03*
X204363Y85616D03*
D157*
X204351Y85641D03*
X204351Y85666D03*
D762*
X204363Y85691D03*
X204363Y85716D03*
X204363Y85741D03*
D153*
X204351Y85766D03*
X204351Y85791D03*
D637*
X204363Y85816D03*
X204363Y85841D03*
X204363Y85866D03*
D763*
X204351Y85891D03*
X204351Y85916D03*
X204351Y85941D03*
D152*
X204364Y85966D03*
X204364Y85991D03*
D764*
X204351Y86016D03*
X204351Y86041D03*
X204351Y86066D03*
D765*
X204363Y86091D03*
X204363Y86116D03*
D641*
X204351Y86141D03*
X204351Y86166D03*
X204351Y86191D03*
X204351Y86216D03*
D766*
X204363Y86241D03*
D145*
X204351Y86266D03*
X204351Y86291D03*
X204351Y86316D03*
X204351Y86341D03*
D642*
X204363Y86366D03*
D138*
X204351Y86391D03*
X204351Y86416D03*
X204351Y86441D03*
X204351Y86466D03*
D643*
X204338Y86491D03*
D767*
X204351Y86516D03*
X204351Y86541D03*
X204351Y86566D03*
D768*
X204351Y86591D03*
X204351Y86616D03*
X204351Y86641D03*
D769*
X204363Y86666D03*
D770*
X204363Y86691D03*
D131*
X204376Y86716D03*
D771*
X204389Y86741D03*
D650*
X204401Y86766D03*
D772*
X203964Y86791D03*
D773*
X149994Y18421D03*
D774*
X174654Y18421D03*
D775*
X149994Y18601D03*
D776*
X173574Y18601D03*
D777*
X150264Y18781D03*
D778*
X173394Y18781D03*
D779*
X151254Y18961D03*
D780*
X173124Y18961D03*
D781*
X152064Y19141D03*
D782*
X180234Y19141D03*
D783*
X172044Y19321D03*
D784*
X172044Y19501D03*
D785*
X171954Y19681D03*
D786*
X171864Y19861D03*
D787*
X171954Y20041D03*
D788*
X171774Y20221D03*
D789*
X171864Y20401D03*
D790*
X171774Y20581D03*
D791*
X171774Y20761D03*
D792*
X171774Y20941D03*
D793*
X171684Y21121D03*
D794*
X171774Y21301D03*
D795*
X171684Y21481D03*
D796*
X171774Y21661D03*
D797*
X171774Y21841D03*
X171774Y22021D03*
D798*
X171774Y22201D03*
D799*
X171864Y22381D03*
X171864Y22561D03*
D800*
X171954Y22741D03*
D801*
X171864Y22921D03*
D802*
X171954Y23101D03*
D803*
X171864Y23281D03*
D804*
X171954Y23461D03*
D805*
X172044Y23641D03*
X172044Y23821D03*
D806*
X172134Y24001D03*
D807*
X153684Y24181D03*
D808*
X184554Y24181D03*
D809*
X153234Y24361D03*
D810*
X185094Y24361D03*
D811*
X152874Y24541D03*
D812*
X185544Y24541D03*
D813*
X152604Y24721D03*
D814*
X185724Y24721D03*
D815*
X152424Y24901D03*
D816*
X186084Y24901D03*
D778*
X152154Y25081D03*
D817*
X186354Y25081D03*
D818*
X151974Y25261D03*
D819*
X186534Y25261D03*
D820*
X151884Y25441D03*
D819*
X186714Y25441D03*
D821*
X151704Y25621D03*
D822*
X186894Y25621D03*
D823*
X151524Y25801D03*
D824*
X187164Y25801D03*
D825*
X151434Y25981D03*
D826*
X187434Y25981D03*
D827*
X151344Y26161D03*
D828*
X187524Y26161D03*
D829*
X151164Y26341D03*
D830*
X187794Y26341D03*
D831*
X151074Y26521D03*
D832*
X187884Y26521D03*
D833*
X150984Y26701D03*
D832*
X188064Y26701D03*
D834*
X150894Y26881D03*
D835*
X188154Y26881D03*
D836*
X150894Y27061D03*
D835*
X188334Y27061D03*
D837*
X150804Y27241D03*
D838*
X188424Y27241D03*
D839*
X150714Y27421D03*
D840*
X188694Y27421D03*
D841*
X150714Y27601D03*
D840*
X188874Y27601D03*
D841*
X150714Y27781D03*
D840*
X188874Y27781D03*
D842*
X150714Y27961D03*
D843*
X188964Y27961D03*
D844*
X150624Y28141D03*
X181584Y28141D03*
D845*
X150714Y28321D03*
D842*
X181674Y28321D03*
D845*
X150714Y28501D03*
D842*
X181674Y28501D03*
D845*
X150714Y28681D03*
D846*
X165924Y28681D03*
D847*
X181764Y28681D03*
D845*
X150894Y28861D03*
D848*
X166284Y28861D03*
D841*
X181674Y28861D03*
D845*
X151074Y29041D03*
D847*
X165924Y29041D03*
D839*
X181674Y29041D03*
D849*
X166824Y29221D03*
X166824Y29401D03*
X167004Y29581D03*
X167184Y29761D03*
D850*
X167364Y29941D03*
X167544Y30121D03*
D851*
X167724Y30301D03*
X167904Y30481D03*
D852*
X168174Y30661D03*
D853*
X168264Y30841D03*
D854*
X168534Y31021D03*
D855*
X168894Y31201D03*
D856*
X168984Y31381D03*
D857*
X169344Y31561D03*
D858*
X153504Y31741D03*
D814*
X174744Y31741D03*
D859*
X153144Y31921D03*
D860*
X166374Y31921D03*
D833*
X182844Y31921D03*
D861*
X152874Y32101D03*
D862*
X166374Y32101D03*
D834*
X183114Y32101D03*
D846*
X152604Y32281D03*
D863*
X166284Y32281D03*
D864*
X183384Y32281D03*
D846*
X152424Y32461D03*
D848*
X166284Y32461D03*
D837*
X183564Y32461D03*
D865*
X152334Y32641D03*
D866*
X166284Y32641D03*
D837*
X183744Y32641D03*
D867*
X152154Y32821D03*
D858*
X166284Y32821D03*
D830*
X191394Y32821D03*
D868*
X152064Y33001D03*
D869*
X166284Y33001D03*
D830*
X191574Y33001D03*
D870*
X151974Y33181D03*
D859*
X166284Y33181D03*
D830*
X191754Y33181D03*
D871*
X151884Y33361D03*
D872*
X166284Y33361D03*
D832*
X191844Y33361D03*
D871*
X151704Y33541D03*
D846*
X166284Y33541D03*
D832*
X192024Y33541D03*
D871*
X151704Y33721D03*
D873*
X166284Y33721D03*
D835*
X192114Y33721D03*
D874*
X151614Y33901D03*
D875*
X158634Y33901D03*
D873*
X166284Y33901D03*
D876*
X173844Y33901D03*
D835*
X192294Y33901D03*
D874*
X151434Y34081D03*
D877*
X158634Y34081D03*
D868*
X166284Y34081D03*
D877*
X173754Y34081D03*
D832*
X192384Y34081D03*
D878*
X151344Y34261D03*
D879*
X158634Y34261D03*
D871*
X166284Y34261D03*
D879*
X173754Y34261D03*
D830*
X192474Y34261D03*
D878*
X151344Y34441D03*
D880*
X158544Y34441D03*
D871*
X166284Y34441D03*
D880*
X173844Y34441D03*
D832*
X192564Y34441D03*
D881*
X151254Y34621D03*
D882*
X158634Y34621D03*
D878*
X166284Y34621D03*
D883*
X173844Y34621D03*
D830*
X192654Y34621D03*
D881*
X151254Y34801D03*
D882*
X158634Y34801D03*
D878*
X166284Y34801D03*
D882*
X173754Y34801D03*
D830*
X192654Y34801D03*
D881*
X151254Y34981D03*
D884*
X158634Y34981D03*
D777*
X166284Y34981D03*
D884*
X173754Y34981D03*
D830*
X192834Y34981D03*
D881*
X151254Y35161D03*
D884*
X158634Y35161D03*
D777*
X166284Y35161D03*
D885*
X173844Y35161D03*
D830*
X192834Y35161D03*
D777*
X151164Y35341D03*
D886*
X158634Y35341D03*
D777*
X166284Y35341D03*
D886*
X173754Y35341D03*
D830*
X193014Y35341D03*
D777*
X151164Y35521D03*
D886*
X158634Y35521D03*
D887*
X166284Y35521D03*
D888*
X173844Y35521D03*
D830*
X193014Y35521D03*
D777*
X151164Y35701D03*
D889*
X158634Y35701D03*
D887*
X166284Y35701D03*
D889*
X173754Y35701D03*
D828*
X193104Y35701D03*
D890*
X151074Y35881D03*
D891*
X158724Y35881D03*
D887*
X166284Y35881D03*
D889*
X173754Y35881D03*
D826*
X193194Y35881D03*
D887*
X151164Y36061D03*
D891*
X158724Y36061D03*
D892*
X166194Y36061D03*
D893*
X173754Y36061D03*
D828*
X193284Y36061D03*
D887*
X151164Y36241D03*
D893*
X158634Y36241D03*
D894*
X166284Y36241D03*
D893*
X173754Y36241D03*
D826*
X193374Y36241D03*
D887*
X151164Y36421D03*
D893*
X158634Y36421D03*
D894*
X166284Y36421D03*
D893*
X173754Y36421D03*
D824*
X193464Y36421D03*
D892*
X151074Y36601D03*
D893*
X158634Y36601D03*
D894*
X166284Y36601D03*
D895*
X173844Y36601D03*
D824*
X193464Y36601D03*
D894*
X151164Y36781D03*
D895*
X158724Y36781D03*
D775*
X166194Y36781D03*
D896*
X173754Y36781D03*
D822*
X193554Y36781D03*
D894*
X151164Y36961D03*
D895*
X158724Y36961D03*
D775*
X166194Y36961D03*
D896*
X173754Y36961D03*
D822*
X193554Y36961D03*
D894*
X151164Y37141D03*
D896*
X158634Y37141D03*
D897*
X166284Y37141D03*
D896*
X173754Y37141D03*
D898*
X193644Y37141D03*
D894*
X151164Y37321D03*
D896*
X158634Y37321D03*
D897*
X166284Y37321D03*
D896*
X173754Y37321D03*
D819*
X193734Y37321D03*
D775*
X151254Y37501D03*
D896*
X158634Y37501D03*
D897*
X166284Y37501D03*
D896*
X173754Y37501D03*
D819*
X193734Y37501D03*
D897*
X151344Y37681D03*
D896*
X158634Y37681D03*
D897*
X166284Y37681D03*
D896*
X173754Y37681D03*
D899*
X193824Y37681D03*
D897*
X151344Y37861D03*
D896*
X158634Y37861D03*
D897*
X166284Y37861D03*
D896*
X173754Y37861D03*
D899*
X193824Y37861D03*
D897*
X151344Y38041D03*
D896*
X158634Y38041D03*
D897*
X166284Y38041D03*
D896*
X173754Y38041D03*
X180954Y38041D03*
D900*
X196614Y38041D03*
D896*
X151434Y38221D03*
X158634Y38221D03*
D897*
X166284Y38221D03*
D896*
X173754Y38221D03*
D895*
X180864Y38221D03*
D901*
X196704Y38221D03*
D896*
X151434Y38401D03*
X158634Y38401D03*
D897*
X166284Y38401D03*
D896*
X173754Y38401D03*
D895*
X180864Y38401D03*
D900*
X196794Y38401D03*
D896*
X151434Y38581D03*
D895*
X158724Y38581D03*
D897*
X166284Y38581D03*
D896*
X173754Y38581D03*
D893*
X180774Y38581D03*
D900*
X196974Y38581D03*
D893*
X151614Y38761D03*
D895*
X158724Y38761D03*
D897*
X166284Y38761D03*
D896*
X173754Y38761D03*
D893*
X180774Y38761D03*
D900*
X196974Y38761D03*
D895*
X151704Y38941D03*
X158724Y38941D03*
D897*
X166284Y38941D03*
D896*
X173754Y38941D03*
D891*
X180684Y38941D03*
D900*
X197154Y38941D03*
D895*
X151704Y39121D03*
X158724Y39121D03*
D775*
X166194Y39121D03*
D893*
X173754Y39121D03*
X180594Y39121D03*
D901*
X197244Y39121D03*
D891*
X151884Y39301D03*
D893*
X158634Y39301D03*
D894*
X166284Y39301D03*
D893*
X173754Y39301D03*
D889*
X180414Y39301D03*
D900*
X197334Y39301D03*
D891*
X151884Y39481D03*
X158724Y39481D03*
D894*
X166284Y39481D03*
D893*
X173754Y39481D03*
D889*
X180414Y39481D03*
D901*
X197424Y39481D03*
D891*
X152064Y39661D03*
X158724Y39661D03*
D894*
X166284Y39661D03*
D891*
X173664Y39661D03*
D888*
X180324Y39661D03*
D900*
X197514Y39661D03*
D889*
X152154Y39841D03*
D891*
X158724Y39841D03*
D892*
X166374Y39841D03*
D889*
X173754Y39841D03*
D886*
X180234Y39841D03*
D900*
X197694Y39841D03*
D886*
X152334Y40021D03*
D888*
X158724Y40021D03*
D887*
X166284Y40021D03*
D889*
X173754Y40021D03*
D885*
X179964Y40021D03*
D900*
X197694Y40021D03*
D888*
X152424Y40201D03*
X158724Y40201D03*
D887*
X166284Y40201D03*
D886*
X173754Y40201D03*
D885*
X179784Y40201D03*
D900*
X197874Y40201D03*
D885*
X152604Y40381D03*
X158724Y40381D03*
D887*
X166284Y40381D03*
D886*
X173754Y40381D03*
D884*
X179694Y40381D03*
D902*
X197964Y40381D03*
D884*
X152694Y40561D03*
D885*
X158724Y40561D03*
D777*
X166284Y40561D03*
D884*
X173754Y40561D03*
D882*
X179514Y40561D03*
D900*
X198054Y40561D03*
D903*
X152964Y40741D03*
X158724Y40741D03*
D777*
X166284Y40741D03*
D903*
X173664Y40741D03*
D882*
X179334Y40741D03*
D900*
X198234Y40741D03*
D883*
X153144Y40921D03*
D882*
X158814Y40921D03*
D777*
X166284Y40921D03*
D882*
X173754Y40921D03*
D773*
X179154Y40921D03*
D900*
X198234Y40921D03*
D773*
X153414Y41101D03*
X158634Y41101D03*
D878*
X166284Y41101D03*
D773*
X173754Y41101D03*
D880*
X178884Y41101D03*
D900*
X198414Y41101D03*
D904*
X153684Y41281D03*
X158724Y41281D03*
D878*
X166284Y41281D03*
D879*
X173754Y41281D03*
D904*
X178704Y41281D03*
D902*
X198504Y41281D03*
D904*
X153864Y41461D03*
X158724Y41461D03*
D871*
X166284Y41461D03*
D905*
X173754Y41461D03*
D904*
X178524Y41461D03*
D900*
X198594Y41461D03*
D906*
X154224Y41641D03*
D907*
X158724Y41641D03*
D870*
X166374Y41641D03*
D875*
X173754Y41641D03*
D877*
X178074Y41641D03*
D900*
X198774Y41641D03*
D906*
X154224Y41821D03*
D908*
X158724Y41821D03*
D868*
X166284Y41821D03*
D908*
X173664Y41821D03*
D907*
X177984Y41821D03*
D900*
X198774Y41821D03*
D905*
X154314Y42001D03*
D873*
X166284Y42001D03*
D907*
X177804Y42001D03*
D909*
X191394Y42001D03*
D904*
X154404Y42181D03*
D846*
X166284Y42181D03*
D877*
X177714Y42181D03*
D909*
X191394Y42181D03*
D880*
X154584Y42361D03*
D872*
X166284Y42361D03*
D905*
X177714Y42361D03*
D909*
X191574Y42361D03*
D880*
X154584Y42541D03*
D774*
X166194Y42541D03*
D904*
X177624Y42541D03*
D910*
X191664Y42541D03*
D882*
X154674Y42721D03*
D869*
X166284Y42721D03*
D880*
X177444Y42721D03*
D909*
X191754Y42721D03*
D884*
X154854Y42901D03*
D858*
X166284Y42901D03*
D882*
X177354Y42901D03*
D909*
X191934Y42901D03*
D885*
X154944Y43081D03*
D848*
X166284Y43081D03*
D903*
X177264Y43081D03*
D909*
X191934Y43081D03*
D888*
X155124Y43261D03*
D910*
X166284Y43261D03*
D885*
X177084Y43261D03*
D909*
X192114Y43261D03*
D893*
X155214Y43441D03*
D781*
X166284Y43441D03*
D888*
X176904Y43441D03*
D909*
X192294Y43441D03*
D894*
X155664Y43621D03*
D845*
X166374Y43621D03*
D896*
X176454Y43621D03*
D909*
X192294Y43621D03*
D911*
X165924Y43801D03*
D909*
X192474Y43801D03*
D911*
X165924Y43981D03*
D910*
X192564Y43981D03*
D911*
X165924Y44161D03*
D909*
X192654Y44161D03*
D911*
X165924Y44341D03*
D910*
X192744Y44341D03*
D911*
X165924Y44521D03*
D910*
X192924Y44521D03*
D911*
X165924Y44701D03*
D909*
X193014Y44701D03*
D911*
X165924Y44881D03*
D910*
X193104Y44881D03*
D911*
X165924Y45061D03*
D909*
X193194Y45061D03*
D912*
X165834Y45241D03*
D910*
X193284Y45241D03*
D901*
X165924Y45421D03*
D909*
X193374Y45421D03*
D901*
X165924Y45601D03*
D910*
X193464Y45601D03*
D900*
X165834Y45781D03*
D910*
X193644Y45781D03*
D900*
X165834Y45961D03*
X201294Y45961D03*
D913*
X165834Y46141D03*
D901*
X201384Y46141D03*
D914*
X165744Y46321D03*
D900*
X201474Y46321D03*
D914*
X165744Y46501D03*
D900*
X201654Y46501D03*
D914*
X165744Y46681D03*
D900*
X201654Y46681D03*
D915*
X165654Y46861D03*
D900*
X201834Y46861D03*
D916*
X165654Y47041D03*
D901*
X201924Y47041D03*
D916*
X165654Y47221D03*
D900*
X202014Y47221D03*
D917*
X165654Y47401D03*
D901*
X202104Y47401D03*
D918*
X165474Y47581D03*
D900*
X202194Y47581D03*
D918*
X165474Y47761D03*
D901*
X202284Y47761D03*
D919*
X165474Y47941D03*
D900*
X202374Y47941D03*
D920*
X165384Y48121D03*
D900*
X202554Y48121D03*
D921*
X165294Y48301D03*
D901*
X202644Y48301D03*
D922*
X165114Y48481D03*
D900*
X202734Y48481D03*
D923*
X165114Y48661D03*
D900*
X202914Y48661D03*
D924*
X164844Y48841D03*
D901*
X203004Y48841D03*
D925*
X164754Y49021D03*
D900*
X203094Y49021D03*
D926*
X164574Y49201D03*
D901*
X203184Y49201D03*
D815*
X163944Y49381D03*
D900*
X203274Y49381D03*
D927*
X164034Y49561D03*
D901*
X203364Y49561D03*
D928*
X164124Y49741D03*
D900*
X203454Y49741D03*
D928*
X164124Y49921D03*
D900*
X203634Y49921D03*
D929*
X164304Y50101D03*
D901*
X203724Y50101D03*
D929*
X164304Y50281D03*
D901*
X203724Y50281D03*
D820*
X164484Y50461D03*
D901*
X203904Y50461D03*
D930*
X164574Y50641D03*
D900*
X203994Y50641D03*
D776*
X164754Y50821D03*
D900*
X204174Y50821D03*
D931*
X164844Y51001D03*
D900*
X204174Y51001D03*
D823*
X165024Y51181D03*
D901*
X204264Y51181D03*
D932*
X165294Y51361D03*
D901*
X204444Y51361D03*
D932*
X165294Y51541D03*
D900*
X204534Y51541D03*
D933*
X165654Y51721D03*
D900*
X204714Y51721D03*
D864*
X165924Y51901D03*
D901*
X204804Y51901D03*
D839*
X166194Y52081D03*
D901*
X204804Y52081D03*
D839*
X166194Y52261D03*
D901*
X204984Y52261D03*
D934*
X166104Y52441D03*
D900*
X205074Y52441D03*
D934*
X166104Y52621D03*
D901*
X205164Y52621D03*
D839*
X166014Y52801D03*
D900*
X205254Y52801D03*
D934*
X165924Y52981D03*
D900*
X205434Y52981D03*
D934*
X165924Y53161D03*
D901*
X205524Y53161D03*
D934*
X165924Y53341D03*
D901*
X205524Y53341D03*
D841*
X165834Y53521D03*
D901*
X205704Y53521D03*
D841*
X165834Y53701D03*
D900*
X205794Y53701D03*
D841*
X165834Y53881D03*
D901*
X205884Y53881D03*
D841*
X165834Y54061D03*
D901*
X206064Y54061D03*
D847*
X165744Y54241D03*
D901*
X206064Y54241D03*
D842*
X165654Y54421D03*
D901*
X206244Y54421D03*
D842*
X165654Y54601D03*
D901*
X206424Y54601D03*
D845*
X165654Y54781D03*
D900*
X206514Y54781D03*
D935*
X165564Y54961D03*
X165564Y55141D03*
D860*
X165474Y55321D03*
D936*
X165384Y55501D03*
X165384Y55681D03*
D937*
X165384Y55861D03*
X165384Y56041D03*
X165384Y56221D03*
D862*
X165294Y56401D03*
D938*
X165294Y56581D03*
D939*
X165204Y56761D03*
D940*
X165114Y56941D03*
X165114Y57121D03*
D848*
X165024Y57301D03*
D941*
X165114Y57481D03*
D866*
X165024Y57661D03*
D779*
X165114Y57841D03*
D869*
X165024Y58021D03*
D859*
X164844Y58201D03*
X164844Y58381D03*
D861*
X164754Y58561D03*
D846*
X164664Y58741D03*
D873*
X164664Y58921D03*
D868*
X164484Y59101D03*
D870*
X164574Y59281D03*
D874*
X164394Y59461D03*
D878*
X164304Y59641D03*
D777*
X164124Y59821D03*
D890*
X164034Y60001D03*
D887*
X163944Y60181D03*
D894*
X163764Y60361D03*
D897*
X163584Y60541D03*
D895*
X163404Y60721D03*
X163224Y60901D03*
D891*
X163044Y61081D03*
D889*
X162954Y61261D03*
D886*
X162594Y61441D03*
D885*
X162504Y61621D03*
D903*
X162144Y61801D03*
D883*
X161964Y61981D03*
D879*
X161694Y62161D03*
D906*
X161424Y62341D03*
D907*
X161244Y62521D03*
D942*
X161064Y62701D03*
D943*
X161900Y80645D03*
X142900Y80645D03*
D944*
X39800Y120650D03*
X61800Y130150D03*
X61800Y111150D03*
D945*
X188650Y101600D03*
X188650Y114300D03*
X188650Y127000D03*
X188650Y139700D03*
X116150Y139700D03*
X116150Y127000D03*
X116150Y114300D03*
X116150Y101600D03*
D946*
X209550Y184150D03*
X57150Y184150D03*
X19050Y184150D03*
X95250Y184150D03*
X133350Y184150D03*
X171450Y184150D03*
D947*
X103450Y139700D02*
X95250Y147900D01*
X95250Y158750D02*
X95250Y184150D01*
X95250Y158750D02*
X95250Y147900D01*
X103450Y139700D02*
X116150Y139700D01*
D948*
X95250Y158750D02*
X95250Y184150D01*
X171450Y184150D02*
X171450Y158750D01*
D947*
X171440Y158740D01*
X116150Y114300D02*
X95250Y114300D01*
X171440Y158740D02*
X171450Y158750D01*
D949*
X171450Y158750D03*
X95250Y114300D03*
D947*
X95885Y116146D02*
X101250Y114300D01*
X95885Y116146D02*
X95250Y114300D01*
X95885Y112454D02*
X101250Y114300D01*
X95885Y112454D02*
X95250Y114300D01*
X146360Y98115D02*
X146360Y84105D01*
X146360Y98115D02*
X142875Y101600D01*
X146360Y84105D02*
X142900Y80645D01*
D950*
X136525Y74675D02*
X125095Y77470D01*
X125095Y83820D02*
X136525Y86620D01*
X142240Y86360D02*
X145415Y89535D01*
D947*
X142875Y101600D02*
X116150Y101600D01*
D948*
X111125Y80645D02*
X142900Y80645D01*
X19050Y101600D02*
X19050Y184150D01*
X40005Y80645D02*
X111125Y80645D01*
X40005Y80645D02*
X19050Y101600D01*
D947*
X158440Y84105D02*
X161900Y80645D01*
X158440Y84105D02*
X158440Y103505D01*
D948*
X77470Y130150D02*
X61800Y130150D01*
D951*
X165100Y133350D03*
X152400Y120650D03*
X139700Y120650D03*
D949*
X77470Y130150D03*
D950*
X159385Y89535D02*
X162560Y86360D01*
D947*
X163250Y139700D02*
X188650Y139700D01*
X158440Y103505D02*
X147010Y114935D01*
X158440Y103505D02*
X167005Y112070D01*
D951*
X165100Y120650D03*
X152400Y133350D03*
D950*
X170815Y135255D02*
X173990Y138430D01*
X175260Y139600D02*
X172085Y142775D01*
X160020Y109220D02*
X156845Y109220D01*
D951*
X139700Y133350D03*
D948*
X57150Y184150D02*
X57125Y184125D01*
X61800Y154100D02*
X61800Y130150D01*
X57150Y158750D02*
X57150Y184150D01*
X57150Y158750D02*
X61800Y154100D01*
D950*
X52684Y41261D02*
X52674Y41261D01*
X57674Y41261D02*
X57684Y41261D01*
X57674Y36261D02*
X46424Y36261D01*
X57674Y36261D02*
X57674Y25011D01*
X57672Y24891D01*
X57666Y24771D01*
X57657Y24651D01*
X57643Y24531D01*
X57626Y24413D01*
X57605Y24294D01*
X57580Y24177D01*
X57551Y24060D01*
X57519Y23944D01*
X57483Y23829D01*
X57443Y23716D01*
X57400Y23604D01*
X57353Y23493D01*
X57303Y23384D01*
X57249Y23276D01*
X57191Y23171D01*
X57131Y23067D01*
X57067Y22965D01*
X57000Y22866D01*
X56929Y22768D01*
X56856Y22673D01*
X56779Y22580D01*
X56700Y22490D01*
X56618Y22402D01*
X56533Y22317D01*
X56445Y22235D01*
X56355Y22156D01*
X56262Y22079D01*
X56167Y22006D01*
X56069Y21935D01*
X55970Y21868D01*
X55868Y21804D01*
X55764Y21744D01*
X55659Y21686D01*
X55551Y21632D01*
X55442Y21582D01*
X55331Y21535D01*
X55219Y21492D01*
X55106Y21452D01*
X54991Y21416D01*
X54875Y21384D01*
X54758Y21355D01*
X54641Y21330D01*
X54522Y21309D01*
X54404Y21292D01*
X54284Y21278D01*
X54164Y21269D01*
X54044Y21263D01*
X53924Y21261D01*
X47674Y21261D01*
X46424Y36261D02*
X47674Y41261D01*
X46424Y36261D02*
X42674Y21261D01*
X42674Y36261D02*
X46424Y36261D01*
X37674Y36261D02*
X22674Y36261D01*
X37674Y36261D02*
X37674Y33761D01*
X37672Y33621D01*
X37666Y33481D01*
X37656Y33341D01*
X37643Y33201D01*
X37625Y33062D01*
X37603Y32923D01*
X37578Y32786D01*
X37549Y32648D01*
X37516Y32512D01*
X37479Y32377D01*
X37438Y32243D01*
X37393Y32110D01*
X37345Y31978D01*
X37293Y31848D01*
X37238Y31719D01*
X37179Y31592D01*
X37116Y31466D01*
X37050Y31342D01*
X36981Y31221D01*
X36908Y31101D01*
X36831Y30983D01*
X36752Y30868D01*
X36669Y30754D01*
X36583Y30644D01*
X36494Y30535D01*
X36402Y30429D01*
X36307Y30326D01*
X36210Y30225D01*
X36109Y30128D01*
X36006Y30033D01*
X35900Y29941D01*
X35791Y29852D01*
X35681Y29766D01*
X35567Y29683D01*
X35452Y29604D01*
X35334Y29527D01*
X35214Y29454D01*
X35093Y29385D01*
X34969Y29319D01*
X34843Y29256D01*
X34716Y29197D01*
X34587Y29142D01*
X34457Y29090D01*
X34325Y29042D01*
X34192Y28997D01*
X34058Y28956D01*
X33923Y28919D01*
X33787Y28886D01*
X33649Y28857D01*
X33512Y28832D01*
X33373Y28810D01*
X33234Y28792D01*
X33094Y28779D01*
X32954Y28769D01*
X32814Y28763D01*
X32674Y28761D01*
X27674Y26261D02*
X27674Y41261D01*
X27674Y26261D02*
X27676Y26121D01*
X27682Y25981D01*
X27692Y25841D01*
X27705Y25701D01*
X27723Y25562D01*
X27745Y25423D01*
X27770Y25286D01*
X27799Y25148D01*
X27832Y25012D01*
X27869Y24877D01*
X27910Y24743D01*
X27955Y24610D01*
X28003Y24478D01*
X28055Y24348D01*
X28110Y24219D01*
X28169Y24092D01*
X28232Y23966D01*
X28298Y23842D01*
X28367Y23721D01*
X28440Y23601D01*
X28517Y23483D01*
X28596Y23368D01*
X28679Y23254D01*
X28765Y23144D01*
X28854Y23035D01*
X28946Y22929D01*
X29041Y22826D01*
X29138Y22725D01*
X29239Y22628D01*
X29342Y22533D01*
X29448Y22441D01*
X29557Y22352D01*
X29667Y22266D01*
X29781Y22183D01*
X29896Y22104D01*
X30014Y22027D01*
X30134Y21954D01*
X30255Y21885D01*
X30379Y21819D01*
X30505Y21756D01*
X30632Y21697D01*
X30761Y21642D01*
X30891Y21590D01*
X31023Y21542D01*
X31156Y21497D01*
X31290Y21456D01*
X31425Y21419D01*
X31561Y21386D01*
X31699Y21357D01*
X31836Y21332D01*
X31975Y21310D01*
X32114Y21292D01*
X32254Y21279D01*
X32394Y21269D01*
X32534Y21263D01*
X32674Y21261D01*
X37674Y21261D01*
X115174Y21261D02*
X115174Y41261D01*
X115174Y21261D02*
X135174Y21261D01*
X135174Y41261D01*
X115174Y41261D01*
X120174Y36261D02*
X125174Y36261D01*
X120174Y36261D02*
X120174Y31261D01*
X125174Y31261D01*
X125174Y26261D01*
X130174Y26261D01*
X130174Y31261D01*
D947*
X76027Y111150D02*
X91877Y127000D01*
X76027Y111150D02*
X61800Y111150D01*
D950*
X68750Y107680D02*
X76835Y109855D01*
X76835Y112395D02*
X68750Y114629D01*
D947*
X91877Y127000D02*
X116150Y127000D01*
D948*
X39800Y120650D02*
X39800Y138509D01*
X133350Y158750D02*
X133350Y184150D01*
D949*
X133350Y158750D03*
X39800Y138509D03*
D950*
X188650Y101600D02*
X188650Y100169D01*
D947*
X209550Y158750D02*
X209550Y184150D01*
X209550Y158750D02*
X209550Y107950D01*
X203200Y101600D01*
X188650Y101600D01*
D948*
X209550Y158750D02*
X209550Y184150D01*
D950*
X69850Y133350D02*
X63500Y139700D01*
X58738Y138708D02*
X56322Y135039D01*
X71239Y113705D02*
X77589Y113705D01*
X40673Y138302D02*
X34323Y125602D01*
X45281Y125599D02*
X38760Y138355D01*
M02*
