G04 EAGLE Gerber RS-274X export*
G75*
%MOMM*%
%FSLAX34Y34*%
%LPD*%
%IN*%
%IPPOS*%
%AMOC8*
5,1,8,0,0,1.08239X$1,22.5*%
G01*
%ADD10C,0.254000*%


D10*
X0Y25400D02*
X73Y23740D01*
X289Y22092D01*
X649Y20470D01*
X1149Y18885D01*
X1785Y17349D01*
X2552Y15875D01*
X3445Y14473D01*
X4457Y13155D01*
X5580Y11930D01*
X6805Y10807D01*
X8123Y9795D01*
X9525Y8902D01*
X10999Y8135D01*
X12535Y7499D01*
X14120Y6999D01*
X15742Y6639D01*
X17390Y6423D01*
X19050Y6350D01*
X209550Y6350D01*
X211210Y6423D01*
X212858Y6639D01*
X214481Y6999D01*
X216065Y7499D01*
X217601Y8135D01*
X219075Y8902D01*
X220477Y9795D01*
X221795Y10807D01*
X223020Y11930D01*
X224143Y13155D01*
X225155Y14473D01*
X226048Y15875D01*
X226815Y17349D01*
X227451Y18885D01*
X227951Y20470D01*
X228311Y22092D01*
X228528Y23740D01*
X228600Y25400D01*
X228600Y184150D01*
X228528Y185810D01*
X228311Y187458D01*
X227951Y189081D01*
X227451Y190665D01*
X226815Y192201D01*
X226048Y193675D01*
X225155Y195077D01*
X224143Y196395D01*
X223020Y197620D01*
X221795Y198743D01*
X220477Y199755D01*
X219075Y200648D01*
X217601Y201415D01*
X216065Y202051D01*
X214481Y202551D01*
X212858Y202911D01*
X211210Y203128D01*
X209550Y203200D01*
X19050Y203200D01*
X17390Y203128D01*
X15742Y202911D01*
X14120Y202551D01*
X12535Y202051D01*
X10999Y201415D01*
X9525Y200648D01*
X8123Y199755D01*
X6805Y198743D01*
X5580Y197620D01*
X4457Y196395D01*
X3445Y195077D01*
X2552Y193675D01*
X1785Y192201D01*
X1149Y190665D01*
X649Y189081D01*
X289Y187458D01*
X73Y185810D01*
X0Y184150D01*
X0Y25400D01*
M02*
