G04 EAGLE Gerber RS-274X export*
G75*
%MOMM*%
%FSLAX34Y34*%
%LPD*%
%INSilkscreen Top*%
%IPPOS*%
%AMOC8*
5,1,8,0,0,1.08239X$1,22.5*%
G01*
%ADD10C,0.127000*%
%ADD11C,0.076200*%


D10*
X50840Y105650D02*
X50840Y135650D01*
X125290Y94850D02*
X197400Y94850D01*
X179510Y146450D02*
X125290Y146450D01*
D11*
X204027Y167795D02*
X206073Y167795D01*
X206162Y167793D01*
X206251Y167787D01*
X206340Y167777D01*
X206428Y167764D01*
X206516Y167747D01*
X206603Y167725D01*
X206688Y167700D01*
X206773Y167672D01*
X206856Y167639D01*
X206938Y167603D01*
X207018Y167564D01*
X207096Y167521D01*
X207172Y167475D01*
X207247Y167425D01*
X207319Y167372D01*
X207388Y167316D01*
X207455Y167257D01*
X207520Y167196D01*
X207581Y167131D01*
X207640Y167064D01*
X207696Y166995D01*
X207749Y166923D01*
X207799Y166848D01*
X207845Y166772D01*
X207888Y166694D01*
X207927Y166614D01*
X207963Y166532D01*
X207996Y166449D01*
X208024Y166364D01*
X208049Y166279D01*
X208071Y166192D01*
X208088Y166104D01*
X208101Y166016D01*
X208111Y165927D01*
X208117Y165838D01*
X208119Y165749D01*
X208117Y165660D01*
X208111Y165571D01*
X208101Y165482D01*
X208088Y165394D01*
X208071Y165306D01*
X208049Y165219D01*
X208024Y165134D01*
X207996Y165049D01*
X207963Y164966D01*
X207927Y164884D01*
X207888Y164804D01*
X207845Y164726D01*
X207799Y164650D01*
X207749Y164575D01*
X207696Y164503D01*
X207640Y164434D01*
X207581Y164367D01*
X207520Y164302D01*
X207455Y164241D01*
X207388Y164182D01*
X207319Y164126D01*
X207247Y164073D01*
X207172Y164023D01*
X207096Y163977D01*
X207018Y163934D01*
X206938Y163895D01*
X206856Y163859D01*
X206773Y163826D01*
X206688Y163798D01*
X206603Y163773D01*
X206516Y163751D01*
X206428Y163734D01*
X206340Y163721D01*
X206251Y163711D01*
X206162Y163705D01*
X206073Y163703D01*
X204027Y163703D01*
X204027Y171069D01*
X206073Y171069D01*
X206152Y171067D01*
X206231Y171061D01*
X206310Y171052D01*
X206388Y171039D01*
X206465Y171021D01*
X206541Y171001D01*
X206616Y170976D01*
X206690Y170948D01*
X206763Y170917D01*
X206834Y170881D01*
X206903Y170843D01*
X206970Y170801D01*
X207035Y170756D01*
X207098Y170708D01*
X207159Y170657D01*
X207216Y170603D01*
X207272Y170547D01*
X207324Y170488D01*
X207374Y170426D01*
X207420Y170362D01*
X207464Y170296D01*
X207504Y170228D01*
X207540Y170158D01*
X207574Y170086D01*
X207604Y170012D01*
X207630Y169938D01*
X207653Y169862D01*
X207671Y169785D01*
X207687Y169708D01*
X207698Y169629D01*
X207706Y169551D01*
X207710Y169472D01*
X207710Y169392D01*
X207706Y169313D01*
X207698Y169235D01*
X207687Y169156D01*
X207671Y169079D01*
X207653Y169002D01*
X207630Y168926D01*
X207604Y168852D01*
X207574Y168778D01*
X207540Y168706D01*
X207504Y168636D01*
X207464Y168568D01*
X207420Y168502D01*
X207374Y168438D01*
X207324Y168376D01*
X207272Y168317D01*
X207216Y168261D01*
X207159Y168207D01*
X207098Y168156D01*
X207035Y168108D01*
X206970Y168063D01*
X206903Y168021D01*
X206834Y167983D01*
X206763Y167947D01*
X206690Y167916D01*
X206616Y167888D01*
X206541Y167863D01*
X206465Y167843D01*
X206388Y167825D01*
X206310Y167812D01*
X206231Y167803D01*
X206152Y167797D01*
X206073Y167795D01*
X213231Y171070D02*
X213316Y171068D01*
X213401Y171062D01*
X213485Y171052D01*
X213569Y171039D01*
X213653Y171021D01*
X213735Y171000D01*
X213816Y170975D01*
X213896Y170946D01*
X213975Y170913D01*
X214052Y170877D01*
X214127Y170837D01*
X214201Y170794D01*
X214272Y170748D01*
X214341Y170698D01*
X214408Y170645D01*
X214472Y170589D01*
X214533Y170530D01*
X214592Y170469D01*
X214648Y170405D01*
X214701Y170338D01*
X214751Y170269D01*
X214797Y170198D01*
X214840Y170124D01*
X214880Y170049D01*
X214916Y169972D01*
X214949Y169893D01*
X214978Y169813D01*
X215003Y169732D01*
X215024Y169650D01*
X215042Y169566D01*
X215055Y169482D01*
X215065Y169398D01*
X215071Y169313D01*
X215073Y169228D01*
X213231Y171069D02*
X213135Y171067D01*
X213039Y171061D01*
X212944Y171051D01*
X212849Y171038D01*
X212754Y171020D01*
X212661Y170999D01*
X212568Y170974D01*
X212477Y170945D01*
X212386Y170913D01*
X212297Y170877D01*
X212210Y170837D01*
X212124Y170794D01*
X212040Y170748D01*
X211958Y170698D01*
X211878Y170644D01*
X211801Y170588D01*
X211726Y170528D01*
X211653Y170466D01*
X211583Y170400D01*
X211515Y170332D01*
X211450Y170261D01*
X211389Y170188D01*
X211330Y170112D01*
X211274Y170033D01*
X211222Y169953D01*
X211173Y169870D01*
X211127Y169786D01*
X211085Y169700D01*
X211047Y169612D01*
X211012Y169523D01*
X210980Y169432D01*
X214459Y167796D02*
X214519Y167855D01*
X214576Y167917D01*
X214631Y167981D01*
X214682Y168048D01*
X214731Y168117D01*
X214777Y168187D01*
X214820Y168260D01*
X214860Y168334D01*
X214896Y168410D01*
X214929Y168488D01*
X214959Y168567D01*
X214986Y168647D01*
X215009Y168728D01*
X215028Y168810D01*
X215044Y168892D01*
X215057Y168976D01*
X215066Y169060D01*
X215071Y169144D01*
X215073Y169228D01*
X214459Y167795D02*
X210981Y163703D01*
X215073Y163703D01*
X51393Y167795D02*
X50166Y167795D01*
X51393Y167795D02*
X51393Y163703D01*
X48938Y163703D01*
X48860Y163705D01*
X48782Y163710D01*
X48705Y163720D01*
X48628Y163733D01*
X48552Y163749D01*
X48477Y163769D01*
X48403Y163793D01*
X48330Y163820D01*
X48258Y163851D01*
X48188Y163885D01*
X48120Y163922D01*
X48053Y163963D01*
X47988Y164007D01*
X47926Y164053D01*
X47866Y164103D01*
X47808Y164155D01*
X47753Y164210D01*
X47701Y164268D01*
X47651Y164328D01*
X47605Y164390D01*
X47561Y164455D01*
X47520Y164522D01*
X47483Y164590D01*
X47449Y164660D01*
X47418Y164732D01*
X47391Y164805D01*
X47367Y164879D01*
X47347Y164954D01*
X47331Y165030D01*
X47318Y165107D01*
X47308Y165184D01*
X47303Y165262D01*
X47301Y165340D01*
X47301Y169432D01*
X47303Y169512D01*
X47309Y169592D01*
X47319Y169672D01*
X47332Y169751D01*
X47350Y169830D01*
X47371Y169907D01*
X47397Y169983D01*
X47426Y170058D01*
X47458Y170132D01*
X47494Y170204D01*
X47534Y170274D01*
X47577Y170341D01*
X47623Y170407D01*
X47673Y170470D01*
X47725Y170531D01*
X47780Y170590D01*
X47839Y170645D01*
X47899Y170697D01*
X47963Y170747D01*
X48029Y170793D01*
X48096Y170836D01*
X48166Y170876D01*
X48238Y170912D01*
X48312Y170944D01*
X48386Y170973D01*
X48463Y170999D01*
X48540Y171020D01*
X48619Y171038D01*
X48698Y171051D01*
X48778Y171061D01*
X48858Y171067D01*
X48938Y171069D01*
X51393Y171069D01*
X55104Y171069D02*
X55104Y163703D01*
X59196Y163703D02*
X55104Y171069D01*
X59196Y171069D02*
X59196Y163703D01*
X62907Y163703D02*
X62907Y171069D01*
X64953Y171069D01*
X65042Y171067D01*
X65131Y171061D01*
X65220Y171051D01*
X65308Y171038D01*
X65396Y171021D01*
X65483Y170999D01*
X65568Y170974D01*
X65653Y170946D01*
X65736Y170913D01*
X65818Y170877D01*
X65898Y170838D01*
X65976Y170795D01*
X66052Y170749D01*
X66127Y170699D01*
X66199Y170646D01*
X66268Y170590D01*
X66335Y170531D01*
X66400Y170470D01*
X66461Y170405D01*
X66520Y170338D01*
X66576Y170269D01*
X66629Y170197D01*
X66679Y170122D01*
X66725Y170046D01*
X66768Y169968D01*
X66807Y169888D01*
X66843Y169806D01*
X66876Y169723D01*
X66904Y169638D01*
X66929Y169553D01*
X66951Y169466D01*
X66968Y169378D01*
X66981Y169290D01*
X66991Y169201D01*
X66997Y169112D01*
X66999Y169023D01*
X66999Y165749D01*
X66997Y165660D01*
X66991Y165571D01*
X66981Y165482D01*
X66968Y165394D01*
X66951Y165306D01*
X66929Y165219D01*
X66904Y165134D01*
X66876Y165049D01*
X66843Y164966D01*
X66807Y164884D01*
X66768Y164804D01*
X66725Y164726D01*
X66679Y164650D01*
X66629Y164575D01*
X66576Y164503D01*
X66520Y164434D01*
X66461Y164367D01*
X66400Y164302D01*
X66335Y164241D01*
X66268Y164182D01*
X66199Y164126D01*
X66127Y164073D01*
X66052Y164023D01*
X65976Y163977D01*
X65898Y163934D01*
X65818Y163895D01*
X65736Y163859D01*
X65653Y163826D01*
X65568Y163798D01*
X65483Y163773D01*
X65396Y163751D01*
X65308Y163734D01*
X65220Y163721D01*
X65131Y163711D01*
X65042Y163705D01*
X64953Y163703D01*
X62907Y163703D01*
X15597Y163703D02*
X13142Y163703D01*
X15597Y163703D02*
X15675Y163705D01*
X15753Y163710D01*
X15830Y163720D01*
X15907Y163733D01*
X15983Y163749D01*
X16058Y163769D01*
X16132Y163793D01*
X16205Y163820D01*
X16277Y163851D01*
X16347Y163885D01*
X16416Y163922D01*
X16482Y163963D01*
X16547Y164007D01*
X16609Y164053D01*
X16669Y164103D01*
X16727Y164155D01*
X16782Y164210D01*
X16834Y164268D01*
X16884Y164328D01*
X16930Y164390D01*
X16974Y164455D01*
X17015Y164522D01*
X17052Y164590D01*
X17086Y164660D01*
X17117Y164732D01*
X17144Y164805D01*
X17168Y164879D01*
X17188Y164954D01*
X17204Y165030D01*
X17217Y165107D01*
X17227Y165184D01*
X17232Y165262D01*
X17234Y165340D01*
X17234Y166158D01*
X17232Y166236D01*
X17227Y166314D01*
X17217Y166391D01*
X17204Y166468D01*
X17188Y166544D01*
X17168Y166619D01*
X17144Y166693D01*
X17117Y166766D01*
X17086Y166838D01*
X17052Y166908D01*
X17015Y166977D01*
X16974Y167043D01*
X16930Y167108D01*
X16884Y167170D01*
X16834Y167230D01*
X16782Y167288D01*
X16727Y167343D01*
X16669Y167395D01*
X16609Y167445D01*
X16547Y167491D01*
X16482Y167535D01*
X16416Y167576D01*
X16347Y167613D01*
X16277Y167647D01*
X16205Y167678D01*
X16132Y167705D01*
X16058Y167729D01*
X15983Y167749D01*
X15907Y167765D01*
X15830Y167778D01*
X15753Y167788D01*
X15675Y167793D01*
X15597Y167795D01*
X13142Y167795D01*
X13142Y171069D01*
X17234Y171069D01*
X20048Y171069D02*
X22503Y163703D01*
X24958Y171069D01*
X86069Y167795D02*
X88116Y167795D01*
X88205Y167793D01*
X88294Y167787D01*
X88383Y167777D01*
X88471Y167764D01*
X88559Y167747D01*
X88646Y167725D01*
X88731Y167700D01*
X88816Y167672D01*
X88899Y167639D01*
X88981Y167603D01*
X89061Y167564D01*
X89139Y167521D01*
X89215Y167475D01*
X89290Y167425D01*
X89362Y167372D01*
X89431Y167316D01*
X89498Y167257D01*
X89563Y167196D01*
X89624Y167131D01*
X89683Y167064D01*
X89739Y166995D01*
X89792Y166923D01*
X89842Y166848D01*
X89888Y166772D01*
X89931Y166694D01*
X89970Y166614D01*
X90006Y166532D01*
X90039Y166449D01*
X90067Y166364D01*
X90092Y166279D01*
X90114Y166192D01*
X90131Y166104D01*
X90144Y166016D01*
X90154Y165927D01*
X90160Y165838D01*
X90162Y165749D01*
X90160Y165660D01*
X90154Y165571D01*
X90144Y165482D01*
X90131Y165394D01*
X90114Y165306D01*
X90092Y165219D01*
X90067Y165134D01*
X90039Y165049D01*
X90006Y164966D01*
X89970Y164884D01*
X89931Y164804D01*
X89888Y164726D01*
X89842Y164650D01*
X89792Y164575D01*
X89739Y164503D01*
X89683Y164434D01*
X89624Y164367D01*
X89563Y164302D01*
X89498Y164241D01*
X89431Y164182D01*
X89362Y164126D01*
X89290Y164073D01*
X89215Y164023D01*
X89139Y163977D01*
X89061Y163934D01*
X88981Y163895D01*
X88899Y163859D01*
X88816Y163826D01*
X88731Y163798D01*
X88646Y163773D01*
X88559Y163751D01*
X88471Y163734D01*
X88383Y163721D01*
X88294Y163711D01*
X88205Y163705D01*
X88116Y163703D01*
X86069Y163703D01*
X86069Y171069D01*
X88116Y171069D01*
X88195Y171067D01*
X88274Y171061D01*
X88353Y171052D01*
X88431Y171039D01*
X88508Y171021D01*
X88584Y171001D01*
X88659Y170976D01*
X88733Y170948D01*
X88806Y170917D01*
X88877Y170881D01*
X88946Y170843D01*
X89013Y170801D01*
X89078Y170756D01*
X89141Y170708D01*
X89202Y170657D01*
X89259Y170603D01*
X89315Y170547D01*
X89367Y170488D01*
X89417Y170426D01*
X89463Y170362D01*
X89507Y170296D01*
X89547Y170228D01*
X89583Y170158D01*
X89617Y170086D01*
X89647Y170012D01*
X89673Y169938D01*
X89696Y169862D01*
X89714Y169785D01*
X89730Y169708D01*
X89741Y169629D01*
X89749Y169551D01*
X89753Y169472D01*
X89753Y169392D01*
X89749Y169313D01*
X89741Y169235D01*
X89730Y169156D01*
X89714Y169079D01*
X89696Y169002D01*
X89673Y168926D01*
X89647Y168852D01*
X89617Y168778D01*
X89583Y168706D01*
X89547Y168636D01*
X89507Y168568D01*
X89463Y168502D01*
X89417Y168438D01*
X89367Y168376D01*
X89315Y168317D01*
X89259Y168261D01*
X89202Y168207D01*
X89141Y168156D01*
X89078Y168108D01*
X89013Y168063D01*
X88946Y168021D01*
X88877Y167983D01*
X88806Y167947D01*
X88733Y167916D01*
X88659Y167888D01*
X88584Y167863D01*
X88508Y167843D01*
X88431Y167825D01*
X88353Y167812D01*
X88274Y167803D01*
X88195Y167797D01*
X88116Y167795D01*
X93023Y163703D02*
X95069Y163703D01*
X95158Y163705D01*
X95247Y163711D01*
X95336Y163721D01*
X95424Y163734D01*
X95512Y163751D01*
X95599Y163773D01*
X95684Y163798D01*
X95769Y163826D01*
X95852Y163859D01*
X95934Y163895D01*
X96014Y163934D01*
X96092Y163977D01*
X96168Y164023D01*
X96243Y164073D01*
X96315Y164126D01*
X96384Y164182D01*
X96451Y164241D01*
X96516Y164302D01*
X96577Y164367D01*
X96636Y164434D01*
X96692Y164503D01*
X96745Y164575D01*
X96795Y164650D01*
X96841Y164726D01*
X96884Y164804D01*
X96923Y164884D01*
X96959Y164966D01*
X96992Y165049D01*
X97020Y165134D01*
X97045Y165219D01*
X97067Y165306D01*
X97084Y165394D01*
X97097Y165482D01*
X97107Y165571D01*
X97113Y165660D01*
X97115Y165749D01*
X97113Y165838D01*
X97107Y165927D01*
X97097Y166016D01*
X97084Y166104D01*
X97067Y166192D01*
X97045Y166279D01*
X97020Y166364D01*
X96992Y166449D01*
X96959Y166532D01*
X96923Y166614D01*
X96884Y166694D01*
X96841Y166772D01*
X96795Y166848D01*
X96745Y166923D01*
X96692Y166995D01*
X96636Y167064D01*
X96577Y167131D01*
X96516Y167196D01*
X96451Y167257D01*
X96384Y167316D01*
X96315Y167372D01*
X96243Y167425D01*
X96168Y167475D01*
X96092Y167521D01*
X96014Y167564D01*
X95934Y167603D01*
X95852Y167639D01*
X95769Y167672D01*
X95684Y167700D01*
X95599Y167725D01*
X95512Y167747D01*
X95424Y167764D01*
X95336Y167777D01*
X95247Y167787D01*
X95158Y167793D01*
X95069Y167795D01*
X95478Y171069D02*
X93023Y171069D01*
X95478Y171069D02*
X95557Y171067D01*
X95636Y171061D01*
X95715Y171052D01*
X95793Y171039D01*
X95870Y171021D01*
X95946Y171001D01*
X96021Y170976D01*
X96095Y170948D01*
X96168Y170917D01*
X96239Y170881D01*
X96308Y170843D01*
X96375Y170801D01*
X96440Y170756D01*
X96503Y170708D01*
X96564Y170657D01*
X96621Y170603D01*
X96677Y170547D01*
X96729Y170488D01*
X96779Y170426D01*
X96825Y170362D01*
X96869Y170296D01*
X96909Y170228D01*
X96945Y170158D01*
X96979Y170086D01*
X97009Y170012D01*
X97035Y169938D01*
X97058Y169862D01*
X97076Y169785D01*
X97092Y169708D01*
X97103Y169629D01*
X97111Y169551D01*
X97115Y169472D01*
X97115Y169392D01*
X97111Y169313D01*
X97103Y169235D01*
X97092Y169156D01*
X97076Y169079D01*
X97058Y169002D01*
X97035Y168926D01*
X97009Y168852D01*
X96979Y168778D01*
X96945Y168706D01*
X96909Y168636D01*
X96869Y168568D01*
X96825Y168502D01*
X96779Y168438D01*
X96729Y168376D01*
X96677Y168317D01*
X96621Y168261D01*
X96564Y168207D01*
X96503Y168156D01*
X96440Y168108D01*
X96375Y168063D01*
X96308Y168021D01*
X96239Y167983D01*
X96168Y167947D01*
X96095Y167916D01*
X96021Y167888D01*
X95946Y167863D01*
X95870Y167843D01*
X95793Y167825D01*
X95715Y167812D01*
X95636Y167803D01*
X95557Y167797D01*
X95478Y167795D01*
X93842Y167795D01*
X102589Y171070D02*
X102674Y171068D01*
X102759Y171062D01*
X102843Y171052D01*
X102927Y171039D01*
X103011Y171021D01*
X103093Y171000D01*
X103174Y170975D01*
X103254Y170946D01*
X103333Y170913D01*
X103410Y170877D01*
X103485Y170837D01*
X103559Y170794D01*
X103630Y170748D01*
X103699Y170698D01*
X103766Y170645D01*
X103830Y170589D01*
X103891Y170530D01*
X103950Y170469D01*
X104006Y170405D01*
X104059Y170338D01*
X104109Y170269D01*
X104155Y170198D01*
X104198Y170124D01*
X104238Y170049D01*
X104274Y169972D01*
X104307Y169893D01*
X104336Y169813D01*
X104361Y169732D01*
X104382Y169650D01*
X104400Y169566D01*
X104413Y169482D01*
X104423Y169398D01*
X104429Y169313D01*
X104431Y169228D01*
X102589Y171069D02*
X102493Y171067D01*
X102397Y171061D01*
X102302Y171051D01*
X102207Y171038D01*
X102112Y171020D01*
X102019Y170999D01*
X101926Y170974D01*
X101835Y170945D01*
X101744Y170913D01*
X101655Y170877D01*
X101568Y170837D01*
X101482Y170794D01*
X101398Y170748D01*
X101316Y170698D01*
X101236Y170644D01*
X101159Y170588D01*
X101084Y170528D01*
X101011Y170466D01*
X100941Y170400D01*
X100873Y170332D01*
X100808Y170261D01*
X100747Y170188D01*
X100688Y170112D01*
X100632Y170033D01*
X100580Y169953D01*
X100531Y169870D01*
X100485Y169786D01*
X100443Y169700D01*
X100405Y169612D01*
X100370Y169523D01*
X100338Y169432D01*
X103817Y167796D02*
X103877Y167855D01*
X103934Y167917D01*
X103989Y167981D01*
X104040Y168048D01*
X104089Y168117D01*
X104135Y168187D01*
X104178Y168260D01*
X104218Y168334D01*
X104254Y168410D01*
X104287Y168488D01*
X104317Y168567D01*
X104344Y168647D01*
X104367Y168728D01*
X104386Y168810D01*
X104402Y168892D01*
X104415Y168976D01*
X104424Y169060D01*
X104429Y169144D01*
X104431Y169228D01*
X103817Y167795D02*
X100338Y163703D01*
X104431Y163703D01*
X124169Y167795D02*
X126216Y167795D01*
X126305Y167793D01*
X126394Y167787D01*
X126483Y167777D01*
X126571Y167764D01*
X126659Y167747D01*
X126746Y167725D01*
X126831Y167700D01*
X126916Y167672D01*
X126999Y167639D01*
X127081Y167603D01*
X127161Y167564D01*
X127239Y167521D01*
X127315Y167475D01*
X127390Y167425D01*
X127462Y167372D01*
X127531Y167316D01*
X127598Y167257D01*
X127663Y167196D01*
X127724Y167131D01*
X127783Y167064D01*
X127839Y166995D01*
X127892Y166923D01*
X127942Y166848D01*
X127988Y166772D01*
X128031Y166694D01*
X128070Y166614D01*
X128106Y166532D01*
X128139Y166449D01*
X128167Y166364D01*
X128192Y166279D01*
X128214Y166192D01*
X128231Y166104D01*
X128244Y166016D01*
X128254Y165927D01*
X128260Y165838D01*
X128262Y165749D01*
X128260Y165660D01*
X128254Y165571D01*
X128244Y165482D01*
X128231Y165394D01*
X128214Y165306D01*
X128192Y165219D01*
X128167Y165134D01*
X128139Y165049D01*
X128106Y164966D01*
X128070Y164884D01*
X128031Y164804D01*
X127988Y164726D01*
X127942Y164650D01*
X127892Y164575D01*
X127839Y164503D01*
X127783Y164434D01*
X127724Y164367D01*
X127663Y164302D01*
X127598Y164241D01*
X127531Y164182D01*
X127462Y164126D01*
X127390Y164073D01*
X127315Y164023D01*
X127239Y163977D01*
X127161Y163934D01*
X127081Y163895D01*
X126999Y163859D01*
X126916Y163826D01*
X126831Y163798D01*
X126746Y163773D01*
X126659Y163751D01*
X126571Y163734D01*
X126483Y163721D01*
X126394Y163711D01*
X126305Y163705D01*
X126216Y163703D01*
X124169Y163703D01*
X124169Y171069D01*
X126216Y171069D01*
X126295Y171067D01*
X126374Y171061D01*
X126453Y171052D01*
X126531Y171039D01*
X126608Y171021D01*
X126684Y171001D01*
X126759Y170976D01*
X126833Y170948D01*
X126906Y170917D01*
X126977Y170881D01*
X127046Y170843D01*
X127113Y170801D01*
X127178Y170756D01*
X127241Y170708D01*
X127302Y170657D01*
X127359Y170603D01*
X127415Y170547D01*
X127467Y170488D01*
X127517Y170426D01*
X127563Y170362D01*
X127607Y170296D01*
X127647Y170228D01*
X127683Y170158D01*
X127717Y170086D01*
X127747Y170012D01*
X127773Y169938D01*
X127796Y169862D01*
X127814Y169785D01*
X127830Y169708D01*
X127841Y169629D01*
X127849Y169551D01*
X127853Y169472D01*
X127853Y169392D01*
X127849Y169313D01*
X127841Y169235D01*
X127830Y169156D01*
X127814Y169079D01*
X127796Y169002D01*
X127773Y168926D01*
X127747Y168852D01*
X127717Y168778D01*
X127683Y168706D01*
X127647Y168636D01*
X127607Y168568D01*
X127563Y168502D01*
X127517Y168438D01*
X127467Y168376D01*
X127415Y168317D01*
X127359Y168261D01*
X127302Y168207D01*
X127241Y168156D01*
X127178Y168108D01*
X127113Y168063D01*
X127046Y168021D01*
X126977Y167983D01*
X126906Y167947D01*
X126833Y167916D01*
X126759Y167888D01*
X126684Y167863D01*
X126608Y167843D01*
X126531Y167825D01*
X126453Y167812D01*
X126374Y167803D01*
X126295Y167797D01*
X126216Y167795D01*
X133374Y171070D02*
X133459Y171068D01*
X133544Y171062D01*
X133628Y171052D01*
X133712Y171039D01*
X133796Y171021D01*
X133878Y171000D01*
X133959Y170975D01*
X134039Y170946D01*
X134118Y170913D01*
X134195Y170877D01*
X134270Y170837D01*
X134344Y170794D01*
X134415Y170748D01*
X134484Y170698D01*
X134551Y170645D01*
X134615Y170589D01*
X134676Y170530D01*
X134735Y170469D01*
X134791Y170405D01*
X134844Y170338D01*
X134894Y170269D01*
X134940Y170198D01*
X134983Y170124D01*
X135023Y170049D01*
X135059Y169972D01*
X135092Y169893D01*
X135121Y169813D01*
X135146Y169732D01*
X135167Y169650D01*
X135185Y169566D01*
X135198Y169482D01*
X135208Y169398D01*
X135214Y169313D01*
X135216Y169228D01*
X133374Y171069D02*
X133278Y171067D01*
X133182Y171061D01*
X133087Y171051D01*
X132992Y171038D01*
X132897Y171020D01*
X132804Y170999D01*
X132711Y170974D01*
X132620Y170945D01*
X132529Y170913D01*
X132440Y170877D01*
X132353Y170837D01*
X132267Y170794D01*
X132183Y170748D01*
X132101Y170698D01*
X132021Y170644D01*
X131944Y170588D01*
X131869Y170528D01*
X131796Y170466D01*
X131726Y170400D01*
X131658Y170332D01*
X131593Y170261D01*
X131532Y170188D01*
X131473Y170112D01*
X131417Y170033D01*
X131365Y169953D01*
X131316Y169870D01*
X131270Y169786D01*
X131228Y169700D01*
X131190Y169612D01*
X131155Y169523D01*
X131123Y169432D01*
X134601Y167796D02*
X134661Y167855D01*
X134718Y167917D01*
X134773Y167981D01*
X134824Y168048D01*
X134873Y168117D01*
X134919Y168187D01*
X134962Y168260D01*
X135002Y168334D01*
X135038Y168410D01*
X135071Y168488D01*
X135101Y168567D01*
X135128Y168647D01*
X135151Y168728D01*
X135170Y168810D01*
X135186Y168892D01*
X135199Y168976D01*
X135208Y169060D01*
X135213Y169144D01*
X135215Y169228D01*
X134602Y167795D02*
X131123Y163703D01*
X135215Y163703D01*
X138438Y170251D02*
X138438Y171069D01*
X142531Y171069D01*
X140484Y163703D01*
X162269Y167795D02*
X164316Y167795D01*
X164405Y167793D01*
X164494Y167787D01*
X164583Y167777D01*
X164671Y167764D01*
X164759Y167747D01*
X164846Y167725D01*
X164931Y167700D01*
X165016Y167672D01*
X165099Y167639D01*
X165181Y167603D01*
X165261Y167564D01*
X165339Y167521D01*
X165415Y167475D01*
X165490Y167425D01*
X165562Y167372D01*
X165631Y167316D01*
X165698Y167257D01*
X165763Y167196D01*
X165824Y167131D01*
X165883Y167064D01*
X165939Y166995D01*
X165992Y166923D01*
X166042Y166848D01*
X166088Y166772D01*
X166131Y166694D01*
X166170Y166614D01*
X166206Y166532D01*
X166239Y166449D01*
X166267Y166364D01*
X166292Y166279D01*
X166314Y166192D01*
X166331Y166104D01*
X166344Y166016D01*
X166354Y165927D01*
X166360Y165838D01*
X166362Y165749D01*
X166360Y165660D01*
X166354Y165571D01*
X166344Y165482D01*
X166331Y165394D01*
X166314Y165306D01*
X166292Y165219D01*
X166267Y165134D01*
X166239Y165049D01*
X166206Y164966D01*
X166170Y164884D01*
X166131Y164804D01*
X166088Y164726D01*
X166042Y164650D01*
X165992Y164575D01*
X165939Y164503D01*
X165883Y164434D01*
X165824Y164367D01*
X165763Y164302D01*
X165698Y164241D01*
X165631Y164182D01*
X165562Y164126D01*
X165490Y164073D01*
X165415Y164023D01*
X165339Y163977D01*
X165261Y163934D01*
X165181Y163895D01*
X165099Y163859D01*
X165016Y163826D01*
X164931Y163798D01*
X164846Y163773D01*
X164759Y163751D01*
X164671Y163734D01*
X164583Y163721D01*
X164494Y163711D01*
X164405Y163705D01*
X164316Y163703D01*
X162269Y163703D01*
X162269Y171069D01*
X164316Y171069D01*
X164395Y171067D01*
X164474Y171061D01*
X164553Y171052D01*
X164631Y171039D01*
X164708Y171021D01*
X164784Y171001D01*
X164859Y170976D01*
X164933Y170948D01*
X165006Y170917D01*
X165077Y170881D01*
X165146Y170843D01*
X165213Y170801D01*
X165278Y170756D01*
X165341Y170708D01*
X165402Y170657D01*
X165459Y170603D01*
X165515Y170547D01*
X165567Y170488D01*
X165617Y170426D01*
X165663Y170362D01*
X165707Y170296D01*
X165747Y170228D01*
X165783Y170158D01*
X165817Y170086D01*
X165847Y170012D01*
X165873Y169938D01*
X165896Y169862D01*
X165914Y169785D01*
X165930Y169708D01*
X165941Y169629D01*
X165949Y169551D01*
X165953Y169472D01*
X165953Y169392D01*
X165949Y169313D01*
X165941Y169235D01*
X165930Y169156D01*
X165914Y169079D01*
X165896Y169002D01*
X165873Y168926D01*
X165847Y168852D01*
X165817Y168778D01*
X165783Y168706D01*
X165747Y168636D01*
X165707Y168568D01*
X165663Y168502D01*
X165617Y168438D01*
X165567Y168376D01*
X165515Y168317D01*
X165459Y168261D01*
X165402Y168207D01*
X165341Y168156D01*
X165278Y168108D01*
X165213Y168063D01*
X165146Y168021D01*
X165077Y167983D01*
X165006Y167947D01*
X164933Y167916D01*
X164859Y167888D01*
X164784Y167863D01*
X164708Y167843D01*
X164631Y167825D01*
X164553Y167812D01*
X164474Y167803D01*
X164395Y167797D01*
X164316Y167795D01*
X169223Y169432D02*
X171269Y171069D01*
X171269Y163703D01*
X169223Y163703D02*
X173315Y163703D01*
X176538Y170251D02*
X176538Y171069D01*
X180631Y171069D01*
X178584Y163703D01*
M02*
