G04 EAGLE Gerber RS-274X export*
G75*
%MOMM*%
%FSLAX34Y34*%
%LPD*%
%INSilkscreen Bottom*%
%IPPOS*%
%AMOC8*
5,1,8,0,0,1.08239X$1,22.5*%
G01*
%ADD10C,0.076200*%


D10*
X217702Y185006D02*
X215996Y178181D01*
X214290Y182731D01*
X212583Y178181D01*
X210877Y185006D01*
X207142Y185006D02*
X205436Y178181D01*
X203730Y182731D01*
X202023Y178181D01*
X200317Y185006D01*
X196582Y185006D02*
X194876Y178181D01*
X193170Y182731D01*
X191463Y178181D01*
X189757Y185006D01*
X186194Y178750D02*
X186194Y178181D01*
X186194Y178750D02*
X185625Y178750D01*
X185625Y178181D01*
X186194Y178181D01*
X179575Y178181D02*
X177300Y178181D01*
X179575Y178181D02*
X179669Y178183D01*
X179763Y178189D01*
X179856Y178198D01*
X179949Y178212D01*
X180042Y178229D01*
X180133Y178251D01*
X180224Y178276D01*
X180314Y178304D01*
X180402Y178337D01*
X180489Y178373D01*
X180574Y178412D01*
X180658Y178455D01*
X180740Y178502D01*
X180819Y178551D01*
X180897Y178605D01*
X180972Y178661D01*
X181045Y178720D01*
X181116Y178782D01*
X181184Y178847D01*
X181249Y178915D01*
X181311Y178986D01*
X181370Y179059D01*
X181427Y179134D01*
X181480Y179212D01*
X181529Y179291D01*
X181576Y179373D01*
X181619Y179457D01*
X181658Y179542D01*
X181694Y179629D01*
X181727Y179717D01*
X181755Y179807D01*
X181780Y179898D01*
X181802Y179989D01*
X181819Y180082D01*
X181833Y180175D01*
X181842Y180268D01*
X181848Y180362D01*
X181850Y180456D01*
X181851Y180456D02*
X181851Y186144D01*
X181850Y186144D02*
X181848Y186238D01*
X181842Y186332D01*
X181833Y186425D01*
X181819Y186518D01*
X181802Y186611D01*
X181780Y186702D01*
X181755Y186793D01*
X181727Y186883D01*
X181694Y186971D01*
X181658Y187058D01*
X181619Y187143D01*
X181576Y187227D01*
X181529Y187309D01*
X181480Y187388D01*
X181427Y187466D01*
X181370Y187541D01*
X181311Y187614D01*
X181249Y187685D01*
X181184Y187753D01*
X181116Y187818D01*
X181045Y187880D01*
X180972Y187939D01*
X180897Y187995D01*
X180819Y188049D01*
X180740Y188098D01*
X180658Y188145D01*
X180574Y188188D01*
X180489Y188227D01*
X180402Y188263D01*
X180314Y188296D01*
X180224Y188324D01*
X180134Y188349D01*
X180042Y188371D01*
X179950Y188388D01*
X179856Y188402D01*
X179763Y188411D01*
X179669Y188417D01*
X179575Y188419D01*
X177300Y188419D01*
X173665Y182731D02*
X173665Y180456D01*
X173665Y182731D02*
X173663Y182825D01*
X173657Y182919D01*
X173648Y183012D01*
X173634Y183105D01*
X173617Y183198D01*
X173595Y183289D01*
X173570Y183380D01*
X173542Y183470D01*
X173509Y183558D01*
X173473Y183645D01*
X173434Y183730D01*
X173391Y183814D01*
X173344Y183896D01*
X173295Y183975D01*
X173242Y184053D01*
X173185Y184128D01*
X173126Y184201D01*
X173064Y184272D01*
X172999Y184340D01*
X172931Y184405D01*
X172860Y184467D01*
X172787Y184526D01*
X172712Y184583D01*
X172634Y184636D01*
X172555Y184685D01*
X172473Y184732D01*
X172389Y184775D01*
X172304Y184814D01*
X172217Y184850D01*
X172129Y184883D01*
X172039Y184911D01*
X171948Y184936D01*
X171857Y184958D01*
X171764Y184975D01*
X171671Y184989D01*
X171578Y184998D01*
X171484Y185004D01*
X171390Y185006D01*
X171296Y185004D01*
X171202Y184998D01*
X171109Y184989D01*
X171016Y184975D01*
X170923Y184958D01*
X170832Y184936D01*
X170741Y184911D01*
X170651Y184883D01*
X170563Y184850D01*
X170476Y184814D01*
X170391Y184775D01*
X170307Y184732D01*
X170225Y184685D01*
X170146Y184636D01*
X170068Y184583D01*
X169993Y184526D01*
X169920Y184467D01*
X169849Y184405D01*
X169781Y184340D01*
X169716Y184272D01*
X169654Y184201D01*
X169595Y184128D01*
X169538Y184053D01*
X169485Y183975D01*
X169436Y183896D01*
X169389Y183814D01*
X169346Y183730D01*
X169307Y183645D01*
X169271Y183558D01*
X169238Y183470D01*
X169210Y183380D01*
X169185Y183289D01*
X169163Y183198D01*
X169146Y183105D01*
X169132Y183012D01*
X169123Y182919D01*
X169117Y182825D01*
X169115Y182731D01*
X169115Y180456D01*
X169117Y180362D01*
X169123Y180268D01*
X169132Y180175D01*
X169146Y180082D01*
X169163Y179989D01*
X169185Y179898D01*
X169210Y179807D01*
X169238Y179717D01*
X169271Y179629D01*
X169307Y179542D01*
X169346Y179457D01*
X169389Y179373D01*
X169436Y179291D01*
X169485Y179212D01*
X169538Y179134D01*
X169595Y179059D01*
X169654Y178986D01*
X169716Y178915D01*
X169781Y178847D01*
X169849Y178782D01*
X169920Y178720D01*
X169993Y178661D01*
X170068Y178604D01*
X170146Y178551D01*
X170225Y178502D01*
X170307Y178455D01*
X170391Y178412D01*
X170476Y178373D01*
X170563Y178337D01*
X170651Y178304D01*
X170741Y178276D01*
X170832Y178251D01*
X170923Y178229D01*
X171016Y178212D01*
X171109Y178198D01*
X171202Y178189D01*
X171296Y178183D01*
X171390Y178181D01*
X171484Y178183D01*
X171578Y178189D01*
X171671Y178198D01*
X171764Y178212D01*
X171857Y178229D01*
X171948Y178251D01*
X172039Y178276D01*
X172129Y178304D01*
X172217Y178337D01*
X172304Y178373D01*
X172389Y178412D01*
X172473Y178455D01*
X172555Y178502D01*
X172634Y178551D01*
X172712Y178604D01*
X172787Y178661D01*
X172860Y178720D01*
X172931Y178782D01*
X172999Y178847D01*
X173064Y178915D01*
X173126Y178986D01*
X173185Y179059D01*
X173242Y179134D01*
X173295Y179212D01*
X173344Y179291D01*
X173391Y179373D01*
X173434Y179457D01*
X173473Y179542D01*
X173509Y179629D01*
X173542Y179717D01*
X173570Y179807D01*
X173595Y179898D01*
X173617Y179989D01*
X173634Y180082D01*
X173648Y180175D01*
X173657Y180268D01*
X173663Y180362D01*
X173665Y180456D01*
X164755Y178181D02*
X164755Y185006D01*
X161911Y185006D01*
X161830Y185004D01*
X161749Y184998D01*
X161668Y184989D01*
X161588Y184975D01*
X161509Y184958D01*
X161430Y184937D01*
X161353Y184912D01*
X161277Y184884D01*
X161202Y184852D01*
X161129Y184816D01*
X161058Y184777D01*
X160989Y184735D01*
X160921Y184690D01*
X160856Y184641D01*
X160794Y184589D01*
X160734Y184535D01*
X160676Y184477D01*
X160622Y184417D01*
X160570Y184355D01*
X160521Y184290D01*
X160476Y184222D01*
X160434Y184153D01*
X160395Y184082D01*
X160359Y184009D01*
X160327Y183934D01*
X160299Y183858D01*
X160274Y183781D01*
X160253Y183702D01*
X160236Y183623D01*
X160222Y183543D01*
X160213Y183462D01*
X160207Y183381D01*
X160205Y183300D01*
X160205Y178181D01*
X154992Y182162D02*
X152148Y181025D01*
X154992Y182162D02*
X155061Y182192D01*
X155129Y182226D01*
X155196Y182263D01*
X155260Y182303D01*
X155322Y182347D01*
X155382Y182393D01*
X155439Y182443D01*
X155494Y182496D01*
X155545Y182551D01*
X155594Y182609D01*
X155640Y182669D01*
X155683Y182732D01*
X155722Y182796D01*
X155759Y182863D01*
X155791Y182931D01*
X155820Y183001D01*
X155846Y183073D01*
X155867Y183145D01*
X155885Y183219D01*
X155900Y183294D01*
X155910Y183369D01*
X155916Y183444D01*
X155919Y183520D01*
X155918Y183596D01*
X155912Y183671D01*
X155903Y183747D01*
X155890Y183821D01*
X155874Y183895D01*
X155853Y183968D01*
X155829Y184040D01*
X155801Y184110D01*
X155769Y184179D01*
X155734Y184247D01*
X155696Y184312D01*
X155654Y184375D01*
X155609Y184436D01*
X155561Y184495D01*
X155510Y184551D01*
X155457Y184605D01*
X155400Y184655D01*
X155341Y184703D01*
X155280Y184747D01*
X155216Y184789D01*
X155151Y184827D01*
X155083Y184861D01*
X155014Y184892D01*
X154944Y184920D01*
X154872Y184944D01*
X154798Y184964D01*
X154724Y184980D01*
X154650Y184993D01*
X154574Y185001D01*
X154499Y185006D01*
X154423Y185007D01*
X154423Y185006D02*
X154267Y185002D01*
X154112Y184994D01*
X153958Y184983D01*
X153803Y184968D01*
X153649Y184949D01*
X153495Y184926D01*
X153342Y184900D01*
X153190Y184870D01*
X153038Y184836D01*
X152887Y184799D01*
X152738Y184758D01*
X152589Y184713D01*
X152441Y184665D01*
X152295Y184613D01*
X152149Y184558D01*
X152006Y184500D01*
X151863Y184438D01*
X152148Y181026D02*
X152079Y180996D01*
X152011Y180962D01*
X151944Y180925D01*
X151880Y180885D01*
X151818Y180841D01*
X151758Y180795D01*
X151701Y180745D01*
X151646Y180692D01*
X151595Y180637D01*
X151546Y180579D01*
X151500Y180519D01*
X151457Y180456D01*
X151418Y180392D01*
X151381Y180325D01*
X151349Y180257D01*
X151320Y180187D01*
X151294Y180115D01*
X151273Y180043D01*
X151255Y179969D01*
X151240Y179894D01*
X151230Y179819D01*
X151224Y179744D01*
X151221Y179668D01*
X151222Y179592D01*
X151228Y179517D01*
X151237Y179441D01*
X151250Y179367D01*
X151266Y179293D01*
X151287Y179220D01*
X151311Y179148D01*
X151339Y179078D01*
X151371Y179009D01*
X151406Y178941D01*
X151444Y178876D01*
X151486Y178813D01*
X151531Y178752D01*
X151579Y178693D01*
X151630Y178637D01*
X151683Y178583D01*
X151740Y178533D01*
X151799Y178485D01*
X151860Y178441D01*
X151924Y178399D01*
X151989Y178361D01*
X152057Y178327D01*
X152126Y178296D01*
X152196Y178268D01*
X152268Y178244D01*
X152342Y178224D01*
X152416Y178208D01*
X152490Y178195D01*
X152566Y178187D01*
X152641Y178182D01*
X152717Y178181D01*
X152945Y178187D01*
X153173Y178198D01*
X153400Y178215D01*
X153627Y178237D01*
X153854Y178265D01*
X154080Y178297D01*
X154304Y178336D01*
X154528Y178379D01*
X154751Y178428D01*
X154973Y178482D01*
X155193Y178541D01*
X155412Y178605D01*
X155629Y178675D01*
X155845Y178750D01*
X147265Y180456D02*
X147265Y182731D01*
X147263Y182825D01*
X147257Y182919D01*
X147248Y183012D01*
X147234Y183105D01*
X147217Y183198D01*
X147195Y183289D01*
X147170Y183380D01*
X147142Y183470D01*
X147109Y183558D01*
X147073Y183645D01*
X147034Y183730D01*
X146991Y183814D01*
X146944Y183896D01*
X146895Y183975D01*
X146842Y184053D01*
X146785Y184128D01*
X146726Y184201D01*
X146664Y184272D01*
X146599Y184340D01*
X146531Y184405D01*
X146460Y184467D01*
X146387Y184526D01*
X146312Y184583D01*
X146234Y184636D01*
X146155Y184685D01*
X146073Y184732D01*
X145989Y184775D01*
X145904Y184814D01*
X145817Y184850D01*
X145729Y184883D01*
X145639Y184911D01*
X145548Y184936D01*
X145457Y184958D01*
X145364Y184975D01*
X145271Y184989D01*
X145178Y184998D01*
X145084Y185004D01*
X144990Y185006D01*
X144896Y185004D01*
X144802Y184998D01*
X144709Y184989D01*
X144616Y184975D01*
X144523Y184958D01*
X144432Y184936D01*
X144341Y184911D01*
X144251Y184883D01*
X144163Y184850D01*
X144076Y184814D01*
X143991Y184775D01*
X143907Y184732D01*
X143825Y184685D01*
X143746Y184636D01*
X143668Y184583D01*
X143593Y184526D01*
X143520Y184467D01*
X143449Y184405D01*
X143381Y184340D01*
X143316Y184272D01*
X143254Y184201D01*
X143195Y184128D01*
X143138Y184053D01*
X143085Y183975D01*
X143036Y183896D01*
X142989Y183814D01*
X142946Y183730D01*
X142907Y183645D01*
X142871Y183558D01*
X142838Y183470D01*
X142810Y183380D01*
X142785Y183289D01*
X142763Y183198D01*
X142746Y183105D01*
X142732Y183012D01*
X142723Y182919D01*
X142717Y182825D01*
X142715Y182731D01*
X142715Y180456D01*
X142717Y180362D01*
X142723Y180268D01*
X142732Y180175D01*
X142746Y180082D01*
X142763Y179989D01*
X142785Y179898D01*
X142810Y179807D01*
X142838Y179717D01*
X142871Y179629D01*
X142907Y179542D01*
X142946Y179457D01*
X142989Y179373D01*
X143036Y179291D01*
X143085Y179212D01*
X143138Y179134D01*
X143195Y179059D01*
X143254Y178986D01*
X143316Y178915D01*
X143381Y178847D01*
X143449Y178782D01*
X143520Y178720D01*
X143593Y178661D01*
X143668Y178604D01*
X143746Y178551D01*
X143825Y178502D01*
X143907Y178455D01*
X143991Y178412D01*
X144076Y178373D01*
X144163Y178337D01*
X144251Y178304D01*
X144341Y178276D01*
X144432Y178251D01*
X144523Y178229D01*
X144616Y178212D01*
X144709Y178198D01*
X144802Y178189D01*
X144896Y178183D01*
X144990Y178181D01*
X145084Y178183D01*
X145178Y178189D01*
X145271Y178198D01*
X145364Y178212D01*
X145457Y178229D01*
X145548Y178251D01*
X145639Y178276D01*
X145729Y178304D01*
X145817Y178337D01*
X145904Y178373D01*
X145989Y178412D01*
X146073Y178455D01*
X146155Y178502D01*
X146234Y178551D01*
X146312Y178604D01*
X146387Y178661D01*
X146460Y178720D01*
X146531Y178782D01*
X146599Y178847D01*
X146664Y178915D01*
X146726Y178986D01*
X146785Y179059D01*
X146842Y179134D01*
X146895Y179212D01*
X146944Y179291D01*
X146991Y179373D01*
X147034Y179457D01*
X147073Y179542D01*
X147109Y179629D01*
X147142Y179717D01*
X147170Y179807D01*
X147195Y179898D01*
X147217Y179989D01*
X147234Y180082D01*
X147248Y180175D01*
X147257Y180268D01*
X147263Y180362D01*
X147265Y180456D01*
X138542Y179887D02*
X138542Y188419D01*
X138542Y179887D02*
X138540Y179806D01*
X138534Y179725D01*
X138525Y179644D01*
X138511Y179564D01*
X138494Y179485D01*
X138473Y179406D01*
X138448Y179329D01*
X138420Y179253D01*
X138388Y179178D01*
X138352Y179105D01*
X138313Y179034D01*
X138271Y178965D01*
X138226Y178897D01*
X138177Y178832D01*
X138125Y178770D01*
X138071Y178710D01*
X138013Y178652D01*
X137953Y178598D01*
X137891Y178546D01*
X137826Y178497D01*
X137758Y178452D01*
X137689Y178410D01*
X137618Y178371D01*
X137545Y178335D01*
X137470Y178303D01*
X137394Y178275D01*
X137317Y178250D01*
X137238Y178229D01*
X137159Y178212D01*
X137079Y178198D01*
X136998Y178189D01*
X136917Y178183D01*
X136836Y178181D01*
X131699Y178181D02*
X128855Y178181D01*
X131699Y178181D02*
X131780Y178183D01*
X131861Y178189D01*
X131942Y178198D01*
X132022Y178212D01*
X132101Y178229D01*
X132180Y178250D01*
X132257Y178275D01*
X132333Y178303D01*
X132408Y178335D01*
X132481Y178371D01*
X132552Y178410D01*
X132621Y178452D01*
X132689Y178497D01*
X132754Y178546D01*
X132816Y178598D01*
X132876Y178652D01*
X132934Y178710D01*
X132988Y178770D01*
X133040Y178832D01*
X133089Y178897D01*
X133134Y178965D01*
X133176Y179034D01*
X133215Y179105D01*
X133251Y179178D01*
X133283Y179253D01*
X133311Y179329D01*
X133336Y179406D01*
X133357Y179485D01*
X133374Y179564D01*
X133388Y179644D01*
X133397Y179725D01*
X133403Y179806D01*
X133405Y179887D01*
X133405Y182731D01*
X133403Y182825D01*
X133397Y182919D01*
X133388Y183012D01*
X133374Y183105D01*
X133357Y183198D01*
X133335Y183289D01*
X133310Y183380D01*
X133282Y183470D01*
X133249Y183558D01*
X133213Y183645D01*
X133174Y183730D01*
X133131Y183814D01*
X133084Y183896D01*
X133035Y183975D01*
X132982Y184053D01*
X132925Y184128D01*
X132866Y184201D01*
X132804Y184272D01*
X132739Y184340D01*
X132671Y184405D01*
X132600Y184467D01*
X132527Y184526D01*
X132452Y184583D01*
X132374Y184636D01*
X132295Y184685D01*
X132213Y184732D01*
X132129Y184775D01*
X132044Y184814D01*
X131957Y184850D01*
X131869Y184883D01*
X131779Y184911D01*
X131688Y184936D01*
X131597Y184958D01*
X131504Y184975D01*
X131411Y184989D01*
X131318Y184998D01*
X131224Y185004D01*
X131130Y185006D01*
X131036Y185004D01*
X130942Y184998D01*
X130849Y184989D01*
X130756Y184975D01*
X130663Y184958D01*
X130572Y184936D01*
X130481Y184911D01*
X130391Y184883D01*
X130303Y184850D01*
X130216Y184814D01*
X130131Y184775D01*
X130047Y184732D01*
X129965Y184685D01*
X129886Y184636D01*
X129808Y184583D01*
X129733Y184526D01*
X129660Y184467D01*
X129589Y184405D01*
X129521Y184340D01*
X129456Y184272D01*
X129394Y184201D01*
X129335Y184128D01*
X129278Y184053D01*
X129225Y183975D01*
X129176Y183896D01*
X129129Y183814D01*
X129086Y183730D01*
X129047Y183645D01*
X129011Y183558D01*
X128978Y183470D01*
X128950Y183380D01*
X128925Y183289D01*
X128903Y183198D01*
X128886Y183105D01*
X128872Y183012D01*
X128863Y182919D01*
X128857Y182825D01*
X128855Y182731D01*
X128855Y181594D01*
X133405Y181594D01*
X123972Y182162D02*
X121128Y181025D01*
X123972Y182162D02*
X124041Y182192D01*
X124109Y182226D01*
X124176Y182263D01*
X124240Y182303D01*
X124302Y182347D01*
X124362Y182393D01*
X124419Y182443D01*
X124474Y182496D01*
X124525Y182551D01*
X124574Y182609D01*
X124620Y182669D01*
X124663Y182732D01*
X124702Y182796D01*
X124739Y182863D01*
X124771Y182931D01*
X124800Y183001D01*
X124826Y183073D01*
X124847Y183145D01*
X124865Y183219D01*
X124880Y183294D01*
X124890Y183369D01*
X124896Y183444D01*
X124899Y183520D01*
X124898Y183596D01*
X124892Y183671D01*
X124883Y183747D01*
X124870Y183821D01*
X124854Y183895D01*
X124833Y183968D01*
X124809Y184040D01*
X124781Y184110D01*
X124749Y184179D01*
X124714Y184247D01*
X124676Y184312D01*
X124634Y184375D01*
X124589Y184436D01*
X124541Y184495D01*
X124490Y184551D01*
X124437Y184605D01*
X124380Y184655D01*
X124321Y184703D01*
X124260Y184747D01*
X124196Y184789D01*
X124131Y184827D01*
X124063Y184861D01*
X123994Y184892D01*
X123924Y184920D01*
X123852Y184944D01*
X123778Y184964D01*
X123704Y184980D01*
X123630Y184993D01*
X123554Y185001D01*
X123479Y185006D01*
X123403Y185007D01*
X123403Y185006D02*
X123247Y185002D01*
X123092Y184994D01*
X122938Y184983D01*
X122783Y184968D01*
X122629Y184949D01*
X122475Y184926D01*
X122322Y184900D01*
X122170Y184870D01*
X122018Y184836D01*
X121867Y184799D01*
X121718Y184758D01*
X121569Y184713D01*
X121421Y184665D01*
X121275Y184613D01*
X121129Y184558D01*
X120986Y184500D01*
X120843Y184438D01*
X121128Y181026D02*
X121059Y180996D01*
X120991Y180962D01*
X120924Y180925D01*
X120860Y180885D01*
X120798Y180841D01*
X120738Y180795D01*
X120681Y180745D01*
X120626Y180692D01*
X120575Y180637D01*
X120526Y180579D01*
X120480Y180519D01*
X120437Y180456D01*
X120398Y180392D01*
X120361Y180325D01*
X120329Y180257D01*
X120300Y180187D01*
X120274Y180115D01*
X120253Y180043D01*
X120235Y179969D01*
X120220Y179894D01*
X120210Y179819D01*
X120204Y179744D01*
X120201Y179668D01*
X120202Y179592D01*
X120208Y179517D01*
X120217Y179441D01*
X120230Y179367D01*
X120246Y179293D01*
X120267Y179220D01*
X120291Y179148D01*
X120319Y179078D01*
X120351Y179009D01*
X120386Y178941D01*
X120424Y178876D01*
X120466Y178813D01*
X120511Y178752D01*
X120559Y178693D01*
X120610Y178637D01*
X120663Y178583D01*
X120720Y178533D01*
X120779Y178485D01*
X120840Y178441D01*
X120904Y178399D01*
X120969Y178361D01*
X121037Y178327D01*
X121106Y178296D01*
X121176Y178268D01*
X121248Y178244D01*
X121322Y178224D01*
X121396Y178208D01*
X121470Y178195D01*
X121546Y178187D01*
X121621Y178182D01*
X121697Y178181D01*
X121925Y178187D01*
X122153Y178198D01*
X122380Y178215D01*
X122607Y178237D01*
X122834Y178265D01*
X123060Y178297D01*
X123284Y178336D01*
X123508Y178379D01*
X123731Y178428D01*
X123953Y178482D01*
X124173Y178541D01*
X124392Y178605D01*
X124609Y178675D01*
X124825Y178750D01*
X115824Y181025D02*
X115824Y188419D01*
X115824Y181025D02*
X115822Y180920D01*
X115816Y180815D01*
X115807Y180710D01*
X115793Y180606D01*
X115776Y180502D01*
X115754Y180399D01*
X115729Y180297D01*
X115701Y180196D01*
X115668Y180096D01*
X115632Y179998D01*
X115592Y179900D01*
X115549Y179805D01*
X115502Y179710D01*
X115452Y179618D01*
X115398Y179528D01*
X115341Y179440D01*
X115281Y179353D01*
X115218Y179269D01*
X115151Y179188D01*
X115082Y179109D01*
X115010Y179033D01*
X114935Y178959D01*
X114857Y178888D01*
X114777Y178820D01*
X114694Y178755D01*
X114609Y178694D01*
X114522Y178635D01*
X114432Y178580D01*
X114341Y178528D01*
X114248Y178479D01*
X114153Y178434D01*
X114056Y178392D01*
X113958Y178355D01*
X113859Y178320D01*
X113758Y178290D01*
X113657Y178263D01*
X113554Y178240D01*
X113451Y178220D01*
X113347Y178205D01*
X113242Y178193D01*
X113138Y178185D01*
X113033Y178181D01*
X112927Y178181D01*
X112822Y178185D01*
X112718Y178193D01*
X112613Y178205D01*
X112509Y178220D01*
X112406Y178240D01*
X112303Y178263D01*
X112202Y178290D01*
X112101Y178320D01*
X112002Y178355D01*
X111904Y178392D01*
X111807Y178434D01*
X111712Y178479D01*
X111619Y178528D01*
X111528Y178580D01*
X111438Y178635D01*
X111351Y178694D01*
X111266Y178755D01*
X111183Y178820D01*
X111103Y178888D01*
X111025Y178959D01*
X110950Y179033D01*
X110878Y179109D01*
X110809Y179188D01*
X110742Y179269D01*
X110679Y179353D01*
X110619Y179440D01*
X110562Y179528D01*
X110508Y179618D01*
X110458Y179710D01*
X110411Y179805D01*
X110368Y179900D01*
X110328Y179998D01*
X110292Y180096D01*
X110259Y180196D01*
X110231Y180297D01*
X110206Y180399D01*
X110184Y180502D01*
X110167Y180606D01*
X110153Y180710D01*
X110144Y180815D01*
X110138Y180920D01*
X110136Y181025D01*
X110136Y188419D01*
X105355Y185006D02*
X105355Y178181D01*
X105355Y185006D02*
X102511Y185006D01*
X102430Y185004D01*
X102349Y184998D01*
X102268Y184989D01*
X102188Y184975D01*
X102109Y184958D01*
X102030Y184937D01*
X101953Y184912D01*
X101877Y184884D01*
X101802Y184852D01*
X101729Y184816D01*
X101658Y184777D01*
X101589Y184735D01*
X101521Y184690D01*
X101456Y184641D01*
X101394Y184589D01*
X101334Y184535D01*
X101276Y184477D01*
X101222Y184417D01*
X101170Y184355D01*
X101121Y184290D01*
X101076Y184222D01*
X101034Y184153D01*
X100995Y184082D01*
X100959Y184009D01*
X100927Y183934D01*
X100899Y183858D01*
X100874Y183781D01*
X100853Y183702D01*
X100836Y183623D01*
X100822Y183543D01*
X100813Y183462D01*
X100807Y183381D01*
X100805Y183300D01*
X100805Y178181D01*
X96302Y179887D02*
X96302Y188419D01*
X96302Y179887D02*
X96300Y179806D01*
X96294Y179725D01*
X96285Y179644D01*
X96271Y179564D01*
X96254Y179485D01*
X96233Y179406D01*
X96208Y179329D01*
X96180Y179253D01*
X96148Y179178D01*
X96112Y179105D01*
X96073Y179034D01*
X96031Y178965D01*
X95986Y178897D01*
X95937Y178832D01*
X95885Y178770D01*
X95831Y178710D01*
X95773Y178652D01*
X95713Y178598D01*
X95651Y178546D01*
X95586Y178497D01*
X95518Y178452D01*
X95449Y178410D01*
X95378Y178371D01*
X95305Y178335D01*
X95230Y178303D01*
X95154Y178275D01*
X95077Y178250D01*
X94998Y178229D01*
X94919Y178212D01*
X94839Y178198D01*
X94758Y178189D01*
X94677Y178183D01*
X94596Y178181D01*
X89459Y178181D02*
X86615Y178181D01*
X89459Y178181D02*
X89540Y178183D01*
X89621Y178189D01*
X89702Y178198D01*
X89782Y178212D01*
X89861Y178229D01*
X89940Y178250D01*
X90017Y178275D01*
X90093Y178303D01*
X90168Y178335D01*
X90241Y178371D01*
X90312Y178410D01*
X90381Y178452D01*
X90449Y178497D01*
X90514Y178546D01*
X90576Y178598D01*
X90636Y178652D01*
X90694Y178710D01*
X90748Y178770D01*
X90800Y178832D01*
X90849Y178897D01*
X90894Y178965D01*
X90936Y179034D01*
X90975Y179105D01*
X91011Y179178D01*
X91043Y179253D01*
X91071Y179329D01*
X91096Y179406D01*
X91117Y179485D01*
X91134Y179564D01*
X91148Y179644D01*
X91157Y179725D01*
X91163Y179806D01*
X91165Y179887D01*
X91165Y182731D01*
X91163Y182825D01*
X91157Y182919D01*
X91148Y183012D01*
X91134Y183105D01*
X91117Y183198D01*
X91095Y183289D01*
X91070Y183380D01*
X91042Y183470D01*
X91009Y183558D01*
X90973Y183645D01*
X90934Y183730D01*
X90891Y183814D01*
X90844Y183896D01*
X90795Y183975D01*
X90742Y184053D01*
X90685Y184128D01*
X90626Y184201D01*
X90564Y184272D01*
X90499Y184340D01*
X90431Y184405D01*
X90360Y184467D01*
X90287Y184526D01*
X90212Y184583D01*
X90134Y184636D01*
X90055Y184685D01*
X89973Y184732D01*
X89889Y184775D01*
X89804Y184814D01*
X89717Y184850D01*
X89629Y184883D01*
X89539Y184911D01*
X89448Y184936D01*
X89357Y184958D01*
X89264Y184975D01*
X89171Y184989D01*
X89078Y184998D01*
X88984Y185004D01*
X88890Y185006D01*
X88796Y185004D01*
X88702Y184998D01*
X88609Y184989D01*
X88516Y184975D01*
X88423Y184958D01*
X88332Y184936D01*
X88241Y184911D01*
X88151Y184883D01*
X88063Y184850D01*
X87976Y184814D01*
X87891Y184775D01*
X87807Y184732D01*
X87725Y184685D01*
X87646Y184636D01*
X87568Y184583D01*
X87493Y184526D01*
X87420Y184467D01*
X87349Y184405D01*
X87281Y184340D01*
X87216Y184272D01*
X87154Y184201D01*
X87095Y184128D01*
X87038Y184053D01*
X86985Y183975D01*
X86936Y183896D01*
X86889Y183814D01*
X86846Y183730D01*
X86807Y183645D01*
X86771Y183558D01*
X86738Y183470D01*
X86710Y183380D01*
X86685Y183289D01*
X86663Y183198D01*
X86646Y183105D01*
X86632Y183012D01*
X86623Y182919D01*
X86617Y182825D01*
X86615Y182731D01*
X86615Y181594D01*
X91165Y181594D01*
X80642Y182162D02*
X78083Y182162D01*
X80642Y182163D02*
X80730Y182161D01*
X80818Y182155D01*
X80906Y182145D01*
X80993Y182132D01*
X81079Y182114D01*
X81164Y182093D01*
X81249Y182068D01*
X81332Y182040D01*
X81414Y182007D01*
X81495Y181971D01*
X81573Y181932D01*
X81650Y181889D01*
X81725Y181843D01*
X81798Y181793D01*
X81869Y181740D01*
X81937Y181685D01*
X82002Y181626D01*
X82065Y181564D01*
X82126Y181500D01*
X82183Y181433D01*
X82237Y181364D01*
X82288Y181292D01*
X82336Y181218D01*
X82381Y181142D01*
X82422Y181064D01*
X82460Y180984D01*
X82494Y180903D01*
X82524Y180821D01*
X82551Y180737D01*
X82574Y180652D01*
X82594Y180566D01*
X82609Y180479D01*
X82621Y180392D01*
X82629Y180304D01*
X82633Y180216D01*
X82633Y180128D01*
X82629Y180040D01*
X82621Y179952D01*
X82609Y179865D01*
X82594Y179778D01*
X82574Y179692D01*
X82551Y179607D01*
X82524Y179523D01*
X82494Y179441D01*
X82460Y179360D01*
X82422Y179280D01*
X82381Y179202D01*
X82336Y179126D01*
X82288Y179052D01*
X82237Y178980D01*
X82183Y178911D01*
X82126Y178844D01*
X82065Y178780D01*
X82002Y178718D01*
X81937Y178659D01*
X81869Y178604D01*
X81798Y178551D01*
X81725Y178501D01*
X81650Y178455D01*
X81573Y178412D01*
X81495Y178373D01*
X81414Y178337D01*
X81332Y178304D01*
X81249Y178276D01*
X81164Y178251D01*
X81079Y178230D01*
X80993Y178212D01*
X80906Y178199D01*
X80818Y178189D01*
X80730Y178183D01*
X80642Y178181D01*
X78083Y178181D01*
X78083Y183300D01*
X78085Y183381D01*
X78091Y183462D01*
X78100Y183543D01*
X78114Y183623D01*
X78131Y183702D01*
X78152Y183781D01*
X78177Y183858D01*
X78205Y183934D01*
X78237Y184009D01*
X78273Y184082D01*
X78312Y184153D01*
X78354Y184222D01*
X78399Y184290D01*
X78448Y184355D01*
X78500Y184417D01*
X78554Y184477D01*
X78612Y184535D01*
X78672Y184589D01*
X78734Y184641D01*
X78799Y184690D01*
X78867Y184735D01*
X78936Y184777D01*
X79007Y184816D01*
X79080Y184852D01*
X79155Y184884D01*
X79231Y184912D01*
X79308Y184937D01*
X79387Y184958D01*
X79466Y184975D01*
X79546Y184989D01*
X79627Y184998D01*
X79708Y185004D01*
X79789Y185006D01*
X82064Y185006D01*
X72822Y182162D02*
X69978Y181025D01*
X72822Y182162D02*
X72891Y182192D01*
X72959Y182226D01*
X73026Y182263D01*
X73090Y182303D01*
X73152Y182347D01*
X73212Y182393D01*
X73269Y182443D01*
X73324Y182496D01*
X73375Y182551D01*
X73424Y182609D01*
X73470Y182669D01*
X73513Y182732D01*
X73552Y182796D01*
X73589Y182863D01*
X73621Y182931D01*
X73650Y183001D01*
X73676Y183073D01*
X73697Y183145D01*
X73715Y183219D01*
X73730Y183294D01*
X73740Y183369D01*
X73746Y183444D01*
X73749Y183520D01*
X73748Y183596D01*
X73742Y183671D01*
X73733Y183747D01*
X73720Y183821D01*
X73704Y183895D01*
X73683Y183968D01*
X73659Y184040D01*
X73631Y184110D01*
X73599Y184179D01*
X73564Y184247D01*
X73526Y184312D01*
X73484Y184375D01*
X73439Y184436D01*
X73391Y184495D01*
X73340Y184551D01*
X73287Y184605D01*
X73230Y184655D01*
X73171Y184703D01*
X73110Y184747D01*
X73046Y184789D01*
X72981Y184827D01*
X72913Y184861D01*
X72844Y184892D01*
X72774Y184920D01*
X72702Y184944D01*
X72628Y184964D01*
X72554Y184980D01*
X72480Y184993D01*
X72404Y185001D01*
X72329Y185006D01*
X72253Y185007D01*
X72254Y185006D02*
X72098Y185002D01*
X71943Y184994D01*
X71789Y184983D01*
X71634Y184968D01*
X71480Y184949D01*
X71326Y184926D01*
X71173Y184900D01*
X71021Y184870D01*
X70869Y184836D01*
X70718Y184799D01*
X70569Y184758D01*
X70420Y184713D01*
X70272Y184665D01*
X70126Y184613D01*
X69980Y184558D01*
X69837Y184500D01*
X69694Y184438D01*
X69978Y181026D02*
X69909Y180996D01*
X69841Y180962D01*
X69774Y180925D01*
X69710Y180885D01*
X69648Y180841D01*
X69588Y180795D01*
X69531Y180745D01*
X69476Y180692D01*
X69425Y180637D01*
X69376Y180579D01*
X69330Y180519D01*
X69287Y180456D01*
X69248Y180392D01*
X69211Y180325D01*
X69179Y180257D01*
X69150Y180187D01*
X69124Y180115D01*
X69103Y180043D01*
X69085Y179969D01*
X69070Y179894D01*
X69060Y179819D01*
X69054Y179744D01*
X69051Y179668D01*
X69052Y179592D01*
X69058Y179517D01*
X69067Y179441D01*
X69080Y179367D01*
X69096Y179293D01*
X69117Y179220D01*
X69141Y179148D01*
X69169Y179078D01*
X69201Y179009D01*
X69236Y178941D01*
X69274Y178876D01*
X69316Y178813D01*
X69361Y178752D01*
X69409Y178693D01*
X69460Y178637D01*
X69513Y178583D01*
X69570Y178533D01*
X69629Y178485D01*
X69690Y178441D01*
X69754Y178399D01*
X69819Y178361D01*
X69887Y178327D01*
X69956Y178296D01*
X70026Y178268D01*
X70098Y178244D01*
X70172Y178224D01*
X70246Y178208D01*
X70320Y178195D01*
X70396Y178187D01*
X70471Y178182D01*
X70547Y178181D01*
X70775Y178187D01*
X71003Y178198D01*
X71230Y178215D01*
X71457Y178237D01*
X71684Y178265D01*
X71910Y178297D01*
X72134Y178336D01*
X72358Y178379D01*
X72581Y178428D01*
X72803Y178482D01*
X73023Y178541D01*
X73242Y178605D01*
X73459Y178675D01*
X73675Y178750D01*
X64765Y178181D02*
X64765Y188419D01*
X64765Y185006D02*
X61921Y185006D01*
X61840Y185004D01*
X61759Y184998D01*
X61678Y184989D01*
X61598Y184975D01*
X61519Y184958D01*
X61440Y184937D01*
X61363Y184912D01*
X61287Y184884D01*
X61212Y184852D01*
X61139Y184816D01*
X61068Y184777D01*
X60999Y184735D01*
X60931Y184690D01*
X60866Y184641D01*
X60804Y184589D01*
X60744Y184535D01*
X60686Y184477D01*
X60632Y184417D01*
X60580Y184355D01*
X60531Y184290D01*
X60486Y184222D01*
X60444Y184153D01*
X60405Y184082D01*
X60369Y184009D01*
X60337Y183934D01*
X60309Y183858D01*
X60284Y183781D01*
X60263Y183702D01*
X60246Y183623D01*
X60232Y183543D01*
X60223Y183462D01*
X60217Y183381D01*
X60215Y183300D01*
X60215Y178181D01*
X54149Y178181D02*
X51305Y178181D01*
X54149Y178181D02*
X54230Y178183D01*
X54311Y178189D01*
X54392Y178198D01*
X54472Y178212D01*
X54551Y178229D01*
X54630Y178250D01*
X54707Y178275D01*
X54783Y178303D01*
X54858Y178335D01*
X54931Y178371D01*
X55002Y178410D01*
X55071Y178452D01*
X55139Y178497D01*
X55204Y178546D01*
X55266Y178598D01*
X55326Y178652D01*
X55384Y178710D01*
X55438Y178770D01*
X55490Y178832D01*
X55539Y178897D01*
X55584Y178965D01*
X55626Y179034D01*
X55665Y179105D01*
X55701Y179178D01*
X55733Y179253D01*
X55761Y179329D01*
X55786Y179406D01*
X55807Y179485D01*
X55824Y179564D01*
X55838Y179644D01*
X55847Y179725D01*
X55853Y179806D01*
X55855Y179887D01*
X55855Y182731D01*
X55853Y182825D01*
X55847Y182919D01*
X55838Y183012D01*
X55824Y183105D01*
X55807Y183198D01*
X55785Y183289D01*
X55760Y183380D01*
X55732Y183470D01*
X55699Y183558D01*
X55663Y183645D01*
X55624Y183730D01*
X55581Y183814D01*
X55534Y183896D01*
X55485Y183975D01*
X55432Y184053D01*
X55375Y184128D01*
X55316Y184201D01*
X55254Y184272D01*
X55189Y184340D01*
X55121Y184405D01*
X55050Y184467D01*
X54977Y184526D01*
X54902Y184583D01*
X54824Y184636D01*
X54745Y184685D01*
X54663Y184732D01*
X54579Y184775D01*
X54494Y184814D01*
X54407Y184850D01*
X54319Y184883D01*
X54229Y184911D01*
X54138Y184936D01*
X54047Y184958D01*
X53954Y184975D01*
X53861Y184989D01*
X53768Y184998D01*
X53674Y185004D01*
X53580Y185006D01*
X53486Y185004D01*
X53392Y184998D01*
X53299Y184989D01*
X53206Y184975D01*
X53113Y184958D01*
X53022Y184936D01*
X52931Y184911D01*
X52841Y184883D01*
X52753Y184850D01*
X52666Y184814D01*
X52581Y184775D01*
X52497Y184732D01*
X52415Y184685D01*
X52336Y184636D01*
X52258Y184583D01*
X52183Y184526D01*
X52110Y184467D01*
X52039Y184405D01*
X51971Y184340D01*
X51906Y184272D01*
X51844Y184201D01*
X51785Y184128D01*
X51728Y184053D01*
X51675Y183975D01*
X51626Y183896D01*
X51579Y183814D01*
X51536Y183730D01*
X51497Y183645D01*
X51461Y183558D01*
X51428Y183470D01*
X51400Y183380D01*
X51375Y183289D01*
X51353Y183198D01*
X51336Y183105D01*
X51322Y183012D01*
X51313Y182919D01*
X51307Y182825D01*
X51305Y182731D01*
X51305Y181594D01*
X55855Y181594D01*
X42773Y178181D02*
X42773Y188419D01*
X42773Y178181D02*
X45617Y178181D01*
X45698Y178183D01*
X45779Y178189D01*
X45860Y178198D01*
X45940Y178212D01*
X46019Y178229D01*
X46098Y178250D01*
X46175Y178275D01*
X46251Y178303D01*
X46326Y178335D01*
X46399Y178371D01*
X46470Y178410D01*
X46539Y178452D01*
X46607Y178497D01*
X46672Y178546D01*
X46734Y178598D01*
X46794Y178652D01*
X46852Y178710D01*
X46906Y178770D01*
X46958Y178832D01*
X47007Y178897D01*
X47052Y178965D01*
X47094Y179034D01*
X47133Y179105D01*
X47169Y179178D01*
X47201Y179253D01*
X47229Y179329D01*
X47254Y179406D01*
X47275Y179485D01*
X47292Y179564D01*
X47306Y179644D01*
X47315Y179725D01*
X47321Y179806D01*
X47323Y179887D01*
X47323Y183300D01*
X47321Y183381D01*
X47315Y183462D01*
X47306Y183543D01*
X47292Y183623D01*
X47275Y183702D01*
X47254Y183781D01*
X47229Y183858D01*
X47201Y183934D01*
X47169Y184009D01*
X47133Y184082D01*
X47094Y184153D01*
X47052Y184222D01*
X47007Y184290D01*
X46958Y184355D01*
X46906Y184417D01*
X46852Y184477D01*
X46794Y184535D01*
X46734Y184589D01*
X46672Y184641D01*
X46607Y184690D01*
X46539Y184735D01*
X46470Y184777D01*
X46399Y184816D01*
X46326Y184852D01*
X46251Y184884D01*
X46175Y184912D01*
X46098Y184937D01*
X46019Y184958D01*
X45940Y184975D01*
X45860Y184989D01*
X45779Y184998D01*
X45698Y185004D01*
X45617Y185006D01*
X42773Y185006D01*
X38685Y178750D02*
X38685Y178181D01*
X38685Y178750D02*
X38116Y178750D01*
X38116Y178181D01*
X38685Y178181D01*
X32688Y178181D02*
X30413Y178181D01*
X32688Y178181D02*
X32769Y178183D01*
X32850Y178189D01*
X32931Y178198D01*
X33011Y178212D01*
X33090Y178229D01*
X33169Y178250D01*
X33246Y178275D01*
X33322Y178303D01*
X33397Y178335D01*
X33470Y178371D01*
X33541Y178410D01*
X33610Y178452D01*
X33678Y178497D01*
X33743Y178546D01*
X33805Y178598D01*
X33865Y178652D01*
X33923Y178710D01*
X33977Y178770D01*
X34029Y178832D01*
X34078Y178897D01*
X34123Y178965D01*
X34165Y179034D01*
X34204Y179105D01*
X34240Y179178D01*
X34272Y179253D01*
X34300Y179329D01*
X34325Y179406D01*
X34346Y179485D01*
X34363Y179564D01*
X34377Y179644D01*
X34386Y179725D01*
X34392Y179806D01*
X34394Y179887D01*
X34395Y179887D02*
X34395Y183300D01*
X34394Y183300D02*
X34392Y183381D01*
X34386Y183462D01*
X34377Y183543D01*
X34363Y183623D01*
X34346Y183702D01*
X34325Y183781D01*
X34300Y183858D01*
X34272Y183934D01*
X34240Y184009D01*
X34204Y184082D01*
X34165Y184153D01*
X34123Y184222D01*
X34078Y184290D01*
X34029Y184355D01*
X33977Y184417D01*
X33923Y184477D01*
X33865Y184535D01*
X33805Y184589D01*
X33743Y184641D01*
X33678Y184690D01*
X33610Y184735D01*
X33541Y184777D01*
X33470Y184816D01*
X33397Y184852D01*
X33322Y184884D01*
X33246Y184912D01*
X33169Y184937D01*
X33090Y184958D01*
X33011Y184975D01*
X32931Y184989D01*
X32850Y184998D01*
X32769Y185004D01*
X32688Y185006D01*
X30413Y185006D01*
X26815Y182731D02*
X26815Y180456D01*
X26815Y182731D02*
X26813Y182825D01*
X26807Y182919D01*
X26798Y183012D01*
X26784Y183105D01*
X26767Y183198D01*
X26745Y183289D01*
X26720Y183380D01*
X26692Y183470D01*
X26659Y183558D01*
X26623Y183645D01*
X26584Y183730D01*
X26541Y183814D01*
X26494Y183896D01*
X26445Y183975D01*
X26392Y184053D01*
X26335Y184128D01*
X26276Y184201D01*
X26214Y184272D01*
X26149Y184340D01*
X26081Y184405D01*
X26010Y184467D01*
X25937Y184526D01*
X25862Y184583D01*
X25784Y184636D01*
X25705Y184685D01*
X25623Y184732D01*
X25539Y184775D01*
X25454Y184814D01*
X25367Y184850D01*
X25279Y184883D01*
X25189Y184911D01*
X25098Y184936D01*
X25007Y184958D01*
X24914Y184975D01*
X24821Y184989D01*
X24728Y184998D01*
X24634Y185004D01*
X24540Y185006D01*
X24446Y185004D01*
X24352Y184998D01*
X24259Y184989D01*
X24166Y184975D01*
X24073Y184958D01*
X23982Y184936D01*
X23891Y184911D01*
X23801Y184883D01*
X23713Y184850D01*
X23626Y184814D01*
X23541Y184775D01*
X23457Y184732D01*
X23375Y184685D01*
X23296Y184636D01*
X23218Y184583D01*
X23143Y184526D01*
X23070Y184467D01*
X22999Y184405D01*
X22931Y184340D01*
X22866Y184272D01*
X22804Y184201D01*
X22745Y184128D01*
X22688Y184053D01*
X22635Y183975D01*
X22586Y183896D01*
X22539Y183814D01*
X22496Y183730D01*
X22457Y183645D01*
X22421Y183558D01*
X22388Y183470D01*
X22360Y183380D01*
X22335Y183289D01*
X22313Y183198D01*
X22296Y183105D01*
X22282Y183012D01*
X22273Y182919D01*
X22267Y182825D01*
X22265Y182731D01*
X22265Y180456D01*
X22267Y180362D01*
X22273Y180268D01*
X22282Y180175D01*
X22296Y180082D01*
X22313Y179989D01*
X22335Y179898D01*
X22360Y179807D01*
X22388Y179717D01*
X22421Y179629D01*
X22457Y179542D01*
X22496Y179457D01*
X22539Y179373D01*
X22586Y179291D01*
X22635Y179212D01*
X22688Y179134D01*
X22745Y179059D01*
X22804Y178986D01*
X22866Y178915D01*
X22931Y178847D01*
X22999Y178782D01*
X23070Y178720D01*
X23143Y178661D01*
X23218Y178604D01*
X23296Y178551D01*
X23375Y178502D01*
X23457Y178455D01*
X23541Y178412D01*
X23626Y178373D01*
X23713Y178337D01*
X23801Y178304D01*
X23891Y178276D01*
X23982Y178251D01*
X24073Y178229D01*
X24166Y178212D01*
X24259Y178198D01*
X24352Y178189D01*
X24446Y178183D01*
X24540Y178181D01*
X24634Y178183D01*
X24728Y178189D01*
X24821Y178198D01*
X24914Y178212D01*
X25007Y178229D01*
X25098Y178251D01*
X25189Y178276D01*
X25279Y178304D01*
X25367Y178337D01*
X25454Y178373D01*
X25539Y178412D01*
X25623Y178455D01*
X25705Y178502D01*
X25784Y178551D01*
X25862Y178604D01*
X25937Y178661D01*
X26010Y178720D01*
X26081Y178782D01*
X26149Y178847D01*
X26214Y178915D01*
X26276Y178986D01*
X26335Y179059D01*
X26392Y179134D01*
X26445Y179212D01*
X26494Y179291D01*
X26541Y179373D01*
X26584Y179457D01*
X26623Y179542D01*
X26659Y179629D01*
X26692Y179717D01*
X26720Y179807D01*
X26745Y179898D01*
X26767Y179989D01*
X26784Y180082D01*
X26798Y180175D01*
X26807Y180268D01*
X26813Y180362D01*
X26815Y180456D01*
X17723Y178181D02*
X17723Y185006D01*
X12604Y185006D01*
X12523Y185004D01*
X12442Y184998D01*
X12361Y184989D01*
X12281Y184975D01*
X12202Y184958D01*
X12123Y184937D01*
X12046Y184912D01*
X11970Y184884D01*
X11895Y184852D01*
X11822Y184816D01*
X11751Y184777D01*
X11682Y184735D01*
X11614Y184690D01*
X11549Y184641D01*
X11487Y184589D01*
X11427Y184535D01*
X11369Y184477D01*
X11315Y184417D01*
X11263Y184355D01*
X11214Y184290D01*
X11169Y184222D01*
X11127Y184153D01*
X11088Y184082D01*
X11052Y184009D01*
X11020Y183934D01*
X10992Y183858D01*
X10967Y183781D01*
X10946Y183702D01*
X10929Y183623D01*
X10915Y183543D01*
X10906Y183462D01*
X10900Y183381D01*
X10898Y183300D01*
X10898Y178181D01*
X14310Y178181D02*
X14310Y185006D01*
X143144Y77835D02*
X148636Y80123D01*
X148636Y75546D02*
X143144Y77835D01*
X134948Y74631D02*
X134948Y82869D01*
X132660Y82869D01*
X132565Y82867D01*
X132471Y82861D01*
X132377Y82851D01*
X132283Y82838D01*
X132190Y82820D01*
X132098Y82799D01*
X132007Y82774D01*
X131917Y82745D01*
X131828Y82712D01*
X131741Y82676D01*
X131655Y82637D01*
X131571Y82593D01*
X131489Y82547D01*
X131409Y82496D01*
X131331Y82443D01*
X131255Y82387D01*
X131181Y82327D01*
X131110Y82264D01*
X131042Y82199D01*
X130977Y82131D01*
X130914Y82060D01*
X130854Y81986D01*
X130798Y81911D01*
X130745Y81832D01*
X130694Y81752D01*
X130648Y81670D01*
X130604Y81586D01*
X130565Y81500D01*
X130529Y81413D01*
X130496Y81324D01*
X130467Y81234D01*
X130442Y81143D01*
X130421Y81051D01*
X130403Y80958D01*
X130390Y80864D01*
X130380Y80770D01*
X130374Y80676D01*
X130372Y80581D01*
X130372Y76919D01*
X130374Y76824D01*
X130380Y76730D01*
X130390Y76636D01*
X130403Y76542D01*
X130421Y76449D01*
X130442Y76357D01*
X130467Y76266D01*
X130496Y76176D01*
X130529Y76087D01*
X130565Y76000D01*
X130604Y75914D01*
X130648Y75830D01*
X130694Y75748D01*
X130745Y75668D01*
X130798Y75589D01*
X130854Y75514D01*
X130914Y75440D01*
X130977Y75369D01*
X131042Y75301D01*
X131110Y75236D01*
X131181Y75173D01*
X131255Y75113D01*
X131331Y75057D01*
X131409Y75004D01*
X131489Y74953D01*
X131571Y74907D01*
X131655Y74863D01*
X131741Y74824D01*
X131828Y74788D01*
X131917Y74755D01*
X132007Y74726D01*
X132098Y74701D01*
X132190Y74680D01*
X132283Y74662D01*
X132377Y74649D01*
X132471Y74639D01*
X132565Y74633D01*
X132660Y74631D01*
X134948Y74631D01*
X126292Y74631D02*
X122631Y74631D01*
X126292Y74631D02*
X126292Y82869D01*
X122631Y82869D01*
X123546Y79208D02*
X126292Y79208D01*
X117082Y74631D02*
X116997Y74633D01*
X116913Y74639D01*
X116829Y74649D01*
X116746Y74662D01*
X116663Y74680D01*
X116581Y74701D01*
X116500Y74726D01*
X116421Y74755D01*
X116342Y74787D01*
X116266Y74823D01*
X116191Y74862D01*
X116118Y74905D01*
X116047Y74951D01*
X115979Y75001D01*
X115912Y75053D01*
X115848Y75109D01*
X115787Y75167D01*
X115729Y75228D01*
X115673Y75292D01*
X115621Y75359D01*
X115571Y75427D01*
X115525Y75498D01*
X115482Y75571D01*
X115443Y75646D01*
X115407Y75722D01*
X115375Y75801D01*
X115346Y75880D01*
X115321Y75961D01*
X115300Y76043D01*
X115282Y76126D01*
X115269Y76209D01*
X115259Y76293D01*
X115253Y76377D01*
X115251Y76462D01*
X117082Y74631D02*
X117204Y74633D01*
X117326Y74639D01*
X117448Y74648D01*
X117569Y74662D01*
X117690Y74679D01*
X117810Y74700D01*
X117930Y74725D01*
X118049Y74754D01*
X118166Y74786D01*
X118283Y74822D01*
X118399Y74862D01*
X118513Y74905D01*
X118625Y74952D01*
X118737Y75003D01*
X118846Y75057D01*
X118954Y75114D01*
X119060Y75175D01*
X119164Y75239D01*
X119266Y75307D01*
X119365Y75377D01*
X119463Y75451D01*
X119558Y75528D01*
X119650Y75607D01*
X119740Y75690D01*
X119828Y75775D01*
X119600Y81038D02*
X119598Y81123D01*
X119592Y81207D01*
X119582Y81291D01*
X119569Y81374D01*
X119551Y81457D01*
X119530Y81539D01*
X119505Y81620D01*
X119476Y81699D01*
X119444Y81778D01*
X119408Y81854D01*
X119369Y81929D01*
X119326Y82002D01*
X119280Y82073D01*
X119230Y82141D01*
X119178Y82208D01*
X119122Y82272D01*
X119064Y82333D01*
X119003Y82391D01*
X118939Y82447D01*
X118872Y82499D01*
X118804Y82549D01*
X118733Y82595D01*
X118660Y82638D01*
X118585Y82677D01*
X118509Y82713D01*
X118430Y82745D01*
X118351Y82774D01*
X118270Y82799D01*
X118188Y82820D01*
X118105Y82838D01*
X118022Y82851D01*
X117938Y82861D01*
X117854Y82867D01*
X117769Y82869D01*
X117769Y82870D02*
X117653Y82868D01*
X117537Y82862D01*
X117421Y82852D01*
X117305Y82839D01*
X117190Y82821D01*
X117076Y82799D01*
X116963Y82774D01*
X116850Y82745D01*
X116739Y82712D01*
X116628Y82675D01*
X116519Y82634D01*
X116412Y82590D01*
X116306Y82543D01*
X116202Y82491D01*
X116099Y82436D01*
X115998Y82378D01*
X115900Y82317D01*
X115803Y82252D01*
X115709Y82183D01*
X118684Y79436D02*
X118755Y79481D01*
X118824Y79528D01*
X118891Y79578D01*
X118956Y79632D01*
X119018Y79688D01*
X119078Y79747D01*
X119135Y79809D01*
X119189Y79873D01*
X119240Y79940D01*
X119288Y80009D01*
X119333Y80079D01*
X119374Y80152D01*
X119413Y80227D01*
X119448Y80303D01*
X119479Y80381D01*
X119507Y80460D01*
X119531Y80541D01*
X119552Y80622D01*
X119569Y80704D01*
X119582Y80787D01*
X119591Y80870D01*
X119597Y80954D01*
X119599Y81038D01*
X116167Y78064D02*
X116096Y78019D01*
X116027Y77972D01*
X115960Y77922D01*
X115895Y77868D01*
X115833Y77812D01*
X115773Y77753D01*
X115716Y77691D01*
X115662Y77627D01*
X115611Y77560D01*
X115563Y77491D01*
X115518Y77421D01*
X115477Y77348D01*
X115438Y77273D01*
X115403Y77197D01*
X115372Y77119D01*
X115344Y77040D01*
X115320Y76959D01*
X115299Y76878D01*
X115282Y76796D01*
X115269Y76713D01*
X115260Y76630D01*
X115254Y76546D01*
X115252Y76462D01*
X116167Y78064D02*
X118684Y79437D01*
X111330Y82869D02*
X111330Y74631D01*
X112245Y74631D02*
X110415Y74631D01*
X110415Y82869D02*
X112245Y82869D01*
X103665Y79208D02*
X102292Y79208D01*
X102292Y74631D01*
X105038Y74631D01*
X105123Y74633D01*
X105207Y74639D01*
X105291Y74649D01*
X105374Y74662D01*
X105457Y74680D01*
X105539Y74701D01*
X105620Y74726D01*
X105699Y74755D01*
X105778Y74787D01*
X105854Y74823D01*
X105929Y74862D01*
X106002Y74905D01*
X106073Y74951D01*
X106141Y75001D01*
X106208Y75053D01*
X106272Y75109D01*
X106333Y75167D01*
X106391Y75228D01*
X106447Y75292D01*
X106499Y75359D01*
X106549Y75427D01*
X106595Y75498D01*
X106638Y75571D01*
X106677Y75646D01*
X106713Y75722D01*
X106745Y75801D01*
X106774Y75880D01*
X106799Y75961D01*
X106820Y76043D01*
X106838Y76126D01*
X106851Y76209D01*
X106861Y76293D01*
X106867Y76377D01*
X106869Y76462D01*
X106868Y76462D02*
X106868Y81038D01*
X106869Y81038D02*
X106867Y81123D01*
X106861Y81207D01*
X106851Y81291D01*
X106838Y81374D01*
X106820Y81457D01*
X106799Y81539D01*
X106774Y81620D01*
X106745Y81699D01*
X106713Y81778D01*
X106677Y81854D01*
X106638Y81929D01*
X106595Y82002D01*
X106549Y82073D01*
X106499Y82141D01*
X106447Y82208D01*
X106391Y82272D01*
X106333Y82333D01*
X106272Y82391D01*
X106208Y82447D01*
X106141Y82499D01*
X106073Y82549D01*
X106002Y82595D01*
X105929Y82638D01*
X105854Y82677D01*
X105778Y82713D01*
X105699Y82745D01*
X105620Y82774D01*
X105539Y82799D01*
X105457Y82820D01*
X105374Y82838D01*
X105291Y82851D01*
X105207Y82861D01*
X105123Y82867D01*
X105038Y82869D01*
X102292Y82869D01*
X98228Y82869D02*
X98228Y74631D01*
X93652Y74631D02*
X98228Y82869D01*
X93652Y82869D02*
X93652Y74631D01*
X85456Y77835D02*
X79964Y80123D01*
X79964Y75546D02*
X85456Y77835D01*
X202109Y60231D02*
X204398Y60231D01*
X204470Y60233D01*
X204542Y60239D01*
X204613Y60248D01*
X204683Y60261D01*
X204753Y60278D01*
X204822Y60298D01*
X204890Y60322D01*
X204956Y60350D01*
X205021Y60381D01*
X205085Y60415D01*
X205146Y60453D01*
X205205Y60493D01*
X205262Y60537D01*
X205317Y60584D01*
X205369Y60633D01*
X205418Y60685D01*
X205465Y60740D01*
X205509Y60797D01*
X205549Y60856D01*
X205587Y60918D01*
X205621Y60981D01*
X205652Y61046D01*
X205680Y61112D01*
X205704Y61180D01*
X205724Y61249D01*
X205741Y61319D01*
X205754Y61389D01*
X205763Y61460D01*
X205769Y61532D01*
X205771Y61604D01*
X205771Y64350D01*
X205769Y64422D01*
X205763Y64494D01*
X205754Y64565D01*
X205741Y64635D01*
X205724Y64705D01*
X205704Y64774D01*
X205680Y64842D01*
X205652Y64908D01*
X205621Y64973D01*
X205587Y65037D01*
X205549Y65098D01*
X205509Y65157D01*
X205465Y65214D01*
X205418Y65269D01*
X205369Y65321D01*
X205317Y65370D01*
X205262Y65417D01*
X205205Y65461D01*
X205146Y65501D01*
X205085Y65539D01*
X205021Y65573D01*
X204956Y65604D01*
X204890Y65632D01*
X204822Y65656D01*
X204753Y65676D01*
X204683Y65693D01*
X204613Y65706D01*
X204542Y65715D01*
X204470Y65721D01*
X204398Y65723D01*
X202109Y65723D01*
X202109Y58858D01*
X202111Y58786D01*
X202117Y58714D01*
X202126Y58643D01*
X202139Y58573D01*
X202156Y58503D01*
X202176Y58434D01*
X202200Y58366D01*
X202228Y58300D01*
X202259Y58235D01*
X202293Y58172D01*
X202331Y58110D01*
X202371Y58051D01*
X202415Y57994D01*
X202462Y57939D01*
X202511Y57887D01*
X202563Y57838D01*
X202618Y57791D01*
X202675Y57747D01*
X202734Y57707D01*
X202796Y57669D01*
X202859Y57635D01*
X202924Y57604D01*
X202990Y57576D01*
X203058Y57552D01*
X203127Y57532D01*
X203197Y57515D01*
X203267Y57502D01*
X203338Y57493D01*
X203410Y57487D01*
X203482Y57485D01*
X205313Y57485D01*
X198497Y60231D02*
X198497Y65723D01*
X198726Y68011D02*
X198726Y68469D01*
X198268Y68469D01*
X198268Y68011D01*
X198726Y68011D01*
X195887Y65723D02*
X193141Y65723D01*
X194972Y68469D02*
X194972Y61604D01*
X194970Y61532D01*
X194964Y61460D01*
X194955Y61389D01*
X194942Y61319D01*
X194925Y61249D01*
X194905Y61180D01*
X194881Y61112D01*
X194853Y61046D01*
X194822Y60981D01*
X194788Y60918D01*
X194750Y60856D01*
X194710Y60797D01*
X194666Y60740D01*
X194619Y60685D01*
X194570Y60633D01*
X194518Y60584D01*
X194463Y60537D01*
X194406Y60493D01*
X194347Y60453D01*
X194286Y60415D01*
X194222Y60381D01*
X194157Y60350D01*
X194091Y60322D01*
X194023Y60298D01*
X193954Y60278D01*
X193884Y60261D01*
X193814Y60248D01*
X193743Y60239D01*
X193671Y60233D01*
X193599Y60231D01*
X193141Y60231D01*
X189798Y60231D02*
X189798Y68469D01*
X189798Y65723D02*
X187509Y65723D01*
X187437Y65721D01*
X187365Y65715D01*
X187294Y65706D01*
X187224Y65693D01*
X187154Y65676D01*
X187085Y65656D01*
X187017Y65632D01*
X186951Y65604D01*
X186886Y65573D01*
X186823Y65539D01*
X186761Y65501D01*
X186702Y65461D01*
X186645Y65417D01*
X186590Y65370D01*
X186538Y65321D01*
X186489Y65269D01*
X186442Y65214D01*
X186398Y65157D01*
X186358Y65098D01*
X186320Y65037D01*
X186286Y64973D01*
X186255Y64908D01*
X186227Y64842D01*
X186203Y64774D01*
X186183Y64705D01*
X186166Y64635D01*
X186153Y64565D01*
X186144Y64494D01*
X186138Y64422D01*
X186136Y64350D01*
X186136Y60231D01*
X182238Y61604D02*
X182238Y65723D01*
X182238Y61604D02*
X182236Y61532D01*
X182230Y61460D01*
X182221Y61389D01*
X182208Y61319D01*
X182191Y61249D01*
X182171Y61180D01*
X182147Y61112D01*
X182119Y61046D01*
X182088Y60981D01*
X182054Y60918D01*
X182016Y60856D01*
X181976Y60797D01*
X181932Y60740D01*
X181885Y60685D01*
X181836Y60633D01*
X181784Y60584D01*
X181729Y60537D01*
X181672Y60493D01*
X181613Y60453D01*
X181552Y60415D01*
X181488Y60381D01*
X181423Y60350D01*
X181357Y60322D01*
X181289Y60298D01*
X181220Y60278D01*
X181150Y60261D01*
X181080Y60248D01*
X181009Y60239D01*
X180937Y60233D01*
X180865Y60231D01*
X178576Y60231D01*
X178576Y65723D01*
X174635Y68469D02*
X174635Y60231D01*
X172346Y60231D01*
X172274Y60233D01*
X172202Y60239D01*
X172131Y60248D01*
X172061Y60261D01*
X171991Y60278D01*
X171922Y60298D01*
X171854Y60322D01*
X171788Y60350D01*
X171723Y60381D01*
X171660Y60415D01*
X171598Y60453D01*
X171539Y60493D01*
X171482Y60537D01*
X171427Y60584D01*
X171375Y60633D01*
X171326Y60685D01*
X171279Y60740D01*
X171235Y60797D01*
X171195Y60856D01*
X171157Y60918D01*
X171123Y60981D01*
X171092Y61046D01*
X171064Y61112D01*
X171040Y61180D01*
X171020Y61249D01*
X171003Y61319D01*
X170990Y61389D01*
X170981Y61460D01*
X170975Y61532D01*
X170973Y61604D01*
X170973Y64350D01*
X170975Y64422D01*
X170981Y64494D01*
X170990Y64565D01*
X171003Y64635D01*
X171020Y64705D01*
X171040Y64774D01*
X171064Y64842D01*
X171092Y64908D01*
X171123Y64973D01*
X171157Y65037D01*
X171195Y65098D01*
X171235Y65157D01*
X171279Y65214D01*
X171326Y65269D01*
X171375Y65321D01*
X171427Y65370D01*
X171482Y65417D01*
X171539Y65461D01*
X171598Y65501D01*
X171660Y65539D01*
X171723Y65573D01*
X171788Y65604D01*
X171854Y65632D01*
X171922Y65656D01*
X171991Y65676D01*
X172061Y65693D01*
X172131Y65706D01*
X172202Y65715D01*
X172274Y65721D01*
X172346Y65723D01*
X174635Y65723D01*
X167946Y60689D02*
X167946Y60231D01*
X167946Y60689D02*
X167488Y60689D01*
X167488Y60231D01*
X167946Y60231D01*
X163035Y60231D02*
X161204Y60231D01*
X163035Y60231D02*
X163107Y60233D01*
X163179Y60239D01*
X163250Y60248D01*
X163320Y60261D01*
X163390Y60278D01*
X163459Y60298D01*
X163527Y60322D01*
X163593Y60350D01*
X163658Y60381D01*
X163722Y60415D01*
X163783Y60453D01*
X163842Y60493D01*
X163899Y60537D01*
X163954Y60584D01*
X164006Y60633D01*
X164055Y60685D01*
X164102Y60740D01*
X164146Y60797D01*
X164186Y60856D01*
X164224Y60918D01*
X164258Y60981D01*
X164289Y61046D01*
X164317Y61112D01*
X164341Y61180D01*
X164361Y61249D01*
X164378Y61319D01*
X164391Y61389D01*
X164400Y61460D01*
X164406Y61532D01*
X164408Y61604D01*
X164408Y64350D01*
X164406Y64422D01*
X164400Y64494D01*
X164391Y64565D01*
X164378Y64635D01*
X164361Y64705D01*
X164341Y64774D01*
X164317Y64842D01*
X164289Y64908D01*
X164258Y64973D01*
X164224Y65037D01*
X164186Y65098D01*
X164146Y65157D01*
X164102Y65214D01*
X164055Y65269D01*
X164006Y65321D01*
X163954Y65370D01*
X163899Y65417D01*
X163842Y65461D01*
X163783Y65501D01*
X163722Y65539D01*
X163658Y65573D01*
X163593Y65604D01*
X163527Y65632D01*
X163459Y65656D01*
X163390Y65676D01*
X163320Y65693D01*
X163250Y65706D01*
X163179Y65715D01*
X163107Y65721D01*
X163035Y65723D01*
X161204Y65723D01*
X158208Y63892D02*
X158208Y62062D01*
X158208Y63892D02*
X158206Y63977D01*
X158200Y64061D01*
X158190Y64145D01*
X158177Y64228D01*
X158159Y64311D01*
X158138Y64393D01*
X158113Y64474D01*
X158084Y64553D01*
X158052Y64632D01*
X158016Y64708D01*
X157977Y64783D01*
X157934Y64856D01*
X157888Y64927D01*
X157838Y64995D01*
X157786Y65062D01*
X157730Y65126D01*
X157672Y65187D01*
X157611Y65245D01*
X157547Y65301D01*
X157480Y65353D01*
X157412Y65403D01*
X157341Y65449D01*
X157268Y65492D01*
X157193Y65531D01*
X157117Y65567D01*
X157038Y65599D01*
X156959Y65628D01*
X156878Y65653D01*
X156796Y65674D01*
X156713Y65692D01*
X156630Y65705D01*
X156546Y65715D01*
X156462Y65721D01*
X156377Y65723D01*
X156292Y65721D01*
X156208Y65715D01*
X156124Y65705D01*
X156041Y65692D01*
X155958Y65674D01*
X155876Y65653D01*
X155795Y65628D01*
X155716Y65599D01*
X155637Y65567D01*
X155561Y65531D01*
X155486Y65492D01*
X155413Y65449D01*
X155342Y65403D01*
X155274Y65353D01*
X155207Y65301D01*
X155143Y65245D01*
X155082Y65187D01*
X155024Y65126D01*
X154968Y65062D01*
X154916Y64995D01*
X154866Y64927D01*
X154820Y64856D01*
X154777Y64783D01*
X154738Y64708D01*
X154702Y64632D01*
X154670Y64553D01*
X154641Y64474D01*
X154616Y64393D01*
X154595Y64311D01*
X154577Y64228D01*
X154564Y64145D01*
X154554Y64061D01*
X154548Y63977D01*
X154546Y63892D01*
X154546Y62062D01*
X154548Y61977D01*
X154554Y61893D01*
X154564Y61809D01*
X154577Y61726D01*
X154595Y61643D01*
X154616Y61561D01*
X154641Y61480D01*
X154670Y61401D01*
X154702Y61322D01*
X154738Y61246D01*
X154777Y61171D01*
X154820Y61098D01*
X154866Y61027D01*
X154916Y60959D01*
X154968Y60892D01*
X155024Y60828D01*
X155082Y60767D01*
X155143Y60709D01*
X155207Y60653D01*
X155274Y60601D01*
X155342Y60551D01*
X155413Y60505D01*
X155486Y60462D01*
X155561Y60423D01*
X155637Y60387D01*
X155716Y60355D01*
X155795Y60326D01*
X155876Y60301D01*
X155958Y60280D01*
X156041Y60262D01*
X156124Y60249D01*
X156208Y60239D01*
X156292Y60233D01*
X156377Y60231D01*
X156462Y60233D01*
X156546Y60239D01*
X156630Y60249D01*
X156713Y60262D01*
X156796Y60280D01*
X156878Y60301D01*
X156959Y60326D01*
X157038Y60355D01*
X157117Y60387D01*
X157193Y60423D01*
X157268Y60462D01*
X157341Y60505D01*
X157412Y60551D01*
X157480Y60601D01*
X157547Y60653D01*
X157611Y60709D01*
X157672Y60767D01*
X157730Y60828D01*
X157786Y60892D01*
X157838Y60959D01*
X157888Y61027D01*
X157934Y61098D01*
X157977Y61171D01*
X158016Y61246D01*
X158052Y61322D01*
X158084Y61401D01*
X158113Y61480D01*
X158138Y61561D01*
X158159Y61643D01*
X158177Y61726D01*
X158190Y61809D01*
X158200Y61893D01*
X158206Y61977D01*
X158208Y62062D01*
X150753Y60231D02*
X150753Y65723D01*
X146634Y65723D01*
X146562Y65721D01*
X146490Y65715D01*
X146419Y65706D01*
X146349Y65693D01*
X146279Y65676D01*
X146210Y65656D01*
X146142Y65632D01*
X146076Y65604D01*
X146011Y65573D01*
X145948Y65539D01*
X145886Y65501D01*
X145827Y65461D01*
X145770Y65417D01*
X145715Y65370D01*
X145663Y65321D01*
X145614Y65269D01*
X145567Y65214D01*
X145523Y65157D01*
X145483Y65098D01*
X145445Y65037D01*
X145411Y64973D01*
X145380Y64908D01*
X145352Y64842D01*
X145328Y64774D01*
X145308Y64705D01*
X145291Y64635D01*
X145278Y64565D01*
X145269Y64494D01*
X145263Y64422D01*
X145261Y64350D01*
X145261Y60231D01*
X148007Y60231D02*
X148007Y65723D01*
X141738Y59316D02*
X138076Y69384D01*
X133605Y60231D02*
X131774Y60231D01*
X133605Y60231D02*
X133677Y60233D01*
X133749Y60239D01*
X133820Y60248D01*
X133890Y60261D01*
X133960Y60278D01*
X134029Y60298D01*
X134097Y60322D01*
X134163Y60350D01*
X134228Y60381D01*
X134292Y60415D01*
X134353Y60453D01*
X134412Y60493D01*
X134469Y60537D01*
X134524Y60584D01*
X134576Y60633D01*
X134625Y60685D01*
X134672Y60740D01*
X134716Y60797D01*
X134756Y60856D01*
X134794Y60918D01*
X134828Y60981D01*
X134859Y61046D01*
X134887Y61112D01*
X134911Y61180D01*
X134931Y61249D01*
X134948Y61319D01*
X134961Y61389D01*
X134970Y61460D01*
X134976Y61532D01*
X134978Y61604D01*
X134978Y64350D01*
X134976Y64422D01*
X134970Y64494D01*
X134961Y64565D01*
X134948Y64635D01*
X134931Y64705D01*
X134911Y64774D01*
X134887Y64842D01*
X134859Y64908D01*
X134828Y64973D01*
X134794Y65037D01*
X134756Y65098D01*
X134716Y65157D01*
X134672Y65214D01*
X134625Y65269D01*
X134576Y65321D01*
X134524Y65370D01*
X134469Y65417D01*
X134412Y65461D01*
X134353Y65501D01*
X134292Y65539D01*
X134228Y65573D01*
X134163Y65604D01*
X134097Y65632D01*
X134029Y65656D01*
X133960Y65676D01*
X133890Y65693D01*
X133820Y65706D01*
X133749Y65715D01*
X133677Y65721D01*
X133605Y65723D01*
X131774Y65723D01*
X128778Y63892D02*
X128778Y62062D01*
X128778Y63892D02*
X128776Y63977D01*
X128770Y64061D01*
X128760Y64145D01*
X128747Y64228D01*
X128729Y64311D01*
X128708Y64393D01*
X128683Y64474D01*
X128654Y64553D01*
X128622Y64632D01*
X128586Y64708D01*
X128547Y64783D01*
X128504Y64856D01*
X128458Y64927D01*
X128408Y64995D01*
X128356Y65062D01*
X128300Y65126D01*
X128242Y65187D01*
X128181Y65245D01*
X128117Y65301D01*
X128050Y65353D01*
X127982Y65403D01*
X127911Y65449D01*
X127838Y65492D01*
X127763Y65531D01*
X127687Y65567D01*
X127608Y65599D01*
X127529Y65628D01*
X127448Y65653D01*
X127366Y65674D01*
X127283Y65692D01*
X127200Y65705D01*
X127116Y65715D01*
X127032Y65721D01*
X126947Y65723D01*
X126862Y65721D01*
X126778Y65715D01*
X126694Y65705D01*
X126611Y65692D01*
X126528Y65674D01*
X126446Y65653D01*
X126365Y65628D01*
X126286Y65599D01*
X126207Y65567D01*
X126131Y65531D01*
X126056Y65492D01*
X125983Y65449D01*
X125912Y65403D01*
X125844Y65353D01*
X125777Y65301D01*
X125713Y65245D01*
X125652Y65187D01*
X125594Y65126D01*
X125538Y65062D01*
X125486Y64995D01*
X125436Y64927D01*
X125390Y64856D01*
X125347Y64783D01*
X125308Y64708D01*
X125272Y64632D01*
X125240Y64553D01*
X125211Y64474D01*
X125186Y64393D01*
X125165Y64311D01*
X125147Y64228D01*
X125134Y64145D01*
X125124Y64061D01*
X125118Y63977D01*
X125116Y63892D01*
X125116Y62062D01*
X125118Y61977D01*
X125124Y61893D01*
X125134Y61809D01*
X125147Y61726D01*
X125165Y61643D01*
X125186Y61561D01*
X125211Y61480D01*
X125240Y61401D01*
X125272Y61322D01*
X125308Y61246D01*
X125347Y61171D01*
X125390Y61098D01*
X125436Y61027D01*
X125486Y60959D01*
X125538Y60892D01*
X125594Y60828D01*
X125652Y60767D01*
X125713Y60709D01*
X125777Y60653D01*
X125844Y60601D01*
X125912Y60551D01*
X125983Y60505D01*
X126056Y60462D01*
X126131Y60423D01*
X126207Y60387D01*
X126286Y60355D01*
X126365Y60326D01*
X126446Y60301D01*
X126528Y60280D01*
X126611Y60262D01*
X126694Y60249D01*
X126778Y60239D01*
X126862Y60233D01*
X126947Y60231D01*
X127032Y60233D01*
X127116Y60239D01*
X127200Y60249D01*
X127283Y60262D01*
X127366Y60280D01*
X127448Y60301D01*
X127529Y60326D01*
X127608Y60355D01*
X127687Y60387D01*
X127763Y60423D01*
X127838Y60462D01*
X127911Y60505D01*
X127982Y60551D01*
X128050Y60601D01*
X128117Y60653D01*
X128181Y60709D01*
X128242Y60767D01*
X128300Y60828D01*
X128356Y60892D01*
X128408Y60959D01*
X128458Y61027D01*
X128504Y61098D01*
X128547Y61171D01*
X128586Y61246D01*
X128622Y61322D01*
X128654Y61401D01*
X128683Y61480D01*
X128708Y61561D01*
X128729Y61643D01*
X128747Y61726D01*
X128760Y61809D01*
X128770Y61893D01*
X128776Y61977D01*
X128778Y62062D01*
X121488Y60231D02*
X121488Y65723D01*
X119199Y65723D01*
X119127Y65721D01*
X119055Y65715D01*
X118984Y65706D01*
X118914Y65693D01*
X118844Y65676D01*
X118775Y65656D01*
X118707Y65632D01*
X118641Y65604D01*
X118576Y65573D01*
X118513Y65539D01*
X118451Y65501D01*
X118392Y65461D01*
X118335Y65417D01*
X118280Y65370D01*
X118228Y65321D01*
X118179Y65269D01*
X118132Y65214D01*
X118088Y65157D01*
X118048Y65098D01*
X118010Y65037D01*
X117976Y64973D01*
X117945Y64908D01*
X117917Y64842D01*
X117893Y64774D01*
X117873Y64705D01*
X117856Y64635D01*
X117843Y64565D01*
X117834Y64494D01*
X117828Y64422D01*
X117826Y64350D01*
X117826Y60231D01*
X113511Y63435D02*
X111223Y62519D01*
X113512Y63434D02*
X113574Y63461D01*
X113634Y63491D01*
X113692Y63524D01*
X113748Y63561D01*
X113802Y63601D01*
X113854Y63644D01*
X113903Y63690D01*
X113950Y63738D01*
X113994Y63789D01*
X114034Y63843D01*
X114072Y63898D01*
X114107Y63956D01*
X114138Y64015D01*
X114166Y64077D01*
X114190Y64139D01*
X114210Y64203D01*
X114227Y64268D01*
X114241Y64334D01*
X114250Y64401D01*
X114256Y64468D01*
X114258Y64535D01*
X114256Y64602D01*
X114251Y64669D01*
X114241Y64736D01*
X114228Y64802D01*
X114211Y64867D01*
X114190Y64931D01*
X114166Y64993D01*
X114139Y65055D01*
X114108Y65114D01*
X114073Y65172D01*
X114036Y65228D01*
X113995Y65281D01*
X113951Y65332D01*
X113905Y65381D01*
X113855Y65427D01*
X113804Y65470D01*
X113750Y65510D01*
X113694Y65547D01*
X113635Y65580D01*
X113575Y65611D01*
X113514Y65637D01*
X113451Y65661D01*
X113386Y65680D01*
X113321Y65696D01*
X113255Y65709D01*
X113188Y65717D01*
X113121Y65722D01*
X113054Y65723D01*
X113054Y65722D02*
X112912Y65719D01*
X112771Y65711D01*
X112630Y65699D01*
X112489Y65684D01*
X112349Y65664D01*
X112209Y65641D01*
X112070Y65614D01*
X111932Y65583D01*
X111794Y65549D01*
X111658Y65511D01*
X111523Y65469D01*
X111388Y65423D01*
X111256Y65374D01*
X111124Y65321D01*
X110994Y65265D01*
X111223Y62520D02*
X111161Y62493D01*
X111101Y62463D01*
X111043Y62430D01*
X110987Y62393D01*
X110933Y62353D01*
X110881Y62310D01*
X110832Y62264D01*
X110785Y62216D01*
X110741Y62165D01*
X110701Y62111D01*
X110663Y62056D01*
X110628Y61998D01*
X110597Y61939D01*
X110569Y61877D01*
X110545Y61815D01*
X110525Y61751D01*
X110508Y61686D01*
X110494Y61620D01*
X110485Y61553D01*
X110479Y61486D01*
X110477Y61419D01*
X110479Y61352D01*
X110484Y61285D01*
X110494Y61218D01*
X110507Y61152D01*
X110524Y61087D01*
X110545Y61023D01*
X110569Y60961D01*
X110596Y60899D01*
X110627Y60840D01*
X110662Y60782D01*
X110699Y60726D01*
X110740Y60673D01*
X110784Y60622D01*
X110830Y60573D01*
X110879Y60527D01*
X110931Y60484D01*
X110985Y60444D01*
X111041Y60407D01*
X111100Y60374D01*
X111160Y60343D01*
X111221Y60317D01*
X111284Y60293D01*
X111349Y60274D01*
X111414Y60258D01*
X111480Y60245D01*
X111547Y60237D01*
X111614Y60232D01*
X111681Y60231D01*
X111681Y60232D02*
X111864Y60237D01*
X112048Y60246D01*
X112231Y60259D01*
X112413Y60277D01*
X112596Y60299D01*
X112777Y60325D01*
X112958Y60356D01*
X113139Y60391D01*
X113318Y60430D01*
X113496Y60474D01*
X113673Y60521D01*
X113850Y60573D01*
X114024Y60629D01*
X114198Y60689D01*
X107178Y62062D02*
X107178Y63892D01*
X107176Y63977D01*
X107170Y64061D01*
X107160Y64145D01*
X107147Y64228D01*
X107129Y64311D01*
X107108Y64393D01*
X107083Y64474D01*
X107054Y64553D01*
X107022Y64632D01*
X106986Y64708D01*
X106947Y64783D01*
X106904Y64856D01*
X106858Y64927D01*
X106808Y64995D01*
X106756Y65062D01*
X106700Y65126D01*
X106642Y65187D01*
X106581Y65245D01*
X106517Y65301D01*
X106450Y65353D01*
X106382Y65403D01*
X106311Y65449D01*
X106238Y65492D01*
X106163Y65531D01*
X106087Y65567D01*
X106008Y65599D01*
X105929Y65628D01*
X105848Y65653D01*
X105766Y65674D01*
X105683Y65692D01*
X105600Y65705D01*
X105516Y65715D01*
X105432Y65721D01*
X105347Y65723D01*
X105262Y65721D01*
X105178Y65715D01*
X105094Y65705D01*
X105011Y65692D01*
X104928Y65674D01*
X104846Y65653D01*
X104765Y65628D01*
X104686Y65599D01*
X104607Y65567D01*
X104531Y65531D01*
X104456Y65492D01*
X104383Y65449D01*
X104312Y65403D01*
X104244Y65353D01*
X104177Y65301D01*
X104113Y65245D01*
X104052Y65187D01*
X103994Y65126D01*
X103938Y65062D01*
X103886Y64995D01*
X103836Y64927D01*
X103790Y64856D01*
X103747Y64783D01*
X103708Y64708D01*
X103672Y64632D01*
X103640Y64553D01*
X103611Y64474D01*
X103586Y64393D01*
X103565Y64311D01*
X103547Y64228D01*
X103534Y64145D01*
X103524Y64061D01*
X103518Y63977D01*
X103516Y63892D01*
X103516Y62062D01*
X103518Y61977D01*
X103524Y61893D01*
X103534Y61809D01*
X103547Y61726D01*
X103565Y61643D01*
X103586Y61561D01*
X103611Y61480D01*
X103640Y61401D01*
X103672Y61322D01*
X103708Y61246D01*
X103747Y61171D01*
X103790Y61098D01*
X103836Y61027D01*
X103886Y60959D01*
X103938Y60892D01*
X103994Y60828D01*
X104052Y60767D01*
X104113Y60709D01*
X104177Y60653D01*
X104244Y60601D01*
X104312Y60551D01*
X104383Y60505D01*
X104456Y60462D01*
X104531Y60423D01*
X104607Y60387D01*
X104686Y60355D01*
X104765Y60326D01*
X104846Y60301D01*
X104928Y60280D01*
X105011Y60262D01*
X105094Y60249D01*
X105178Y60239D01*
X105262Y60233D01*
X105347Y60231D01*
X105432Y60233D01*
X105516Y60239D01*
X105600Y60249D01*
X105683Y60262D01*
X105766Y60280D01*
X105848Y60301D01*
X105929Y60326D01*
X106008Y60355D01*
X106087Y60387D01*
X106163Y60423D01*
X106238Y60462D01*
X106311Y60505D01*
X106382Y60551D01*
X106450Y60601D01*
X106517Y60653D01*
X106581Y60709D01*
X106642Y60767D01*
X106700Y60828D01*
X106756Y60892D01*
X106808Y60959D01*
X106858Y61027D01*
X106904Y61098D01*
X106947Y61171D01*
X106986Y61246D01*
X107022Y61322D01*
X107054Y61401D01*
X107083Y61480D01*
X107108Y61561D01*
X107129Y61643D01*
X107147Y61726D01*
X107160Y61809D01*
X107170Y61893D01*
X107176Y61977D01*
X107178Y62062D01*
X100057Y61604D02*
X100057Y68469D01*
X100057Y61604D02*
X100055Y61532D01*
X100049Y61460D01*
X100040Y61389D01*
X100027Y61319D01*
X100010Y61249D01*
X99990Y61180D01*
X99966Y61112D01*
X99938Y61046D01*
X99907Y60981D01*
X99873Y60918D01*
X99835Y60856D01*
X99795Y60797D01*
X99751Y60740D01*
X99704Y60685D01*
X99655Y60633D01*
X99603Y60584D01*
X99548Y60537D01*
X99491Y60493D01*
X99432Y60453D01*
X99371Y60415D01*
X99307Y60381D01*
X99242Y60350D01*
X99176Y60322D01*
X99108Y60298D01*
X99039Y60278D01*
X98969Y60261D01*
X98899Y60248D01*
X98828Y60239D01*
X98756Y60233D01*
X98684Y60231D01*
X94465Y60231D02*
X92176Y60231D01*
X94465Y60231D02*
X94537Y60233D01*
X94609Y60239D01*
X94680Y60248D01*
X94750Y60261D01*
X94820Y60278D01*
X94889Y60298D01*
X94957Y60322D01*
X95023Y60350D01*
X95088Y60381D01*
X95152Y60415D01*
X95213Y60453D01*
X95272Y60493D01*
X95329Y60537D01*
X95384Y60584D01*
X95436Y60633D01*
X95485Y60685D01*
X95532Y60740D01*
X95576Y60797D01*
X95616Y60856D01*
X95654Y60918D01*
X95688Y60981D01*
X95719Y61046D01*
X95747Y61112D01*
X95771Y61180D01*
X95791Y61249D01*
X95808Y61319D01*
X95821Y61389D01*
X95830Y61460D01*
X95836Y61532D01*
X95838Y61604D01*
X95838Y63892D01*
X95836Y63977D01*
X95830Y64061D01*
X95820Y64145D01*
X95807Y64228D01*
X95789Y64311D01*
X95768Y64393D01*
X95743Y64474D01*
X95714Y64553D01*
X95682Y64632D01*
X95646Y64708D01*
X95607Y64783D01*
X95564Y64856D01*
X95518Y64927D01*
X95468Y64995D01*
X95416Y65062D01*
X95360Y65126D01*
X95302Y65187D01*
X95241Y65245D01*
X95177Y65301D01*
X95110Y65353D01*
X95042Y65403D01*
X94971Y65449D01*
X94898Y65492D01*
X94823Y65531D01*
X94747Y65567D01*
X94668Y65599D01*
X94589Y65628D01*
X94508Y65653D01*
X94426Y65674D01*
X94343Y65692D01*
X94260Y65705D01*
X94176Y65715D01*
X94092Y65721D01*
X94007Y65723D01*
X93922Y65721D01*
X93838Y65715D01*
X93754Y65705D01*
X93671Y65692D01*
X93588Y65674D01*
X93506Y65653D01*
X93425Y65628D01*
X93346Y65599D01*
X93267Y65567D01*
X93191Y65531D01*
X93116Y65492D01*
X93043Y65449D01*
X92972Y65403D01*
X92904Y65353D01*
X92837Y65301D01*
X92773Y65245D01*
X92712Y65187D01*
X92654Y65126D01*
X92598Y65062D01*
X92546Y64995D01*
X92496Y64927D01*
X92450Y64856D01*
X92407Y64783D01*
X92368Y64708D01*
X92332Y64632D01*
X92300Y64553D01*
X92271Y64474D01*
X92246Y64393D01*
X92225Y64311D01*
X92207Y64228D01*
X92194Y64145D01*
X92184Y64061D01*
X92178Y63977D01*
X92176Y63892D01*
X92176Y62977D01*
X95838Y62977D01*
X88131Y63435D02*
X85843Y62519D01*
X88132Y63434D02*
X88194Y63461D01*
X88254Y63491D01*
X88312Y63524D01*
X88368Y63561D01*
X88422Y63601D01*
X88474Y63644D01*
X88523Y63690D01*
X88570Y63738D01*
X88614Y63789D01*
X88654Y63843D01*
X88692Y63898D01*
X88727Y63956D01*
X88758Y64015D01*
X88786Y64077D01*
X88810Y64139D01*
X88830Y64203D01*
X88847Y64268D01*
X88861Y64334D01*
X88870Y64401D01*
X88876Y64468D01*
X88878Y64535D01*
X88876Y64602D01*
X88871Y64669D01*
X88861Y64736D01*
X88848Y64802D01*
X88831Y64867D01*
X88810Y64931D01*
X88786Y64993D01*
X88759Y65055D01*
X88728Y65114D01*
X88693Y65172D01*
X88656Y65228D01*
X88615Y65281D01*
X88571Y65332D01*
X88525Y65381D01*
X88475Y65427D01*
X88424Y65470D01*
X88370Y65510D01*
X88314Y65547D01*
X88255Y65580D01*
X88195Y65611D01*
X88134Y65637D01*
X88071Y65661D01*
X88006Y65680D01*
X87941Y65696D01*
X87875Y65709D01*
X87808Y65717D01*
X87741Y65722D01*
X87674Y65723D01*
X87674Y65722D02*
X87532Y65719D01*
X87391Y65711D01*
X87250Y65699D01*
X87109Y65684D01*
X86969Y65664D01*
X86829Y65641D01*
X86690Y65614D01*
X86552Y65583D01*
X86414Y65549D01*
X86278Y65511D01*
X86143Y65469D01*
X86008Y65423D01*
X85876Y65374D01*
X85744Y65321D01*
X85614Y65265D01*
X85843Y62520D02*
X85781Y62493D01*
X85721Y62463D01*
X85663Y62430D01*
X85607Y62393D01*
X85553Y62353D01*
X85501Y62310D01*
X85452Y62264D01*
X85405Y62216D01*
X85361Y62165D01*
X85321Y62111D01*
X85283Y62056D01*
X85248Y61998D01*
X85217Y61939D01*
X85189Y61877D01*
X85165Y61815D01*
X85145Y61751D01*
X85128Y61686D01*
X85114Y61620D01*
X85105Y61553D01*
X85099Y61486D01*
X85097Y61419D01*
X85099Y61352D01*
X85104Y61285D01*
X85114Y61218D01*
X85127Y61152D01*
X85144Y61087D01*
X85165Y61023D01*
X85189Y60961D01*
X85216Y60899D01*
X85247Y60840D01*
X85282Y60782D01*
X85319Y60726D01*
X85360Y60673D01*
X85404Y60622D01*
X85450Y60573D01*
X85499Y60527D01*
X85551Y60484D01*
X85605Y60444D01*
X85661Y60407D01*
X85720Y60374D01*
X85780Y60343D01*
X85841Y60317D01*
X85904Y60293D01*
X85969Y60274D01*
X86034Y60258D01*
X86100Y60245D01*
X86167Y60237D01*
X86234Y60232D01*
X86301Y60231D01*
X86301Y60232D02*
X86484Y60237D01*
X86668Y60246D01*
X86851Y60259D01*
X87033Y60277D01*
X87216Y60299D01*
X87397Y60325D01*
X87578Y60356D01*
X87759Y60391D01*
X87938Y60430D01*
X88116Y60474D01*
X88293Y60521D01*
X88470Y60573D01*
X88644Y60629D01*
X88818Y60689D01*
X81528Y61604D02*
X81528Y65723D01*
X81528Y61604D02*
X81526Y61532D01*
X81520Y61460D01*
X81511Y61389D01*
X81498Y61319D01*
X81481Y61249D01*
X81461Y61180D01*
X81437Y61112D01*
X81409Y61046D01*
X81378Y60981D01*
X81344Y60918D01*
X81306Y60856D01*
X81266Y60797D01*
X81222Y60740D01*
X81175Y60685D01*
X81126Y60633D01*
X81074Y60584D01*
X81019Y60537D01*
X80962Y60493D01*
X80903Y60453D01*
X80842Y60415D01*
X80778Y60381D01*
X80713Y60350D01*
X80647Y60322D01*
X80579Y60298D01*
X80510Y60278D01*
X80440Y60261D01*
X80370Y60248D01*
X80299Y60239D01*
X80227Y60233D01*
X80155Y60231D01*
X77866Y60231D01*
X77866Y65723D01*
X73968Y65723D02*
X73968Y60231D01*
X73968Y65723D02*
X71679Y65723D01*
X71607Y65721D01*
X71535Y65715D01*
X71464Y65706D01*
X71394Y65693D01*
X71324Y65676D01*
X71255Y65656D01*
X71187Y65632D01*
X71121Y65604D01*
X71056Y65573D01*
X70993Y65539D01*
X70931Y65501D01*
X70872Y65461D01*
X70815Y65417D01*
X70760Y65370D01*
X70708Y65321D01*
X70659Y65269D01*
X70612Y65214D01*
X70568Y65157D01*
X70528Y65098D01*
X70490Y65037D01*
X70456Y64973D01*
X70425Y64908D01*
X70397Y64842D01*
X70373Y64774D01*
X70353Y64705D01*
X70336Y64635D01*
X70323Y64565D01*
X70314Y64494D01*
X70308Y64422D01*
X70306Y64350D01*
X70306Y60231D01*
X66577Y61604D02*
X66577Y68469D01*
X66577Y61604D02*
X66575Y61532D01*
X66569Y61460D01*
X66560Y61389D01*
X66547Y61319D01*
X66530Y61249D01*
X66510Y61180D01*
X66486Y61112D01*
X66458Y61046D01*
X66427Y60981D01*
X66393Y60918D01*
X66355Y60856D01*
X66315Y60797D01*
X66271Y60740D01*
X66224Y60685D01*
X66175Y60633D01*
X66123Y60584D01*
X66068Y60537D01*
X66011Y60493D01*
X65952Y60453D01*
X65891Y60415D01*
X65827Y60381D01*
X65762Y60350D01*
X65696Y60322D01*
X65628Y60298D01*
X65559Y60278D01*
X65489Y60261D01*
X65419Y60248D01*
X65348Y60239D01*
X65276Y60233D01*
X65204Y60231D01*
X60985Y60231D02*
X58697Y60231D01*
X60985Y60231D02*
X61057Y60233D01*
X61129Y60239D01*
X61200Y60248D01*
X61270Y60261D01*
X61340Y60278D01*
X61409Y60298D01*
X61477Y60322D01*
X61543Y60350D01*
X61608Y60381D01*
X61672Y60415D01*
X61733Y60453D01*
X61792Y60493D01*
X61849Y60537D01*
X61904Y60584D01*
X61956Y60633D01*
X62005Y60685D01*
X62052Y60740D01*
X62096Y60797D01*
X62136Y60856D01*
X62174Y60918D01*
X62208Y60981D01*
X62239Y61046D01*
X62267Y61112D01*
X62291Y61180D01*
X62311Y61249D01*
X62328Y61319D01*
X62341Y61389D01*
X62350Y61460D01*
X62356Y61532D01*
X62358Y61604D01*
X62358Y63892D01*
X62356Y63977D01*
X62350Y64061D01*
X62340Y64145D01*
X62327Y64228D01*
X62309Y64311D01*
X62288Y64393D01*
X62263Y64474D01*
X62234Y64553D01*
X62202Y64632D01*
X62166Y64708D01*
X62127Y64783D01*
X62084Y64856D01*
X62038Y64927D01*
X61988Y64995D01*
X61936Y65062D01*
X61880Y65126D01*
X61822Y65187D01*
X61761Y65245D01*
X61697Y65301D01*
X61630Y65353D01*
X61562Y65403D01*
X61491Y65449D01*
X61418Y65492D01*
X61343Y65531D01*
X61267Y65567D01*
X61188Y65599D01*
X61109Y65628D01*
X61028Y65653D01*
X60946Y65674D01*
X60863Y65692D01*
X60780Y65705D01*
X60696Y65715D01*
X60612Y65721D01*
X60527Y65723D01*
X60442Y65721D01*
X60358Y65715D01*
X60274Y65705D01*
X60191Y65692D01*
X60108Y65674D01*
X60026Y65653D01*
X59945Y65628D01*
X59866Y65599D01*
X59787Y65567D01*
X59711Y65531D01*
X59636Y65492D01*
X59563Y65449D01*
X59492Y65403D01*
X59424Y65353D01*
X59357Y65301D01*
X59293Y65245D01*
X59232Y65187D01*
X59174Y65126D01*
X59118Y65062D01*
X59066Y64995D01*
X59016Y64927D01*
X58970Y64856D01*
X58927Y64783D01*
X58888Y64708D01*
X58852Y64632D01*
X58820Y64553D01*
X58791Y64474D01*
X58766Y64393D01*
X58745Y64311D01*
X58727Y64228D01*
X58714Y64145D01*
X58704Y64061D01*
X58698Y63977D01*
X58696Y63892D01*
X58697Y63892D02*
X58697Y62977D01*
X62358Y62977D01*
X53779Y63435D02*
X51719Y63435D01*
X53779Y63435D02*
X53858Y63433D01*
X53936Y63427D01*
X54014Y63418D01*
X54092Y63404D01*
X54168Y63387D01*
X54244Y63366D01*
X54319Y63341D01*
X54392Y63313D01*
X54464Y63281D01*
X54534Y63246D01*
X54603Y63207D01*
X54669Y63165D01*
X54733Y63120D01*
X54795Y63071D01*
X54855Y63020D01*
X54912Y62966D01*
X54966Y62909D01*
X55017Y62849D01*
X55066Y62787D01*
X55111Y62723D01*
X55153Y62657D01*
X55192Y62588D01*
X55227Y62518D01*
X55259Y62446D01*
X55287Y62373D01*
X55312Y62298D01*
X55333Y62222D01*
X55350Y62146D01*
X55364Y62068D01*
X55373Y61990D01*
X55379Y61912D01*
X55381Y61833D01*
X55379Y61754D01*
X55373Y61676D01*
X55364Y61598D01*
X55350Y61520D01*
X55333Y61444D01*
X55312Y61368D01*
X55287Y61293D01*
X55259Y61220D01*
X55227Y61148D01*
X55192Y61078D01*
X55153Y61009D01*
X55111Y60943D01*
X55066Y60879D01*
X55017Y60817D01*
X54966Y60757D01*
X54912Y60700D01*
X54855Y60646D01*
X54795Y60595D01*
X54733Y60546D01*
X54669Y60501D01*
X54603Y60459D01*
X54534Y60420D01*
X54464Y60385D01*
X54392Y60353D01*
X54319Y60325D01*
X54244Y60300D01*
X54168Y60279D01*
X54092Y60262D01*
X54014Y60248D01*
X53936Y60239D01*
X53858Y60233D01*
X53779Y60231D01*
X51719Y60231D01*
X51719Y64350D01*
X51721Y64422D01*
X51727Y64494D01*
X51736Y64565D01*
X51749Y64635D01*
X51766Y64705D01*
X51786Y64774D01*
X51810Y64842D01*
X51838Y64908D01*
X51869Y64973D01*
X51903Y65037D01*
X51941Y65098D01*
X51981Y65157D01*
X52025Y65214D01*
X52072Y65269D01*
X52121Y65321D01*
X52173Y65370D01*
X52228Y65417D01*
X52285Y65461D01*
X52344Y65501D01*
X52406Y65539D01*
X52469Y65573D01*
X52534Y65604D01*
X52600Y65632D01*
X52668Y65656D01*
X52737Y65676D01*
X52807Y65693D01*
X52877Y65706D01*
X52948Y65715D01*
X53020Y65721D01*
X53092Y65723D01*
X54923Y65723D01*
X47361Y63435D02*
X45073Y62519D01*
X47362Y63434D02*
X47424Y63461D01*
X47484Y63491D01*
X47542Y63524D01*
X47598Y63561D01*
X47652Y63601D01*
X47704Y63644D01*
X47753Y63690D01*
X47800Y63738D01*
X47844Y63789D01*
X47884Y63843D01*
X47922Y63898D01*
X47957Y63956D01*
X47988Y64015D01*
X48016Y64077D01*
X48040Y64139D01*
X48060Y64203D01*
X48077Y64268D01*
X48091Y64334D01*
X48100Y64401D01*
X48106Y64468D01*
X48108Y64535D01*
X48106Y64602D01*
X48101Y64669D01*
X48091Y64736D01*
X48078Y64802D01*
X48061Y64867D01*
X48040Y64931D01*
X48016Y64993D01*
X47989Y65055D01*
X47958Y65114D01*
X47923Y65172D01*
X47886Y65228D01*
X47845Y65281D01*
X47801Y65332D01*
X47755Y65381D01*
X47705Y65427D01*
X47654Y65470D01*
X47600Y65510D01*
X47544Y65547D01*
X47485Y65580D01*
X47425Y65611D01*
X47364Y65637D01*
X47301Y65661D01*
X47236Y65680D01*
X47171Y65696D01*
X47105Y65709D01*
X47038Y65717D01*
X46971Y65722D01*
X46904Y65723D01*
X46904Y65722D02*
X46762Y65719D01*
X46621Y65711D01*
X46480Y65699D01*
X46339Y65684D01*
X46199Y65664D01*
X46059Y65641D01*
X45920Y65614D01*
X45782Y65583D01*
X45644Y65549D01*
X45508Y65511D01*
X45373Y65469D01*
X45238Y65423D01*
X45106Y65374D01*
X44974Y65321D01*
X44844Y65265D01*
X45073Y62520D02*
X45011Y62493D01*
X44951Y62463D01*
X44893Y62430D01*
X44837Y62393D01*
X44783Y62353D01*
X44731Y62310D01*
X44682Y62264D01*
X44635Y62216D01*
X44591Y62165D01*
X44551Y62111D01*
X44513Y62056D01*
X44478Y61998D01*
X44447Y61939D01*
X44419Y61877D01*
X44395Y61815D01*
X44375Y61751D01*
X44358Y61686D01*
X44344Y61620D01*
X44335Y61553D01*
X44329Y61486D01*
X44327Y61419D01*
X44329Y61352D01*
X44334Y61285D01*
X44344Y61218D01*
X44357Y61152D01*
X44374Y61087D01*
X44395Y61023D01*
X44419Y60961D01*
X44446Y60899D01*
X44477Y60840D01*
X44512Y60782D01*
X44549Y60726D01*
X44590Y60673D01*
X44634Y60622D01*
X44680Y60573D01*
X44729Y60527D01*
X44781Y60484D01*
X44835Y60444D01*
X44891Y60407D01*
X44950Y60374D01*
X45010Y60343D01*
X45071Y60317D01*
X45134Y60293D01*
X45199Y60274D01*
X45264Y60258D01*
X45330Y60245D01*
X45397Y60237D01*
X45464Y60232D01*
X45531Y60231D01*
X45531Y60232D02*
X45714Y60237D01*
X45898Y60246D01*
X46081Y60259D01*
X46263Y60277D01*
X46446Y60299D01*
X46627Y60325D01*
X46808Y60356D01*
X46989Y60391D01*
X47168Y60430D01*
X47346Y60474D01*
X47523Y60521D01*
X47700Y60573D01*
X47874Y60629D01*
X48048Y60689D01*
X40758Y60231D02*
X40758Y68469D01*
X40758Y65723D02*
X38470Y65723D01*
X38398Y65721D01*
X38326Y65715D01*
X38255Y65706D01*
X38185Y65693D01*
X38115Y65676D01*
X38046Y65656D01*
X37978Y65632D01*
X37912Y65604D01*
X37847Y65573D01*
X37784Y65539D01*
X37722Y65501D01*
X37663Y65461D01*
X37606Y65417D01*
X37551Y65370D01*
X37499Y65321D01*
X37450Y65269D01*
X37403Y65214D01*
X37359Y65157D01*
X37319Y65098D01*
X37281Y65037D01*
X37247Y64973D01*
X37216Y64908D01*
X37188Y64842D01*
X37164Y64774D01*
X37144Y64705D01*
X37127Y64635D01*
X37114Y64565D01*
X37105Y64494D01*
X37099Y64422D01*
X37097Y64350D01*
X37097Y60231D01*
X32095Y60231D02*
X29807Y60231D01*
X32095Y60231D02*
X32167Y60233D01*
X32239Y60239D01*
X32310Y60248D01*
X32380Y60261D01*
X32450Y60278D01*
X32519Y60298D01*
X32587Y60322D01*
X32653Y60350D01*
X32718Y60381D01*
X32782Y60415D01*
X32843Y60453D01*
X32902Y60493D01*
X32959Y60537D01*
X33014Y60584D01*
X33066Y60633D01*
X33115Y60685D01*
X33162Y60740D01*
X33206Y60797D01*
X33246Y60856D01*
X33284Y60918D01*
X33318Y60981D01*
X33349Y61046D01*
X33377Y61112D01*
X33401Y61180D01*
X33421Y61249D01*
X33438Y61319D01*
X33451Y61389D01*
X33460Y61460D01*
X33466Y61532D01*
X33468Y61604D01*
X33468Y63892D01*
X33466Y63977D01*
X33460Y64061D01*
X33450Y64145D01*
X33437Y64228D01*
X33419Y64311D01*
X33398Y64393D01*
X33373Y64474D01*
X33344Y64553D01*
X33312Y64632D01*
X33276Y64708D01*
X33237Y64783D01*
X33194Y64856D01*
X33148Y64927D01*
X33098Y64995D01*
X33046Y65062D01*
X32990Y65126D01*
X32932Y65187D01*
X32871Y65245D01*
X32807Y65301D01*
X32740Y65353D01*
X32672Y65403D01*
X32601Y65449D01*
X32528Y65492D01*
X32453Y65531D01*
X32377Y65567D01*
X32298Y65599D01*
X32219Y65628D01*
X32138Y65653D01*
X32056Y65674D01*
X31973Y65692D01*
X31890Y65705D01*
X31806Y65715D01*
X31722Y65721D01*
X31637Y65723D01*
X31552Y65721D01*
X31468Y65715D01*
X31384Y65705D01*
X31301Y65692D01*
X31218Y65674D01*
X31136Y65653D01*
X31055Y65628D01*
X30976Y65599D01*
X30897Y65567D01*
X30821Y65531D01*
X30746Y65492D01*
X30673Y65449D01*
X30602Y65403D01*
X30534Y65353D01*
X30467Y65301D01*
X30403Y65245D01*
X30342Y65187D01*
X30284Y65126D01*
X30228Y65062D01*
X30176Y64995D01*
X30126Y64927D01*
X30080Y64856D01*
X30037Y64783D01*
X29998Y64708D01*
X29962Y64632D01*
X29930Y64553D01*
X29901Y64474D01*
X29876Y64393D01*
X29855Y64311D01*
X29837Y64228D01*
X29824Y64145D01*
X29814Y64061D01*
X29808Y63977D01*
X29806Y63892D01*
X29807Y63892D02*
X29807Y62977D01*
X33468Y62977D01*
X22830Y60231D02*
X22830Y68469D01*
X22830Y60231D02*
X25118Y60231D01*
X25190Y60233D01*
X25262Y60239D01*
X25333Y60248D01*
X25403Y60261D01*
X25473Y60278D01*
X25542Y60298D01*
X25610Y60322D01*
X25676Y60350D01*
X25741Y60381D01*
X25805Y60415D01*
X25866Y60453D01*
X25925Y60493D01*
X25982Y60537D01*
X26037Y60584D01*
X26089Y60633D01*
X26138Y60685D01*
X26185Y60740D01*
X26229Y60797D01*
X26269Y60856D01*
X26307Y60918D01*
X26341Y60981D01*
X26372Y61046D01*
X26400Y61112D01*
X26424Y61180D01*
X26444Y61249D01*
X26461Y61319D01*
X26474Y61389D01*
X26483Y61460D01*
X26489Y61532D01*
X26491Y61604D01*
X26491Y64350D01*
X26489Y64422D01*
X26483Y64494D01*
X26474Y64565D01*
X26461Y64635D01*
X26444Y64705D01*
X26424Y64774D01*
X26400Y64842D01*
X26372Y64908D01*
X26341Y64973D01*
X26307Y65037D01*
X26269Y65098D01*
X26229Y65157D01*
X26185Y65214D01*
X26138Y65269D01*
X26089Y65321D01*
X26037Y65370D01*
X25982Y65417D01*
X25925Y65461D01*
X25866Y65501D01*
X25805Y65539D01*
X25741Y65573D01*
X25676Y65604D01*
X25610Y65632D01*
X25542Y65656D01*
X25473Y65676D01*
X25403Y65693D01*
X25333Y65706D01*
X25262Y65715D01*
X25190Y65721D01*
X25118Y65723D01*
X22830Y65723D01*
X135719Y49035D02*
X141211Y51323D01*
X141211Y46746D02*
X135719Y49035D01*
X125987Y45831D02*
X124156Y45831D01*
X125987Y45831D02*
X126072Y45833D01*
X126156Y45839D01*
X126240Y45849D01*
X126323Y45862D01*
X126406Y45880D01*
X126488Y45901D01*
X126569Y45926D01*
X126648Y45955D01*
X126727Y45987D01*
X126803Y46023D01*
X126878Y46062D01*
X126951Y46105D01*
X127022Y46151D01*
X127090Y46201D01*
X127157Y46253D01*
X127221Y46309D01*
X127282Y46367D01*
X127340Y46428D01*
X127396Y46492D01*
X127448Y46559D01*
X127498Y46627D01*
X127544Y46698D01*
X127587Y46771D01*
X127626Y46846D01*
X127662Y46922D01*
X127694Y47001D01*
X127723Y47080D01*
X127748Y47161D01*
X127769Y47243D01*
X127787Y47326D01*
X127800Y47409D01*
X127810Y47493D01*
X127816Y47577D01*
X127818Y47662D01*
X127818Y52238D01*
X127816Y52323D01*
X127810Y52407D01*
X127800Y52491D01*
X127787Y52574D01*
X127769Y52657D01*
X127748Y52739D01*
X127723Y52820D01*
X127694Y52899D01*
X127662Y52978D01*
X127626Y53054D01*
X127587Y53129D01*
X127544Y53202D01*
X127498Y53273D01*
X127448Y53341D01*
X127396Y53408D01*
X127340Y53472D01*
X127282Y53533D01*
X127221Y53591D01*
X127157Y53647D01*
X127090Y53699D01*
X127022Y53749D01*
X126951Y53795D01*
X126878Y53838D01*
X126803Y53877D01*
X126727Y53913D01*
X126648Y53945D01*
X126569Y53974D01*
X126488Y53999D01*
X126406Y54020D01*
X126323Y54038D01*
X126240Y54051D01*
X126156Y54061D01*
X126072Y54067D01*
X125987Y54069D01*
X124156Y54069D01*
X121043Y51781D02*
X121043Y48119D01*
X121043Y51781D02*
X121041Y51876D01*
X121035Y51970D01*
X121025Y52064D01*
X121012Y52158D01*
X120994Y52251D01*
X120973Y52343D01*
X120948Y52434D01*
X120919Y52524D01*
X120886Y52613D01*
X120850Y52700D01*
X120811Y52786D01*
X120767Y52870D01*
X120721Y52952D01*
X120670Y53032D01*
X120617Y53111D01*
X120561Y53186D01*
X120501Y53260D01*
X120438Y53331D01*
X120373Y53399D01*
X120305Y53464D01*
X120234Y53527D01*
X120160Y53587D01*
X120085Y53643D01*
X120006Y53696D01*
X119926Y53747D01*
X119844Y53793D01*
X119760Y53837D01*
X119674Y53876D01*
X119587Y53912D01*
X119498Y53945D01*
X119408Y53974D01*
X119317Y53999D01*
X119225Y54020D01*
X119132Y54038D01*
X119038Y54051D01*
X118944Y54061D01*
X118850Y54067D01*
X118755Y54069D01*
X118660Y54067D01*
X118566Y54061D01*
X118472Y54051D01*
X118378Y54038D01*
X118285Y54020D01*
X118193Y53999D01*
X118102Y53974D01*
X118012Y53945D01*
X117923Y53912D01*
X117836Y53876D01*
X117750Y53837D01*
X117666Y53793D01*
X117584Y53747D01*
X117504Y53696D01*
X117425Y53643D01*
X117350Y53587D01*
X117276Y53527D01*
X117205Y53464D01*
X117137Y53399D01*
X117072Y53331D01*
X117009Y53260D01*
X116949Y53186D01*
X116893Y53111D01*
X116840Y53032D01*
X116789Y52952D01*
X116743Y52870D01*
X116699Y52786D01*
X116660Y52700D01*
X116624Y52613D01*
X116591Y52524D01*
X116562Y52434D01*
X116537Y52343D01*
X116516Y52251D01*
X116498Y52158D01*
X116485Y52064D01*
X116475Y51970D01*
X116469Y51876D01*
X116467Y51781D01*
X116467Y48119D01*
X116469Y48024D01*
X116475Y47930D01*
X116485Y47836D01*
X116498Y47742D01*
X116516Y47649D01*
X116537Y47557D01*
X116562Y47466D01*
X116591Y47376D01*
X116624Y47287D01*
X116660Y47200D01*
X116699Y47114D01*
X116743Y47030D01*
X116789Y46948D01*
X116840Y46868D01*
X116893Y46789D01*
X116949Y46714D01*
X117009Y46640D01*
X117072Y46569D01*
X117137Y46501D01*
X117205Y46436D01*
X117276Y46373D01*
X117350Y46313D01*
X117425Y46257D01*
X117504Y46204D01*
X117584Y46153D01*
X117666Y46107D01*
X117750Y46063D01*
X117836Y46024D01*
X117923Y45988D01*
X118012Y45955D01*
X118102Y45926D01*
X118193Y45901D01*
X118285Y45880D01*
X118378Y45862D01*
X118472Y45849D01*
X118566Y45839D01*
X118660Y45833D01*
X118755Y45831D01*
X118850Y45833D01*
X118944Y45839D01*
X119038Y45849D01*
X119132Y45862D01*
X119225Y45880D01*
X119317Y45901D01*
X119408Y45926D01*
X119498Y45955D01*
X119587Y45988D01*
X119674Y46024D01*
X119760Y46063D01*
X119844Y46107D01*
X119926Y46153D01*
X120006Y46204D01*
X120085Y46257D01*
X120160Y46313D01*
X120234Y46373D01*
X120305Y46436D01*
X120373Y46501D01*
X120438Y46569D01*
X120501Y46640D01*
X120561Y46714D01*
X120617Y46789D01*
X120670Y46868D01*
X120721Y46948D01*
X120767Y47030D01*
X120811Y47114D01*
X120850Y47200D01*
X120886Y47287D01*
X120919Y47376D01*
X120948Y47466D01*
X120973Y47557D01*
X120994Y47649D01*
X121012Y47742D01*
X121025Y47836D01*
X121035Y47930D01*
X121041Y48024D01*
X121043Y48119D01*
X112673Y45831D02*
X112673Y54069D01*
X110385Y54069D01*
X110290Y54067D01*
X110196Y54061D01*
X110102Y54051D01*
X110008Y54038D01*
X109915Y54020D01*
X109823Y53999D01*
X109732Y53974D01*
X109642Y53945D01*
X109553Y53912D01*
X109466Y53876D01*
X109380Y53837D01*
X109296Y53793D01*
X109214Y53747D01*
X109134Y53696D01*
X109056Y53643D01*
X108980Y53587D01*
X108906Y53527D01*
X108835Y53464D01*
X108767Y53399D01*
X108702Y53331D01*
X108639Y53260D01*
X108579Y53186D01*
X108523Y53111D01*
X108470Y53032D01*
X108419Y52952D01*
X108373Y52870D01*
X108329Y52786D01*
X108290Y52700D01*
X108254Y52613D01*
X108221Y52524D01*
X108192Y52434D01*
X108167Y52343D01*
X108146Y52251D01*
X108128Y52158D01*
X108115Y52064D01*
X108105Y51970D01*
X108099Y51876D01*
X108097Y51781D01*
X108097Y48119D01*
X108099Y48024D01*
X108105Y47930D01*
X108115Y47836D01*
X108128Y47742D01*
X108146Y47649D01*
X108167Y47557D01*
X108192Y47466D01*
X108221Y47376D01*
X108254Y47287D01*
X108290Y47200D01*
X108329Y47114D01*
X108373Y47030D01*
X108419Y46948D01*
X108470Y46868D01*
X108523Y46789D01*
X108579Y46714D01*
X108639Y46640D01*
X108702Y46569D01*
X108767Y46501D01*
X108835Y46436D01*
X108906Y46373D01*
X108980Y46313D01*
X109056Y46257D01*
X109134Y46204D01*
X109214Y46153D01*
X109296Y46107D01*
X109380Y46063D01*
X109466Y46024D01*
X109553Y45988D01*
X109642Y45955D01*
X109732Y45926D01*
X109823Y45901D01*
X109915Y45880D01*
X110008Y45862D01*
X110102Y45849D01*
X110196Y45839D01*
X110290Y45833D01*
X110385Y45831D01*
X112673Y45831D01*
X104017Y45831D02*
X100356Y45831D01*
X104017Y45831D02*
X104017Y54069D01*
X100356Y54069D01*
X101271Y50408D02*
X104017Y50408D01*
X92881Y49035D02*
X87389Y51323D01*
X87389Y46746D02*
X92881Y49035D01*
X213045Y31431D02*
X215333Y31431D01*
X215405Y31433D01*
X215477Y31439D01*
X215548Y31448D01*
X215618Y31461D01*
X215688Y31478D01*
X215757Y31498D01*
X215825Y31522D01*
X215891Y31550D01*
X215956Y31581D01*
X216020Y31615D01*
X216081Y31653D01*
X216140Y31693D01*
X216197Y31737D01*
X216252Y31784D01*
X216304Y31833D01*
X216353Y31885D01*
X216400Y31940D01*
X216444Y31997D01*
X216484Y32056D01*
X216522Y32118D01*
X216556Y32181D01*
X216587Y32246D01*
X216615Y32312D01*
X216639Y32380D01*
X216659Y32449D01*
X216676Y32519D01*
X216689Y32589D01*
X216698Y32660D01*
X216704Y32732D01*
X216706Y32804D01*
X216706Y35550D01*
X216704Y35622D01*
X216698Y35694D01*
X216689Y35765D01*
X216676Y35835D01*
X216659Y35905D01*
X216639Y35974D01*
X216615Y36042D01*
X216587Y36108D01*
X216556Y36173D01*
X216522Y36237D01*
X216484Y36298D01*
X216444Y36357D01*
X216400Y36414D01*
X216353Y36469D01*
X216304Y36521D01*
X216252Y36570D01*
X216197Y36617D01*
X216140Y36661D01*
X216081Y36701D01*
X216020Y36739D01*
X215956Y36773D01*
X215891Y36804D01*
X215825Y36832D01*
X215757Y36856D01*
X215688Y36876D01*
X215618Y36893D01*
X215548Y36906D01*
X215477Y36915D01*
X215405Y36921D01*
X215333Y36923D01*
X213045Y36923D01*
X213045Y30058D01*
X213047Y29986D01*
X213053Y29914D01*
X213062Y29843D01*
X213075Y29773D01*
X213092Y29703D01*
X213112Y29634D01*
X213136Y29566D01*
X213164Y29500D01*
X213195Y29435D01*
X213229Y29372D01*
X213267Y29310D01*
X213307Y29251D01*
X213351Y29194D01*
X213398Y29139D01*
X213447Y29087D01*
X213499Y29038D01*
X213554Y28991D01*
X213611Y28947D01*
X213670Y28907D01*
X213732Y28869D01*
X213795Y28835D01*
X213860Y28804D01*
X213926Y28776D01*
X213994Y28752D01*
X214063Y28732D01*
X214133Y28715D01*
X214203Y28702D01*
X214274Y28693D01*
X214346Y28687D01*
X214418Y28685D01*
X216249Y28685D01*
X209433Y31431D02*
X209433Y36923D01*
X209662Y39211D02*
X209662Y39669D01*
X209204Y39669D01*
X209204Y39211D01*
X209662Y39211D01*
X206823Y36923D02*
X204077Y36923D01*
X205908Y39669D02*
X205908Y32804D01*
X205906Y32732D01*
X205900Y32660D01*
X205891Y32589D01*
X205878Y32519D01*
X205861Y32449D01*
X205841Y32380D01*
X205817Y32312D01*
X205789Y32246D01*
X205758Y32181D01*
X205724Y32118D01*
X205686Y32056D01*
X205646Y31997D01*
X205602Y31940D01*
X205555Y31885D01*
X205506Y31833D01*
X205454Y31784D01*
X205399Y31737D01*
X205342Y31693D01*
X205283Y31653D01*
X205222Y31615D01*
X205158Y31581D01*
X205093Y31550D01*
X205027Y31522D01*
X204959Y31498D01*
X204890Y31478D01*
X204820Y31461D01*
X204750Y31448D01*
X204679Y31439D01*
X204607Y31433D01*
X204535Y31431D01*
X204077Y31431D01*
X200733Y31431D02*
X200733Y39669D01*
X200733Y36923D02*
X198445Y36923D01*
X198373Y36921D01*
X198301Y36915D01*
X198230Y36906D01*
X198160Y36893D01*
X198090Y36876D01*
X198021Y36856D01*
X197953Y36832D01*
X197887Y36804D01*
X197822Y36773D01*
X197759Y36739D01*
X197697Y36701D01*
X197638Y36661D01*
X197581Y36617D01*
X197526Y36570D01*
X197474Y36521D01*
X197425Y36469D01*
X197378Y36414D01*
X197334Y36357D01*
X197294Y36298D01*
X197256Y36237D01*
X197222Y36173D01*
X197191Y36108D01*
X197163Y36042D01*
X197139Y35974D01*
X197119Y35905D01*
X197102Y35835D01*
X197089Y35765D01*
X197080Y35694D01*
X197074Y35622D01*
X197072Y35550D01*
X197072Y31431D01*
X193173Y32804D02*
X193173Y36923D01*
X193173Y32804D02*
X193171Y32732D01*
X193165Y32660D01*
X193156Y32589D01*
X193143Y32519D01*
X193126Y32449D01*
X193106Y32380D01*
X193082Y32312D01*
X193054Y32246D01*
X193023Y32181D01*
X192989Y32118D01*
X192951Y32056D01*
X192911Y31997D01*
X192867Y31940D01*
X192820Y31885D01*
X192771Y31833D01*
X192719Y31784D01*
X192664Y31737D01*
X192607Y31693D01*
X192548Y31653D01*
X192487Y31615D01*
X192423Y31581D01*
X192358Y31550D01*
X192292Y31522D01*
X192224Y31498D01*
X192155Y31478D01*
X192085Y31461D01*
X192015Y31448D01*
X191944Y31439D01*
X191872Y31433D01*
X191800Y31431D01*
X189512Y31431D01*
X189512Y36923D01*
X185571Y39669D02*
X185571Y31431D01*
X183282Y31431D01*
X183210Y31433D01*
X183138Y31439D01*
X183067Y31448D01*
X182997Y31461D01*
X182927Y31478D01*
X182858Y31498D01*
X182790Y31522D01*
X182724Y31550D01*
X182659Y31581D01*
X182596Y31615D01*
X182534Y31653D01*
X182475Y31693D01*
X182418Y31737D01*
X182363Y31784D01*
X182311Y31833D01*
X182262Y31885D01*
X182215Y31940D01*
X182171Y31997D01*
X182131Y32056D01*
X182093Y32118D01*
X182059Y32181D01*
X182028Y32246D01*
X182000Y32312D01*
X181976Y32380D01*
X181956Y32449D01*
X181939Y32519D01*
X181926Y32589D01*
X181917Y32660D01*
X181911Y32732D01*
X181909Y32804D01*
X181909Y35550D01*
X181911Y35622D01*
X181917Y35694D01*
X181926Y35765D01*
X181939Y35835D01*
X181956Y35905D01*
X181976Y35974D01*
X182000Y36042D01*
X182028Y36108D01*
X182059Y36173D01*
X182093Y36237D01*
X182131Y36298D01*
X182171Y36357D01*
X182215Y36414D01*
X182262Y36469D01*
X182311Y36521D01*
X182363Y36570D01*
X182418Y36617D01*
X182475Y36661D01*
X182534Y36701D01*
X182596Y36739D01*
X182659Y36773D01*
X182724Y36804D01*
X182790Y36832D01*
X182858Y36856D01*
X182927Y36876D01*
X182997Y36893D01*
X183067Y36906D01*
X183138Y36915D01*
X183210Y36921D01*
X183282Y36923D01*
X185571Y36923D01*
X178882Y31889D02*
X178882Y31431D01*
X178882Y31889D02*
X178424Y31889D01*
X178424Y31431D01*
X178882Y31431D01*
X173971Y31431D02*
X172140Y31431D01*
X173971Y31431D02*
X174043Y31433D01*
X174115Y31439D01*
X174186Y31448D01*
X174256Y31461D01*
X174326Y31478D01*
X174395Y31498D01*
X174463Y31522D01*
X174529Y31550D01*
X174594Y31581D01*
X174658Y31615D01*
X174719Y31653D01*
X174778Y31693D01*
X174835Y31737D01*
X174890Y31784D01*
X174942Y31833D01*
X174991Y31885D01*
X175038Y31940D01*
X175082Y31997D01*
X175122Y32056D01*
X175160Y32118D01*
X175194Y32181D01*
X175225Y32246D01*
X175253Y32312D01*
X175277Y32380D01*
X175297Y32449D01*
X175314Y32519D01*
X175327Y32589D01*
X175336Y32660D01*
X175342Y32732D01*
X175344Y32804D01*
X175344Y35550D01*
X175342Y35622D01*
X175336Y35694D01*
X175327Y35765D01*
X175314Y35835D01*
X175297Y35905D01*
X175277Y35974D01*
X175253Y36042D01*
X175225Y36108D01*
X175194Y36173D01*
X175160Y36237D01*
X175122Y36298D01*
X175082Y36357D01*
X175038Y36414D01*
X174991Y36469D01*
X174942Y36521D01*
X174890Y36570D01*
X174835Y36617D01*
X174778Y36661D01*
X174719Y36701D01*
X174658Y36739D01*
X174594Y36773D01*
X174529Y36804D01*
X174463Y36832D01*
X174395Y36856D01*
X174326Y36876D01*
X174256Y36893D01*
X174186Y36906D01*
X174115Y36915D01*
X174043Y36921D01*
X173971Y36923D01*
X172140Y36923D01*
X169144Y35092D02*
X169144Y33262D01*
X169144Y35092D02*
X169142Y35177D01*
X169136Y35261D01*
X169126Y35345D01*
X169113Y35428D01*
X169095Y35511D01*
X169074Y35593D01*
X169049Y35674D01*
X169020Y35753D01*
X168988Y35832D01*
X168952Y35908D01*
X168913Y35983D01*
X168870Y36056D01*
X168824Y36127D01*
X168774Y36195D01*
X168722Y36262D01*
X168666Y36326D01*
X168608Y36387D01*
X168547Y36445D01*
X168483Y36501D01*
X168416Y36553D01*
X168348Y36603D01*
X168277Y36649D01*
X168204Y36692D01*
X168129Y36731D01*
X168053Y36767D01*
X167974Y36799D01*
X167895Y36828D01*
X167814Y36853D01*
X167732Y36874D01*
X167649Y36892D01*
X167566Y36905D01*
X167482Y36915D01*
X167398Y36921D01*
X167313Y36923D01*
X167228Y36921D01*
X167144Y36915D01*
X167060Y36905D01*
X166977Y36892D01*
X166894Y36874D01*
X166812Y36853D01*
X166731Y36828D01*
X166652Y36799D01*
X166573Y36767D01*
X166497Y36731D01*
X166422Y36692D01*
X166349Y36649D01*
X166278Y36603D01*
X166210Y36553D01*
X166143Y36501D01*
X166079Y36445D01*
X166018Y36387D01*
X165960Y36326D01*
X165904Y36262D01*
X165852Y36195D01*
X165802Y36127D01*
X165756Y36056D01*
X165713Y35983D01*
X165674Y35908D01*
X165638Y35832D01*
X165606Y35753D01*
X165577Y35674D01*
X165552Y35593D01*
X165531Y35511D01*
X165513Y35428D01*
X165500Y35345D01*
X165490Y35261D01*
X165484Y35177D01*
X165482Y35092D01*
X165482Y33262D01*
X165484Y33177D01*
X165490Y33093D01*
X165500Y33009D01*
X165513Y32926D01*
X165531Y32843D01*
X165552Y32761D01*
X165577Y32680D01*
X165606Y32601D01*
X165638Y32522D01*
X165674Y32446D01*
X165713Y32371D01*
X165756Y32298D01*
X165802Y32227D01*
X165852Y32159D01*
X165904Y32092D01*
X165960Y32028D01*
X166018Y31967D01*
X166079Y31909D01*
X166143Y31853D01*
X166210Y31801D01*
X166278Y31751D01*
X166349Y31705D01*
X166422Y31662D01*
X166497Y31623D01*
X166573Y31587D01*
X166652Y31555D01*
X166731Y31526D01*
X166812Y31501D01*
X166894Y31480D01*
X166977Y31462D01*
X167060Y31449D01*
X167144Y31439D01*
X167228Y31433D01*
X167313Y31431D01*
X167398Y31433D01*
X167482Y31439D01*
X167566Y31449D01*
X167649Y31462D01*
X167732Y31480D01*
X167814Y31501D01*
X167895Y31526D01*
X167974Y31555D01*
X168053Y31587D01*
X168129Y31623D01*
X168204Y31662D01*
X168277Y31705D01*
X168348Y31751D01*
X168416Y31801D01*
X168483Y31853D01*
X168547Y31909D01*
X168608Y31967D01*
X168666Y32028D01*
X168722Y32092D01*
X168774Y32159D01*
X168824Y32227D01*
X168870Y32298D01*
X168913Y32371D01*
X168952Y32446D01*
X168988Y32522D01*
X169020Y32601D01*
X169049Y32680D01*
X169074Y32761D01*
X169095Y32843D01*
X169113Y32926D01*
X169126Y33009D01*
X169136Y33093D01*
X169142Y33177D01*
X169144Y33262D01*
X161689Y31431D02*
X161689Y36923D01*
X157570Y36923D01*
X157498Y36921D01*
X157426Y36915D01*
X157355Y36906D01*
X157285Y36893D01*
X157215Y36876D01*
X157146Y36856D01*
X157078Y36832D01*
X157012Y36804D01*
X156947Y36773D01*
X156884Y36739D01*
X156822Y36701D01*
X156763Y36661D01*
X156706Y36617D01*
X156651Y36570D01*
X156599Y36521D01*
X156550Y36469D01*
X156503Y36414D01*
X156459Y36357D01*
X156419Y36298D01*
X156381Y36237D01*
X156347Y36173D01*
X156316Y36108D01*
X156288Y36042D01*
X156264Y35974D01*
X156244Y35905D01*
X156227Y35835D01*
X156214Y35765D01*
X156205Y35694D01*
X156199Y35622D01*
X156197Y35550D01*
X156197Y31431D01*
X158943Y31431D02*
X158943Y36923D01*
X152674Y30516D02*
X149012Y40584D01*
X146029Y36923D02*
X144656Y31431D01*
X143283Y35092D01*
X141910Y31431D01*
X140537Y36923D01*
X137014Y36923D02*
X137014Y32804D01*
X137012Y32732D01*
X137006Y32660D01*
X136997Y32589D01*
X136984Y32519D01*
X136967Y32449D01*
X136947Y32380D01*
X136923Y32312D01*
X136895Y32246D01*
X136864Y32181D01*
X136830Y32118D01*
X136792Y32056D01*
X136752Y31997D01*
X136708Y31940D01*
X136661Y31885D01*
X136612Y31833D01*
X136560Y31784D01*
X136505Y31737D01*
X136448Y31693D01*
X136389Y31653D01*
X136328Y31615D01*
X136264Y31581D01*
X136199Y31550D01*
X136133Y31522D01*
X136065Y31498D01*
X135996Y31478D01*
X135926Y31461D01*
X135856Y31448D01*
X135785Y31439D01*
X135713Y31433D01*
X135641Y31431D01*
X133352Y31431D01*
X133352Y36923D01*
X129405Y36923D02*
X129405Y31431D01*
X129405Y36923D02*
X126659Y36923D01*
X126659Y36008D01*
X124743Y36923D02*
X121997Y36923D01*
X123828Y39669D02*
X123828Y32804D01*
X123826Y32732D01*
X123820Y32660D01*
X123811Y32589D01*
X123798Y32519D01*
X123781Y32449D01*
X123761Y32380D01*
X123737Y32312D01*
X123709Y32246D01*
X123678Y32181D01*
X123644Y32118D01*
X123606Y32056D01*
X123566Y31997D01*
X123522Y31940D01*
X123475Y31885D01*
X123426Y31833D01*
X123374Y31784D01*
X123319Y31737D01*
X123262Y31693D01*
X123203Y31653D01*
X123142Y31615D01*
X123078Y31581D01*
X123013Y31550D01*
X122947Y31522D01*
X122879Y31498D01*
X122810Y31478D01*
X122740Y31461D01*
X122670Y31448D01*
X122599Y31439D01*
X122527Y31433D01*
X122455Y31431D01*
X121997Y31431D01*
X118654Y31431D02*
X118654Y39669D01*
X118654Y36923D02*
X116365Y36923D01*
X116293Y36921D01*
X116221Y36915D01*
X116150Y36906D01*
X116080Y36893D01*
X116010Y36876D01*
X115941Y36856D01*
X115873Y36832D01*
X115807Y36804D01*
X115742Y36773D01*
X115679Y36739D01*
X115617Y36701D01*
X115558Y36661D01*
X115501Y36617D01*
X115446Y36570D01*
X115394Y36521D01*
X115345Y36469D01*
X115298Y36414D01*
X115254Y36357D01*
X115214Y36298D01*
X115176Y36237D01*
X115142Y36173D01*
X115111Y36108D01*
X115083Y36042D01*
X115059Y35974D01*
X115039Y35905D01*
X115022Y35835D01*
X115009Y35765D01*
X115000Y35694D01*
X114994Y35622D01*
X114992Y35550D01*
X114992Y31431D01*
X111262Y32804D02*
X111262Y39669D01*
X111262Y32804D02*
X111260Y32732D01*
X111254Y32660D01*
X111245Y32589D01*
X111232Y32519D01*
X111215Y32449D01*
X111195Y32380D01*
X111171Y32312D01*
X111143Y32246D01*
X111112Y32181D01*
X111078Y32118D01*
X111040Y32056D01*
X111000Y31997D01*
X110956Y31940D01*
X110909Y31885D01*
X110860Y31833D01*
X110808Y31784D01*
X110753Y31737D01*
X110696Y31693D01*
X110637Y31653D01*
X110576Y31615D01*
X110512Y31581D01*
X110447Y31550D01*
X110381Y31522D01*
X110313Y31498D01*
X110244Y31478D01*
X110174Y31461D01*
X110104Y31448D01*
X110033Y31439D01*
X109961Y31433D01*
X109889Y31431D01*
X105671Y31431D02*
X103382Y31431D01*
X105671Y31431D02*
X105743Y31433D01*
X105815Y31439D01*
X105886Y31448D01*
X105956Y31461D01*
X106026Y31478D01*
X106095Y31498D01*
X106163Y31522D01*
X106229Y31550D01*
X106294Y31581D01*
X106358Y31615D01*
X106419Y31653D01*
X106478Y31693D01*
X106535Y31737D01*
X106590Y31784D01*
X106642Y31833D01*
X106691Y31885D01*
X106738Y31940D01*
X106782Y31997D01*
X106822Y32056D01*
X106860Y32118D01*
X106894Y32181D01*
X106925Y32246D01*
X106953Y32312D01*
X106977Y32380D01*
X106997Y32449D01*
X107014Y32519D01*
X107027Y32589D01*
X107036Y32660D01*
X107042Y32732D01*
X107044Y32804D01*
X107044Y35092D01*
X107042Y35177D01*
X107036Y35261D01*
X107026Y35345D01*
X107013Y35428D01*
X106995Y35511D01*
X106974Y35593D01*
X106949Y35674D01*
X106920Y35753D01*
X106888Y35832D01*
X106852Y35908D01*
X106813Y35983D01*
X106770Y36056D01*
X106724Y36127D01*
X106674Y36195D01*
X106622Y36262D01*
X106566Y36326D01*
X106508Y36387D01*
X106447Y36445D01*
X106383Y36501D01*
X106316Y36553D01*
X106248Y36603D01*
X106177Y36649D01*
X106104Y36692D01*
X106029Y36731D01*
X105953Y36767D01*
X105874Y36799D01*
X105795Y36828D01*
X105714Y36853D01*
X105632Y36874D01*
X105549Y36892D01*
X105466Y36905D01*
X105382Y36915D01*
X105298Y36921D01*
X105213Y36923D01*
X105128Y36921D01*
X105044Y36915D01*
X104960Y36905D01*
X104877Y36892D01*
X104794Y36874D01*
X104712Y36853D01*
X104631Y36828D01*
X104552Y36799D01*
X104473Y36767D01*
X104397Y36731D01*
X104322Y36692D01*
X104249Y36649D01*
X104178Y36603D01*
X104110Y36553D01*
X104043Y36501D01*
X103979Y36445D01*
X103918Y36387D01*
X103860Y36326D01*
X103804Y36262D01*
X103752Y36195D01*
X103702Y36127D01*
X103656Y36056D01*
X103613Y35983D01*
X103574Y35908D01*
X103538Y35832D01*
X103506Y35753D01*
X103477Y35674D01*
X103452Y35593D01*
X103431Y35511D01*
X103413Y35428D01*
X103400Y35345D01*
X103390Y35261D01*
X103384Y35177D01*
X103382Y35092D01*
X103382Y34177D01*
X107044Y34177D01*
X99337Y34635D02*
X97049Y33719D01*
X99337Y34634D02*
X99399Y34661D01*
X99459Y34691D01*
X99517Y34724D01*
X99573Y34761D01*
X99627Y34801D01*
X99679Y34844D01*
X99728Y34890D01*
X99775Y34938D01*
X99819Y34989D01*
X99859Y35043D01*
X99897Y35098D01*
X99932Y35156D01*
X99963Y35215D01*
X99991Y35277D01*
X100015Y35339D01*
X100035Y35403D01*
X100052Y35468D01*
X100066Y35534D01*
X100075Y35601D01*
X100081Y35668D01*
X100083Y35735D01*
X100081Y35802D01*
X100076Y35869D01*
X100066Y35936D01*
X100053Y36002D01*
X100036Y36067D01*
X100015Y36131D01*
X99991Y36193D01*
X99964Y36255D01*
X99933Y36314D01*
X99898Y36372D01*
X99861Y36428D01*
X99820Y36481D01*
X99776Y36532D01*
X99730Y36581D01*
X99680Y36627D01*
X99629Y36670D01*
X99575Y36710D01*
X99519Y36747D01*
X99460Y36780D01*
X99400Y36811D01*
X99339Y36837D01*
X99276Y36861D01*
X99211Y36880D01*
X99146Y36896D01*
X99080Y36909D01*
X99013Y36917D01*
X98946Y36922D01*
X98879Y36923D01*
X98880Y36922D02*
X98738Y36919D01*
X98597Y36911D01*
X98456Y36899D01*
X98315Y36884D01*
X98175Y36864D01*
X98035Y36841D01*
X97896Y36814D01*
X97758Y36783D01*
X97620Y36749D01*
X97484Y36711D01*
X97349Y36669D01*
X97214Y36623D01*
X97082Y36574D01*
X96950Y36521D01*
X96820Y36465D01*
X97049Y33720D02*
X96987Y33693D01*
X96927Y33663D01*
X96869Y33630D01*
X96813Y33593D01*
X96759Y33553D01*
X96707Y33510D01*
X96658Y33464D01*
X96611Y33416D01*
X96567Y33365D01*
X96527Y33311D01*
X96489Y33256D01*
X96454Y33198D01*
X96423Y33139D01*
X96395Y33077D01*
X96371Y33015D01*
X96351Y32951D01*
X96334Y32886D01*
X96320Y32820D01*
X96311Y32753D01*
X96305Y32686D01*
X96303Y32619D01*
X96305Y32552D01*
X96310Y32485D01*
X96320Y32418D01*
X96333Y32352D01*
X96350Y32287D01*
X96371Y32223D01*
X96395Y32161D01*
X96422Y32099D01*
X96453Y32040D01*
X96488Y31982D01*
X96525Y31926D01*
X96566Y31873D01*
X96610Y31822D01*
X96656Y31773D01*
X96705Y31727D01*
X96757Y31684D01*
X96811Y31644D01*
X96867Y31607D01*
X96926Y31574D01*
X96986Y31543D01*
X97047Y31517D01*
X97110Y31493D01*
X97175Y31474D01*
X97240Y31458D01*
X97306Y31445D01*
X97373Y31437D01*
X97440Y31432D01*
X97507Y31431D01*
X97507Y31432D02*
X97690Y31437D01*
X97874Y31446D01*
X98057Y31459D01*
X98239Y31477D01*
X98422Y31499D01*
X98603Y31525D01*
X98784Y31556D01*
X98965Y31591D01*
X99144Y31630D01*
X99322Y31674D01*
X99499Y31721D01*
X99676Y31773D01*
X99850Y31829D01*
X100024Y31889D01*
X92317Y34635D02*
X90029Y33719D01*
X92317Y34634D02*
X92379Y34661D01*
X92439Y34691D01*
X92497Y34724D01*
X92553Y34761D01*
X92607Y34801D01*
X92659Y34844D01*
X92708Y34890D01*
X92755Y34938D01*
X92799Y34989D01*
X92839Y35043D01*
X92877Y35098D01*
X92912Y35156D01*
X92943Y35215D01*
X92971Y35277D01*
X92995Y35339D01*
X93015Y35403D01*
X93032Y35468D01*
X93046Y35534D01*
X93055Y35601D01*
X93061Y35668D01*
X93063Y35735D01*
X93061Y35802D01*
X93056Y35869D01*
X93046Y35936D01*
X93033Y36002D01*
X93016Y36067D01*
X92995Y36131D01*
X92971Y36193D01*
X92944Y36255D01*
X92913Y36314D01*
X92878Y36372D01*
X92841Y36428D01*
X92800Y36481D01*
X92756Y36532D01*
X92710Y36581D01*
X92660Y36627D01*
X92609Y36670D01*
X92555Y36710D01*
X92499Y36747D01*
X92440Y36780D01*
X92380Y36811D01*
X92319Y36837D01*
X92256Y36861D01*
X92191Y36880D01*
X92126Y36896D01*
X92060Y36909D01*
X91993Y36917D01*
X91926Y36922D01*
X91859Y36923D01*
X91860Y36922D02*
X91718Y36919D01*
X91577Y36911D01*
X91436Y36899D01*
X91295Y36884D01*
X91155Y36864D01*
X91015Y36841D01*
X90876Y36814D01*
X90738Y36783D01*
X90600Y36749D01*
X90464Y36711D01*
X90329Y36669D01*
X90194Y36623D01*
X90062Y36574D01*
X89930Y36521D01*
X89800Y36465D01*
X90029Y33720D02*
X89967Y33693D01*
X89907Y33663D01*
X89849Y33630D01*
X89793Y33593D01*
X89739Y33553D01*
X89687Y33510D01*
X89638Y33464D01*
X89591Y33416D01*
X89547Y33365D01*
X89507Y33311D01*
X89469Y33256D01*
X89434Y33198D01*
X89403Y33139D01*
X89375Y33077D01*
X89351Y33015D01*
X89331Y32951D01*
X89314Y32886D01*
X89300Y32820D01*
X89291Y32753D01*
X89285Y32686D01*
X89283Y32619D01*
X89285Y32552D01*
X89290Y32485D01*
X89300Y32418D01*
X89313Y32352D01*
X89330Y32287D01*
X89351Y32223D01*
X89375Y32161D01*
X89402Y32099D01*
X89433Y32040D01*
X89468Y31982D01*
X89505Y31926D01*
X89546Y31873D01*
X89590Y31822D01*
X89636Y31773D01*
X89685Y31727D01*
X89737Y31684D01*
X89791Y31644D01*
X89847Y31607D01*
X89906Y31574D01*
X89966Y31543D01*
X90027Y31517D01*
X90090Y31493D01*
X90155Y31474D01*
X90220Y31458D01*
X90286Y31445D01*
X90353Y31437D01*
X90420Y31432D01*
X90487Y31431D01*
X90487Y31432D02*
X90670Y31437D01*
X90854Y31446D01*
X91037Y31459D01*
X91219Y31477D01*
X91402Y31499D01*
X91583Y31525D01*
X91764Y31556D01*
X91945Y31591D01*
X92124Y31630D01*
X92302Y31674D01*
X92479Y31721D01*
X92656Y31773D01*
X92830Y31829D01*
X93004Y31889D01*
X85819Y34635D02*
X80327Y34635D01*
X75431Y31431D02*
X73142Y31431D01*
X75431Y31431D02*
X75503Y31433D01*
X75575Y31439D01*
X75646Y31448D01*
X75716Y31461D01*
X75786Y31478D01*
X75855Y31498D01*
X75923Y31522D01*
X75989Y31550D01*
X76054Y31581D01*
X76118Y31615D01*
X76179Y31653D01*
X76238Y31693D01*
X76295Y31737D01*
X76350Y31784D01*
X76402Y31833D01*
X76451Y31885D01*
X76498Y31940D01*
X76542Y31997D01*
X76582Y32056D01*
X76620Y32118D01*
X76654Y32181D01*
X76685Y32246D01*
X76713Y32312D01*
X76737Y32380D01*
X76757Y32449D01*
X76774Y32519D01*
X76787Y32589D01*
X76796Y32660D01*
X76802Y32732D01*
X76804Y32804D01*
X76804Y35092D01*
X76802Y35177D01*
X76796Y35261D01*
X76786Y35345D01*
X76773Y35428D01*
X76755Y35511D01*
X76734Y35593D01*
X76709Y35674D01*
X76680Y35753D01*
X76648Y35832D01*
X76612Y35908D01*
X76573Y35983D01*
X76530Y36056D01*
X76484Y36127D01*
X76434Y36195D01*
X76382Y36262D01*
X76326Y36326D01*
X76268Y36387D01*
X76207Y36445D01*
X76143Y36501D01*
X76076Y36553D01*
X76008Y36603D01*
X75937Y36649D01*
X75864Y36692D01*
X75789Y36731D01*
X75713Y36767D01*
X75634Y36799D01*
X75555Y36828D01*
X75474Y36853D01*
X75392Y36874D01*
X75309Y36892D01*
X75226Y36905D01*
X75142Y36915D01*
X75058Y36921D01*
X74973Y36923D01*
X74888Y36921D01*
X74804Y36915D01*
X74720Y36905D01*
X74637Y36892D01*
X74554Y36874D01*
X74472Y36853D01*
X74391Y36828D01*
X74312Y36799D01*
X74233Y36767D01*
X74157Y36731D01*
X74082Y36692D01*
X74009Y36649D01*
X73938Y36603D01*
X73870Y36553D01*
X73803Y36501D01*
X73739Y36445D01*
X73678Y36387D01*
X73620Y36326D01*
X73564Y36262D01*
X73512Y36195D01*
X73462Y36127D01*
X73416Y36056D01*
X73373Y35983D01*
X73334Y35908D01*
X73298Y35832D01*
X73266Y35753D01*
X73237Y35674D01*
X73212Y35593D01*
X73191Y35511D01*
X73173Y35428D01*
X73160Y35345D01*
X73150Y35261D01*
X73144Y35177D01*
X73142Y35092D01*
X73142Y34177D01*
X76804Y34177D01*
X69682Y32804D02*
X69682Y39669D01*
X69682Y32804D02*
X69680Y32732D01*
X69674Y32660D01*
X69665Y32589D01*
X69652Y32519D01*
X69635Y32449D01*
X69615Y32380D01*
X69591Y32312D01*
X69563Y32246D01*
X69532Y32181D01*
X69498Y32118D01*
X69460Y32056D01*
X69420Y31997D01*
X69376Y31940D01*
X69329Y31885D01*
X69280Y31833D01*
X69228Y31784D01*
X69173Y31737D01*
X69116Y31693D01*
X69057Y31653D01*
X68996Y31615D01*
X68932Y31581D01*
X68867Y31550D01*
X68801Y31522D01*
X68733Y31498D01*
X68664Y31478D01*
X68594Y31461D01*
X68524Y31448D01*
X68453Y31439D01*
X68381Y31433D01*
X68309Y31431D01*
X64091Y31431D02*
X61802Y31431D01*
X64091Y31431D02*
X64163Y31433D01*
X64235Y31439D01*
X64306Y31448D01*
X64376Y31461D01*
X64446Y31478D01*
X64515Y31498D01*
X64583Y31522D01*
X64649Y31550D01*
X64714Y31581D01*
X64778Y31615D01*
X64839Y31653D01*
X64898Y31693D01*
X64955Y31737D01*
X65010Y31784D01*
X65062Y31833D01*
X65111Y31885D01*
X65158Y31940D01*
X65202Y31997D01*
X65242Y32056D01*
X65280Y32118D01*
X65314Y32181D01*
X65345Y32246D01*
X65373Y32312D01*
X65397Y32380D01*
X65417Y32449D01*
X65434Y32519D01*
X65447Y32589D01*
X65456Y32660D01*
X65462Y32732D01*
X65464Y32804D01*
X65464Y35092D01*
X65462Y35177D01*
X65456Y35261D01*
X65446Y35345D01*
X65433Y35428D01*
X65415Y35511D01*
X65394Y35593D01*
X65369Y35674D01*
X65340Y35753D01*
X65308Y35832D01*
X65272Y35908D01*
X65233Y35983D01*
X65190Y36056D01*
X65144Y36127D01*
X65094Y36195D01*
X65042Y36262D01*
X64986Y36326D01*
X64928Y36387D01*
X64867Y36445D01*
X64803Y36501D01*
X64736Y36553D01*
X64668Y36603D01*
X64597Y36649D01*
X64524Y36692D01*
X64449Y36731D01*
X64373Y36767D01*
X64294Y36799D01*
X64215Y36828D01*
X64134Y36853D01*
X64052Y36874D01*
X63969Y36892D01*
X63886Y36905D01*
X63802Y36915D01*
X63718Y36921D01*
X63633Y36923D01*
X63548Y36921D01*
X63464Y36915D01*
X63380Y36905D01*
X63297Y36892D01*
X63214Y36874D01*
X63132Y36853D01*
X63051Y36828D01*
X62972Y36799D01*
X62893Y36767D01*
X62817Y36731D01*
X62742Y36692D01*
X62669Y36649D01*
X62598Y36603D01*
X62530Y36553D01*
X62463Y36501D01*
X62399Y36445D01*
X62338Y36387D01*
X62280Y36326D01*
X62224Y36262D01*
X62172Y36195D01*
X62122Y36127D01*
X62076Y36056D01*
X62033Y35983D01*
X61994Y35908D01*
X61958Y35832D01*
X61926Y35753D01*
X61897Y35674D01*
X61872Y35593D01*
X61851Y35511D01*
X61833Y35428D01*
X61820Y35345D01*
X61810Y35261D01*
X61804Y35177D01*
X61802Y35092D01*
X61802Y34177D01*
X65464Y34177D01*
X58075Y31431D02*
X58075Y39669D01*
X54414Y36923D02*
X58075Y34177D01*
X56473Y35321D02*
X54414Y31431D01*
X52113Y36923D02*
X49367Y36923D01*
X51198Y39669D02*
X51198Y32804D01*
X51196Y32732D01*
X51190Y32660D01*
X51181Y32589D01*
X51168Y32519D01*
X51151Y32449D01*
X51131Y32380D01*
X51107Y32312D01*
X51079Y32246D01*
X51048Y32181D01*
X51014Y32118D01*
X50976Y32056D01*
X50936Y31997D01*
X50892Y31940D01*
X50845Y31885D01*
X50796Y31833D01*
X50744Y31784D01*
X50689Y31737D01*
X50632Y31693D01*
X50573Y31653D01*
X50512Y31615D01*
X50448Y31581D01*
X50383Y31550D01*
X50317Y31522D01*
X50249Y31498D01*
X50180Y31478D01*
X50110Y31461D01*
X50040Y31448D01*
X49969Y31439D01*
X49897Y31433D01*
X49825Y31431D01*
X49367Y31431D01*
X45975Y31431D02*
X45975Y36923D01*
X43229Y36923D01*
X43229Y36008D01*
X40624Y35092D02*
X40624Y33262D01*
X40624Y35092D02*
X40622Y35177D01*
X40616Y35261D01*
X40606Y35345D01*
X40593Y35428D01*
X40575Y35511D01*
X40554Y35593D01*
X40529Y35674D01*
X40500Y35753D01*
X40468Y35832D01*
X40432Y35908D01*
X40393Y35983D01*
X40350Y36056D01*
X40304Y36127D01*
X40254Y36195D01*
X40202Y36262D01*
X40146Y36326D01*
X40088Y36387D01*
X40027Y36445D01*
X39963Y36501D01*
X39896Y36553D01*
X39828Y36603D01*
X39757Y36649D01*
X39684Y36692D01*
X39609Y36731D01*
X39533Y36767D01*
X39454Y36799D01*
X39375Y36828D01*
X39294Y36853D01*
X39212Y36874D01*
X39129Y36892D01*
X39046Y36905D01*
X38962Y36915D01*
X38878Y36921D01*
X38793Y36923D01*
X38708Y36921D01*
X38624Y36915D01*
X38540Y36905D01*
X38457Y36892D01*
X38374Y36874D01*
X38292Y36853D01*
X38211Y36828D01*
X38132Y36799D01*
X38053Y36767D01*
X37977Y36731D01*
X37902Y36692D01*
X37829Y36649D01*
X37758Y36603D01*
X37690Y36553D01*
X37623Y36501D01*
X37559Y36445D01*
X37498Y36387D01*
X37440Y36326D01*
X37384Y36262D01*
X37332Y36195D01*
X37282Y36127D01*
X37236Y36056D01*
X37193Y35983D01*
X37154Y35908D01*
X37118Y35832D01*
X37086Y35753D01*
X37057Y35674D01*
X37032Y35593D01*
X37011Y35511D01*
X36993Y35428D01*
X36980Y35345D01*
X36970Y35261D01*
X36964Y35177D01*
X36962Y35092D01*
X36962Y33262D01*
X36964Y33177D01*
X36970Y33093D01*
X36980Y33009D01*
X36993Y32926D01*
X37011Y32843D01*
X37032Y32761D01*
X37057Y32680D01*
X37086Y32601D01*
X37118Y32522D01*
X37154Y32446D01*
X37193Y32371D01*
X37236Y32298D01*
X37282Y32227D01*
X37332Y32159D01*
X37384Y32092D01*
X37440Y32028D01*
X37498Y31967D01*
X37559Y31909D01*
X37623Y31853D01*
X37690Y31801D01*
X37758Y31751D01*
X37829Y31705D01*
X37902Y31662D01*
X37977Y31623D01*
X38053Y31587D01*
X38132Y31555D01*
X38211Y31526D01*
X38292Y31501D01*
X38374Y31480D01*
X38457Y31462D01*
X38540Y31449D01*
X38624Y31439D01*
X38708Y31433D01*
X38793Y31431D01*
X38878Y31433D01*
X38962Y31439D01*
X39046Y31449D01*
X39129Y31462D01*
X39212Y31480D01*
X39294Y31501D01*
X39375Y31526D01*
X39454Y31555D01*
X39533Y31587D01*
X39609Y31623D01*
X39684Y31662D01*
X39757Y31705D01*
X39828Y31751D01*
X39896Y31801D01*
X39963Y31853D01*
X40027Y31909D01*
X40088Y31967D01*
X40146Y32028D01*
X40202Y32092D01*
X40254Y32159D01*
X40304Y32227D01*
X40350Y32298D01*
X40393Y32371D01*
X40432Y32446D01*
X40468Y32522D01*
X40500Y32601D01*
X40529Y32680D01*
X40554Y32761D01*
X40575Y32843D01*
X40593Y32926D01*
X40606Y33009D01*
X40616Y33093D01*
X40622Y33177D01*
X40624Y33262D01*
X33334Y31431D02*
X33334Y36923D01*
X31045Y36923D01*
X30973Y36921D01*
X30901Y36915D01*
X30830Y36906D01*
X30760Y36893D01*
X30690Y36876D01*
X30621Y36856D01*
X30553Y36832D01*
X30487Y36804D01*
X30422Y36773D01*
X30359Y36739D01*
X30297Y36701D01*
X30238Y36661D01*
X30181Y36617D01*
X30126Y36570D01*
X30074Y36521D01*
X30025Y36469D01*
X29978Y36414D01*
X29934Y36357D01*
X29894Y36298D01*
X29856Y36237D01*
X29822Y36173D01*
X29791Y36108D01*
X29763Y36042D01*
X29739Y35974D01*
X29719Y35905D01*
X29702Y35835D01*
X29689Y35765D01*
X29680Y35694D01*
X29674Y35622D01*
X29672Y35550D01*
X29672Y31431D01*
X26103Y31431D02*
X26103Y36923D01*
X26332Y39211D02*
X26332Y39669D01*
X25874Y39669D01*
X25874Y39211D01*
X26332Y39211D01*
X22435Y39669D02*
X22435Y31431D01*
X22435Y34177D02*
X18774Y36923D01*
X20833Y35321D02*
X18774Y31431D01*
X15097Y34635D02*
X12809Y33719D01*
X15098Y34634D02*
X15160Y34661D01*
X15220Y34691D01*
X15278Y34724D01*
X15334Y34761D01*
X15388Y34801D01*
X15440Y34844D01*
X15489Y34890D01*
X15536Y34938D01*
X15580Y34989D01*
X15620Y35043D01*
X15658Y35098D01*
X15693Y35156D01*
X15724Y35215D01*
X15752Y35277D01*
X15776Y35339D01*
X15796Y35403D01*
X15813Y35468D01*
X15827Y35534D01*
X15836Y35601D01*
X15842Y35668D01*
X15844Y35735D01*
X15842Y35802D01*
X15837Y35869D01*
X15827Y35936D01*
X15814Y36002D01*
X15797Y36067D01*
X15776Y36131D01*
X15752Y36193D01*
X15725Y36255D01*
X15694Y36314D01*
X15659Y36372D01*
X15622Y36428D01*
X15581Y36481D01*
X15537Y36532D01*
X15491Y36581D01*
X15441Y36627D01*
X15390Y36670D01*
X15336Y36710D01*
X15280Y36747D01*
X15221Y36780D01*
X15161Y36811D01*
X15100Y36837D01*
X15037Y36861D01*
X14972Y36880D01*
X14907Y36896D01*
X14841Y36909D01*
X14774Y36917D01*
X14707Y36922D01*
X14640Y36923D01*
X14640Y36922D02*
X14498Y36919D01*
X14357Y36911D01*
X14216Y36899D01*
X14075Y36884D01*
X13935Y36864D01*
X13795Y36841D01*
X13656Y36814D01*
X13518Y36783D01*
X13380Y36749D01*
X13244Y36711D01*
X13109Y36669D01*
X12974Y36623D01*
X12842Y36574D01*
X12710Y36521D01*
X12580Y36465D01*
X12809Y33720D02*
X12747Y33693D01*
X12687Y33663D01*
X12629Y33630D01*
X12573Y33593D01*
X12519Y33553D01*
X12467Y33510D01*
X12418Y33464D01*
X12371Y33416D01*
X12327Y33365D01*
X12287Y33311D01*
X12249Y33256D01*
X12214Y33198D01*
X12183Y33139D01*
X12155Y33077D01*
X12131Y33015D01*
X12111Y32951D01*
X12094Y32886D01*
X12080Y32820D01*
X12071Y32753D01*
X12065Y32686D01*
X12063Y32619D01*
X12065Y32552D01*
X12070Y32485D01*
X12080Y32418D01*
X12093Y32352D01*
X12110Y32287D01*
X12131Y32223D01*
X12155Y32161D01*
X12182Y32099D01*
X12213Y32040D01*
X12248Y31982D01*
X12285Y31926D01*
X12326Y31873D01*
X12370Y31822D01*
X12416Y31773D01*
X12465Y31727D01*
X12517Y31684D01*
X12571Y31644D01*
X12627Y31607D01*
X12686Y31574D01*
X12746Y31543D01*
X12807Y31517D01*
X12870Y31493D01*
X12935Y31474D01*
X13000Y31458D01*
X13066Y31445D01*
X13133Y31437D01*
X13200Y31432D01*
X13267Y31431D01*
X13267Y31432D02*
X13450Y31437D01*
X13634Y31446D01*
X13817Y31459D01*
X13999Y31477D01*
X14182Y31499D01*
X14363Y31525D01*
X14544Y31556D01*
X14725Y31591D01*
X14904Y31630D01*
X15082Y31674D01*
X15259Y31721D01*
X15436Y31773D01*
X15610Y31829D01*
X15784Y31889D01*
M02*
