G04 EAGLE Gerber RS-274X export*
G75*
%MOMM*%
%FSLAX34Y34*%
%LPD*%
%INSilkscreen Top*%
%IPPOS*%
%AMOC8*
5,1,8,0,0,1.08239X$1,22.5*%
G01*
%ADD10C,0.076200*%
%ADD11C,0.127000*%


D10*
X720250Y69413D02*
X723524Y78415D01*
X726747Y77597D02*
X726747Y70231D01*
X729202Y73505D02*
X726747Y77597D01*
X729202Y73505D02*
X731657Y77597D01*
X731657Y70231D01*
X735498Y70231D02*
X735498Y77597D01*
X737544Y77597D01*
X737633Y77595D01*
X737722Y77589D01*
X737811Y77579D01*
X737899Y77566D01*
X737987Y77549D01*
X738074Y77527D01*
X738159Y77502D01*
X738244Y77474D01*
X738327Y77441D01*
X738409Y77405D01*
X738489Y77366D01*
X738567Y77323D01*
X738643Y77277D01*
X738718Y77227D01*
X738790Y77174D01*
X738859Y77118D01*
X738926Y77059D01*
X738991Y76998D01*
X739052Y76933D01*
X739111Y76866D01*
X739167Y76797D01*
X739220Y76725D01*
X739270Y76650D01*
X739316Y76574D01*
X739359Y76496D01*
X739398Y76416D01*
X739434Y76334D01*
X739467Y76251D01*
X739495Y76166D01*
X739520Y76081D01*
X739542Y75994D01*
X739559Y75906D01*
X739572Y75818D01*
X739582Y75729D01*
X739588Y75640D01*
X739590Y75551D01*
X739588Y75462D01*
X739582Y75373D01*
X739572Y75284D01*
X739559Y75196D01*
X739542Y75108D01*
X739520Y75021D01*
X739495Y74936D01*
X739467Y74851D01*
X739434Y74768D01*
X739398Y74686D01*
X739359Y74606D01*
X739316Y74528D01*
X739270Y74452D01*
X739220Y74377D01*
X739167Y74305D01*
X739111Y74236D01*
X739052Y74169D01*
X738991Y74104D01*
X738926Y74043D01*
X738859Y73984D01*
X738790Y73928D01*
X738718Y73875D01*
X738643Y73825D01*
X738567Y73779D01*
X738489Y73736D01*
X738409Y73697D01*
X738327Y73661D01*
X738244Y73628D01*
X738159Y73600D01*
X738074Y73575D01*
X737987Y73553D01*
X737899Y73536D01*
X737811Y73523D01*
X737722Y73513D01*
X737633Y73507D01*
X737544Y73505D01*
X735498Y73505D01*
X737953Y73505D02*
X739590Y70231D01*
X743021Y70231D02*
X746295Y70231D01*
X743021Y70231D02*
X743021Y77597D01*
X746295Y77597D01*
X745477Y74323D02*
X743021Y74323D01*
X751313Y70231D02*
X751391Y70233D01*
X751469Y70238D01*
X751546Y70248D01*
X751623Y70261D01*
X751699Y70277D01*
X751774Y70297D01*
X751848Y70321D01*
X751921Y70348D01*
X751993Y70379D01*
X752063Y70413D01*
X752132Y70450D01*
X752198Y70491D01*
X752263Y70535D01*
X752325Y70581D01*
X752385Y70631D01*
X752443Y70683D01*
X752498Y70738D01*
X752550Y70796D01*
X752600Y70856D01*
X752646Y70918D01*
X752690Y70983D01*
X752731Y71050D01*
X752768Y71118D01*
X752802Y71188D01*
X752833Y71260D01*
X752860Y71333D01*
X752884Y71407D01*
X752904Y71482D01*
X752920Y71558D01*
X752933Y71635D01*
X752943Y71712D01*
X752948Y71790D01*
X752950Y71868D01*
X751313Y70231D02*
X751199Y70233D01*
X751086Y70238D01*
X750972Y70248D01*
X750859Y70261D01*
X750747Y70278D01*
X750635Y70298D01*
X750524Y70322D01*
X750413Y70350D01*
X750304Y70381D01*
X750196Y70416D01*
X750089Y70455D01*
X749983Y70497D01*
X749879Y70542D01*
X749776Y70591D01*
X749675Y70644D01*
X749576Y70699D01*
X749478Y70758D01*
X749383Y70820D01*
X749290Y70885D01*
X749198Y70953D01*
X749110Y71024D01*
X749023Y71098D01*
X748939Y71175D01*
X748858Y71254D01*
X749062Y75960D02*
X749064Y76038D01*
X749069Y76116D01*
X749079Y76193D01*
X749092Y76270D01*
X749108Y76346D01*
X749128Y76421D01*
X749152Y76495D01*
X749179Y76568D01*
X749210Y76640D01*
X749244Y76710D01*
X749281Y76779D01*
X749322Y76845D01*
X749366Y76910D01*
X749412Y76972D01*
X749462Y77032D01*
X749514Y77090D01*
X749569Y77145D01*
X749627Y77197D01*
X749687Y77247D01*
X749749Y77293D01*
X749814Y77337D01*
X749881Y77378D01*
X749949Y77415D01*
X750019Y77449D01*
X750091Y77480D01*
X750164Y77507D01*
X750238Y77531D01*
X750313Y77551D01*
X750389Y77567D01*
X750466Y77580D01*
X750543Y77590D01*
X750621Y77595D01*
X750699Y77597D01*
X750809Y77595D01*
X750918Y77589D01*
X751028Y77579D01*
X751136Y77566D01*
X751245Y77548D01*
X751352Y77527D01*
X751459Y77501D01*
X751565Y77472D01*
X751670Y77440D01*
X751773Y77403D01*
X751875Y77363D01*
X751976Y77319D01*
X752075Y77271D01*
X752172Y77221D01*
X752267Y77166D01*
X752360Y77108D01*
X752451Y77047D01*
X752540Y76983D01*
X749881Y74527D02*
X749814Y74569D01*
X749749Y74613D01*
X749687Y74661D01*
X749627Y74711D01*
X749569Y74764D01*
X749514Y74820D01*
X749462Y74879D01*
X749412Y74939D01*
X749365Y75003D01*
X749322Y75068D01*
X749281Y75135D01*
X749244Y75204D01*
X749210Y75275D01*
X749179Y75347D01*
X749152Y75421D01*
X749128Y75495D01*
X749108Y75571D01*
X749092Y75648D01*
X749079Y75725D01*
X749069Y75803D01*
X749064Y75882D01*
X749062Y75960D01*
X752132Y73300D02*
X752198Y73258D01*
X752263Y73214D01*
X752325Y73167D01*
X752385Y73116D01*
X752443Y73063D01*
X752498Y73007D01*
X752551Y72949D01*
X752600Y72888D01*
X752647Y72825D01*
X752690Y72760D01*
X752731Y72693D01*
X752768Y72624D01*
X752802Y72553D01*
X752833Y72481D01*
X752860Y72407D01*
X752884Y72332D01*
X752904Y72257D01*
X752920Y72180D01*
X752933Y72103D01*
X752943Y72025D01*
X752948Y71946D01*
X752950Y71868D01*
X752131Y73300D02*
X749881Y74528D01*
D11*
X177760Y53100D02*
X177760Y23100D01*
X87435Y57550D02*
X15325Y57550D01*
X33215Y5950D02*
X87435Y5950D01*
M02*
